<svg width="1512" height="2268" xmlns="http://www.w3.org/2000/svg" xmlns:xlink="http://www.w3.org/1999/xlink" overflow="hidden"><defs><clipPath id="clip0"><rect x="0" y="0" width="1512" height="2268"/></clipPath></defs><g clip-path="url(#clip0)"><rect x="0" y="0" width="1512" height="2268.08" fill="#FFFFFF"/><rect x="29" y="51.0018" width="1454" height="2211.08" fill="#D7DDDB"/><rect x="61.5" y="58.5021" width="550" height="49.0018" stroke="#0D0D0D" stroke-width="1.33348" stroke-miterlimit="8" fill="#A6A6A6"/><text font-family="Open Sans,Open Sans_MSFontService,sans-serif" font-weight="400" font-size="43" transform="matrix(1 0 0 1.00004 256.469 97)">main.py</text><rect x="201.5" y="512.519" width="700" height="35.0013" stroke="#FFE699" stroke-width="0.66674" stroke-miterlimit="8" fill="#FFF2CC"/><text font-family="Consolas,Consolas_MSFontService,sans-serif" font-weight="400" font-size="32" transform="matrix(1 0 0 1.00004 210.981 541)">execute_script</text><text font-family="Consolas,Consolas_MSFontService,sans-serif" font-weight="400" font-size="32" transform="matrix(1 0 0 1.00004 460.675 541)">()</text><rect x="201.5" y="167.506" width="700" height="34.0012" stroke="#FFE699" stroke-width="0.66674" stroke-miterlimit="8" fill="#FFF2CC"/><text font-family="Consolas,Consolas_MSFontService,sans-serif" font-weight="400" font-size="32" transform="matrix(1 0 0 1.00004 210.981 195)">execute_notebook</text><text font-family="Consolas,Consolas_MSFontService,sans-serif" font-weight="400" font-size="32" transform="matrix(1 0 0 1.00004 496.346 195)">()</text><rect x="482.5" y="277.51" width="699" height="34.0012" stroke="#FFE699" stroke-width="1.00011" stroke-miterlimit="8" fill="#FFF2CC"/><text font-family="Consolas,Consolas_MSFontService,sans-serif" font-weight="400" font-size="32" transform="matrix(1 0 0 1.00004 491.58 305)">get_market_data</text><text font-family="Consolas,Consolas_MSFontService,sans-serif" font-weight="400" font-size="32" transform="matrix(1 0 0 1.00004 759.109 305)">()</text><rect x="482.5" y="322.512" width="699" height="35.0013" stroke="#FFE699" stroke-width="1.00011" stroke-miterlimit="8" fill="#FFF2CC"/><text font-family="Consolas,Consolas_MSFontService,sans-serif" font-weight="400" font-size="32" transform="matrix(1 0 0 1.00004 491.58 351)">read_tickers_and_isins</text><text font-family="Consolas,Consolas_MSFontService,sans-serif" font-weight="400" font-size="32" transform="matrix(1 0 0 1.00004 883.956 351)">()</text><rect x="482.5" y="368.514" width="699" height="35.0013" stroke="#FFE699" stroke-width="1.00011" stroke-miterlimit="8" fill="#FFF2CC"/><text font-family="Consolas,Consolas_MSFontService,sans-serif" font-weight="400" font-size="32" transform="matrix(1 0 0 1.00004 491.58 397)">get_all_directors_dealings_async</text><text font-family="Consolas,Consolas_MSFontService,sans-serif" font-weight="400" font-size="32" transform="matrix(1 0 0 1.00004 1062.31 397)">()</text><rect x="482.5" y="414.515" width="699" height="34.0013" stroke="#FFE699" stroke-width="1.00011" stroke-miterlimit="8" fill="#FFF2CC"/><text font-family="Consolas,Consolas_MSFontService,sans-serif" font-weight="400" font-size="32" transform="matrix(1 0 0 1.00004 491.58 443)">preprocess_directors_dealings</text><text font-family="Consolas,Consolas_MSFontService,sans-serif" font-weight="400" font-size="32" transform="matrix(1 0 0 1.00004 1008.8 443)">()</text><rect x="482.5" y="461.517" width="699" height="34.0012" stroke="#FFE699" stroke-width="1.00011" stroke-miterlimit="8" fill="#FFF2CC"/><text font-family="Consolas,Consolas_MSFontService,sans-serif" font-weight="400" font-size="32" transform="matrix(1 0 0 1.00004 491.58 490)">Preprocess_timeseries_from_excel</text><text font-family="Consolas,Consolas_MSFontService,sans-serif" font-weight="400" font-size="32" transform="matrix(1 0 0 1.00004 1062.31 490)">()</text><rect x="482.5" y="621.523" width="699" height="35.0013" stroke="#FFE699" stroke-width="0.66674" stroke-miterlimit="8" fill="#FFF2CC"/><text font-family="Consolas,Consolas_MSFontService,sans-serif" font-weight="400" font-size="32" transform="matrix(1 0 0 1.00004 491.58 650)">tools.load_settings</text><text font-family="Consolas,Consolas_MSFontService,sans-serif" font-weight="400" font-size="32" transform="matrix(1 0 0 1.00004 830.45 650)">()</text><rect x="201.5" y="121.504" width="700" height="34.0012" stroke="#FFE699" stroke-width="0.66674" stroke-miterlimit="8" fill="#FFF2CC"/><text font-family="Consolas,Consolas_MSFontService,sans-serif" font-weight="400" font-size="32" transform="matrix(1 0 0 1.00004 210.981 149)">tools.set_settings</text><text font-family="Consolas,Consolas_MSFontService,sans-serif" font-weight="400" font-size="32" transform="matrix(1 0 0 1.00004 532.016 149)">()</text><rect x="482.5" y="667.525" width="699" height="35.0013" stroke="#FFE699" stroke-width="1.00011" stroke-miterlimit="8" fill="#FFF2CC"/><text font-family="Consolas,Consolas_MSFontService,sans-serif" font-weight="400" font-size="32" transform="matrix(1 0 0 1.00004 491.58 696)">read_tickers_and_isins</text><text font-family="Consolas,Consolas_MSFontService,sans-serif" font-weight="400" font-size="32" transform="matrix(1 0 0 1.00004 883.956 696)">()</text><rect x="342.5" y="1223.54" width="855" height="49.0017" stroke="#0D0D0D" stroke-width="1.33348" stroke-miterlimit="8" fill="#A6A6A6"/><text font-family="Open Sans,Open Sans_MSFontService,sans-serif" font-weight="400" font-size="43" transform="matrix(1 0 0 1.00004 584.727 1262)">calculate_AR.ipynb</text><rect x="342.5" y="1810.57" width="855" height="49.0017" stroke="#0D0D0D" stroke-width="1.33348" stroke-miterlimit="8" fill="#A6A6A6"/><text font-family="Open Sans,Open Sans_MSFontService,sans-serif" font-weight="400" font-size="43" transform="matrix(1 0 0 1.00004 620.731 1849)">Statistics.ipynb</text><rect x="342.5" y="2172.58" width="855" height="50.0017" stroke="#0D0D0D" stroke-width="1.33348" stroke-miterlimit="8" fill="#A6A6A6"/><text font-family="Open Sans,Open Sans_MSFontService,sans-serif" font-weight="400" font-size="43" transform="matrix(1 0 0 1.00004 572.059 2212)">DisplayTables.ipynb</text><rect x="342.5" y="214.508" width="855" height="49.0018" stroke="#0D0D0D" stroke-width="1.33348" stroke-miterlimit="8" fill="#A6A6A6"/><text font-family="Open Sans,Open Sans_MSFontService,sans-serif" font-weight="400" font-size="43" transform="matrix(1 0 0 1.00004 598.812 253)">preprocessing.py</text><rect x="342.5" y="557.52" width="855" height="49.0018" stroke="#0D0D0D" stroke-width="1.33348" stroke-miterlimit="8" fill="#A6A6A6"/><text font-family="Open Sans,Open Sans_MSFontService,sans-serif" font-weight="400" font-size="43" transform="matrix(1 0 0 1.00004 495.418 596)">CompaniesToExclude.ipynb</text><rect x="482.5" y="713.526" width="699" height="35.0013" stroke="#8FAADC" stroke-width="1.00011" stroke-miterlimit="8" fill="#B4C7E7"/><text font-family="Consolas,Consolas_MSFontService,sans-serif" font-weight="400" font-size="32" transform="matrix(1 0 0 1.00004 491.58 742)">Read in Trades</text><rect x="482.5" y="759.528" width="699" height="34.0012" stroke="#8FAADC" stroke-width="1.00011" stroke-miterlimit="8" fill="#B4C7E7"/><text font-family="Consolas,Consolas_MSFontService,sans-serif" font-weight="400" font-size="32" transform="matrix(1 0 0 1.00004 491.58 788)">Read in Time Series</text><rect x="482.5" y="805.53" width="699" height="34.0012" stroke="#C55A11" stroke-width="1.00011" stroke-miterlimit="8" fill="#F8CBAD"/><text font-family="Consolas,Consolas_MSFontService,sans-serif" font-weight="400" font-size="32" transform="matrix(1 0 0 1.00004 491.58 834)">Check if contains zeros or INFSs</text><rect x="482.5" y="851.531" width="699" height="34.0013" stroke="#C55A11" stroke-width="1.00011" stroke-miterlimit="8" fill="#F8CBAD"/><text font-family="Consolas,Consolas_MSFontService,sans-serif" font-weight="400" font-size="32" transform="matrix(1 0 0 1.00004 491.58 880)">Remove Companies without ISINs</text><rect x="482.5" y="897.533" width="699" height="34.0012" stroke="#C55A11" stroke-width="1.00011" stroke-miterlimit="8" fill="#F8CBAD"/><text font-family="Consolas,Consolas_MSFontService,sans-serif" font-weight="400" font-size="32" transform="matrix(1 0 0 1.00004 491.58 925)">Remove Companies without Trades</text><rect x="482.5" y="942.535" width="699" height="35.0013" stroke="#C55A11" stroke-width="1.00011" stroke-miterlimit="8" fill="#F8CBAD"/><text font-family="Consolas,Consolas_MSFontService,sans-serif" font-weight="400" font-size="32" transform="matrix(1 0 0 1.00004 491.58 971)">Remove Companies without Return Index</text><rect x="482.5" y="988.536" width="699" height="35.0013" stroke="#C55A11" stroke-width="1.00011" stroke-miterlimit="8" fill="#F8CBAD"/><text font-family="Consolas,Consolas_MSFontService,sans-serif" font-weight="400" font-size="32" transform="matrix(1 0 0 1.00004 491.58 1017)">Remove Companies with RI errors</text><rect x="482.5" y="1034.54" width="699" height="35.0013" stroke="#C55A11" stroke-width="1.00011" stroke-miterlimit="8" fill="#F8CBAD"/><text font-family="Consolas,Consolas_MSFontService,sans-serif" font-weight="400" font-size="32" transform="matrix(1 0 0 1.00004 491.58 1063)">Non Unique tickers</text><rect x="482.5" y="1080.54" width="699" height="35.0012" stroke="#C55A11" stroke-width="1.00011" stroke-miterlimit="8" fill="#F8CBAD"/><text font-family="Consolas,Consolas_MSFontService,sans-serif" font-weight="400" font-size="32" transform="matrix(1 0 0 1.00004 491.58 1109)">NA Tickers</text><rect x="482.5" y="1126.54" width="699" height="34.0012" stroke="#8FAADC" stroke-width="1.00011" stroke-miterlimit="8" fill="#B4C7E7"/><text font-family="Consolas,Consolas_MSFontService,sans-serif" font-weight="400" font-size="32" transform="matrix(1 0 0 1.00004 491.58 1155)">Generate Summary and save</text><rect x="482.5" y="1287.55" width="699" height="34.0012" stroke="#FFE699" stroke-width="0.66674" stroke-miterlimit="8" fill="#FFF2CC"/><text font-family="Consolas,Consolas_MSFontService,sans-serif" font-weight="400" font-size="32" transform="matrix(1 0 0 1.00004 491.58 1316)">tools.load_settings</text><text font-family="Consolas,Consolas_MSFontService,sans-serif" font-weight="400" font-size="32" transform="matrix(1 0 0 1.00004 830.45 1316)">()</text><rect x="482.5" y="1332.55" width="699" height="35.0013" stroke="#8FAADC" stroke-width="1.00011" stroke-miterlimit="8" fill="#B4C7E7"/><text font-family="Consolas,Consolas_MSFontService,sans-serif" font-weight="400" font-size="32" transform="matrix(1 0 0 1.00004 491.58 1361)">Read in companies</text><rect x="482.5" y="1378.55" width="699" height="35.0012" stroke="#8FAADC" stroke-width="1.00011" stroke-miterlimit="8" fill="#B4C7E7"/><text font-family="Consolas,Consolas_MSFontService,sans-serif" font-weight="400" font-size="32" transform="matrix(1 0 0 1.00004 491.58 1407)">Reduce Companies</text><rect x="482.5" y="1424.55" width="699" height="34.0012" stroke="#C55A11" stroke-width="1.00011" stroke-miterlimit="8" fill="#F8CBAD"/><text font-family="Consolas,Consolas_MSFontService,sans-serif" font-weight="400" font-size="32" transform="matrix(1 0 0 1.00004 491.58 1453)">Calculate Returns</text><rect x="482.5" y="1470.55" width="699" height="34.0012" stroke="#C55A11" stroke-width="1.00011" stroke-miterlimit="8" fill="#F8CBAD"/><text font-family="Consolas,Consolas_MSFontService,sans-serif" font-weight="400" font-size="32" transform="matrix(1 0 0 1.00004 491.58 1499)">Visualise Mean Daily Returns</text><rect x="482.5" y="1516.56" width="699" height="35.0013" stroke="#C55A11" stroke-width="1.00011" stroke-miterlimit="8" fill="#F8CBAD"/><text font-family="Consolas,Consolas_MSFontService,sans-serif" font-weight="400" font-size="32" transform="matrix(1 0 0 1.00004 491.58 1545)">Investigate Filing Trade Lag Times</text><rect x="482.5" y="1562.56" width="699" height="34.0012" stroke="#C55A11" stroke-width="1.00011" stroke-miterlimit="8" fill="#F8CBAD"/><text font-family="Consolas,Consolas_MSFontService,sans-serif" font-weight="400" font-size="32" transform="matrix(1 0 0 1.00004 491.58 1591)">Drop trades with long lags</text><rect x="482.5" y="1608.56" width="699" height="34.0012" stroke="#C55A11" stroke-width="1.00011" stroke-miterlimit="8" fill="#F8CBAD"/><text font-family="Consolas,Consolas_MSFontService,sans-serif" font-weight="400" font-size="32" transform="matrix(1 0 0 1.00004 491.58 1637)">Calculate Abnormal Returns</text><rect x="482.5" y="1654.56" width="699" height="34.0013" stroke="#C55A11" stroke-width="1.00011" stroke-miterlimit="8" fill="#F8CBAD"/><text font-family="Consolas,Consolas_MSFontService,sans-serif" font-weight="400" font-size="32" transform="matrix(1 0 0 1.00004 491.58 1683)">Show excluded data</text><rect x="482.5" y="1699.56" width="699" height="35.0012" stroke="#C55A11" stroke-width="1.00011" stroke-miterlimit="8" fill="#F8CBAD"/><text font-family="Consolas,Consolas_MSFontService,sans-serif" font-weight="400" font-size="32" transform="matrix(1 0 0 1.00004 491.58 1728)">Save for next notebook</text><rect x="482.5" y="1875.57" width="699" height="35.0013" stroke="#FFE699" stroke-width="0.66674" stroke-miterlimit="8" fill="#FFF2CC"/><text font-family="Consolas,Consolas_MSFontService,sans-serif" font-weight="400" font-size="27" transform="matrix(1 0 0 1.00004 491.58 1902)">tools.load_settings</text><text font-family="Consolas,Consolas_MSFontService,sans-serif" font-weight="400" font-size="27" transform="matrix(1 0 0 1.00004 770.277 1902)">()</text><rect x="482.5" y="1921.57" width="699" height="34.0012" stroke="#8FAADC" stroke-width="1.00011" stroke-miterlimit="8" fill="#B4C7E7"/><text font-family="Consolas,Consolas_MSFontService,sans-serif" font-weight="400" font-size="27" transform="matrix(1 0 0 1.00004 491.58 1947)">Read in Abnormal Returns</text><rect x="482.5" y="1967.57" width="699" height="34.0012" stroke="#C55A11" stroke-width="1.00011" stroke-miterlimit="8" fill="#F8CBAD"/><text font-family="Consolas,Consolas_MSFontService,sans-serif" font-weight="400" font-size="27" transform="matrix(1 0 0 1.00004 491.58 1993)">Visualize Trade Types</text><rect x="482.5" y="2013.57" width="699" height="34.0013" stroke="#C55A11" stroke-width="1.00011" stroke-miterlimit="8" fill="#F8CBAD"/><text font-family="Consolas,Consolas_MSFontService,sans-serif" font-weight="400" font-size="27" transform="matrix(1 0 0 1.00004 491.58 2039)">Calculate Statistics</text><rect x="482.5" y="2059.58" width="699" height="34.0012" stroke="#C55A11" stroke-width="1.00011" stroke-miterlimit="8" fill="#F8CBAD"/><text font-family="Consolas,Consolas_MSFontService,sans-serif" font-weight="400" font-size="27" transform="matrix(1 0 0 1.00004 491.58 2085)">Generate Hypothesis tests</text><path d="M838.001 402.253 832 414.254 825.999 402.253Z"/><path d="M838.001 356.251 832 368.253 825.999 356.251Z"/><path d="M838.001 310.363 832 322.365 825.999 310.363Z"/><path d="M838.001 884.384 832 896.386 825.999 884.384Z"/><path d="M838.001 838.382 832 850.384 825.999 838.382Z"/><path d="M838.001 792.381 832 804.382 825.999 792.381Z"/><path d="M838.001 747.379 832 759.381 825.999 747.379Z"/><path d="M838.001 701.377 832 713.379 825.999 701.377Z"/><path d="M838.001 655.376 832 667.377 825.999 655.376Z"/><path d="M834 448.016 834 450.401 830 450.401 830 448.017ZM838.001 448.4 832 460.402 825.999 448.401Z"/><path d="M838.001 1686.79 832 1698.79 825.999 1686.79Z"/><path d="M838.001 1641.53 832 1653.54 825.999 1641.53Z"/><path d="M838.001 1595.7 832 1607.7 825.999 1595.7Z"/><path d="M838.001 1114.39 832 1126.39 825.999 1114.39Z"/><path d="M838.001 1068.39 832 1080.39 825.999 1068.39Z"/><path d="M838.001 1022.39 832 1034.39 825.999 1022.39Z"/><path d="M838.001 976.387 832 988.389 825.999 976.387Z"/><path d="M838.001 930.386 832 942.388 825.999 930.386Z"/><path d="M838.001 1550.12 832 1562.12 825.999 1550.12Z"/><path d="M838.001 1503.63 832 1515.63 825.999 1503.63Z"/><path d="M838.001 1457.84 832 1469.84 825.999 1457.84Z"/><path d="M838.001 1412 832 1424 825.999 1412Z"/><path d="M838.001 1366.51 832 1378.51 825.999 1366.51Z"/><path d="M838.001 1320.05 832 1332.06 825.999 1320.05Z"/><path d="M838.001 2046.43 832 2058.43 825.999 2046.43Z"/><path d="M838.001 2000.42 832 2012.43 825.999 2000.43Z"/><path d="M838.001 1954.42 832 1966.43 825.999 1954.42Z"/><path d="M838.001 1909.42 832 1921.42 825.999 1909.42Z"/><rect x="342.5" y="264.51" width="855" height="239.009" stroke="#404040" stroke-width="1.33348" stroke-miterlimit="8" fill="#A6A6A6" fill-opacity="0.2"/><rect x="342.5" y="607.522" width="855" height="562.021" stroke="#404040" stroke-width="1.33348" stroke-miterlimit="8" fill="#A6A6A6" fill-opacity="0.2"/><rect x="199.5" y="1178.54" width="699" height="35.0012" stroke="#FFE699" stroke-width="0.66674" stroke-miterlimit="8" fill="#FFF2CC"/><text font-family="Consolas,Consolas_MSFontService,sans-serif" font-weight="400" font-size="32" transform="matrix(1 0 0 1.00004 208.461 1207)">execute_script</text><text font-family="Consolas,Consolas_MSFontService,sans-serif" font-weight="400" font-size="32" transform="matrix(1 0 0 1.00004 458.155 1207)">()</text><rect x="342.5" y="1272.55" width="855" height="477.018" stroke="#404040" stroke-width="1.33348" stroke-miterlimit="8" fill="#A6A6A6" fill-opacity="0.2"/><rect x="201.5" y="1762.56" width="700" height="34.0012" stroke="#FFE699" stroke-width="0.66674" stroke-miterlimit="8" fill="#FFF2CC"/><text font-family="Consolas,Consolas_MSFontService,sans-serif" font-weight="400" font-size="32" transform="matrix(1 0 0 1.00004 210.981 1790)">execute_script</text><text font-family="Consolas,Consolas_MSFontService,sans-serif" font-weight="400" font-size="32" transform="matrix(1 0 0 1.00004 460.675 1790)">()</text><rect x="342.5" y="1858.57" width="855" height="250.009" stroke="#404040" stroke-width="1.33348" stroke-miterlimit="8" fill="#A6A6A6" fill-opacity="0.2"/><rect x="201.5" y="2124.58" width="700" height="34.0012" stroke="#FFE699" stroke-width="0.66674" stroke-miterlimit="8" fill="#FFF2CC"/><text font-family="Consolas,Consolas_MSFontService,sans-serif" font-weight="400" font-size="32" transform="matrix(1 0 0 1.00004 210.981 2152)">execute_script</text><text font-family="Consolas,Consolas_MSFontService,sans-serif" font-weight="400" font-size="32" transform="matrix(1 0 0 1.00004 460.675 2152)">()</text><rect x="972" y="4.00017" width="511" height="96.0035" fill="#006BAC"/><text fill="#FFFFFF" font-family="Avenir Next LT Pro,Avenir Next LT Pro_MSFontService,sans-serif" font-weight="700" font-size="53" transform="matrix(1 0 0 1.00004 1054.85 71)">Data Pipeline</text></g></svg>