<?xml version="1.0" encoding="utf-8" standalone="no"?>
<!DOCTYPE svg PUBLIC "-//W3C//DTD SVG 1.1//EN"
  "http://www.w3.org/Graphics/SVG/1.1/DTD/svg11.dtd">
<svg xmlns:xlink="http://www.w3.org/1999/xlink" width="1208.475pt" height="365.934375pt" viewBox="0 0 1208.475 365.934375" xmlns="http://www.w3.org/2000/svg" version="1.1">
 <metadata>
  <rdf:RDF xmlns:dc="http://purl.org/dc/elements/1.1/" xmlns:cc="http://creativecommons.org/ns#" xmlns:rdf="http://www.w3.org/1999/02/22-rdf-syntax-ns#">
   <cc:Work>
    <dc:type rdf:resource="http://purl.org/dc/dcmitype/StillImage"/>
    <dc:date>2022-10-31T17:19:22.896973</dc:date>
    <dc:format>image/svg+xml</dc:format>
    <dc:creator>
     <cc:Agent>
      <dc:title>Matplotlib v3.5.2, https://matplotlib.org/</dc:title>
     </cc:Agent>
    </dc:creator>
   </cc:Work>
  </rdf:RDF>
 </metadata>
 <defs>
  <style type="text/css">*{stroke-linejoin: round; stroke-linecap: butt}</style>
 </defs>
 <g id="figure_1">
  <g id="patch_1">
   <path d="M 0 365.934375 
L 1208.475 365.934375 
L 1208.475 0 
L 0 0 
z
" style="fill: #ffffff"/>
  </g>
  <g id="axes_1">
   <g id="patch_2">
    <path d="M 85.275 313.860937 
L 1201.275 313.860937 
L 1201.275 36.660937 
L 85.275 36.660937 
z
" style="fill: #ffffff"/>
   </g>
   <g id="patch_3">
    <path d="M 136.002273 313.860937 
L 140.093182 313.860937 
L 140.093182 313.811341 
L 136.002273 313.811341 
z
" clip-path="url(#p30f3e45511)" style="fill: #1f77b4"/>
   </g>
   <g id="patch_4">
    <path d="M 140.093182 313.860937 
L 144.184091 313.860937 
L 144.184091 313.57824 
L 140.093182 313.57824 
z
" clip-path="url(#p30f3e45511)" style="fill: #1f77b4"/>
   </g>
   <g id="patch_5">
    <path d="M 144.184091 313.860937 
L 148.275 313.860937 
L 148.275 312.457368 
L 144.184091 312.457368 
z
" clip-path="url(#p30f3e45511)" style="fill: #1f77b4"/>
   </g>
   <g id="patch_6">
    <path d="M 148.275 313.860937 
L 152.365909 313.860937 
L 152.365909 310.39913 
L 148.275 310.39913 
z
" clip-path="url(#p30f3e45511)" style="fill: #1f77b4"/>
   </g>
   <g id="patch_7">
    <path d="M 152.365909 313.860937 
L 156.456818 313.860937 
L 156.456818 306.153705 
L 152.365909 306.153705 
z
" clip-path="url(#p30f3e45511)" style="fill: #1f77b4"/>
   </g>
   <g id="patch_8">
    <path d="M 156.456818 313.860937 
L 160.547727 313.860937 
L 160.547727 279.069279 
L 156.456818 279.069279 
z
" clip-path="url(#p30f3e45511)" style="fill: #1f77b4"/>
   </g>
   <g id="patch_9">
    <path d="M 160.547727 313.860937 
L 164.638636 313.860937 
L 164.638636 295.321918 
L 160.547727 295.321918 
z
" clip-path="url(#p30f3e45511)" style="fill: #1f77b4"/>
   </g>
   <g id="patch_10">
    <path d="M 164.638636 313.860937 
L 168.729545 313.860937 
L 168.729545 303.733415 
L 164.638636 303.733415 
z
" clip-path="url(#p30f3e45511)" style="fill: #1f77b4"/>
   </g>
   <g id="patch_11">
    <path d="M 168.729545 313.860937 
L 172.820455 313.860937 
L 172.820455 313.860937 
L 168.729545 313.860937 
z
" clip-path="url(#p30f3e45511)" style="fill: #1f77b4"/>
   </g>
   <g id="patch_12">
    <path d="M 172.820455 313.860937 
L 176.911364 313.860937 
L 176.911364 313.860937 
L 172.820455 313.860937 
z
" clip-path="url(#p30f3e45511)" style="fill: #1f77b4"/>
   </g>
   <g id="patch_13">
    <path d="M 176.911364 313.860937 
L 181.002273 313.860937 
L 181.002273 313.860937 
L 176.911364 313.860937 
z
" clip-path="url(#p30f3e45511)" style="fill: #1f77b4"/>
   </g>
   <g id="patch_14">
    <path d="M 181.002273 313.860937 
L 185.093182 313.860937 
L 185.093182 313.727028 
L 181.002273 313.727028 
z
" clip-path="url(#p30f3e45511)" style="fill: #1f77b4"/>
   </g>
   <g id="patch_15">
    <path d="M 185.093182 313.860937 
L 189.184091 313.860937 
L 189.184091 311.79774 
L 185.093182 311.79774 
z
" clip-path="url(#p30f3e45511)" style="fill: #1f77b4"/>
   </g>
   <g id="patch_16">
    <path d="M 189.184091 313.860937 
L 193.275 313.860937 
L 193.275 306.446322 
L 189.184091 306.446322 
z
" clip-path="url(#p30f3e45511)" style="fill: #1f77b4"/>
   </g>
   <g id="patch_17">
    <path d="M 193.275 313.860937 
L 197.365909 313.860937 
L 197.365909 296.809801 
L 193.275 296.809801 
z
" clip-path="url(#p30f3e45511)" style="fill: #1f77b4"/>
   </g>
   <g id="patch_18">
    <path d="M 197.365909 313.860937 
L 201.456818 313.860937 
L 201.456818 293.119852 
L 197.365909 293.119852 
z
" clip-path="url(#p30f3e45511)" style="fill: #1f77b4"/>
   </g>
   <g id="patch_19">
    <path d="M 201.456818 313.860937 
L 205.547727 313.860937 
L 205.547727 275.329733 
L 201.456818 275.329733 
z
" clip-path="url(#p30f3e45511)" style="fill: #1f77b4"/>
   </g>
   <g id="patch_20">
    <path d="M 205.547727 313.860937 
L 209.638636 313.860937 
L 209.638636 159.383988 
L 205.547727 159.383988 
z
" clip-path="url(#p30f3e45511)" style="fill: #1f77b4"/>
   </g>
   <g id="patch_21">
    <path d="M 209.638636 313.860937 
L 213.729545 313.860937 
L 213.729545 265.921355 
L 209.638636 265.921355 
z
" clip-path="url(#p30f3e45511)" style="fill: #1f77b4"/>
   </g>
   <g id="patch_22">
    <path d="M 213.729545 313.860937 
L 217.820455 313.860937 
L 217.820455 294.176248 
L 213.729545 294.176248 
z
" clip-path="url(#p30f3e45511)" style="fill: #1f77b4"/>
   </g>
   <g id="patch_23">
    <path d="M 217.820455 313.860937 
L 221.911364 313.860937 
L 221.911364 313.860937 
L 217.820455 313.860937 
z
" clip-path="url(#p30f3e45511)" style="fill: #1f77b4"/>
   </g>
   <g id="patch_24">
    <path d="M 221.911364 313.860937 
L 226.002273 313.860937 
L 226.002273 313.860937 
L 221.911364 313.860937 
z
" clip-path="url(#p30f3e45511)" style="fill: #1f77b4"/>
   </g>
   <g id="patch_25">
    <path d="M 226.002273 313.860937 
L 230.093182 313.860937 
L 230.093182 313.860937 
L 226.002273 313.860937 
z
" clip-path="url(#p30f3e45511)" style="fill: #1f77b4"/>
   </g>
   <g id="patch_26">
    <path d="M 230.093182 313.860937 
L 234.184091 313.860937 
L 234.184091 313.712149 
L 230.093182 313.712149 
z
" clip-path="url(#p30f3e45511)" style="fill: #1f77b4"/>
   </g>
   <g id="patch_27">
    <path d="M 234.184091 313.860937 
L 238.275 313.860937 
L 238.275 310.562797 
L 234.184091 310.562797 
z
" clip-path="url(#p30f3e45511)" style="fill: #1f77b4"/>
   </g>
   <g id="patch_28">
    <path d="M 238.275 313.860937 
L 242.365909 313.860937 
L 242.365909 300.236891 
L 238.275 300.236891 
z
" clip-path="url(#p30f3e45511)" style="fill: #1f77b4"/>
   </g>
   <g id="patch_29">
    <path d="M 242.365909 313.860937 
L 246.456818 313.860937 
L 246.456818 292.12297 
L 242.365909 292.12297 
z
" clip-path="url(#p30f3e45511)" style="fill: #1f77b4"/>
   </g>
   <g id="patch_30">
    <path d="M 246.456818 313.860937 
L 250.547727 313.860937 
L 250.547727 282.917935 
L 246.456818 282.917935 
z
" clip-path="url(#p30f3e45511)" style="fill: #1f77b4"/>
   </g>
   <g id="patch_31">
    <path d="M 250.547727 313.860937 
L 254.638636 313.860937 
L 254.638636 268.797928 
L 250.547727 268.797928 
z
" clip-path="url(#p30f3e45511)" style="fill: #1f77b4"/>
   </g>
   <g id="patch_32">
    <path d="M 254.638636 313.860937 
L 258.729545 313.860937 
L 258.729545 49.860938 
L 254.638636 49.860938 
z
" clip-path="url(#p30f3e45511)" style="fill: #1f77b4"/>
   </g>
   <g id="patch_33">
    <path d="M 258.729545 313.860937 
L 262.820455 313.860937 
L 262.820455 221.522933 
L 258.729545 221.522933 
z
" clip-path="url(#p30f3e45511)" style="fill: #1f77b4"/>
   </g>
   <g id="patch_34">
    <path d="M 262.820455 313.860937 
L 266.911364 313.860937 
L 266.911364 274.035275 
L 262.820455 274.035275 
z
" clip-path="url(#p30f3e45511)" style="fill: #1f77b4"/>
   </g>
   <g id="patch_35">
    <path d="M 266.911364 313.860937 
L 271.002273 313.860937 
L 271.002273 313.855978 
L 266.911364 313.855978 
z
" clip-path="url(#p30f3e45511)" style="fill: #1f77b4"/>
   </g>
   <g id="patch_36">
    <path d="M 271.002273 313.860937 
L 275.093182 313.860937 
L 275.093182 313.860937 
L 271.002273 313.860937 
z
" clip-path="url(#p30f3e45511)" style="fill: #1f77b4"/>
   </g>
   <g id="patch_37">
    <path d="M 275.093182 313.860937 
L 279.184091 313.860937 
L 279.184091 313.860937 
L 275.093182 313.860937 
z
" clip-path="url(#p30f3e45511)" style="fill: #1f77b4"/>
   </g>
   <g id="patch_38">
    <path d="M 279.184091 313.860937 
L 283.275 313.860937 
L 283.275 313.860937 
L 279.184091 313.860937 
z
" clip-path="url(#p30f3e45511)" style="fill: #1f77b4"/>
   </g>
   <g id="patch_39">
    <path d="M 283.275 313.860937 
L 287.365909 313.860937 
L 287.365909 312.333378 
L 283.275 312.333378 
z
" clip-path="url(#p30f3e45511)" style="fill: #1f77b4"/>
   </g>
   <g id="patch_40">
    <path d="M 287.365909 313.860937 
L 291.456818 313.860937 
L 291.456818 310.235463 
L 287.365909 310.235463 
z
" clip-path="url(#p30f3e45511)" style="fill: #1f77b4"/>
   </g>
   <g id="patch_41">
    <path d="M 291.456818 313.860937 
L 295.547727 313.860937 
L 295.547727 307.651507 
L 291.456818 307.651507 
z
" clip-path="url(#p30f3e45511)" style="fill: #1f77b4"/>
   </g>
   <g id="patch_42">
    <path d="M 295.547727 313.860937 
L 299.638636 313.860937 
L 299.638636 304.259134 
L 295.547727 304.259134 
z
" clip-path="url(#p30f3e45511)" style="fill: #1f77b4"/>
   </g>
   <g id="patch_43">
    <path d="M 299.638636 313.860937 
L 303.729545 313.860937 
L 303.729545 299.840122 
L 299.638636 299.840122 
z
" clip-path="url(#p30f3e45511)" style="fill: #1f77b4"/>
   </g>
   <g id="patch_44">
    <path d="M 303.729545 313.860937 
L 307.820455 313.860937 
L 307.820455 253.185078 
L 303.729545 253.185078 
z
" clip-path="url(#p30f3e45511)" style="fill: #1f77b4"/>
   </g>
   <g id="patch_45">
    <path d="M 307.820455 313.860937 
L 311.911364 313.860937 
L 311.911364 290.501178 
L 307.820455 290.501178 
z
" clip-path="url(#p30f3e45511)" style="fill: #1f77b4"/>
   </g>
   <g id="patch_46">
    <path d="M 311.911364 313.860937 
L 316.002273 313.860937 
L 316.002273 302.02731 
L 311.911364 302.02731 
z
" clip-path="url(#p30f3e45511)" style="fill: #1f77b4"/>
   </g>
   <g id="patch_47">
    <path d="M 316.002273 313.860937 
L 320.093182 313.860937 
L 320.093182 313.811341 
L 316.002273 313.811341 
z
" clip-path="url(#p30f3e45511)" style="fill: #1f77b4"/>
   </g>
   <g id="patch_48">
    <path d="M 320.093182 313.860937 
L 324.184091 313.860937 
L 324.184091 313.860937 
L 320.093182 313.860937 
z
" clip-path="url(#p30f3e45511)" style="fill: #1f77b4"/>
   </g>
   <g id="patch_49">
    <path d="M 324.184091 313.860937 
L 328.275 313.860937 
L 328.275 313.860937 
L 324.184091 313.860937 
z
" clip-path="url(#p30f3e45511)" style="fill: #1f77b4"/>
   </g>
   <g id="patch_50">
    <path d="M 328.275 313.860937 
L 332.365909 313.860937 
L 332.365909 313.860937 
L 328.275 313.860937 
z
" clip-path="url(#p30f3e45511)" style="fill: #1f77b4"/>
   </g>
   <g id="patch_51">
    <path d="M 332.365909 313.860937 
L 336.456818 313.860937 
L 336.456818 311.639033 
L 332.365909 311.639033 
z
" clip-path="url(#p30f3e45511)" style="fill: #1f77b4"/>
   </g>
   <g id="patch_52">
    <path d="M 336.456818 313.860937 
L 340.547727 313.860937 
L 340.547727 305.821411 
L 336.456818 305.821411 
z
" clip-path="url(#p30f3e45511)" style="fill: #1f77b4"/>
   </g>
   <g id="patch_53">
    <path d="M 340.547727 313.860937 
L 344.638636 313.860937 
L 344.638636 300.63366 
L 340.547727 300.63366 
z
" clip-path="url(#p30f3e45511)" style="fill: #1f77b4"/>
   </g>
   <g id="patch_54">
    <path d="M 344.638636 313.860937 
L 348.729545 313.860937 
L 348.729545 296.219607 
L 344.638636 296.219607 
z
" clip-path="url(#p30f3e45511)" style="fill: #1f77b4"/>
   </g>
   <g id="patch_55">
    <path d="M 348.729545 313.860937 
L 352.820455 313.860937 
L 352.820455 286.647562 
L 348.729545 286.647562 
z
" clip-path="url(#p30f3e45511)" style="fill: #1f77b4"/>
   </g>
   <g id="patch_56">
    <path d="M 352.820455 313.860937 
L 356.911364 313.860937 
L 356.911364 159.324473 
L 352.820455 159.324473 
z
" clip-path="url(#p30f3e45511)" style="fill: #1f77b4"/>
   </g>
   <g id="patch_57">
    <path d="M 356.911364 313.860937 
L 361.002273 313.860937 
L 361.002273 256.870068 
L 356.911364 256.870068 
z
" clip-path="url(#p30f3e45511)" style="fill: #1f77b4"/>
   </g>
   <g id="patch_58">
    <path d="M 361.002273 313.860937 
L 365.093182 313.860937 
L 365.093182 289.524135 
L 361.002273 289.524135 
z
" clip-path="url(#p30f3e45511)" style="fill: #1f77b4"/>
   </g>
   <g id="patch_59">
    <path d="M 365.093182 313.860937 
L 369.184091 313.860937 
L 369.184091 313.632795 
L 365.093182 313.632795 
z
" clip-path="url(#p30f3e45511)" style="fill: #1f77b4"/>
   </g>
   <g id="patch_60">
    <path d="M 369.184091 313.860937 
L 373.275 313.860937 
L 373.275 313.860937 
L 369.184091 313.860937 
z
" clip-path="url(#p30f3e45511)" style="fill: #1f77b4"/>
   </g>
   <g id="patch_61">
    <path d="M 373.275 313.860937 
L 377.365909 313.860937 
L 377.365909 313.860937 
L 373.275 313.860937 
z
" clip-path="url(#p30f3e45511)" style="fill: #1f77b4"/>
   </g>
   <g id="patch_62">
    <path d="M 377.365909 313.860937 
L 381.456818 313.860937 
L 381.456818 313.860937 
L 377.365909 313.860937 
z
" clip-path="url(#p30f3e45511)" style="fill: #1f77b4"/>
   </g>
   <g id="patch_63">
    <path d="M 381.456818 313.860937 
L 385.547727 313.860937 
L 385.547727 312.81942 
L 381.456818 312.81942 
z
" clip-path="url(#p30f3e45511)" style="fill: #1f77b4"/>
   </g>
   <g id="patch_64">
    <path d="M 385.547727 313.860937 
L 389.638636 313.860937 
L 389.638636 311.609275 
L 385.547727 311.609275 
z
" clip-path="url(#p30f3e45511)" style="fill: #1f77b4"/>
   </g>
   <g id="patch_65">
    <path d="M 389.638636 313.860937 
L 393.729545 313.860937 
L 393.729545 310.959566 
L 389.638636 310.959566 
z
" clip-path="url(#p30f3e45511)" style="fill: #1f77b4"/>
   </g>
   <g id="patch_66">
    <path d="M 393.729545 313.860937 
L 397.820455 313.860937 
L 397.820455 310.364413 
L 393.729545 310.364413 
z
" clip-path="url(#p30f3e45511)" style="fill: #1f77b4"/>
   </g>
   <g id="patch_67">
    <path d="M 397.820455 313.860937 
L 401.911364 313.860937 
L 401.911364 308.410327 
L 397.820455 308.410327 
z
" clip-path="url(#p30f3e45511)" style="fill: #1f77b4"/>
   </g>
   <g id="patch_68">
    <path d="M 401.911364 313.860937 
L 406.002273 313.860937 
L 406.002273 285.040648 
L 401.911364 285.040648 
z
" clip-path="url(#p30f3e45511)" style="fill: #1f77b4"/>
   </g>
   <g id="patch_69">
    <path d="M 406.002273 313.860937 
L 410.093182 313.860937 
L 410.093182 302.696857 
L 406.002273 302.696857 
z
" clip-path="url(#p30f3e45511)" style="fill: #1f77b4"/>
   </g>
   <g id="patch_70">
    <path d="M 410.093182 313.860937 
L 414.184091 313.860937 
L 414.184091 308.970763 
L 410.093182 308.970763 
z
" clip-path="url(#p30f3e45511)" style="fill: #1f77b4"/>
   </g>
   <g id="patch_71">
    <path d="M 414.184091 313.860937 
L 418.275 313.860937 
L 418.275 313.791503 
L 414.184091 313.791503 
z
" clip-path="url(#p30f3e45511)" style="fill: #1f77b4"/>
   </g>
   <g id="patch_72">
    <path d="M 418.275 313.860937 
L 422.365909 313.860937 
L 422.365909 313.860937 
L 418.275 313.860937 
z
" clip-path="url(#p30f3e45511)" style="fill: #1f77b4"/>
   </g>
   <g id="patch_73">
    <path d="M 422.365909 313.860937 
L 426.456818 313.860937 
L 426.456818 313.860937 
L 422.365909 313.860937 
z
" clip-path="url(#p30f3e45511)" style="fill: #1f77b4"/>
   </g>
   <g id="patch_74">
    <path d="M 426.456818 313.860937 
L 430.547727 313.860937 
L 430.547727 313.860937 
L 426.456818 313.860937 
z
" clip-path="url(#p30f3e45511)" style="fill: #1f77b4"/>
   </g>
   <g id="patch_75">
    <path d="M 430.547727 313.860937 
L 434.638636 313.860937 
L 434.638636 313.692311 
L 430.547727 313.692311 
z
" clip-path="url(#p30f3e45511)" style="fill: #1f77b4"/>
   </g>
   <g id="patch_76">
    <path d="M 434.638636 313.860937 
L 438.729545 313.860937 
L 438.729545 313.642715 
L 434.638636 313.642715 
z
" clip-path="url(#p30f3e45511)" style="fill: #1f77b4"/>
   </g>
   <g id="patch_77">
    <path d="M 438.729545 313.860937 
L 442.820455 313.860937 
L 442.820455 313.528644 
L 438.729545 313.528644 
z
" clip-path="url(#p30f3e45511)" style="fill: #1f77b4"/>
   </g>
   <g id="patch_78">
    <path d="M 442.820455 313.860937 
L 446.911364 313.860937 
L 446.911364 313.598078 
L 442.820455 313.598078 
z
" clip-path="url(#p30f3e45511)" style="fill: #1f77b4"/>
   </g>
   <g id="patch_79">
    <path d="M 446.911364 313.860937 
L 451.002273 313.860937 
L 451.002273 313.32034 
L 446.911364 313.32034 
z
" clip-path="url(#p30f3e45511)" style="fill: #1f77b4"/>
   </g>
   <g id="patch_80">
    <path d="M 451.002273 313.860937 
L 455.093182 313.860937 
L 455.093182 311.505123 
L 451.002273 311.505123 
z
" clip-path="url(#p30f3e45511)" style="fill: #1f77b4"/>
   </g>
   <g id="patch_81">
    <path d="M 455.093182 313.860937 
L 459.184091 313.860937 
L 459.184091 312.784702 
L 455.093182 312.784702 
z
" clip-path="url(#p30f3e45511)" style="fill: #1f77b4"/>
   </g>
   <g id="patch_82">
    <path d="M 459.184091 313.860937 
L 463.275 313.860937 
L 463.275 313.379855 
L 459.184091 313.379855 
z
" clip-path="url(#p30f3e45511)" style="fill: #1f77b4"/>
   </g>
   <g id="patch_83">
    <path d="M 463.275 313.860937 
L 467.365909 313.860937 
L 467.365909 313.841099 
L 463.275 313.841099 
z
" clip-path="url(#p30f3e45511)" style="fill: #1f77b4"/>
   </g>
   <g id="patch_84">
    <path d="M 467.365909 313.860937 
L 471.456818 313.860937 
L 471.456818 313.860937 
L 467.365909 313.860937 
z
" clip-path="url(#p30f3e45511)" style="fill: #1f77b4"/>
   </g>
   <g id="patch_85">
    <path d="M 471.456818 313.860937 
L 475.547727 313.860937 
L 475.547727 313.860937 
L 471.456818 313.860937 
z
" clip-path="url(#p30f3e45511)" style="fill: #1f77b4"/>
   </g>
   <g id="patch_86">
    <path d="M 475.547727 313.860937 
L 479.638636 313.860937 
L 479.638636 313.860937 
L 475.547727 313.860937 
z
" clip-path="url(#p30f3e45511)" style="fill: #1f77b4"/>
   </g>
   <g id="patch_87">
    <path d="M 479.638636 313.860937 
L 483.729545 313.860937 
L 483.729545 313.816301 
L 479.638636 313.816301 
z
" clip-path="url(#p30f3e45511)" style="fill: #1f77b4"/>
   </g>
   <g id="patch_88">
    <path d="M 483.729545 313.860937 
L 487.820455 313.860937 
L 487.820455 313.712149 
L 483.729545 313.712149 
z
" clip-path="url(#p30f3e45511)" style="fill: #1f77b4"/>
   </g>
   <g id="patch_89">
    <path d="M 487.820455 313.860937 
L 491.911364 313.860937 
L 491.911364 313.598078 
L 487.820455 313.598078 
z
" clip-path="url(#p30f3e45511)" style="fill: #1f77b4"/>
   </g>
   <g id="patch_90">
    <path d="M 491.911364 313.860937 
L 496.002273 313.860937 
L 496.002273 313.593119 
L 491.911364 313.593119 
z
" clip-path="url(#p30f3e45511)" style="fill: #1f77b4"/>
   </g>
   <g id="patch_91">
    <path d="M 496.002273 313.860937 
L 500.093182 313.860937 
L 500.093182 313.588159 
L 496.002273 313.588159 
z
" clip-path="url(#p30f3e45511)" style="fill: #1f77b4"/>
   </g>
   <g id="patch_92">
    <path d="M 500.093182 313.860937 
L 504.184091 313.860937 
L 504.184091 312.035801 
L 500.093182 312.035801 
z
" clip-path="url(#p30f3e45511)" style="fill: #1f77b4"/>
   </g>
   <g id="patch_93">
    <path d="M 504.184091 313.860937 
L 508.275 313.860937 
L 508.275 313.012844 
L 504.184091 313.012844 
z
" clip-path="url(#p30f3e45511)" style="fill: #1f77b4"/>
   </g>
   <g id="patch_94">
    <path d="M 508.275 313.860937 
L 512.365909 313.860937 
L 512.365909 313.459209 
L 508.275 313.459209 
z
" clip-path="url(#p30f3e45511)" style="fill: #1f77b4"/>
   </g>
   <g id="patch_95">
    <path d="M 512.365909 313.860937 
L 516.456818 313.860937 
L 516.456818 313.846059 
L 512.365909 313.846059 
z
" clip-path="url(#p30f3e45511)" style="fill: #1f77b4"/>
   </g>
   <g id="patch_96">
    <path d="M 516.456818 313.860937 
L 520.547727 313.860937 
L 520.547727 313.860937 
L 516.456818 313.860937 
z
" clip-path="url(#p30f3e45511)" style="fill: #1f77b4"/>
   </g>
   <g id="patch_97">
    <path d="M 520.547727 313.860937 
L 524.638636 313.860937 
L 524.638636 313.860937 
L 520.547727 313.860937 
z
" clip-path="url(#p30f3e45511)" style="fill: #1f77b4"/>
   </g>
   <g id="patch_98">
    <path d="M 524.638636 313.860937 
L 528.729545 313.860937 
L 528.729545 313.860937 
L 524.638636 313.860937 
z
" clip-path="url(#p30f3e45511)" style="fill: #1f77b4"/>
   </g>
   <g id="patch_99">
    <path d="M 528.729545 313.860937 
L 532.820455 313.860937 
L 532.820455 313.796463 
L 528.729545 313.796463 
z
" clip-path="url(#p30f3e45511)" style="fill: #1f77b4"/>
   </g>
   <g id="patch_100">
    <path d="M 532.820455 313.860937 
L 536.911364 313.860937 
L 536.911364 313.776624 
L 532.820455 313.776624 
z
" clip-path="url(#p30f3e45511)" style="fill: #1f77b4"/>
   </g>
   <g id="patch_101">
    <path d="M 536.911364 313.860937 
L 541.002273 313.860937 
L 541.002273 313.741907 
L 536.911364 313.741907 
z
" clip-path="url(#p30f3e45511)" style="fill: #1f77b4"/>
   </g>
   <g id="patch_102">
    <path d="M 541.002273 313.860937 
L 545.093182 313.860937 
L 545.093182 313.776624 
L 541.002273 313.776624 
z
" clip-path="url(#p30f3e45511)" style="fill: #1f77b4"/>
   </g>
   <g id="patch_103">
    <path d="M 545.093182 313.860937 
L 549.184091 313.860937 
L 549.184091 313.682392 
L 545.093182 313.682392 
z
" clip-path="url(#p30f3e45511)" style="fill: #1f77b4"/>
   </g>
   <g id="patch_104">
    <path d="M 549.184091 313.860937 
L 553.275 313.860937 
L 553.275 312.854137 
L 549.184091 312.854137 
z
" clip-path="url(#p30f3e45511)" style="fill: #1f77b4"/>
   </g>
   <g id="patch_105">
    <path d="M 553.275 313.860937 
L 557.365909 313.860937 
L 557.365909 313.459209 
L 553.275 313.459209 
z
" clip-path="url(#p30f3e45511)" style="fill: #1f77b4"/>
   </g>
   <g id="patch_106">
    <path d="M 557.365909 313.860937 
L 561.456818 313.860937 
L 561.456818 313.642715 
L 557.365909 313.642715 
z
" clip-path="url(#p30f3e45511)" style="fill: #1f77b4"/>
   </g>
   <g id="patch_107">
    <path d="M 561.456818 313.860937 
L 565.547727 313.860937 
L 565.547727 313.855978 
L 561.456818 313.855978 
z
" clip-path="url(#p30f3e45511)" style="fill: #1f77b4"/>
   </g>
   <g id="patch_108">
    <path d="M 565.547727 313.860937 
L 569.638636 313.860937 
L 569.638636 313.860937 
L 565.547727 313.860937 
z
" clip-path="url(#p30f3e45511)" style="fill: #1f77b4"/>
   </g>
   <g id="patch_109">
    <path d="M 569.638636 313.860937 
L 573.729545 313.860937 
L 573.729545 313.860937 
L 569.638636 313.860937 
z
" clip-path="url(#p30f3e45511)" style="fill: #1f77b4"/>
   </g>
   <g id="patch_110">
    <path d="M 573.729545 313.860937 
L 577.820455 313.860937 
L 577.820455 313.860937 
L 573.729545 313.860937 
z
" clip-path="url(#p30f3e45511)" style="fill: #1f77b4"/>
   </g>
   <g id="patch_111">
    <path d="M 577.820455 313.860937 
L 581.911364 313.860937 
L 581.911364 313.83118 
L 577.820455 313.83118 
z
" clip-path="url(#p30f3e45511)" style="fill: #1f77b4"/>
   </g>
   <g id="patch_112">
    <path d="M 581.911364 313.860937 
L 586.002273 313.860937 
L 586.002273 313.836139 
L 581.911364 313.836139 
z
" clip-path="url(#p30f3e45511)" style="fill: #1f77b4"/>
   </g>
   <g id="patch_113">
    <path d="M 586.002273 313.860937 
L 590.093182 313.860937 
L 590.093182 313.821261 
L 586.002273 313.821261 
z
" clip-path="url(#p30f3e45511)" style="fill: #1f77b4"/>
   </g>
   <g id="patch_114">
    <path d="M 590.093182 313.860937 
L 594.184091 313.860937 
L 594.184091 313.731988 
L 590.093182 313.731988 
z
" clip-path="url(#p30f3e45511)" style="fill: #1f77b4"/>
   </g>
   <g id="patch_115">
    <path d="M 594.184091 313.860937 
L 598.275 313.860937 
L 598.275 313.766705 
L 594.184091 313.766705 
z
" clip-path="url(#p30f3e45511)" style="fill: #1f77b4"/>
   </g>
   <g id="patch_116">
    <path d="M 598.275 313.860937 
L 602.365909 313.860937 
L 602.365909 313.31538 
L 598.275 313.31538 
z
" clip-path="url(#p30f3e45511)" style="fill: #1f77b4"/>
   </g>
   <g id="patch_117">
    <path d="M 602.365909 313.860937 
L 606.456818 313.860937 
L 606.456818 313.563361 
L 602.365909 313.563361 
z
" clip-path="url(#p30f3e45511)" style="fill: #1f77b4"/>
   </g>
   <g id="patch_118">
    <path d="M 606.456818 313.860937 
L 610.547727 313.860937 
L 610.547727 313.766705 
L 606.456818 313.766705 
z
" clip-path="url(#p30f3e45511)" style="fill: #1f77b4"/>
   </g>
   <g id="patch_119">
    <path d="M 610.547727 313.860937 
L 614.638636 313.860937 
L 614.638636 313.855978 
L 610.547727 313.855978 
z
" clip-path="url(#p30f3e45511)" style="fill: #1f77b4"/>
   </g>
   <g id="patch_120">
    <path d="M 614.638636 313.860937 
L 618.729545 313.860937 
L 618.729545 313.860937 
L 614.638636 313.860937 
z
" clip-path="url(#p30f3e45511)" style="fill: #1f77b4"/>
   </g>
   <g id="patch_121">
    <path d="M 618.729545 313.860937 
L 622.820455 313.860937 
L 622.820455 313.860937 
L 618.729545 313.860937 
z
" clip-path="url(#p30f3e45511)" style="fill: #1f77b4"/>
   </g>
   <g id="patch_122">
    <path d="M 622.820455 313.860937 
L 626.911364 313.860937 
L 626.911364 313.860937 
L 622.820455 313.860937 
z
" clip-path="url(#p30f3e45511)" style="fill: #1f77b4"/>
   </g>
   <g id="patch_123">
    <path d="M 626.911364 313.860937 
L 631.002273 313.860937 
L 631.002273 313.851018 
L 626.911364 313.851018 
z
" clip-path="url(#p30f3e45511)" style="fill: #1f77b4"/>
   </g>
   <g id="patch_124">
    <path d="M 631.002273 313.860937 
L 635.093182 313.860937 
L 635.093182 313.83118 
L 631.002273 313.83118 
z
" clip-path="url(#p30f3e45511)" style="fill: #1f77b4"/>
   </g>
   <g id="patch_125">
    <path d="M 635.093182 313.860937 
L 639.184091 313.860937 
L 639.184091 313.806382 
L 635.093182 313.806382 
z
" clip-path="url(#p30f3e45511)" style="fill: #1f77b4"/>
   </g>
   <g id="patch_126">
    <path d="M 639.184091 313.860937 
L 643.275 313.860937 
L 643.275 313.801422 
L 639.184091 313.801422 
z
" clip-path="url(#p30f3e45511)" style="fill: #1f77b4"/>
   </g>
   <g id="patch_127">
    <path d="M 643.275 313.860937 
L 647.365909 313.860937 
L 647.365909 313.722068 
L 643.275 313.722068 
z
" clip-path="url(#p30f3e45511)" style="fill: #1f77b4"/>
   </g>
   <g id="patch_128">
    <path d="M 647.365909 313.860937 
L 651.456818 313.860937 
L 651.456818 313.364977 
L 647.365909 313.364977 
z
" clip-path="url(#p30f3e45511)" style="fill: #1f77b4"/>
   </g>
   <g id="patch_129">
    <path d="M 651.456818 313.860937 
L 655.547727 313.860937 
L 655.547727 313.672472 
L 651.456818 313.672472 
z
" clip-path="url(#p30f3e45511)" style="fill: #1f77b4"/>
   </g>
   <g id="patch_130">
    <path d="M 655.547727 313.860937 
L 659.638636 313.860937 
L 659.638636 313.736947 
L 655.547727 313.736947 
z
" clip-path="url(#p30f3e45511)" style="fill: #1f77b4"/>
   </g>
   <g id="patch_131">
    <path d="M 659.638636 313.860937 
L 663.729545 313.860937 
L 663.729545 313.83118 
L 659.638636 313.83118 
z
" clip-path="url(#p30f3e45511)" style="fill: #1f77b4"/>
   </g>
   <g id="patch_132">
    <path d="M 663.729545 313.860937 
L 667.820455 313.860937 
L 667.820455 313.860937 
L 663.729545 313.860937 
z
" clip-path="url(#p30f3e45511)" style="fill: #1f77b4"/>
   </g>
   <g id="patch_133">
    <path d="M 667.820455 313.860937 
L 671.911364 313.860937 
L 671.911364 313.860937 
L 667.820455 313.860937 
z
" clip-path="url(#p30f3e45511)" style="fill: #1f77b4"/>
   </g>
   <g id="patch_134">
    <path d="M 671.911364 313.860937 
L 676.002273 313.860937 
L 676.002273 313.860937 
L 671.911364 313.860937 
z
" clip-path="url(#p30f3e45511)" style="fill: #1f77b4"/>
   </g>
   <g id="patch_135">
    <path d="M 676.002273 313.860937 
L 680.093182 313.860937 
L 680.093182 313.846059 
L 676.002273 313.846059 
z
" clip-path="url(#p30f3e45511)" style="fill: #1f77b4"/>
   </g>
   <g id="patch_136">
    <path d="M 680.093182 313.860937 
L 684.184091 313.860937 
L 684.184091 313.83118 
L 680.093182 313.83118 
z
" clip-path="url(#p30f3e45511)" style="fill: #1f77b4"/>
   </g>
   <g id="patch_137">
    <path d="M 684.184091 313.860937 
L 688.275 313.860937 
L 688.275 313.811341 
L 684.184091 313.811341 
z
" clip-path="url(#p30f3e45511)" style="fill: #1f77b4"/>
   </g>
   <g id="patch_138">
    <path d="M 688.275 313.860937 
L 692.365909 313.860937 
L 692.365909 313.821261 
L 688.275 313.821261 
z
" clip-path="url(#p30f3e45511)" style="fill: #1f77b4"/>
   </g>
   <g id="patch_139">
    <path d="M 692.365909 313.860937 
L 696.456818 313.860937 
L 696.456818 313.741907 
L 692.365909 313.741907 
z
" clip-path="url(#p30f3e45511)" style="fill: #1f77b4"/>
   </g>
   <g id="patch_140">
    <path d="M 696.456818 313.860937 
L 700.547727 313.860937 
L 700.547727 313.280663 
L 696.456818 313.280663 
z
" clip-path="url(#p30f3e45511)" style="fill: #1f77b4"/>
   </g>
   <g id="patch_141">
    <path d="M 700.547727 313.860937 
L 704.638636 313.860937 
L 704.638636 313.70223 
L 700.547727 313.70223 
z
" clip-path="url(#p30f3e45511)" style="fill: #1f77b4"/>
   </g>
   <g id="patch_142">
    <path d="M 704.638636 313.860937 
L 708.729545 313.860937 
L 708.729545 313.776624 
L 704.638636 313.776624 
z
" clip-path="url(#p30f3e45511)" style="fill: #1f77b4"/>
   </g>
   <g id="patch_143">
    <path d="M 708.729545 313.860937 
L 712.820455 313.860937 
L 712.820455 313.860937 
L 708.729545 313.860937 
z
" clip-path="url(#p30f3e45511)" style="fill: #1f77b4"/>
   </g>
   <g id="patch_144">
    <path d="M 712.820455 313.860937 
L 716.911364 313.860937 
L 716.911364 313.860937 
L 712.820455 313.860937 
z
" clip-path="url(#p30f3e45511)" style="fill: #1f77b4"/>
   </g>
   <g id="patch_145">
    <path d="M 716.911364 313.860937 
L 721.002273 313.860937 
L 721.002273 313.860937 
L 716.911364 313.860937 
z
" clip-path="url(#p30f3e45511)" style="fill: #1f77b4"/>
   </g>
   <g id="patch_146">
    <path d="M 721.002273 313.860937 
L 725.093182 313.860937 
L 725.093182 313.860937 
L 721.002273 313.860937 
z
" clip-path="url(#p30f3e45511)" style="fill: #1f77b4"/>
   </g>
   <g id="patch_147">
    <path d="M 725.093182 313.860937 
L 729.184091 313.860937 
L 729.184091 313.851018 
L 725.093182 313.851018 
z
" clip-path="url(#p30f3e45511)" style="fill: #1f77b4"/>
   </g>
   <g id="patch_148">
    <path d="M 729.184091 313.860937 
L 733.275 313.860937 
L 733.275 313.82622 
L 729.184091 313.82622 
z
" clip-path="url(#p30f3e45511)" style="fill: #1f77b4"/>
   </g>
   <g id="patch_149">
    <path d="M 733.275 313.860937 
L 737.365909 313.860937 
L 737.365909 313.82622 
L 733.275 313.82622 
z
" clip-path="url(#p30f3e45511)" style="fill: #1f77b4"/>
   </g>
   <g id="patch_150">
    <path d="M 737.365909 313.860937 
L 741.456818 313.860937 
L 741.456818 313.776624 
L 737.365909 313.776624 
z
" clip-path="url(#p30f3e45511)" style="fill: #1f77b4"/>
   </g>
   <g id="patch_151">
    <path d="M 741.456818 313.860937 
L 745.547727 313.860937 
L 745.547727 313.712149 
L 741.456818 313.712149 
z
" clip-path="url(#p30f3e45511)" style="fill: #1f77b4"/>
   </g>
   <g id="patch_152">
    <path d="M 745.547727 313.860937 
L 749.638636 313.860937 
L 749.638636 313.082279 
L 745.547727 313.082279 
z
" clip-path="url(#p30f3e45511)" style="fill: #1f77b4"/>
   </g>
   <g id="patch_153">
    <path d="M 749.638636 313.860937 
L 753.729545 313.860937 
L 753.729545 313.637755 
L 749.638636 313.637755 
z
" clip-path="url(#p30f3e45511)" style="fill: #1f77b4"/>
   </g>
   <g id="patch_154">
    <path d="M 753.729545 313.860937 
L 757.820455 313.860937 
L 757.820455 313.70223 
L 753.729545 313.70223 
z
" clip-path="url(#p30f3e45511)" style="fill: #1f77b4"/>
   </g>
   <g id="patch_155">
    <path d="M 757.820455 313.860937 
L 761.911364 313.860937 
L 761.911364 313.855978 
L 757.820455 313.855978 
z
" clip-path="url(#p30f3e45511)" style="fill: #1f77b4"/>
   </g>
   <g id="patch_156">
    <path d="M 761.911364 313.860937 
L 766.002273 313.860937 
L 766.002273 313.860937 
L 761.911364 313.860937 
z
" clip-path="url(#p30f3e45511)" style="fill: #1f77b4"/>
   </g>
   <g id="patch_157">
    <path d="M 766.002273 313.860937 
L 770.093182 313.860937 
L 770.093182 313.860937 
L 766.002273 313.860937 
z
" clip-path="url(#p30f3e45511)" style="fill: #1f77b4"/>
   </g>
   <g id="patch_158">
    <path d="M 770.093182 313.860937 
L 774.184091 313.860937 
L 774.184091 313.860937 
L 770.093182 313.860937 
z
" clip-path="url(#p30f3e45511)" style="fill: #1f77b4"/>
   </g>
   <g id="patch_159">
    <path d="M 774.184091 313.860937 
L 778.275 313.860937 
L 778.275 313.860937 
L 774.184091 313.860937 
z
" clip-path="url(#p30f3e45511)" style="fill: #1f77b4"/>
   </g>
   <g id="patch_160">
    <path d="M 778.275 313.860937 
L 782.365909 313.860937 
L 782.365909 313.846059 
L 778.275 313.846059 
z
" clip-path="url(#p30f3e45511)" style="fill: #1f77b4"/>
   </g>
   <g id="patch_161">
    <path d="M 782.365909 313.860937 
L 786.456818 313.860937 
L 786.456818 313.83118 
L 782.365909 313.83118 
z
" clip-path="url(#p30f3e45511)" style="fill: #1f77b4"/>
   </g>
   <g id="patch_162">
    <path d="M 786.456818 313.860937 
L 790.547727 313.860937 
L 790.547727 313.791503 
L 786.456818 313.791503 
z
" clip-path="url(#p30f3e45511)" style="fill: #1f77b4"/>
   </g>
   <g id="patch_163">
    <path d="M 790.547727 313.860937 
L 794.638636 313.860937 
L 794.638636 313.806382 
L 790.547727 313.806382 
z
" clip-path="url(#p30f3e45511)" style="fill: #1f77b4"/>
   </g>
   <g id="patch_164">
    <path d="M 794.638636 313.860937 
L 798.729545 313.860937 
L 798.729545 313.57824 
L 794.638636 313.57824 
z
" clip-path="url(#p30f3e45511)" style="fill: #1f77b4"/>
   </g>
   <g id="patch_165">
    <path d="M 798.729545 313.860937 
L 802.820455 313.860937 
L 802.820455 313.434411 
L 798.729545 313.434411 
z
" clip-path="url(#p30f3e45511)" style="fill: #1f77b4"/>
   </g>
   <g id="patch_166">
    <path d="M 802.820455 313.860937 
L 806.911364 313.860937 
L 806.911364 313.736947 
L 802.820455 313.736947 
z
" clip-path="url(#p30f3e45511)" style="fill: #1f77b4"/>
   </g>
   <g id="patch_167">
    <path d="M 806.911364 313.860937 
L 811.002273 313.860937 
L 811.002273 313.851018 
L 806.911364 313.851018 
z
" clip-path="url(#p30f3e45511)" style="fill: #1f77b4"/>
   </g>
   <g id="patch_168">
    <path d="M 811.002273 313.860937 
L 815.093182 313.860937 
L 815.093182 313.860937 
L 811.002273 313.860937 
z
" clip-path="url(#p30f3e45511)" style="fill: #1f77b4"/>
   </g>
   <g id="patch_169">
    <path d="M 815.093182 313.860937 
L 819.184091 313.860937 
L 819.184091 313.860937 
L 815.093182 313.860937 
z
" clip-path="url(#p30f3e45511)" style="fill: #1f77b4"/>
   </g>
   <g id="patch_170">
    <path d="M 819.184091 313.860937 
L 823.275 313.860937 
L 823.275 313.860937 
L 819.184091 313.860937 
z
" clip-path="url(#p30f3e45511)" style="fill: #1f77b4"/>
   </g>
   <g id="patch_171">
    <path d="M 823.275 313.860937 
L 827.365909 313.860937 
L 827.365909 313.855978 
L 823.275 313.855978 
z
" clip-path="url(#p30f3e45511)" style="fill: #1f77b4"/>
   </g>
   <g id="patch_172">
    <path d="M 827.365909 313.860937 
L 831.456818 313.860937 
L 831.456818 313.851018 
L 827.365909 313.851018 
z
" clip-path="url(#p30f3e45511)" style="fill: #1f77b4"/>
   </g>
   <g id="patch_173">
    <path d="M 831.456818 313.860937 
L 835.547727 313.860937 
L 835.547727 313.70223 
L 831.456818 313.70223 
z
" clip-path="url(#p30f3e45511)" style="fill: #1f77b4"/>
   </g>
   <g id="patch_174">
    <path d="M 835.547727 313.860937 
L 839.638636 313.860937 
L 839.638636 313.816301 
L 835.547727 313.816301 
z
" clip-path="url(#p30f3e45511)" style="fill: #1f77b4"/>
   </g>
   <g id="patch_175">
    <path d="M 839.638636 313.860937 
L 843.729545 313.860937 
L 843.729545 313.756786 
L 839.638636 313.756786 
z
" clip-path="url(#p30f3e45511)" style="fill: #1f77b4"/>
   </g>
   <g id="patch_176">
    <path d="M 843.729545 313.860937 
L 847.820455 313.860937 
L 847.820455 313.414573 
L 843.729545 313.414573 
z
" clip-path="url(#p30f3e45511)" style="fill: #1f77b4"/>
   </g>
   <g id="patch_177">
    <path d="M 847.820455 313.860937 
L 851.911364 313.860937 
L 851.911364 313.513765 
L 847.820455 313.513765 
z
" clip-path="url(#p30f3e45511)" style="fill: #1f77b4"/>
   </g>
   <g id="patch_178">
    <path d="M 851.911364 313.860937 
L 856.002273 313.860937 
L 856.002273 313.811341 
L 851.911364 313.811341 
z
" clip-path="url(#p30f3e45511)" style="fill: #1f77b4"/>
   </g>
   <g id="patch_179">
    <path d="M 856.002273 313.860937 
L 860.093182 313.860937 
L 860.093182 313.860937 
L 856.002273 313.860937 
z
" clip-path="url(#p30f3e45511)" style="fill: #1f77b4"/>
   </g>
   <g id="patch_180">
    <path d="M 860.093182 313.860937 
L 864.184091 313.860937 
L 864.184091 313.860937 
L 860.093182 313.860937 
z
" clip-path="url(#p30f3e45511)" style="fill: #1f77b4"/>
   </g>
   <g id="patch_181">
    <path d="M 864.184091 313.860937 
L 868.275 313.860937 
L 868.275 313.860937 
L 864.184091 313.860937 
z
" clip-path="url(#p30f3e45511)" style="fill: #1f77b4"/>
   </g>
   <g id="patch_182">
    <path d="M 868.275 313.860937 
L 872.365909 313.860937 
L 872.365909 313.860937 
L 868.275 313.860937 
z
" clip-path="url(#p30f3e45511)" style="fill: #1f77b4"/>
   </g>
   <g id="patch_183">
    <path d="M 872.365909 313.860937 
L 876.456818 313.860937 
L 876.456818 313.860937 
L 872.365909 313.860937 
z
" clip-path="url(#p30f3e45511)" style="fill: #1f77b4"/>
   </g>
   <g id="patch_184">
    <path d="M 876.456818 313.860937 
L 880.547727 313.860937 
L 880.547727 313.796463 
L 876.456818 313.796463 
z
" clip-path="url(#p30f3e45511)" style="fill: #1f77b4"/>
   </g>
   <g id="patch_185">
    <path d="M 880.547727 313.860937 
L 884.638636 313.860937 
L 884.638636 313.836139 
L 880.547727 313.836139 
z
" clip-path="url(#p30f3e45511)" style="fill: #1f77b4"/>
   </g>
   <g id="patch_186">
    <path d="M 884.638636 313.860937 
L 888.729545 313.860937 
L 888.729545 313.83118 
L 884.638636 313.83118 
z
" clip-path="url(#p30f3e45511)" style="fill: #1f77b4"/>
   </g>
   <g id="patch_187">
    <path d="M 888.729545 313.860937 
L 892.820455 313.860937 
L 892.820455 313.811341 
L 888.729545 313.811341 
z
" clip-path="url(#p30f3e45511)" style="fill: #1f77b4"/>
   </g>
   <g id="patch_188">
    <path d="M 892.820455 313.860937 
L 896.911364 313.860937 
L 896.911364 313.622876 
L 892.820455 313.622876 
z
" clip-path="url(#p30f3e45511)" style="fill: #1f77b4"/>
   </g>
   <g id="patch_189">
    <path d="M 896.911364 313.860937 
L 901.002273 313.860937 
L 901.002273 313.682392 
L 896.911364 313.682392 
z
" clip-path="url(#p30f3e45511)" style="fill: #1f77b4"/>
   </g>
   <g id="patch_190">
    <path d="M 901.002273 313.860937 
L 905.093182 313.860937 
L 905.093182 313.806382 
L 901.002273 313.806382 
z
" clip-path="url(#p30f3e45511)" style="fill: #1f77b4"/>
   </g>
   <g id="patch_191">
    <path d="M 905.093182 313.860937 
L 909.184091 313.860937 
L 909.184091 313.860937 
L 905.093182 313.860937 
z
" clip-path="url(#p30f3e45511)" style="fill: #1f77b4"/>
   </g>
   <g id="patch_192">
    <path d="M 909.184091 313.860937 
L 913.275 313.860937 
L 913.275 313.860937 
L 909.184091 313.860937 
z
" clip-path="url(#p30f3e45511)" style="fill: #1f77b4"/>
   </g>
   <g id="patch_193">
    <path d="M 913.275 313.860937 
L 917.365909 313.860937 
L 917.365909 313.860937 
L 913.275 313.860937 
z
" clip-path="url(#p30f3e45511)" style="fill: #1f77b4"/>
   </g>
   <g id="patch_194">
    <path d="M 917.365909 313.860937 
L 921.456818 313.860937 
L 921.456818 313.860937 
L 917.365909 313.860937 
z
" clip-path="url(#p30f3e45511)" style="fill: #1f77b4"/>
   </g>
   <g id="patch_195">
    <path d="M 921.456818 313.860937 
L 925.547727 313.860937 
L 925.547727 313.860937 
L 921.456818 313.860937 
z
" clip-path="url(#p30f3e45511)" style="fill: #1f77b4"/>
   </g>
   <g id="patch_196">
    <path d="M 925.547727 313.860937 
L 929.638636 313.860937 
L 929.638636 313.855978 
L 925.547727 313.855978 
z
" clip-path="url(#p30f3e45511)" style="fill: #1f77b4"/>
   </g>
   <g id="patch_197">
    <path d="M 929.638636 313.860937 
L 933.729545 313.860937 
L 933.729545 313.761745 
L 929.638636 313.761745 
z
" clip-path="url(#p30f3e45511)" style="fill: #1f77b4"/>
   </g>
   <g id="patch_198">
    <path d="M 933.729545 313.860937 
L 937.820455 313.860937 
L 937.820455 313.851018 
L 933.729545 313.851018 
z
" clip-path="url(#p30f3e45511)" style="fill: #1f77b4"/>
   </g>
   <g id="patch_199">
    <path d="M 937.820455 313.860937 
L 941.911364 313.860937 
L 941.911364 313.761745 
L 937.820455 313.761745 
z
" clip-path="url(#p30f3e45511)" style="fill: #1f77b4"/>
   </g>
   <g id="patch_200">
    <path d="M 941.911364 313.860937 
L 946.002273 313.860937 
L 946.002273 313.528644 
L 941.911364 313.528644 
z
" clip-path="url(#p30f3e45511)" style="fill: #1f77b4"/>
   </g>
   <g id="patch_201">
    <path d="M 946.002273 313.860937 
L 950.093182 313.860937 
L 950.093182 313.692311 
L 946.002273 313.692311 
z
" clip-path="url(#p30f3e45511)" style="fill: #1f77b4"/>
   </g>
   <g id="patch_202">
    <path d="M 950.093182 313.860937 
L 954.184091 313.860937 
L 954.184091 313.806382 
L 950.093182 313.806382 
z
" clip-path="url(#p30f3e45511)" style="fill: #1f77b4"/>
   </g>
   <g id="patch_203">
    <path d="M 954.184091 313.860937 
L 958.275 313.860937 
L 958.275 313.860937 
L 954.184091 313.860937 
z
" clip-path="url(#p30f3e45511)" style="fill: #1f77b4"/>
   </g>
   <g id="patch_204">
    <path d="M 958.275 313.860937 
L 962.365909 313.860937 
L 962.365909 313.860937 
L 958.275 313.860937 
z
" clip-path="url(#p30f3e45511)" style="fill: #1f77b4"/>
   </g>
   <g id="patch_205">
    <path d="M 962.365909 313.860937 
L 966.456818 313.860937 
L 966.456818 313.860937 
L 962.365909 313.860937 
z
" clip-path="url(#p30f3e45511)" style="fill: #1f77b4"/>
   </g>
   <g id="patch_206">
    <path d="M 966.456818 313.860937 
L 970.547727 313.860937 
L 970.547727 313.860937 
L 966.456818 313.860937 
z
" clip-path="url(#p30f3e45511)" style="fill: #1f77b4"/>
   </g>
   <g id="patch_207">
    <path d="M 970.547727 313.860937 
L 974.638636 313.860937 
L 974.638636 313.860937 
L 970.547727 313.860937 
z
" clip-path="url(#p30f3e45511)" style="fill: #1f77b4"/>
   </g>
   <g id="patch_208">
    <path d="M 974.638636 313.860937 
L 978.729545 313.860937 
L 978.729545 313.717109 
L 974.638636 313.717109 
z
" clip-path="url(#p30f3e45511)" style="fill: #1f77b4"/>
   </g>
   <g id="patch_209">
    <path d="M 978.729545 313.860937 
L 982.820455 313.860937 
L 982.820455 313.796463 
L 978.729545 313.796463 
z
" clip-path="url(#p30f3e45511)" style="fill: #1f77b4"/>
   </g>
   <g id="patch_210">
    <path d="M 982.820455 313.860937 
L 986.911364 313.860937 
L 986.911364 313.781584 
L 982.820455 313.781584 
z
" clip-path="url(#p30f3e45511)" style="fill: #1f77b4"/>
   </g>
   <g id="patch_211">
    <path d="M 986.911364 313.860937 
L 991.002273 313.860937 
L 991.002273 313.811341 
L 986.911364 313.811341 
z
" clip-path="url(#p30f3e45511)" style="fill: #1f77b4"/>
   </g>
   <g id="patch_212">
    <path d="M 991.002273 313.860937 
L 995.093182 313.860937 
L 995.093182 313.598078 
L 991.002273 313.598078 
z
" clip-path="url(#p30f3e45511)" style="fill: #1f77b4"/>
   </g>
   <g id="patch_213">
    <path d="M 995.093182 313.860937 
L 999.184091 313.860937 
L 999.184091 313.811341 
L 995.093182 313.811341 
z
" clip-path="url(#p30f3e45511)" style="fill: #1f77b4"/>
   </g>
   <g id="patch_214">
    <path d="M 999.184091 313.860937 
L 1003.275 313.860937 
L 1003.275 313.83118 
L 999.184091 313.83118 
z
" clip-path="url(#p30f3e45511)" style="fill: #1f77b4"/>
   </g>
   <g id="patch_215">
    <path d="M 1003.275 313.860937 
L 1007.365909 313.860937 
L 1007.365909 313.855978 
L 1003.275 313.855978 
z
" clip-path="url(#p30f3e45511)" style="fill: #1f77b4"/>
   </g>
   <g id="patch_216">
    <path d="M 1007.365909 313.860937 
L 1011.456818 313.860937 
L 1011.456818 313.860937 
L 1007.365909 313.860937 
z
" clip-path="url(#p30f3e45511)" style="fill: #1f77b4"/>
   </g>
   <g id="patch_217">
    <path d="M 1011.456818 313.860937 
L 1015.547727 313.860937 
L 1015.547727 313.860937 
L 1011.456818 313.860937 
z
" clip-path="url(#p30f3e45511)" style="fill: #1f77b4"/>
   </g>
   <g id="patch_218">
    <path d="M 1015.547727 313.860937 
L 1019.638636 313.860937 
L 1019.638636 313.860937 
L 1015.547727 313.860937 
z
" clip-path="url(#p30f3e45511)" style="fill: #1f77b4"/>
   </g>
   <g id="patch_219">
    <path d="M 1019.638636 313.860937 
L 1023.729545 313.860937 
L 1023.729545 313.860937 
L 1019.638636 313.860937 
z
" clip-path="url(#p30f3e45511)" style="fill: #1f77b4"/>
   </g>
   <g id="patch_220">
    <path d="M 1023.729545 313.860937 
L 1027.820455 313.860937 
L 1027.820455 313.860937 
L 1023.729545 313.860937 
z
" clip-path="url(#p30f3e45511)" style="fill: #1f77b4"/>
   </g>
   <g id="patch_221">
    <path d="M 1027.820455 313.860937 
L 1031.911364 313.860937 
L 1031.911364 313.855978 
L 1027.820455 313.855978 
z
" clip-path="url(#p30f3e45511)" style="fill: #1f77b4"/>
   </g>
   <g id="patch_222">
    <path d="M 1031.911364 313.860937 
L 1036.002273 313.860937 
L 1036.002273 313.855978 
L 1031.911364 313.855978 
z
" clip-path="url(#p30f3e45511)" style="fill: #1f77b4"/>
   </g>
   <g id="patch_223">
    <path d="M 1036.002273 313.860937 
L 1040.093182 313.860937 
L 1040.093182 313.836139 
L 1036.002273 313.836139 
z
" clip-path="url(#p30f3e45511)" style="fill: #1f77b4"/>
   </g>
   <g id="patch_224">
    <path d="M 1040.093182 313.860937 
L 1044.184091 313.860937 
L 1044.184091 313.528644 
L 1040.093182 313.528644 
z
" clip-path="url(#p30f3e45511)" style="fill: #1f77b4"/>
   </g>
   <g id="patch_225">
    <path d="M 1044.184091 313.860937 
L 1048.275 313.860937 
L 1048.275 313.712149 
L 1044.184091 313.712149 
z
" clip-path="url(#p30f3e45511)" style="fill: #1f77b4"/>
   </g>
   <g id="patch_226">
    <path d="M 1048.275 313.860937 
L 1052.365909 313.860937 
L 1052.365909 313.821261 
L 1048.275 313.821261 
z
" clip-path="url(#p30f3e45511)" style="fill: #1f77b4"/>
   </g>
   <g id="patch_227">
    <path d="M 1052.365909 313.860937 
L 1056.456818 313.860937 
L 1056.456818 313.846059 
L 1052.365909 313.846059 
z
" clip-path="url(#p30f3e45511)" style="fill: #1f77b4"/>
   </g>
   <g id="patch_228">
    <path d="M 1056.456818 313.860937 
L 1060.547727 313.860937 
L 1060.547727 313.860937 
L 1056.456818 313.860937 
z
" clip-path="url(#p30f3e45511)" style="fill: #1f77b4"/>
   </g>
   <g id="patch_229">
    <path d="M 1060.547727 313.860937 
L 1064.638636 313.860937 
L 1064.638636 313.860937 
L 1060.547727 313.860937 
z
" clip-path="url(#p30f3e45511)" style="fill: #1f77b4"/>
   </g>
   <g id="patch_230">
    <path d="M 1064.638636 313.860937 
L 1068.729545 313.860937 
L 1068.729545 313.851018 
L 1064.638636 313.851018 
z
" clip-path="url(#p30f3e45511)" style="fill: #1f77b4"/>
   </g>
   <g id="patch_231">
    <path d="M 1068.729545 313.860937 
L 1072.820455 313.860937 
L 1072.820455 313.860937 
L 1068.729545 313.860937 
z
" clip-path="url(#p30f3e45511)" style="fill: #1f77b4"/>
   </g>
   <g id="patch_232">
    <path d="M 1072.820455 313.860937 
L 1076.911364 313.860937 
L 1076.911364 313.860937 
L 1072.820455 313.860937 
z
" clip-path="url(#p30f3e45511)" style="fill: #1f77b4"/>
   </g>
   <g id="patch_233">
    <path d="M 1076.911364 313.860937 
L 1081.002273 313.860937 
L 1081.002273 313.851018 
L 1076.911364 313.851018 
z
" clip-path="url(#p30f3e45511)" style="fill: #1f77b4"/>
   </g>
   <g id="patch_234">
    <path d="M 1081.002273 313.860937 
L 1085.093182 313.860937 
L 1085.093182 313.836139 
L 1081.002273 313.836139 
z
" clip-path="url(#p30f3e45511)" style="fill: #1f77b4"/>
   </g>
   <g id="patch_235">
    <path d="M 1085.093182 313.860937 
L 1089.184091 313.860937 
L 1089.184091 313.841099 
L 1085.093182 313.841099 
z
" clip-path="url(#p30f3e45511)" style="fill: #1f77b4"/>
   </g>
   <g id="patch_236">
    <path d="M 1089.184091 313.860937 
L 1093.275 313.860937 
L 1093.275 313.677432 
L 1089.184091 313.677432 
z
" clip-path="url(#p30f3e45511)" style="fill: #1f77b4"/>
   </g>
   <g id="patch_237">
    <path d="M 1093.275 313.860937 
L 1097.365909 313.860937 
L 1097.365909 313.766705 
L 1093.275 313.766705 
z
" clip-path="url(#p30f3e45511)" style="fill: #1f77b4"/>
   </g>
   <g id="patch_238">
    <path d="M 1097.365909 313.860937 
L 1101.456818 313.860937 
L 1101.456818 313.811341 
L 1097.365909 313.811341 
z
" clip-path="url(#p30f3e45511)" style="fill: #1f77b4"/>
   </g>
   <g id="patch_239">
    <path d="M 1101.456818 313.860937 
L 1105.547727 313.860937 
L 1105.547727 313.860937 
L 1101.456818 313.860937 
z
" clip-path="url(#p30f3e45511)" style="fill: #1f77b4"/>
   </g>
   <g id="patch_240">
    <path d="M 1105.547727 313.860937 
L 1109.638636 313.860937 
L 1109.638636 313.860937 
L 1105.547727 313.860937 
z
" clip-path="url(#p30f3e45511)" style="fill: #1f77b4"/>
   </g>
   <g id="patch_241">
    <path d="M 1109.638636 313.860937 
L 1113.729545 313.860937 
L 1113.729545 313.860937 
L 1109.638636 313.860937 
z
" clip-path="url(#p30f3e45511)" style="fill: #1f77b4"/>
   </g>
   <g id="patch_242">
    <path d="M 1113.729545 313.860937 
L 1117.820455 313.860937 
L 1117.820455 313.860937 
L 1113.729545 313.860937 
z
" clip-path="url(#p30f3e45511)" style="fill: #1f77b4"/>
   </g>
   <g id="patch_243">
    <path d="M 1117.820455 313.860937 
L 1121.911364 313.860937 
L 1121.911364 313.860937 
L 1117.820455 313.860937 
z
" clip-path="url(#p30f3e45511)" style="fill: #1f77b4"/>
   </g>
   <g id="patch_244">
    <path d="M 1121.911364 313.860937 
L 1126.002273 313.860937 
L 1126.002273 313.806382 
L 1121.911364 313.806382 
z
" clip-path="url(#p30f3e45511)" style="fill: #1f77b4"/>
   </g>
   <g id="patch_245">
    <path d="M 1126.002273 313.860937 
L 1130.093182 313.860937 
L 1130.093182 313.83118 
L 1126.002273 313.83118 
z
" clip-path="url(#p30f3e45511)" style="fill: #1f77b4"/>
   </g>
   <g id="patch_246">
    <path d="M 1130.093182 313.860937 
L 1134.184091 313.860937 
L 1134.184091 313.836139 
L 1130.093182 313.836139 
z
" clip-path="url(#p30f3e45511)" style="fill: #1f77b4"/>
   </g>
   <g id="patch_247">
    <path d="M 1134.184091 313.860937 
L 1138.275 313.860937 
L 1138.275 313.766705 
L 1134.184091 313.766705 
z
" clip-path="url(#p30f3e45511)" style="fill: #1f77b4"/>
   </g>
   <g id="patch_248">
    <path d="M 1138.275 313.860937 
L 1142.365909 313.860937 
L 1142.365909 313.70223 
L 1138.275 313.70223 
z
" clip-path="url(#p30f3e45511)" style="fill: #1f77b4"/>
   </g>
   <g id="patch_249">
    <path d="M 1142.365909 313.860937 
L 1146.456818 313.860937 
L 1146.456818 313.717109 
L 1142.365909 313.717109 
z
" clip-path="url(#p30f3e45511)" style="fill: #1f77b4"/>
   </g>
   <g id="patch_250">
    <path d="M 1146.456818 313.860937 
L 1150.547727 313.860937 
L 1150.547727 313.801422 
L 1146.456818 313.801422 
z
" clip-path="url(#p30f3e45511)" style="fill: #1f77b4"/>
   </g>
   <g id="matplotlib.axis_1">
    <g id="xtick_1">
     <g id="line2d_1">
      <defs>
       <path id="m26090b36db" d="M 0 0 
L 0 3.5 
" style="stroke: #000000; stroke-width: 0.8"/>
      </defs>
      <g>
       <use xlink:href="#m26090b36db" x="123.526262" y="313.860937" style="stroke: #000000; stroke-width: 0.8"/>
      </g>
     </g>
     <g id="text_1">
      <!-- 0 -->
      <g transform="translate(118.754387 332.258594)scale(0.15 -0.15)">
       <defs>
        <path id="DejaVuSerif-30" d="M 2034 219 
Q 2513 219 2750 744 
Q 2988 1269 2988 2328 
Q 2988 3391 2750 3916 
Q 2513 4441 2034 4441 
Q 1556 4441 1318 3916 
Q 1081 3391 1081 2328 
Q 1081 1269 1318 744 
Q 1556 219 2034 219 
z
M 2034 -91 
Q 1275 -91 848 546 
Q 422 1184 422 2328 
Q 422 3475 848 4112 
Q 1275 4750 2034 4750 
Q 2797 4750 3222 4112 
Q 3647 3475 3647 2328 
Q 3647 1184 3222 546 
Q 2797 -91 2034 -91 
z
" transform="scale(0.015625)"/>
       </defs>
       <use xlink:href="#DejaVuSerif-30"/>
      </g>
     </g>
    </g>
    <g id="xtick_2">
     <g id="line2d_2">
      <g>
       <use xlink:href="#m26090b36db" x="172.679355" y="313.860937" style="stroke: #000000; stroke-width: 0.8"/>
      </g>
     </g>
     <g id="text_2">
      <!-- 24 -->
      <g transform="translate(163.135605 332.258594)scale(0.15 -0.15)">
       <defs>
        <path id="DejaVuSerif-32" d="M 819 3553 
L 469 3553 
L 469 4384 
Q 803 4563 1142 4656 
Q 1481 4750 1806 4750 
Q 2534 4750 2956 4397 
Q 3378 4044 3378 3438 
Q 3378 2753 2422 1800 
Q 2347 1728 2309 1691 
L 1131 513 
L 3078 513 
L 3078 1088 
L 3444 1088 
L 3444 0 
L 434 0 
L 434 341 
L 1850 1753 
Q 2319 2222 2519 2614 
Q 2719 3006 2719 3438 
Q 2719 3909 2473 4175 
Q 2228 4441 1797 4441 
Q 1350 4441 1106 4219 
Q 863 3997 819 3553 
z
" transform="scale(0.015625)"/>
        <path id="DejaVuSerif-34" d="M 2234 1581 
L 2234 4063 
L 641 1581 
L 2234 1581 
z
M 3609 0 
L 1484 0 
L 1484 331 
L 2234 331 
L 2234 1247 
L 197 1247 
L 197 1588 
L 2241 4750 
L 2859 4750 
L 2859 1581 
L 3750 1581 
L 3750 1247 
L 2859 1247 
L 2859 331 
L 3609 331 
L 3609 0 
z
" transform="scale(0.015625)"/>
       </defs>
       <use xlink:href="#DejaVuSerif-32"/>
       <use xlink:href="#DejaVuSerif-34" x="63.623047"/>
      </g>
     </g>
    </g>
    <g id="xtick_3">
     <g id="line2d_3">
      <g>
       <use xlink:href="#m26090b36db" x="221.832449" y="313.860937" style="stroke: #000000; stroke-width: 0.8"/>
      </g>
     </g>
     <g id="text_3">
      <!-- 48 -->
      <g transform="translate(212.288699 332.258594)scale(0.15 -0.15)">
       <defs>
        <path id="DejaVuSerif-38" d="M 2981 1275 
Q 2981 1775 2732 2051 
Q 2484 2328 2034 2328 
Q 1584 2328 1336 2051 
Q 1088 1775 1088 1275 
Q 1088 772 1336 495 
Q 1584 219 2034 219 
Q 2484 219 2732 495 
Q 2981 772 2981 1275 
z
M 2853 3541 
Q 2853 3966 2637 4203 
Q 2422 4441 2034 4441 
Q 1650 4441 1433 4203 
Q 1216 3966 1216 3541 
Q 1216 3113 1433 2875 
Q 1650 2638 2034 2638 
Q 2422 2638 2637 2875 
Q 2853 3113 2853 3541 
z
M 2516 2484 
Q 3047 2413 3344 2092 
Q 3641 1772 3641 1275 
Q 3641 619 3225 264 
Q 2809 -91 2034 -91 
Q 1263 -91 845 264 
Q 428 619 428 1275 
Q 428 1772 725 2092 
Q 1022 2413 1556 2484 
Q 1084 2569 832 2842 
Q 581 3116 581 3541 
Q 581 4103 968 4426 
Q 1356 4750 2034 4750 
Q 2713 4750 3100 4426 
Q 3488 4103 3488 3541 
Q 3488 3116 3236 2842 
Q 2984 2569 2516 2484 
z
" transform="scale(0.015625)"/>
       </defs>
       <use xlink:href="#DejaVuSerif-34"/>
       <use xlink:href="#DejaVuSerif-38" x="63.623047"/>
      </g>
     </g>
    </g>
    <g id="xtick_4">
     <g id="line2d_4">
      <g>
       <use xlink:href="#m26090b36db" x="270.985543" y="313.860937" style="stroke: #000000; stroke-width: 0.8"/>
      </g>
     </g>
     <g id="text_4">
      <!-- 72 -->
      <g transform="translate(261.441793 332.258594)scale(0.15 -0.15)">
       <defs>
        <path id="DejaVuSerif-37" d="M 3609 4347 
L 1784 0 
L 1319 0 
L 3059 4153 
L 903 4153 
L 903 3578 
L 538 3578 
L 538 4666 
L 3609 4666 
L 3609 4347 
z
" transform="scale(0.015625)"/>
       </defs>
       <use xlink:href="#DejaVuSerif-37"/>
       <use xlink:href="#DejaVuSerif-32" x="63.623047"/>
      </g>
     </g>
    </g>
    <g id="xtick_5">
     <g id="line2d_5">
      <g>
       <use xlink:href="#m26090b36db" x="320.138637" y="313.860937" style="stroke: #000000; stroke-width: 0.8"/>
      </g>
     </g>
     <g id="text_5">
      <!-- 96 -->
      <g transform="translate(310.594887 332.258594)scale(0.15 -0.15)">
       <defs>
        <path id="DejaVuSerif-39" d="M 2994 2091 
Q 2784 1856 2512 1740 
Q 2241 1625 1900 1625 
Q 1206 1625 804 2044 
Q 403 2463 403 3188 
Q 403 3897 839 4323 
Q 1275 4750 2003 4750 
Q 2794 4750 3217 4161 
Q 3641 3572 3641 2478 
Q 3641 1253 3137 581 
Q 2634 -91 1722 -91 
Q 1475 -91 1203 -44 
Q 931 3 647 97 
L 647 872 
L 997 872 
Q 1038 556 1241 387 
Q 1444 219 1784 219 
Q 2391 219 2687 676 
Q 2984 1134 2994 2091 
z
M 1978 4441 
Q 1534 4441 1298 4117 
Q 1063 3794 1063 3188 
Q 1063 2581 1298 2256 
Q 1534 1931 1978 1931 
Q 2422 1931 2658 2245 
Q 2894 2559 2894 3150 
Q 2894 3772 2656 4106 
Q 2419 4441 1978 4441 
z
" transform="scale(0.015625)"/>
        <path id="DejaVuSerif-36" d="M 2094 219 
Q 2534 219 2771 542 
Q 3009 866 3009 1472 
Q 3009 2078 2771 2401 
Q 2534 2725 2094 2725 
Q 1647 2725 1412 2412 
Q 1178 2100 1178 1509 
Q 1178 888 1415 553 
Q 1653 219 2094 219 
z
M 1075 2569 
Q 1288 2803 1556 2918 
Q 1825 3034 2163 3034 
Q 2859 3034 3264 2615 
Q 3669 2197 3669 1472 
Q 3669 763 3233 336 
Q 2797 -91 2069 -91 
Q 1278 -91 853 498 
Q 428 1088 428 2181 
Q 428 3406 931 4078 
Q 1434 4750 2350 4750 
Q 2597 4750 2869 4703 
Q 3141 4656 3425 4563 
L 3425 3794 
L 3072 3794 
Q 3034 4109 2831 4275 
Q 2628 4441 2284 4441 
Q 1678 4441 1381 3981 
Q 1084 3522 1075 2569 
z
" transform="scale(0.015625)"/>
       </defs>
       <use xlink:href="#DejaVuSerif-39"/>
       <use xlink:href="#DejaVuSerif-36" x="63.623047"/>
      </g>
     </g>
    </g>
    <g id="xtick_6">
     <g id="line2d_6">
      <g>
       <use xlink:href="#m26090b36db" x="369.29173" y="313.860937" style="stroke: #000000; stroke-width: 0.8"/>
      </g>
     </g>
     <g id="text_6">
      <!-- 120 -->
      <g transform="translate(354.976105 332.258594)scale(0.15 -0.15)">
       <defs>
        <path id="DejaVuSerif-31" d="M 909 0 
L 909 331 
L 1722 331 
L 1722 4213 
L 781 3603 
L 781 4013 
L 1919 4750 
L 2350 4750 
L 2350 331 
L 3163 331 
L 3163 0 
L 909 0 
z
" transform="scale(0.015625)"/>
       </defs>
       <use xlink:href="#DejaVuSerif-31"/>
       <use xlink:href="#DejaVuSerif-32" x="63.623047"/>
       <use xlink:href="#DejaVuSerif-30" x="127.246094"/>
      </g>
     </g>
    </g>
    <g id="xtick_7">
     <g id="line2d_7">
      <g>
       <use xlink:href="#m26090b36db" x="418.444824" y="313.860937" style="stroke: #000000; stroke-width: 0.8"/>
      </g>
     </g>
     <g id="text_7">
      <!-- 144 -->
      <g transform="translate(404.129199 332.258594)scale(0.15 -0.15)">
       <use xlink:href="#DejaVuSerif-31"/>
       <use xlink:href="#DejaVuSerif-34" x="63.623047"/>
       <use xlink:href="#DejaVuSerif-34" x="127.246094"/>
      </g>
     </g>
    </g>
    <g id="xtick_8">
     <g id="line2d_8">
      <g>
       <use xlink:href="#m26090b36db" x="467.597918" y="313.860937" style="stroke: #000000; stroke-width: 0.8"/>
      </g>
     </g>
     <g id="text_8">
      <!-- 168 -->
      <g transform="translate(453.282293 332.258594)scale(0.15 -0.15)">
       <use xlink:href="#DejaVuSerif-31"/>
       <use xlink:href="#DejaVuSerif-36" x="63.623047"/>
       <use xlink:href="#DejaVuSerif-38" x="127.246094"/>
      </g>
     </g>
    </g>
    <g id="xtick_9">
     <g id="line2d_9">
      <g>
       <use xlink:href="#m26090b36db" x="516.751011" y="313.860937" style="stroke: #000000; stroke-width: 0.8"/>
      </g>
     </g>
     <g id="text_9">
      <!-- 192 -->
      <g transform="translate(502.435386 332.258594)scale(0.15 -0.15)">
       <use xlink:href="#DejaVuSerif-31"/>
       <use xlink:href="#DejaVuSerif-39" x="63.623047"/>
       <use xlink:href="#DejaVuSerif-32" x="127.246094"/>
      </g>
     </g>
    </g>
    <g id="xtick_10">
     <g id="line2d_10">
      <g>
       <use xlink:href="#m26090b36db" x="565.904105" y="313.860937" style="stroke: #000000; stroke-width: 0.8"/>
      </g>
     </g>
     <g id="text_10">
      <!-- 216 -->
      <g transform="translate(551.58848 332.258594)scale(0.15 -0.15)">
       <use xlink:href="#DejaVuSerif-32"/>
       <use xlink:href="#DejaVuSerif-31" x="63.623047"/>
       <use xlink:href="#DejaVuSerif-36" x="127.246094"/>
      </g>
     </g>
    </g>
    <g id="xtick_11">
     <g id="line2d_11">
      <g>
       <use xlink:href="#m26090b36db" x="615.057199" y="313.860937" style="stroke: #000000; stroke-width: 0.8"/>
      </g>
     </g>
     <g id="text_11">
      <!-- 240 -->
      <g transform="translate(600.741574 332.258594)scale(0.15 -0.15)">
       <use xlink:href="#DejaVuSerif-32"/>
       <use xlink:href="#DejaVuSerif-34" x="63.623047"/>
       <use xlink:href="#DejaVuSerif-30" x="127.246094"/>
      </g>
     </g>
    </g>
    <g id="xtick_12">
     <g id="line2d_12">
      <g>
       <use xlink:href="#m26090b36db" x="664.210292" y="313.860937" style="stroke: #000000; stroke-width: 0.8"/>
      </g>
     </g>
     <g id="text_12">
      <!-- 264 -->
      <g transform="translate(649.894667 332.258594)scale(0.15 -0.15)">
       <use xlink:href="#DejaVuSerif-32"/>
       <use xlink:href="#DejaVuSerif-36" x="63.623047"/>
       <use xlink:href="#DejaVuSerif-34" x="127.246094"/>
      </g>
     </g>
    </g>
    <g id="xtick_13">
     <g id="line2d_13">
      <g>
       <use xlink:href="#m26090b36db" x="713.363386" y="313.860937" style="stroke: #000000; stroke-width: 0.8"/>
      </g>
     </g>
     <g id="text_13">
      <!-- 288 -->
      <g transform="translate(699.047761 332.258594)scale(0.15 -0.15)">
       <use xlink:href="#DejaVuSerif-32"/>
       <use xlink:href="#DejaVuSerif-38" x="63.623047"/>
       <use xlink:href="#DejaVuSerif-38" x="127.246094"/>
      </g>
     </g>
    </g>
    <g id="xtick_14">
     <g id="line2d_14">
      <g>
       <use xlink:href="#m26090b36db" x="762.51648" y="313.860937" style="stroke: #000000; stroke-width: 0.8"/>
      </g>
     </g>
     <g id="text_14">
      <!-- 312 -->
      <g transform="translate(748.200855 332.258594)scale(0.15 -0.15)">
       <defs>
        <path id="DejaVuSerif-33" d="M 622 4469 
Q 988 4606 1323 4678 
Q 1659 4750 1953 4750 
Q 2638 4750 3022 4454 
Q 3406 4159 3406 3634 
Q 3406 3213 3140 2930 
Q 2875 2647 2388 2547 
Q 2963 2466 3280 2130 
Q 3597 1794 3597 1259 
Q 3597 606 3158 257 
Q 2719 -91 1894 -91 
Q 1528 -91 1179 -12 
Q 831 66 488 225 
L 488 1131 
L 838 1131 
Q 869 681 1141 450 
Q 1413 219 1906 219 
Q 2384 219 2661 495 
Q 2938 772 2938 1253 
Q 2938 1803 2653 2086 
Q 2369 2369 1819 2369 
L 1522 2369 
L 1522 2688 
L 1678 2688 
Q 2225 2688 2498 2914 
Q 2772 3141 2772 3597 
Q 2772 4006 2547 4223 
Q 2322 4441 1900 4441 
Q 1478 4441 1245 4241 
Q 1013 4041 972 3647 
L 622 3647 
L 622 4469 
z
" transform="scale(0.015625)"/>
       </defs>
       <use xlink:href="#DejaVuSerif-33"/>
       <use xlink:href="#DejaVuSerif-31" x="63.623047"/>
       <use xlink:href="#DejaVuSerif-32" x="127.246094"/>
      </g>
     </g>
    </g>
    <g id="xtick_15">
     <g id="line2d_15">
      <g>
       <use xlink:href="#m26090b36db" x="811.669574" y="313.860937" style="stroke: #000000; stroke-width: 0.8"/>
      </g>
     </g>
     <g id="text_15">
      <!-- 336 -->
      <g transform="translate(797.353949 332.258594)scale(0.15 -0.15)">
       <use xlink:href="#DejaVuSerif-33"/>
       <use xlink:href="#DejaVuSerif-33" x="63.623047"/>
       <use xlink:href="#DejaVuSerif-36" x="127.246094"/>
      </g>
     </g>
    </g>
    <g id="xtick_16">
     <g id="line2d_16">
      <g>
       <use xlink:href="#m26090b36db" x="860.822667" y="313.860937" style="stroke: #000000; stroke-width: 0.8"/>
      </g>
     </g>
     <g id="text_16">
      <!-- 360 -->
      <g transform="translate(846.507042 332.258594)scale(0.15 -0.15)">
       <use xlink:href="#DejaVuSerif-33"/>
       <use xlink:href="#DejaVuSerif-36" x="63.623047"/>
       <use xlink:href="#DejaVuSerif-30" x="127.246094"/>
      </g>
     </g>
    </g>
    <g id="xtick_17">
     <g id="line2d_17">
      <g>
       <use xlink:href="#m26090b36db" x="909.975761" y="313.860937" style="stroke: #000000; stroke-width: 0.8"/>
      </g>
     </g>
     <g id="text_17">
      <!-- 384 -->
      <g transform="translate(895.660136 332.258594)scale(0.15 -0.15)">
       <use xlink:href="#DejaVuSerif-33"/>
       <use xlink:href="#DejaVuSerif-38" x="63.623047"/>
       <use xlink:href="#DejaVuSerif-34" x="127.246094"/>
      </g>
     </g>
    </g>
    <g id="xtick_18">
     <g id="line2d_18">
      <g>
       <use xlink:href="#m26090b36db" x="959.128855" y="313.860937" style="stroke: #000000; stroke-width: 0.8"/>
      </g>
     </g>
     <g id="text_18">
      <!-- 408 -->
      <g transform="translate(944.81323 332.258594)scale(0.15 -0.15)">
       <use xlink:href="#DejaVuSerif-34"/>
       <use xlink:href="#DejaVuSerif-30" x="63.623047"/>
       <use xlink:href="#DejaVuSerif-38" x="127.246094"/>
      </g>
     </g>
    </g>
    <g id="xtick_19">
     <g id="line2d_19">
      <g>
       <use xlink:href="#m26090b36db" x="1008.281948" y="313.860937" style="stroke: #000000; stroke-width: 0.8"/>
      </g>
     </g>
     <g id="text_19">
      <!-- 432 -->
      <g transform="translate(993.966323 332.258594)scale(0.15 -0.15)">
       <use xlink:href="#DejaVuSerif-34"/>
       <use xlink:href="#DejaVuSerif-33" x="63.623047"/>
       <use xlink:href="#DejaVuSerif-32" x="127.246094"/>
      </g>
     </g>
    </g>
    <g id="xtick_20">
     <g id="line2d_20">
      <g>
       <use xlink:href="#m26090b36db" x="1057.435042" y="313.860937" style="stroke: #000000; stroke-width: 0.8"/>
      </g>
     </g>
     <g id="text_20">
      <!-- 456 -->
      <g transform="translate(1043.119417 332.258594)scale(0.15 -0.15)">
       <defs>
        <path id="DejaVuSerif-35" d="M 3219 4666 
L 3219 4153 
L 1081 4153 
L 1081 2816 
Q 1244 2928 1461 2984 
Q 1678 3041 1947 3041 
Q 2703 3041 3140 2622 
Q 3578 2203 3578 1478 
Q 3578 738 3136 323 
Q 2694 -91 1894 -91 
Q 1572 -91 1234 -12 
Q 897 66 544 225 
L 544 1131 
L 897 1131 
Q 925 688 1179 453 
Q 1434 219 1894 219 
Q 2388 219 2653 544 
Q 2919 869 2919 1478 
Q 2919 2084 2655 2407 
Q 2391 2731 1894 2731 
Q 1613 2731 1398 2631 
Q 1184 2531 1019 2322 
L 750 2322 
L 750 4666 
L 3219 4666 
z
" transform="scale(0.015625)"/>
       </defs>
       <use xlink:href="#DejaVuSerif-34"/>
       <use xlink:href="#DejaVuSerif-35" x="63.623047"/>
       <use xlink:href="#DejaVuSerif-36" x="127.246094"/>
      </g>
     </g>
    </g>
    <g id="xtick_21">
     <g id="line2d_21">
      <g>
       <use xlink:href="#m26090b36db" x="1106.588136" y="313.860937" style="stroke: #000000; stroke-width: 0.8"/>
      </g>
     </g>
     <g id="text_21">
      <!-- 480 -->
      <g transform="translate(1092.272511 332.258594)scale(0.15 -0.15)">
       <use xlink:href="#DejaVuSerif-34"/>
       <use xlink:href="#DejaVuSerif-38" x="63.623047"/>
       <use xlink:href="#DejaVuSerif-30" x="127.246094"/>
      </g>
     </g>
    </g>
    <g id="text_22">
     <!-- Time (Hours) -->
     <g transform="translate(575.93125 354.575)scale(0.2 -0.2)">
      <defs>
       <path id="DejaVuSerif-54" d="M 1222 0 
L 1222 331 
L 1819 331 
L 1819 4294 
L 447 4294 
L 447 3566 
L 63 3566 
L 63 4666 
L 4206 4666 
L 4206 3566 
L 3822 3566 
L 3822 4294 
L 2450 4294 
L 2450 331 
L 3047 331 
L 3047 0 
L 1222 0 
z
" transform="scale(0.015625)"/>
       <path id="DejaVuSerif-69" d="M 622 4353 
Q 622 4497 726 4603 
Q 831 4709 978 4709 
Q 1122 4709 1226 4603 
Q 1331 4497 1331 4353 
Q 1331 4206 1228 4103 
Q 1125 4000 978 4000 
Q 831 4000 726 4103 
Q 622 4206 622 4353 
z
M 1356 331 
L 1900 331 
L 1900 0 
L 231 0 
L 231 331 
L 781 331 
L 781 2988 
L 231 2988 
L 231 3322 
L 1356 3322 
L 1356 331 
z
" transform="scale(0.015625)"/>
       <path id="DejaVuSerif-6d" d="M 3316 2675 
Q 3481 3041 3739 3227 
Q 3997 3413 4341 3413 
Q 4863 3413 5119 3089 
Q 5375 2766 5375 2113 
L 5375 331 
L 5894 331 
L 5894 0 
L 4300 0 
L 4300 331 
L 4800 331 
L 4800 2047 
Q 4800 2556 4650 2772 
Q 4500 2988 4153 2988 
Q 3769 2988 3567 2697 
Q 3366 2406 3366 1850 
L 3366 331 
L 3866 331 
L 3866 0 
L 2291 0 
L 2291 331 
L 2791 331 
L 2791 2069 
Q 2791 2566 2641 2777 
Q 2491 2988 2144 2988 
Q 1759 2988 1557 2697 
Q 1356 2406 1356 1850 
L 1356 331 
L 1856 331 
L 1856 0 
L 263 0 
L 263 331 
L 781 331 
L 781 2994 
L 231 2994 
L 231 3322 
L 1356 3322 
L 1356 2731 
Q 1516 3063 1762 3238 
Q 2009 3413 2322 3413 
Q 2709 3413 2968 3220 
Q 3228 3028 3316 2675 
z
" transform="scale(0.015625)"/>
       <path id="DejaVuSerif-65" d="M 3469 1600 
L 991 1600 
L 991 1575 
Q 991 903 1244 561 
Q 1497 219 1991 219 
Q 2369 219 2611 417 
Q 2853 616 2950 1006 
L 3413 1006 
Q 3275 459 2904 184 
Q 2534 -91 1931 -91 
Q 1203 -91 761 389 
Q 319 869 319 1663 
Q 319 2450 753 2931 
Q 1188 3413 1894 3413 
Q 2647 3413 3050 2948 
Q 3453 2484 3469 1600 
z
M 2791 1931 
Q 2772 2513 2545 2808 
Q 2319 3103 1894 3103 
Q 1497 3103 1269 2806 
Q 1041 2509 991 1931 
L 2791 1931 
z
" transform="scale(0.015625)"/>
       <path id="DejaVuSerif-20" transform="scale(0.015625)"/>
       <path id="DejaVuSerif-28" d="M 2041 -997 
Q 1281 -656 893 83 
Q 506 822 506 1931 
Q 506 3044 893 3783 
Q 1281 4522 2041 4863 
L 2041 4556 
Q 1559 4225 1350 3623 
Q 1141 3022 1141 1931 
Q 1141 844 1350 242 
Q 1559 -359 2041 -691 
L 2041 -997 
z
" transform="scale(0.015625)"/>
       <path id="DejaVuSerif-48" d="M 353 0 
L 353 331 
L 947 331 
L 947 4331 
L 353 4331 
L 353 4666 
L 2175 4666 
L 2175 4331 
L 1581 4331 
L 1581 2719 
L 4000 2719 
L 4000 4331 
L 3406 4331 
L 3406 4666 
L 5228 4666 
L 5228 4331 
L 4634 4331 
L 4634 331 
L 5228 331 
L 5228 0 
L 3406 0 
L 3406 331 
L 4000 331 
L 4000 2338 
L 1581 2338 
L 1581 331 
L 2175 331 
L 2175 0 
L 353 0 
z
" transform="scale(0.015625)"/>
       <path id="DejaVuSerif-6f" d="M 1925 219 
Q 2388 219 2623 584 
Q 2859 950 2859 1663 
Q 2859 2375 2623 2739 
Q 2388 3103 1925 3103 
Q 1463 3103 1227 2739 
Q 991 2375 991 1663 
Q 991 950 1228 584 
Q 1466 219 1925 219 
z
M 1925 -91 
Q 1200 -91 759 389 
Q 319 869 319 1663 
Q 319 2456 758 2934 
Q 1197 3413 1925 3413 
Q 2653 3413 3092 2934 
Q 3531 2456 3531 1663 
Q 3531 869 3092 389 
Q 2653 -91 1925 -91 
z
" transform="scale(0.015625)"/>
       <path id="DejaVuSerif-75" d="M 2266 3322 
L 3341 3322 
L 3341 331 
L 3884 331 
L 3884 0 
L 2766 0 
L 2766 588 
Q 2606 256 2353 82 
Q 2100 -91 1766 -91 
Q 1213 -91 952 223 
Q 691 538 691 1209 
L 691 2988 
L 172 2988 
L 172 3322 
L 1269 3322 
L 1269 1388 
Q 1269 781 1417 556 
Q 1566 331 1947 331 
Q 2347 331 2556 625 
Q 2766 919 2766 1478 
L 2766 2988 
L 2266 2988 
L 2266 3322 
z
" transform="scale(0.015625)"/>
       <path id="DejaVuSerif-72" d="M 3059 3328 
L 3059 2497 
L 2728 2497 
Q 2713 2744 2591 2866 
Q 2469 2988 2234 2988 
Q 1809 2988 1582 2694 
Q 1356 2400 1356 1850 
L 1356 331 
L 2022 331 
L 2022 0 
L 263 0 
L 263 331 
L 781 331 
L 781 2994 
L 231 2994 
L 231 3322 
L 1356 3322 
L 1356 2731 
Q 1525 3078 1790 3245 
Q 2056 3413 2438 3413 
Q 2578 3413 2733 3391 
Q 2888 3369 3059 3328 
z
" transform="scale(0.015625)"/>
       <path id="DejaVuSerif-73" d="M 359 184 
L 359 959 
L 691 959 
Q 703 588 923 403 
Q 1144 219 1575 219 
Q 1963 219 2166 364 
Q 2369 509 2369 788 
Q 2369 1006 2220 1140 
Q 2072 1275 1594 1428 
L 1178 1569 
Q 750 1706 558 1912 
Q 366 2119 366 2438 
Q 366 2894 700 3153 
Q 1034 3413 1625 3413 
Q 1888 3413 2178 3344 
Q 2469 3275 2778 3144 
L 2778 2419 
L 2447 2419 
Q 2434 2741 2221 2922 
Q 2009 3103 1644 3103 
Q 1281 3103 1095 2975 
Q 909 2847 909 2591 
Q 909 2381 1050 2254 
Q 1191 2128 1613 1997 
L 2069 1856 
Q 2541 1709 2748 1489 
Q 2956 1269 2956 922 
Q 2956 450 2595 179 
Q 2234 -91 1600 -91 
Q 1278 -91 972 -22 
Q 666 47 359 184 
z
" transform="scale(0.015625)"/>
       <path id="DejaVuSerif-29" d="M 453 -997 
L 453 -691 
Q 934 -359 1145 242 
Q 1356 844 1356 1931 
Q 1356 3022 1145 3623 
Q 934 4225 453 4556 
L 453 4863 
Q 1216 4522 1603 3783 
Q 1991 3044 1991 1931 
Q 1991 822 1603 83 
Q 1216 -656 453 -997 
z
" transform="scale(0.015625)"/>
      </defs>
      <use xlink:href="#DejaVuSerif-54"/>
      <use xlink:href="#DejaVuSerif-69" x="66.699219"/>
      <use xlink:href="#DejaVuSerif-6d" x="98.681641"/>
      <use xlink:href="#DejaVuSerif-65" x="193.505859"/>
      <use xlink:href="#DejaVuSerif-20" x="252.685547"/>
      <use xlink:href="#DejaVuSerif-28" x="284.472656"/>
      <use xlink:href="#DejaVuSerif-48" x="323.486328"/>
      <use xlink:href="#DejaVuSerif-6f" x="410.693359"/>
      <use xlink:href="#DejaVuSerif-75" x="470.898438"/>
      <use xlink:href="#DejaVuSerif-72" x="535.302734"/>
      <use xlink:href="#DejaVuSerif-73" x="583.105469"/>
      <use xlink:href="#DejaVuSerif-29" x="634.423828"/>
     </g>
    </g>
   </g>
   <g id="matplotlib.axis_2">
    <g id="ytick_1">
     <g id="line2d_22">
      <defs>
       <path id="m749276866c" d="M 0 0 
L -3.5 0 
" style="stroke: #000000; stroke-width: 0.8"/>
      </defs>
      <g>
       <use xlink:href="#m749276866c" x="85.275" y="313.860937" style="stroke: #000000; stroke-width: 0.8"/>
      </g>
     </g>
     <g id="text_23">
      <!-- 0 -->
      <g transform="translate(68.73125 319.559766)scale(0.15 -0.15)">
       <use xlink:href="#DejaVuSerif-30"/>
      </g>
     </g>
    </g>
    <g id="ytick_2">
     <g id="line2d_23">
      <g>
       <use xlink:href="#m749276866c" x="85.275" y="264.264845" style="stroke: #000000; stroke-width: 0.8"/>
      </g>
     </g>
     <g id="text_24">
      <!-- 10000 -->
      <g transform="translate(30.55625 269.963673)scale(0.15 -0.15)">
       <use xlink:href="#DejaVuSerif-31"/>
       <use xlink:href="#DejaVuSerif-30" x="63.623047"/>
       <use xlink:href="#DejaVuSerif-30" x="127.246094"/>
       <use xlink:href="#DejaVuSerif-30" x="190.869141"/>
       <use xlink:href="#DejaVuSerif-30" x="254.492188"/>
      </g>
     </g>
    </g>
    <g id="ytick_3">
     <g id="line2d_24">
      <g>
       <use xlink:href="#m749276866c" x="85.275" y="214.668753" style="stroke: #000000; stroke-width: 0.8"/>
      </g>
     </g>
     <g id="text_25">
      <!-- 20000 -->
      <g transform="translate(30.55625 220.367581)scale(0.15 -0.15)">
       <use xlink:href="#DejaVuSerif-32"/>
       <use xlink:href="#DejaVuSerif-30" x="63.623047"/>
       <use xlink:href="#DejaVuSerif-30" x="127.246094"/>
       <use xlink:href="#DejaVuSerif-30" x="190.869141"/>
       <use xlink:href="#DejaVuSerif-30" x="254.492188"/>
      </g>
     </g>
    </g>
    <g id="ytick_4">
     <g id="line2d_25">
      <g>
       <use xlink:href="#m749276866c" x="85.275" y="165.07266" style="stroke: #000000; stroke-width: 0.8"/>
      </g>
     </g>
     <g id="text_26">
      <!-- 30000 -->
      <g transform="translate(30.55625 170.771488)scale(0.15 -0.15)">
       <use xlink:href="#DejaVuSerif-33"/>
       <use xlink:href="#DejaVuSerif-30" x="63.623047"/>
       <use xlink:href="#DejaVuSerif-30" x="127.246094"/>
       <use xlink:href="#DejaVuSerif-30" x="190.869141"/>
       <use xlink:href="#DejaVuSerif-30" x="254.492188"/>
      </g>
     </g>
    </g>
    <g id="ytick_5">
     <g id="line2d_26">
      <g>
       <use xlink:href="#m749276866c" x="85.275" y="115.476568" style="stroke: #000000; stroke-width: 0.8"/>
      </g>
     </g>
     <g id="text_27">
      <!-- 40000 -->
      <g transform="translate(30.55625 121.175396)scale(0.15 -0.15)">
       <use xlink:href="#DejaVuSerif-34"/>
       <use xlink:href="#DejaVuSerif-30" x="63.623047"/>
       <use xlink:href="#DejaVuSerif-30" x="127.246094"/>
       <use xlink:href="#DejaVuSerif-30" x="190.869141"/>
       <use xlink:href="#DejaVuSerif-30" x="254.492188"/>
      </g>
     </g>
    </g>
    <g id="ytick_6">
     <g id="line2d_27">
      <g>
       <use xlink:href="#m749276866c" x="85.275" y="65.880475" style="stroke: #000000; stroke-width: 0.8"/>
      </g>
     </g>
     <g id="text_28">
      <!-- 50000 -->
      <g transform="translate(30.55625 71.579303)scale(0.15 -0.15)">
       <use xlink:href="#DejaVuSerif-35"/>
       <use xlink:href="#DejaVuSerif-30" x="63.623047"/>
       <use xlink:href="#DejaVuSerif-30" x="127.246094"/>
       <use xlink:href="#DejaVuSerif-30" x="190.869141"/>
       <use xlink:href="#DejaVuSerif-30" x="254.492188"/>
      </g>
     </g>
    </g>
    <g id="text_29">
     <!-- Trades -->
     <g transform="translate(22.396875 210.125)rotate(-90)scale(0.2 -0.2)">
      <defs>
       <path id="DejaVuSerif-61" d="M 2547 1044 
L 2547 1747 
L 1806 1747 
Q 1378 1747 1168 1562 
Q 959 1378 959 997 
Q 959 650 1171 447 
Q 1384 244 1747 244 
Q 2106 244 2326 466 
Q 2547 688 2547 1044 
z
M 3122 2075 
L 3122 331 
L 3634 331 
L 3634 0 
L 2547 0 
L 2547 359 
Q 2356 128 2106 18 
Q 1856 -91 1522 -91 
Q 969 -91 644 203 
Q 319 497 319 997 
Q 319 1513 691 1797 
Q 1063 2081 1741 2081 
L 2547 2081 
L 2547 2309 
Q 2547 2688 2317 2895 
Q 2088 3103 1672 3103 
Q 1328 3103 1125 2947 
Q 922 2791 872 2484 
L 575 2484 
L 575 3156 
Q 875 3284 1158 3348 
Q 1441 3413 1709 3413 
Q 2400 3413 2761 3070 
Q 3122 2728 3122 2075 
z
" transform="scale(0.015625)"/>
       <path id="DejaVuSerif-64" d="M 3359 331 
L 3909 331 
L 3909 0 
L 2784 0 
L 2784 519 
Q 2616 206 2355 57 
Q 2094 -91 1709 -91 
Q 1097 -91 708 395 
Q 319 881 319 1663 
Q 319 2444 706 2928 
Q 1094 3413 1709 3413 
Q 2094 3413 2355 3264 
Q 2616 3116 2784 2803 
L 2784 4531 
L 2241 4531 
L 2241 4863 
L 3359 4863 
L 3359 331 
z
M 2784 1497 
L 2784 1825 
Q 2784 2422 2554 2737 
Q 2325 3053 1888 3053 
Q 1444 3053 1217 2703 
Q 991 2353 991 1663 
Q 991 975 1217 622 
Q 1444 269 1888 269 
Q 2325 269 2554 583 
Q 2784 897 2784 1497 
z
" transform="scale(0.015625)"/>
      </defs>
      <use xlink:href="#DejaVuSerif-54"/>
      <use xlink:href="#DejaVuSerif-72" x="66.699219"/>
      <use xlink:href="#DejaVuSerif-61" x="114.501953"/>
      <use xlink:href="#DejaVuSerif-64" x="174.121094"/>
      <use xlink:href="#DejaVuSerif-65" x="238.134766"/>
      <use xlink:href="#DejaVuSerif-73" x="297.314453"/>
     </g>
    </g>
   </g>
   <g id="patch_251">
    <path d="M 85.275 313.860937 
L 85.275 36.660937 
" style="fill: none; stroke: #000000; stroke-width: 0.8; stroke-linejoin: miter; stroke-linecap: square"/>
   </g>
   <g id="patch_252">
    <path d="M 1201.275 313.860937 
L 1201.275 36.660937 
" style="fill: none; stroke: #000000; stroke-width: 0.8; stroke-linejoin: miter; stroke-linecap: square"/>
   </g>
   <g id="patch_253">
    <path d="M 85.275 313.860937 
L 1201.275 313.860937 
" style="fill: none; stroke: #000000; stroke-width: 0.8; stroke-linejoin: miter; stroke-linecap: square"/>
   </g>
   <g id="patch_254">
    <path d="M 85.275 36.660937 
L 1201.275 36.660937 
" style="fill: none; stroke: #000000; stroke-width: 0.8; stroke-linejoin: miter; stroke-linecap: square"/>
   </g>
   <g id="text_30">
    <!-- Distribution of Lag Times between Filing and Trade -->
    <g transform="translate(248.280469 29.995312)scale(0.3 -0.3)">
     <defs>
      <path id="DejaVuSerif-44" d="M 1581 331 
L 2163 331 
Q 3072 331 3558 850 
Q 4044 1369 4044 2338 
Q 4044 3306 3559 3818 
Q 3075 4331 2163 4331 
L 1581 4331 
L 1581 331 
z
M 353 0 
L 353 331 
L 947 331 
L 947 4331 
L 353 4331 
L 353 4666 
L 2209 4666 
Q 3416 4666 4089 4050 
Q 4763 3434 4763 2338 
Q 4763 1238 4088 619 
Q 3413 0 2209 0 
L 353 0 
z
" transform="scale(0.015625)"/>
      <path id="DejaVuSerif-74" d="M 691 2988 
L 184 2988 
L 184 3322 
L 691 3322 
L 691 4353 
L 1269 4353 
L 1269 3322 
L 2350 3322 
L 2350 2988 
L 1269 2988 
L 1269 878 
Q 1269 456 1350 337 
Q 1431 219 1650 219 
Q 1875 219 1978 351 
Q 2081 484 2088 781 
L 2522 781 
Q 2497 328 2275 118 
Q 2053 -91 1600 -91 
Q 1103 -91 897 129 
Q 691 350 691 878 
L 691 2988 
z
" transform="scale(0.015625)"/>
      <path id="DejaVuSerif-62" d="M 738 331 
L 738 4531 
L 184 4531 
L 184 4863 
L 1313 4863 
L 1313 2803 
Q 1481 3116 1742 3264 
Q 2003 3413 2388 3413 
Q 3000 3413 3387 2928 
Q 3775 2444 3775 1663 
Q 3775 881 3387 395 
Q 3000 -91 2388 -91 
Q 2003 -91 1742 57 
Q 1481 206 1313 519 
L 1313 0 
L 184 0 
L 184 331 
L 738 331 
z
M 1313 1497 
Q 1313 897 1542 583 
Q 1772 269 2209 269 
Q 2650 269 2876 622 
Q 3103 975 3103 1663 
Q 3103 2353 2876 2703 
Q 2650 3053 2209 3053 
Q 1772 3053 1542 2737 
Q 1313 2422 1313 1825 
L 1313 1497 
z
" transform="scale(0.015625)"/>
      <path id="DejaVuSerif-6e" d="M 263 0 
L 263 331 
L 781 331 
L 781 2988 
L 231 2988 
L 231 3322 
L 1356 3322 
L 1356 2731 
Q 1516 3069 1770 3241 
Q 2025 3413 2363 3413 
Q 2913 3413 3172 3097 
Q 3431 2781 3431 2113 
L 3431 331 
L 3944 331 
L 3944 0 
L 2356 0 
L 2356 331 
L 2853 331 
L 2853 1931 
Q 2853 2541 2703 2767 
Q 2553 2994 2175 2994 
Q 1775 2994 1565 2701 
Q 1356 2409 1356 1850 
L 1356 331 
L 1856 331 
L 1856 0 
L 263 0 
z
" transform="scale(0.015625)"/>
      <path id="DejaVuSerif-66" d="M 2753 4078 
L 2450 4078 
Q 2447 4313 2317 4434 
Q 2188 4556 1941 4556 
Q 1619 4556 1487 4379 
Q 1356 4203 1356 3750 
L 1356 3322 
L 2284 3322 
L 2284 2988 
L 1356 2988 
L 1356 331 
L 2094 331 
L 2094 0 
L 231 0 
L 231 331 
L 781 331 
L 781 2988 
L 231 2988 
L 231 3322 
L 781 3322 
L 781 3738 
Q 781 4294 1070 4578 
Q 1359 4863 1919 4863 
Q 2128 4863 2337 4825 
Q 2547 4788 2753 4709 
L 2753 4078 
z
" transform="scale(0.015625)"/>
      <path id="DejaVuSerif-4c" d="M 353 0 
L 353 331 
L 947 331 
L 947 4331 
L 353 4331 
L 353 4666 
L 2175 4666 
L 2175 4331 
L 1581 4331 
L 1581 384 
L 3713 384 
L 3713 1166 
L 4097 1166 
L 4097 0 
L 353 0 
z
" transform="scale(0.015625)"/>
      <path id="DejaVuSerif-67" d="M 3359 2988 
L 3359 72 
Q 3359 -644 2965 -1033 
Q 2572 -1422 1844 -1422 
Q 1516 -1422 1216 -1362 
Q 916 -1303 641 -1184 
L 641 -488 
L 941 -488 
Q 997 -813 1206 -963 
Q 1416 -1113 1806 -1113 
Q 2313 -1113 2548 -827 
Q 2784 -541 2784 72 
L 2784 519 
Q 2616 206 2355 57 
Q 2094 -91 1709 -91 
Q 1097 -91 708 395 
Q 319 881 319 1663 
Q 319 2444 706 2928 
Q 1094 3413 1709 3413 
Q 2094 3413 2355 3264 
Q 2616 3116 2784 2803 
L 2784 3322 
L 3909 3322 
L 3909 2988 
L 3359 2988 
z
M 2784 1825 
Q 2784 2422 2554 2737 
Q 2325 3053 1888 3053 
Q 1444 3053 1217 2703 
Q 991 2353 991 1663 
Q 991 975 1217 622 
Q 1444 269 1888 269 
Q 2325 269 2554 583 
Q 2784 897 2784 1497 
L 2784 1825 
z
" transform="scale(0.015625)"/>
      <path id="DejaVuSerif-77" d="M 3072 3322 
L 3922 728 
L 4672 2988 
L 4191 2988 
L 4191 3322 
L 5394 3322 
L 5394 2988 
L 5025 2988 
L 4038 0 
L 3559 0 
L 2741 2484 
L 1919 0 
L 1459 0 
L 475 2988 
L 103 2988 
L 103 3322 
L 1606 3322 
L 1606 2988 
L 1069 2988 
L 1813 728 
L 2669 3322 
L 3072 3322 
z
" transform="scale(0.015625)"/>
      <path id="DejaVuSerif-46" d="M 353 0 
L 353 331 
L 947 331 
L 947 4331 
L 353 4331 
L 353 4666 
L 4172 4666 
L 4172 3628 
L 3788 3628 
L 3788 4281 
L 1581 4281 
L 1581 2719 
L 3175 2719 
L 3175 3303 
L 3559 3303 
L 3559 1753 
L 3175 1753 
L 3175 2338 
L 1581 2338 
L 1581 331 
L 2328 331 
L 2328 0 
L 353 0 
z
" transform="scale(0.015625)"/>
      <path id="DejaVuSerif-6c" d="M 1313 331 
L 1856 331 
L 1856 0 
L 184 0 
L 184 331 
L 738 331 
L 738 4531 
L 184 4531 
L 184 4863 
L 1313 4863 
L 1313 331 
z
" transform="scale(0.015625)"/>
     </defs>
     <use xlink:href="#DejaVuSerif-44"/>
     <use xlink:href="#DejaVuSerif-69" x="80.175781"/>
     <use xlink:href="#DejaVuSerif-73" x="112.158203"/>
     <use xlink:href="#DejaVuSerif-74" x="163.476562"/>
     <use xlink:href="#DejaVuSerif-72" x="203.662109"/>
     <use xlink:href="#DejaVuSerif-69" x="251.464844"/>
     <use xlink:href="#DejaVuSerif-62" x="283.447266"/>
     <use xlink:href="#DejaVuSerif-75" x="347.460938"/>
     <use xlink:href="#DejaVuSerif-74" x="411.865234"/>
     <use xlink:href="#DejaVuSerif-69" x="452.050781"/>
     <use xlink:href="#DejaVuSerif-6f" x="484.033203"/>
     <use xlink:href="#DejaVuSerif-6e" x="544.238281"/>
     <use xlink:href="#DejaVuSerif-20" x="608.642578"/>
     <use xlink:href="#DejaVuSerif-6f" x="640.429688"/>
     <use xlink:href="#DejaVuSerif-66" x="700.634766"/>
     <use xlink:href="#DejaVuSerif-20" x="737.646484"/>
     <use xlink:href="#DejaVuSerif-4c" x="769.433594"/>
     <use xlink:href="#DejaVuSerif-61" x="835.839844"/>
     <use xlink:href="#DejaVuSerif-67" x="895.458984"/>
     <use xlink:href="#DejaVuSerif-20" x="959.472656"/>
     <use xlink:href="#DejaVuSerif-54" x="991.259766"/>
     <use xlink:href="#DejaVuSerif-69" x="1057.958984"/>
     <use xlink:href="#DejaVuSerif-6d" x="1089.941406"/>
     <use xlink:href="#DejaVuSerif-65" x="1184.765625"/>
     <use xlink:href="#DejaVuSerif-73" x="1243.945312"/>
     <use xlink:href="#DejaVuSerif-20" x="1295.263672"/>
     <use xlink:href="#DejaVuSerif-62" x="1327.050781"/>
     <use xlink:href="#DejaVuSerif-65" x="1391.064453"/>
     <use xlink:href="#DejaVuSerif-74" x="1450.244141"/>
     <use xlink:href="#DejaVuSerif-77" x="1490.429688"/>
     <use xlink:href="#DejaVuSerif-65" x="1576.025391"/>
     <use xlink:href="#DejaVuSerif-65" x="1635.205078"/>
     <use xlink:href="#DejaVuSerif-6e" x="1694.384766"/>
     <use xlink:href="#DejaVuSerif-20" x="1758.789062"/>
     <use xlink:href="#DejaVuSerif-46" x="1790.576172"/>
     <use xlink:href="#DejaVuSerif-69" x="1859.960938"/>
     <use xlink:href="#DejaVuSerif-6c" x="1891.943359"/>
     <use xlink:href="#DejaVuSerif-69" x="1923.925781"/>
     <use xlink:href="#DejaVuSerif-6e" x="1955.908203"/>
     <use xlink:href="#DejaVuSerif-67" x="2020.3125"/>
     <use xlink:href="#DejaVuSerif-20" x="2084.326172"/>
     <use xlink:href="#DejaVuSerif-61" x="2116.113281"/>
     <use xlink:href="#DejaVuSerif-6e" x="2175.732422"/>
     <use xlink:href="#DejaVuSerif-64" x="2240.136719"/>
     <use xlink:href="#DejaVuSerif-20" x="2304.150391"/>
     <use xlink:href="#DejaVuSerif-54" x="2335.9375"/>
     <use xlink:href="#DejaVuSerif-72" x="2402.636719"/>
     <use xlink:href="#DejaVuSerif-61" x="2450.439453"/>
     <use xlink:href="#DejaVuSerif-64" x="2510.058594"/>
     <use xlink:href="#DejaVuSerif-65" x="2574.072266"/>
    </g>
   </g>
  </g>
 </g>
 <defs>
  <clipPath id="p30f3e45511">
   <rect x="85.275" y="36.660937" width="1116" height="277.2"/>
  </clipPath>
 </defs>
</svg>
