<?xml version="1.0" encoding="utf-8" standalone="no"?>
<!DOCTYPE svg PUBLIC "-//W3C//DTD SVG 1.1//EN"
  "http://www.w3.org/Graphics/SVG/1.1/DTD/svg11.dtd">
<svg xmlns:xlink="http://www.w3.org/1999/xlink" width="1207.008594pt" height="595.476941pt" viewBox="0 0 1207.008594 595.476941" xmlns="http://www.w3.org/2000/svg" version="1.1">
 <metadata>
  <rdf:RDF xmlns:dc="http://purl.org/dc/elements/1.1/" xmlns:cc="http://creativecommons.org/ns#" xmlns:rdf="http://www.w3.org/1999/02/22-rdf-syntax-ns#">
   <cc:Work>
    <dc:type rdf:resource="http://purl.org/dc/dcmitype/StillImage"/>
    <dc:date>2022-10-31T17:18:15.089936</dc:date>
    <dc:format>image/svg+xml</dc:format>
    <dc:creator>
     <cc:Agent>
      <dc:title>Matplotlib v3.5.2, https://matplotlib.org/</dc:title>
     </cc:Agent>
    </dc:creator>
   </cc:Work>
  </rdf:RDF>
 </metadata>
 <defs>
  <style type="text/css">*{stroke-linejoin: round; stroke-linecap: butt}</style>
 </defs>
 <g id="figure_1">
  <g id="patch_1">
   <path d="M 0 595.476941 
L 1207.008594 595.476941 
L 1207.008594 0 
L 0 0 
z
" style="fill: #ffffff"/>
  </g>
  <g id="axes_1">
   <g id="patch_2">
    <path d="M 83.808594 526.260937 
L 1199.808594 526.260937 
L 1199.808594 36.660937 
L 83.808594 36.660937 
z
" style="fill: #ffffff"/>
   </g>
   <g id="matplotlib.axis_1">
    <g id="xtick_1">
     <g id="line2d_1">
      <defs>
       <path id="maeeae22364" d="M 0 0 
L 0 3.5 
" style="stroke: #000000; stroke-width: 0.8"/>
      </defs>
      <g>
       <use xlink:href="#maeeae22364" x="96.925715" y="526.260937" style="stroke: #000000; stroke-width: 0.8"/>
      </g>
     </g>
     <g id="text_1">
      <!-- 2016 -->
      <g transform="translate(62.305429 562.219097)rotate(-30)scale(0.15 -0.15)">
       <defs>
        <path id="DejaVuSerif-32" d="M 819 3553 
L 469 3553 
L 469 4384 
Q 803 4563 1142 4656 
Q 1481 4750 1806 4750 
Q 2534 4750 2956 4397 
Q 3378 4044 3378 3438 
Q 3378 2753 2422 1800 
Q 2347 1728 2309 1691 
L 1131 513 
L 3078 513 
L 3078 1088 
L 3444 1088 
L 3444 0 
L 434 0 
L 434 341 
L 1850 1753 
Q 2319 2222 2519 2614 
Q 2719 3006 2719 3438 
Q 2719 3909 2473 4175 
Q 2228 4441 1797 4441 
Q 1350 4441 1106 4219 
Q 863 3997 819 3553 
z
" transform="scale(0.015625)"/>
        <path id="DejaVuSerif-30" d="M 2034 219 
Q 2513 219 2750 744 
Q 2988 1269 2988 2328 
Q 2988 3391 2750 3916 
Q 2513 4441 2034 4441 
Q 1556 4441 1318 3916 
Q 1081 3391 1081 2328 
Q 1081 1269 1318 744 
Q 1556 219 2034 219 
z
M 2034 -91 
Q 1275 -91 848 546 
Q 422 1184 422 2328 
Q 422 3475 848 4112 
Q 1275 4750 2034 4750 
Q 2797 4750 3222 4112 
Q 3647 3475 3647 2328 
Q 3647 1184 3222 546 
Q 2797 -91 2034 -91 
z
" transform="scale(0.015625)"/>
        <path id="DejaVuSerif-31" d="M 909 0 
L 909 331 
L 1722 331 
L 1722 4213 
L 781 3603 
L 781 4013 
L 1919 4750 
L 2350 4750 
L 2350 331 
L 3163 331 
L 3163 0 
L 909 0 
z
" transform="scale(0.015625)"/>
        <path id="DejaVuSerif-36" d="M 2094 219 
Q 2534 219 2771 542 
Q 3009 866 3009 1472 
Q 3009 2078 2771 2401 
Q 2534 2725 2094 2725 
Q 1647 2725 1412 2412 
Q 1178 2100 1178 1509 
Q 1178 888 1415 553 
Q 1653 219 2094 219 
z
M 1075 2569 
Q 1288 2803 1556 2918 
Q 1825 3034 2163 3034 
Q 2859 3034 3264 2615 
Q 3669 2197 3669 1472 
Q 3669 763 3233 336 
Q 2797 -91 2069 -91 
Q 1278 -91 853 498 
Q 428 1088 428 2181 
Q 428 3406 931 4078 
Q 1434 4750 2350 4750 
Q 2597 4750 2869 4703 
Q 3141 4656 3425 4563 
L 3425 3794 
L 3072 3794 
Q 3034 4109 2831 4275 
Q 2628 4441 2284 4441 
Q 1678 4441 1381 3981 
Q 1084 3522 1075 2569 
z
" transform="scale(0.015625)"/>
       </defs>
       <use xlink:href="#DejaVuSerif-32"/>
       <use xlink:href="#DejaVuSerif-30" x="63.623047"/>
       <use xlink:href="#DejaVuSerif-31" x="127.246094"/>
       <use xlink:href="#DejaVuSerif-36" x="190.869141"/>
      </g>
     </g>
    </g>
    <g id="xtick_2">
     <g id="line2d_2">
      <g>
       <use xlink:href="#maeeae22364" x="266.867882" y="526.260937" style="stroke: #000000; stroke-width: 0.8"/>
      </g>
     </g>
     <g id="text_2">
      <!-- 2017 -->
      <g transform="translate(232.247597 562.219097)rotate(-30)scale(0.15 -0.15)">
       <defs>
        <path id="DejaVuSerif-37" d="M 3609 4347 
L 1784 0 
L 1319 0 
L 3059 4153 
L 903 4153 
L 903 3578 
L 538 3578 
L 538 4666 
L 3609 4666 
L 3609 4347 
z
" transform="scale(0.015625)"/>
       </defs>
       <use xlink:href="#DejaVuSerif-32"/>
       <use xlink:href="#DejaVuSerif-30" x="63.623047"/>
       <use xlink:href="#DejaVuSerif-31" x="127.246094"/>
       <use xlink:href="#DejaVuSerif-37" x="190.869141"/>
      </g>
     </g>
    </g>
    <g id="xtick_3">
     <g id="line2d_3">
      <g>
       <use xlink:href="#maeeae22364" x="436.345727" y="526.260937" style="stroke: #000000; stroke-width: 0.8"/>
      </g>
     </g>
     <g id="text_3">
      <!-- 2018 -->
      <g transform="translate(401.725442 562.219097)rotate(-30)scale(0.15 -0.15)">
       <defs>
        <path id="DejaVuSerif-38" d="M 2981 1275 
Q 2981 1775 2732 2051 
Q 2484 2328 2034 2328 
Q 1584 2328 1336 2051 
Q 1088 1775 1088 1275 
Q 1088 772 1336 495 
Q 1584 219 2034 219 
Q 2484 219 2732 495 
Q 2981 772 2981 1275 
z
M 2853 3541 
Q 2853 3966 2637 4203 
Q 2422 4441 2034 4441 
Q 1650 4441 1433 4203 
Q 1216 3966 1216 3541 
Q 1216 3113 1433 2875 
Q 1650 2638 2034 2638 
Q 2422 2638 2637 2875 
Q 2853 3113 2853 3541 
z
M 2516 2484 
Q 3047 2413 3344 2092 
Q 3641 1772 3641 1275 
Q 3641 619 3225 264 
Q 2809 -91 2034 -91 
Q 1263 -91 845 264 
Q 428 619 428 1275 
Q 428 1772 725 2092 
Q 1022 2413 1556 2484 
Q 1084 2569 832 2842 
Q 581 3116 581 3541 
Q 581 4103 968 4426 
Q 1356 4750 2034 4750 
Q 2713 4750 3100 4426 
Q 3488 4103 3488 3541 
Q 3488 3116 3236 2842 
Q 2984 2569 2516 2484 
z
" transform="scale(0.015625)"/>
       </defs>
       <use xlink:href="#DejaVuSerif-32"/>
       <use xlink:href="#DejaVuSerif-30" x="63.623047"/>
       <use xlink:href="#DejaVuSerif-31" x="127.246094"/>
       <use xlink:href="#DejaVuSerif-38" x="190.869141"/>
      </g>
     </g>
    </g>
    <g id="xtick_4">
     <g id="line2d_4">
      <g>
       <use xlink:href="#maeeae22364" x="605.823572" y="526.260937" style="stroke: #000000; stroke-width: 0.8"/>
      </g>
     </g>
     <g id="text_4">
      <!-- 2019 -->
      <g transform="translate(571.203286 562.219097)rotate(-30)scale(0.15 -0.15)">
       <defs>
        <path id="DejaVuSerif-39" d="M 2994 2091 
Q 2784 1856 2512 1740 
Q 2241 1625 1900 1625 
Q 1206 1625 804 2044 
Q 403 2463 403 3188 
Q 403 3897 839 4323 
Q 1275 4750 2003 4750 
Q 2794 4750 3217 4161 
Q 3641 3572 3641 2478 
Q 3641 1253 3137 581 
Q 2634 -91 1722 -91 
Q 1475 -91 1203 -44 
Q 931 3 647 97 
L 647 872 
L 997 872 
Q 1038 556 1241 387 
Q 1444 219 1784 219 
Q 2391 219 2687 676 
Q 2984 1134 2994 2091 
z
M 1978 4441 
Q 1534 4441 1298 4117 
Q 1063 3794 1063 3188 
Q 1063 2581 1298 2256 
Q 1534 1931 1978 1931 
Q 2422 1931 2658 2245 
Q 2894 2559 2894 3150 
Q 2894 3772 2656 4106 
Q 2419 4441 1978 4441 
z
" transform="scale(0.015625)"/>
       </defs>
       <use xlink:href="#DejaVuSerif-32"/>
       <use xlink:href="#DejaVuSerif-30" x="63.623047"/>
       <use xlink:href="#DejaVuSerif-31" x="127.246094"/>
       <use xlink:href="#DejaVuSerif-39" x="190.869141"/>
      </g>
     </g>
    </g>
    <g id="xtick_5">
     <g id="line2d_5">
      <g>
       <use xlink:href="#maeeae22364" x="775.301417" y="526.260937" style="stroke: #000000; stroke-width: 0.8"/>
      </g>
     </g>
     <g id="text_5">
      <!-- 2020 -->
      <g transform="translate(740.681131 562.219097)rotate(-30)scale(0.15 -0.15)">
       <use xlink:href="#DejaVuSerif-32"/>
       <use xlink:href="#DejaVuSerif-30" x="63.623047"/>
       <use xlink:href="#DejaVuSerif-32" x="127.246094"/>
       <use xlink:href="#DejaVuSerif-30" x="190.869141"/>
      </g>
     </g>
    </g>
    <g id="xtick_6">
     <g id="line2d_6">
      <g>
       <use xlink:href="#maeeae22364" x="945.243584" y="526.260937" style="stroke: #000000; stroke-width: 0.8"/>
      </g>
     </g>
     <g id="text_6">
      <!-- 2021 -->
      <g transform="translate(910.623299 562.219097)rotate(-30)scale(0.15 -0.15)">
       <use xlink:href="#DejaVuSerif-32"/>
       <use xlink:href="#DejaVuSerif-30" x="63.623047"/>
       <use xlink:href="#DejaVuSerif-32" x="127.246094"/>
       <use xlink:href="#DejaVuSerif-31" x="190.869141"/>
      </g>
     </g>
    </g>
    <g id="xtick_7">
     <g id="line2d_7">
      <g>
       <use xlink:href="#maeeae22364" x="1114.721429" y="526.260937" style="stroke: #000000; stroke-width: 0.8"/>
      </g>
     </g>
     <g id="text_7">
      <!-- 2022 -->
      <g transform="translate(1080.101144 562.219097)rotate(-30)scale(0.15 -0.15)">
       <use xlink:href="#DejaVuSerif-32"/>
       <use xlink:href="#DejaVuSerif-30" x="63.623047"/>
       <use xlink:href="#DejaVuSerif-32" x="127.246094"/>
       <use xlink:href="#DejaVuSerif-32" x="190.869141"/>
      </g>
     </g>
    </g>
    <g id="text_8">
     <!-- Time (Years) -->
     <g transform="translate(578.038281 584.117566)scale(0.2 -0.2)">
      <defs>
       <path id="DejaVuSerif-54" d="M 1222 0 
L 1222 331 
L 1819 331 
L 1819 4294 
L 447 4294 
L 447 3566 
L 63 3566 
L 63 4666 
L 4206 4666 
L 4206 3566 
L 3822 3566 
L 3822 4294 
L 2450 4294 
L 2450 331 
L 3047 331 
L 3047 0 
L 1222 0 
z
" transform="scale(0.015625)"/>
       <path id="DejaVuSerif-69" d="M 622 4353 
Q 622 4497 726 4603 
Q 831 4709 978 4709 
Q 1122 4709 1226 4603 
Q 1331 4497 1331 4353 
Q 1331 4206 1228 4103 
Q 1125 4000 978 4000 
Q 831 4000 726 4103 
Q 622 4206 622 4353 
z
M 1356 331 
L 1900 331 
L 1900 0 
L 231 0 
L 231 331 
L 781 331 
L 781 2988 
L 231 2988 
L 231 3322 
L 1356 3322 
L 1356 331 
z
" transform="scale(0.015625)"/>
       <path id="DejaVuSerif-6d" d="M 3316 2675 
Q 3481 3041 3739 3227 
Q 3997 3413 4341 3413 
Q 4863 3413 5119 3089 
Q 5375 2766 5375 2113 
L 5375 331 
L 5894 331 
L 5894 0 
L 4300 0 
L 4300 331 
L 4800 331 
L 4800 2047 
Q 4800 2556 4650 2772 
Q 4500 2988 4153 2988 
Q 3769 2988 3567 2697 
Q 3366 2406 3366 1850 
L 3366 331 
L 3866 331 
L 3866 0 
L 2291 0 
L 2291 331 
L 2791 331 
L 2791 2069 
Q 2791 2566 2641 2777 
Q 2491 2988 2144 2988 
Q 1759 2988 1557 2697 
Q 1356 2406 1356 1850 
L 1356 331 
L 1856 331 
L 1856 0 
L 263 0 
L 263 331 
L 781 331 
L 781 2994 
L 231 2994 
L 231 3322 
L 1356 3322 
L 1356 2731 
Q 1516 3063 1762 3238 
Q 2009 3413 2322 3413 
Q 2709 3413 2968 3220 
Q 3228 3028 3316 2675 
z
" transform="scale(0.015625)"/>
       <path id="DejaVuSerif-65" d="M 3469 1600 
L 991 1600 
L 991 1575 
Q 991 903 1244 561 
Q 1497 219 1991 219 
Q 2369 219 2611 417 
Q 2853 616 2950 1006 
L 3413 1006 
Q 3275 459 2904 184 
Q 2534 -91 1931 -91 
Q 1203 -91 761 389 
Q 319 869 319 1663 
Q 319 2450 753 2931 
Q 1188 3413 1894 3413 
Q 2647 3413 3050 2948 
Q 3453 2484 3469 1600 
z
M 2791 1931 
Q 2772 2513 2545 2808 
Q 2319 3103 1894 3103 
Q 1497 3103 1269 2806 
Q 1041 2509 991 1931 
L 2791 1931 
z
" transform="scale(0.015625)"/>
       <path id="DejaVuSerif-20" transform="scale(0.015625)"/>
       <path id="DejaVuSerif-28" d="M 2041 -997 
Q 1281 -656 893 83 
Q 506 822 506 1931 
Q 506 3044 893 3783 
Q 1281 4522 2041 4863 
L 2041 4556 
Q 1559 4225 1350 3623 
Q 1141 3022 1141 1931 
Q 1141 844 1350 242 
Q 1559 -359 2041 -691 
L 2041 -997 
z
" transform="scale(0.015625)"/>
       <path id="DejaVuSerif-59" d="M 1209 0 
L 1209 331 
L 1806 331 
L 1806 2009 
L 366 4331 
L -72 4331 
L -72 4666 
L 1663 4666 
L 1663 4331 
L 1119 4331 
L 2284 2444 
L 3450 4331 
L 2925 4331 
L 2925 4666 
L 4281 4666 
L 4281 4331 
L 3841 4331 
L 2438 2069 
L 2438 331 
L 3034 331 
L 3034 0 
L 1209 0 
z
" transform="scale(0.015625)"/>
       <path id="DejaVuSerif-61" d="M 2547 1044 
L 2547 1747 
L 1806 1747 
Q 1378 1747 1168 1562 
Q 959 1378 959 997 
Q 959 650 1171 447 
Q 1384 244 1747 244 
Q 2106 244 2326 466 
Q 2547 688 2547 1044 
z
M 3122 2075 
L 3122 331 
L 3634 331 
L 3634 0 
L 2547 0 
L 2547 359 
Q 2356 128 2106 18 
Q 1856 -91 1522 -91 
Q 969 -91 644 203 
Q 319 497 319 997 
Q 319 1513 691 1797 
Q 1063 2081 1741 2081 
L 2547 2081 
L 2547 2309 
Q 2547 2688 2317 2895 
Q 2088 3103 1672 3103 
Q 1328 3103 1125 2947 
Q 922 2791 872 2484 
L 575 2484 
L 575 3156 
Q 875 3284 1158 3348 
Q 1441 3413 1709 3413 
Q 2400 3413 2761 3070 
Q 3122 2728 3122 2075 
z
" transform="scale(0.015625)"/>
       <path id="DejaVuSerif-72" d="M 3059 3328 
L 3059 2497 
L 2728 2497 
Q 2713 2744 2591 2866 
Q 2469 2988 2234 2988 
Q 1809 2988 1582 2694 
Q 1356 2400 1356 1850 
L 1356 331 
L 2022 331 
L 2022 0 
L 263 0 
L 263 331 
L 781 331 
L 781 2994 
L 231 2994 
L 231 3322 
L 1356 3322 
L 1356 2731 
Q 1525 3078 1790 3245 
Q 2056 3413 2438 3413 
Q 2578 3413 2733 3391 
Q 2888 3369 3059 3328 
z
" transform="scale(0.015625)"/>
       <path id="DejaVuSerif-73" d="M 359 184 
L 359 959 
L 691 959 
Q 703 588 923 403 
Q 1144 219 1575 219 
Q 1963 219 2166 364 
Q 2369 509 2369 788 
Q 2369 1006 2220 1140 
Q 2072 1275 1594 1428 
L 1178 1569 
Q 750 1706 558 1912 
Q 366 2119 366 2438 
Q 366 2894 700 3153 
Q 1034 3413 1625 3413 
Q 1888 3413 2178 3344 
Q 2469 3275 2778 3144 
L 2778 2419 
L 2447 2419 
Q 2434 2741 2221 2922 
Q 2009 3103 1644 3103 
Q 1281 3103 1095 2975 
Q 909 2847 909 2591 
Q 909 2381 1050 2254 
Q 1191 2128 1613 1997 
L 2069 1856 
Q 2541 1709 2748 1489 
Q 2956 1269 2956 922 
Q 2956 450 2595 179 
Q 2234 -91 1600 -91 
Q 1278 -91 972 -22 
Q 666 47 359 184 
z
" transform="scale(0.015625)"/>
       <path id="DejaVuSerif-29" d="M 453 -997 
L 453 -691 
Q 934 -359 1145 242 
Q 1356 844 1356 1931 
Q 1356 3022 1145 3623 
Q 934 4225 453 4556 
L 453 4863 
Q 1216 4522 1603 3783 
Q 1991 3044 1991 1931 
Q 1991 822 1603 83 
Q 1216 -656 453 -997 
z
" transform="scale(0.015625)"/>
      </defs>
      <use xlink:href="#DejaVuSerif-54"/>
      <use xlink:href="#DejaVuSerif-69" x="66.699219"/>
      <use xlink:href="#DejaVuSerif-6d" x="98.681641"/>
      <use xlink:href="#DejaVuSerif-65" x="193.505859"/>
      <use xlink:href="#DejaVuSerif-20" x="252.685547"/>
      <use xlink:href="#DejaVuSerif-28" x="284.472656"/>
      <use xlink:href="#DejaVuSerif-59" x="323.486328"/>
      <use xlink:href="#DejaVuSerif-65" x="380.751953"/>
      <use xlink:href="#DejaVuSerif-61" x="439.931641"/>
      <use xlink:href="#DejaVuSerif-72" x="499.550781"/>
      <use xlink:href="#DejaVuSerif-73" x="547.353516"/>
      <use xlink:href="#DejaVuSerif-29" x="598.671875"/>
     </g>
    </g>
   </g>
   <g id="matplotlib.axis_2">
    <g id="ytick_1">
     <g id="line2d_8">
      <defs>
       <path id="m57c5813d09" d="M 0 0 
L -3.5 0 
" style="stroke: #000000; stroke-width: 0.8"/>
      </defs>
      <g>
       <use xlink:href="#m57c5813d09" x="83.808594" y="520.742827" style="stroke: #000000; stroke-width: 0.8"/>
      </g>
     </g>
     <g id="text_9">
      <!-- −0.15 -->
      <g transform="translate(30.840625 526.441655)scale(0.15 -0.15)">
       <defs>
        <path id="DejaVuSerif-2212" d="M 678 2259 
L 4684 2259 
L 4684 1753 
L 678 1753 
L 678 2259 
z
" transform="scale(0.015625)"/>
        <path id="DejaVuSerif-2e" d="M 603 325 
Q 603 500 722 622 
Q 841 744 1019 744 
Q 1191 744 1312 622 
Q 1434 500 1434 325 
Q 1434 153 1312 31 
Q 1191 -91 1019 -91 
Q 841 -91 722 29 
Q 603 150 603 325 
z
" transform="scale(0.015625)"/>
        <path id="DejaVuSerif-35" d="M 3219 4666 
L 3219 4153 
L 1081 4153 
L 1081 2816 
Q 1244 2928 1461 2984 
Q 1678 3041 1947 3041 
Q 2703 3041 3140 2622 
Q 3578 2203 3578 1478 
Q 3578 738 3136 323 
Q 2694 -91 1894 -91 
Q 1572 -91 1234 -12 
Q 897 66 544 225 
L 544 1131 
L 897 1131 
Q 925 688 1179 453 
Q 1434 219 1894 219 
Q 2388 219 2653 544 
Q 2919 869 2919 1478 
Q 2919 2084 2655 2407 
Q 2391 2731 1894 2731 
Q 1613 2731 1398 2631 
Q 1184 2531 1019 2322 
L 750 2322 
L 750 4666 
L 3219 4666 
z
" transform="scale(0.015625)"/>
       </defs>
       <use xlink:href="#DejaVuSerif-2212"/>
       <use xlink:href="#DejaVuSerif-30" x="83.789062"/>
       <use xlink:href="#DejaVuSerif-2e" x="147.412109"/>
       <use xlink:href="#DejaVuSerif-31" x="179.199219"/>
       <use xlink:href="#DejaVuSerif-35" x="242.822266"/>
      </g>
     </g>
    </g>
    <g id="ytick_2">
     <g id="line2d_9">
      <g>
       <use xlink:href="#m57c5813d09" x="83.808594" y="429.868249" style="stroke: #000000; stroke-width: 0.8"/>
      </g>
     </g>
     <g id="text_10">
      <!-- −0.10 -->
      <g transform="translate(30.840625 435.567077)scale(0.15 -0.15)">
       <use xlink:href="#DejaVuSerif-2212"/>
       <use xlink:href="#DejaVuSerif-30" x="83.789062"/>
       <use xlink:href="#DejaVuSerif-2e" x="147.412109"/>
       <use xlink:href="#DejaVuSerif-31" x="179.199219"/>
       <use xlink:href="#DejaVuSerif-30" x="242.822266"/>
      </g>
     </g>
    </g>
    <g id="ytick_3">
     <g id="line2d_10">
      <g>
       <use xlink:href="#m57c5813d09" x="83.808594" y="338.993671" style="stroke: #000000; stroke-width: 0.8"/>
      </g>
     </g>
     <g id="text_11">
      <!-- −0.05 -->
      <g transform="translate(30.840625 344.6925)scale(0.15 -0.15)">
       <use xlink:href="#DejaVuSerif-2212"/>
       <use xlink:href="#DejaVuSerif-30" x="83.789062"/>
       <use xlink:href="#DejaVuSerif-2e" x="147.412109"/>
       <use xlink:href="#DejaVuSerif-30" x="179.199219"/>
       <use xlink:href="#DejaVuSerif-35" x="242.822266"/>
      </g>
     </g>
    </g>
    <g id="ytick_4">
     <g id="line2d_11">
      <g>
       <use xlink:href="#m57c5813d09" x="83.808594" y="248.119094" style="stroke: #000000; stroke-width: 0.8"/>
      </g>
     </g>
     <g id="text_12">
      <!-- 0.00 -->
      <g transform="translate(43.410156 253.817922)scale(0.15 -0.15)">
       <use xlink:href="#DejaVuSerif-30"/>
       <use xlink:href="#DejaVuSerif-2e" x="63.623047"/>
       <use xlink:href="#DejaVuSerif-30" x="95.410156"/>
       <use xlink:href="#DejaVuSerif-30" x="159.033203"/>
      </g>
     </g>
    </g>
    <g id="ytick_5">
     <g id="line2d_12">
      <g>
       <use xlink:href="#m57c5813d09" x="83.808594" y="157.244516" style="stroke: #000000; stroke-width: 0.8"/>
      </g>
     </g>
     <g id="text_13">
      <!-- 0.05 -->
      <g transform="translate(43.410156 162.943344)scale(0.15 -0.15)">
       <use xlink:href="#DejaVuSerif-30"/>
       <use xlink:href="#DejaVuSerif-2e" x="63.623047"/>
       <use xlink:href="#DejaVuSerif-30" x="95.410156"/>
       <use xlink:href="#DejaVuSerif-35" x="159.033203"/>
      </g>
     </g>
    </g>
    <g id="ytick_6">
     <g id="line2d_13">
      <g>
       <use xlink:href="#m57c5813d09" x="83.808594" y="66.369938" style="stroke: #000000; stroke-width: 0.8"/>
      </g>
     </g>
     <g id="text_14">
      <!-- 0.10 -->
      <g transform="translate(43.410156 72.068767)scale(0.15 -0.15)">
       <use xlink:href="#DejaVuSerif-30"/>
       <use xlink:href="#DejaVuSerif-2e" x="63.623047"/>
       <use xlink:href="#DejaVuSerif-31" x="95.410156"/>
       <use xlink:href="#DejaVuSerif-30" x="159.033203"/>
      </g>
     </g>
    </g>
    <g id="text_15">
     <!-- Mean Daily Return -->
     <g transform="translate(22.396875 377.532812)rotate(-90)scale(0.2 -0.2)">
      <defs>
       <path id="DejaVuSerif-4d" d="M 353 0 
L 353 331 
L 947 331 
L 947 4331 
L 319 4331 
L 319 4666 
L 1678 4666 
L 3316 1344 
L 4953 4666 
L 6228 4666 
L 6228 4331 
L 5606 4331 
L 5606 331 
L 6203 331 
L 6203 0 
L 4378 0 
L 4378 331 
L 4972 331 
L 4972 3938 
L 3372 684 
L 2931 684 
L 1331 3938 
L 1331 331 
L 1925 331 
L 1925 0 
L 353 0 
z
" transform="scale(0.015625)"/>
       <path id="DejaVuSerif-6e" d="M 263 0 
L 263 331 
L 781 331 
L 781 2988 
L 231 2988 
L 231 3322 
L 1356 3322 
L 1356 2731 
Q 1516 3069 1770 3241 
Q 2025 3413 2363 3413 
Q 2913 3413 3172 3097 
Q 3431 2781 3431 2113 
L 3431 331 
L 3944 331 
L 3944 0 
L 2356 0 
L 2356 331 
L 2853 331 
L 2853 1931 
Q 2853 2541 2703 2767 
Q 2553 2994 2175 2994 
Q 1775 2994 1565 2701 
Q 1356 2409 1356 1850 
L 1356 331 
L 1856 331 
L 1856 0 
L 263 0 
z
" transform="scale(0.015625)"/>
       <path id="DejaVuSerif-44" d="M 1581 331 
L 2163 331 
Q 3072 331 3558 850 
Q 4044 1369 4044 2338 
Q 4044 3306 3559 3818 
Q 3075 4331 2163 4331 
L 1581 4331 
L 1581 331 
z
M 353 0 
L 353 331 
L 947 331 
L 947 4331 
L 353 4331 
L 353 4666 
L 2209 4666 
Q 3416 4666 4089 4050 
Q 4763 3434 4763 2338 
Q 4763 1238 4088 619 
Q 3413 0 2209 0 
L 353 0 
z
" transform="scale(0.015625)"/>
       <path id="DejaVuSerif-6c" d="M 1313 331 
L 1856 331 
L 1856 0 
L 184 0 
L 184 331 
L 738 331 
L 738 4531 
L 184 4531 
L 184 4863 
L 1313 4863 
L 1313 331 
z
" transform="scale(0.015625)"/>
       <path id="DejaVuSerif-79" d="M 1381 -609 
L 1600 -56 
L 359 2988 
L -19 2988 
L -19 3322 
L 1509 3322 
L 1509 2988 
L 978 2988 
L 1913 703 
L 2847 2988 
L 2350 2988 
L 2350 3322 
L 3597 3322 
L 3597 2988 
L 3225 2988 
L 1703 -750 
Q 1547 -1138 1356 -1280 
Q 1166 -1422 819 -1422 
Q 672 -1422 517 -1397 
Q 363 -1372 206 -1325 
L 206 -691 
L 500 -691 
Q 519 -903 608 -995 
Q 697 -1088 884 -1088 
Q 1056 -1088 1161 -992 
Q 1266 -897 1381 -609 
z
" transform="scale(0.015625)"/>
       <path id="DejaVuSerif-52" d="M 3066 2316 
Q 3284 2256 3442 2114 
Q 3600 1972 3725 1716 
L 4403 331 
L 4972 331 
L 4972 0 
L 3872 0 
L 3144 1484 
Q 2934 1916 2759 2042 
Q 2584 2169 2278 2169 
L 1581 2169 
L 1581 331 
L 2241 331 
L 2241 0 
L 353 0 
L 353 331 
L 947 331 
L 947 4331 
L 353 4331 
L 353 4666 
L 2719 4666 
Q 3400 4666 3770 4341 
Q 4141 4016 4141 3419 
Q 4141 2938 3870 2661 
Q 3600 2384 3066 2316 
z
M 1581 2503 
L 2503 2503 
Q 2975 2503 3200 2726 
Q 3425 2950 3425 3419 
Q 3425 3888 3200 4109 
Q 2975 4331 2503 4331 
L 1581 4331 
L 1581 2503 
z
" transform="scale(0.015625)"/>
       <path id="DejaVuSerif-74" d="M 691 2988 
L 184 2988 
L 184 3322 
L 691 3322 
L 691 4353 
L 1269 4353 
L 1269 3322 
L 2350 3322 
L 2350 2988 
L 1269 2988 
L 1269 878 
Q 1269 456 1350 337 
Q 1431 219 1650 219 
Q 1875 219 1978 351 
Q 2081 484 2088 781 
L 2522 781 
Q 2497 328 2275 118 
Q 2053 -91 1600 -91 
Q 1103 -91 897 129 
Q 691 350 691 878 
L 691 2988 
z
" transform="scale(0.015625)"/>
       <path id="DejaVuSerif-75" d="M 2266 3322 
L 3341 3322 
L 3341 331 
L 3884 331 
L 3884 0 
L 2766 0 
L 2766 588 
Q 2606 256 2353 82 
Q 2100 -91 1766 -91 
Q 1213 -91 952 223 
Q 691 538 691 1209 
L 691 2988 
L 172 2988 
L 172 3322 
L 1269 3322 
L 1269 1388 
Q 1269 781 1417 556 
Q 1566 331 1947 331 
Q 2347 331 2556 625 
Q 2766 919 2766 1478 
L 2766 2988 
L 2266 2988 
L 2266 3322 
z
" transform="scale(0.015625)"/>
      </defs>
      <use xlink:href="#DejaVuSerif-4d"/>
      <use xlink:href="#DejaVuSerif-65" x="102.392578"/>
      <use xlink:href="#DejaVuSerif-61" x="161.572266"/>
      <use xlink:href="#DejaVuSerif-6e" x="221.191406"/>
      <use xlink:href="#DejaVuSerif-20" x="285.595703"/>
      <use xlink:href="#DejaVuSerif-44" x="317.382812"/>
      <use xlink:href="#DejaVuSerif-61" x="397.558594"/>
      <use xlink:href="#DejaVuSerif-69" x="457.177734"/>
      <use xlink:href="#DejaVuSerif-6c" x="489.160156"/>
      <use xlink:href="#DejaVuSerif-79" x="521.142578"/>
      <use xlink:href="#DejaVuSerif-20" x="577.636719"/>
      <use xlink:href="#DejaVuSerif-52" x="609.423828"/>
      <use xlink:href="#DejaVuSerif-65" x="684.716797"/>
      <use xlink:href="#DejaVuSerif-74" x="743.896484"/>
      <use xlink:href="#DejaVuSerif-75" x="784.082031"/>
      <use xlink:href="#DejaVuSerif-72" x="848.486328"/>
      <use xlink:href="#DejaVuSerif-6e" x="896.289062"/>
     </g>
    </g>
   </g>
   <g id="line2d_14">
    <path d="M 134.535866 251.235334 
L 135.000189 280.675856 
L 135.464512 242.564472 
L 137.321804 246.107501 
L 137.786127 214.73749 
L 138.250449 241.007625 
L 139.179095 248.526729 
L 140.572064 265.994618 
L 141.036387 266.661968 
L 141.500709 230.640907 
L 141.965032 268.829431 
L 142.429355 232.079724 
L 143.822324 245.079176 
L 144.286647 221.563158 
L 144.750969 215.967764 
L 145.215292 253.377713 
L 145.679615 243.891131 
L 147.536907 232.95375 
L 148.465552 259.53361 
L 148.929875 229.800029 
L 150.322844 260.565141 
L 150.787167 225.754297 
L 151.25149 234.766306 
L 151.715812 265.779895 
L 152.180135 256.252062 
L 153.573104 237.778752 
L 154.037427 276.793626 
L 154.50175 254.563637 
L 154.966072 251.850912 
L 155.430395 238.019362 
L 156.823364 254.346568 
L 157.287687 226.292501 
L 157.75201 263.874016 
L 158.216332 254.437042 
L 158.680655 263.909521 
L 160.073624 229.179408 
L 160.537947 265.115303 
L 161.00227 254.698628 
L 161.466593 259.452991 
L 161.930915 225.397199 
L 163.323884 250.146567 
L 163.788207 222.06342 
L 164.25253 230.036889 
L 164.716853 250.897758 
L 165.181175 236.950115 
L 167.038467 243.873351 
L 167.50279 237.100094 
L 167.967113 239.228729 
L 168.431435 251.138859 
L 169.824404 226.23291 
L 170.288727 239.547727 
L 170.75305 235.775974 
L 171.217373 258.608934 
L 171.681695 275.725542 
L 173.074664 269.171118 
L 174.00331 243.392914 
L 174.467633 250.696845 
L 174.931956 240.856801 
L 176.324924 228.067497 
L 176.789247 249.952895 
L 177.25357 253.568034 
L 177.717893 214.562703 
L 178.182216 317.813689 
L 179.575184 307.55874 
L 180.039507 213.473044 
L 180.50383 96.504767 
L 180.968153 217.075767 
L 181.432476 236.740061 
L 183.289767 277.696091 
L 183.75409 237.348225 
L 184.218413 247.718561 
L 184.682736 206.787843 
L 186.075704 232.294261 
L 186.540027 221.002592 
L 187.00435 250.731511 
L 187.468673 243.762688 
L 187.932996 245.906036 
L 189.325964 242.828706 
L 189.790287 256.713648 
L 190.25461 237.999787 
L 190.718933 253.878211 
L 191.183256 239.313874 
L 192.576224 255.920729 
L 193.040547 236.889655 
L 193.50487 253.933378 
L 194.433516 241.206003 
L 195.826484 260.15307 
L 196.290807 268.24219 
L 196.75513 230.763671 
L 197.219453 244.704819 
L 197.683776 226.856165 
L 200.00539 255.569081 
L 200.469713 237.609649 
L 200.934036 250.052822 
L 202.327004 231.724324 
L 202.791327 260.920395 
L 203.25565 250.672163 
L 203.719973 235.054772 
L 204.184296 249.72393 
L 205.577264 249.249494 
L 206.041587 236.318013 
L 206.50591 262.118765 
L 206.970233 244.30805 
L 207.434556 253.832871 
L 208.827524 234.965479 
L 209.291847 248.576798 
L 209.75617 255.152068 
L 210.220493 251.736295 
L 210.684816 228.312766 
L 212.542107 244.47865 
L 213.00643 239.153298 
L 213.470753 251.363632 
L 213.935076 305.145683 
L 215.328045 227.11801 
L 215.792367 285.686851 
L 216.25669 252.051033 
L 216.721013 229.956677 
L 217.185336 252.229395 
L 218.578305 239.018386 
L 219.042627 256.060798 
L 219.50695 220.104312 
L 219.971273 224.619738 
L 220.435596 260.432985 
L 221.828565 262.457592 
L 222.75721 225.94227 
L 223.221533 265.380054 
L 223.685856 231.249426 
L 225.078825 256.287833 
L 225.543148 262.358346 
L 226.00747 236.933091 
L 226.936116 261.065085 
L 228.329085 233.225465 
L 228.793408 275.597322 
L 229.25773 242.328672 
L 229.722053 259.251037 
L 230.186376 249.660508 
L 231.579345 252.110881 
L 232.043668 236.53017 
L 232.50799 236.332898 
L 232.972313 252.94815 
L 233.436636 251.295079 
L 234.829605 241.854819 
L 235.293928 263.657209 
L 235.758251 258.719383 
L 236.222573 265.12123 
L 236.686896 251.72146 
L 238.079865 243.822047 
L 238.544188 269.22979 
L 239.008511 268.562367 
L 239.472833 253.848979 
L 241.330125 211.42012 
L 241.794448 241.829347 
L 242.258771 209.341524 
L 242.723093 226.49449 
L 243.187416 227.544011 
L 244.580385 226.414864 
L 245.509031 249.499495 
L 245.973353 241.140625 
L 246.437676 243.485845 
L 247.830645 233.142057 
L 248.294968 232.20258 
L 248.759291 241.674862 
L 249.687936 241.424351 
L 251.080905 264.161599 
L 251.545228 250.387624 
L 252.009551 244.026793 
L 252.473874 252.610922 
L 252.938196 248.220841 
L 254.331165 223.013276 
L 254.795488 233.070894 
L 255.259811 225.703532 
L 255.724134 227.611283 
L 256.188456 244.791798 
L 257.581425 260.256902 
L 258.045748 246.812326 
L 258.510071 274.090144 
L 258.974394 240.299993 
L 259.438716 246.209178 
L 260.831685 239.653079 
L 261.296008 236.932011 
L 261.760331 253.727987 
L 262.224654 260.645102 
L 262.688977 241.162801 
L 264.546268 241.22611 
L 265.010591 266.028164 
L 265.474914 245.017766 
L 265.939237 253.757084 
L 267.796528 230.680329 
L 268.260851 220.953278 
L 268.725174 260.137997 
L 269.189497 253.223173 
L 270.582465 265.061684 
L 271.046788 236.794993 
L 271.511111 239.612487 
L 271.975434 259.753015 
L 272.439757 239.664188 
L 274.297048 258.899886 
L 274.761371 242.181323 
L 275.225694 260.150365 
L 275.690017 239.341976 
L 277.082985 251.348502 
L 277.547308 222.614467 
L 278.011631 231.440446 
L 278.475954 254.109022 
L 278.940277 256.650588 
L 280.333245 268.492399 
L 280.797568 242.181105 
L 281.261891 249.608442 
L 281.726214 247.858588 
L 282.190537 228.697914 
L 283.583505 258.926623 
L 284.047828 255.328394 
L 284.512151 248.867784 
L 284.976474 228.989389 
L 285.440797 229.339428 
L 286.833765 242.37823 
L 287.298088 244.238856 
L 287.762411 241.080443 
L 288.226734 253.797153 
L 288.691057 249.06254 
L 290.548348 232.427672 
L 291.012671 255.975459 
L 291.476994 257.031342 
L 291.941317 247.860075 
L 293.334285 238.607367 
L 293.798608 265.832506 
L 294.262931 220.657752 
L 294.727254 266.573651 
L 295.191577 250.111663 
L 296.584545 262.722987 
L 297.048868 260.259403 
L 297.513191 262.996961 
L 297.977514 258.134418 
L 298.441837 239.268604 
L 299.834806 242.747418 
L 300.299128 258.012125 
L 300.763451 218.2996 
L 301.227774 245.096458 
L 301.692097 244.800688 
L 303.085066 257.938184 
L 303.549388 279.943186 
L 304.013711 250.651312 
L 304.478034 239.969178 
L 304.942357 250.651008 
L 306.335326 248.274941 
L 306.799648 231.593408 
L 307.263971 238.025759 
L 308.192617 241.576167 
L 309.585586 262.513099 
L 310.049908 250.072879 
L 310.514231 261.020832 
L 310.978554 230.956433 
L 311.442877 249.917924 
L 312.835846 240.989688 
L 313.300169 237.038572 
L 313.764491 267.489365 
L 314.228814 266.348337 
L 316.086106 230.837531 
L 316.550429 249.060895 
L 317.014751 248.685058 
L 317.479074 231.157702 
L 317.943397 253.65209 
L 319.336366 231.140018 
L 319.800689 232.187514 
L 320.265011 240.154613 
L 321.193657 264.172097 
L 322.586626 244.794577 
L 323.515272 259.064102 
L 323.979594 257.727833 
L 324.443917 230.780874 
L 325.836886 251.85498 
L 326.301209 250.579458 
L 326.765532 237.28414 
L 327.229854 257.00188 
L 327.694177 258.764089 
L 329.087146 235.373241 
L 329.551469 252.736038 
L 330.015792 282.082866 
L 330.480114 247.316758 
L 330.944437 230.579303 
L 332.337406 239.491745 
L 333.266052 248.122215 
L 333.730374 249.976095 
L 334.194697 246.988505 
L 336.051989 261.260104 
L 336.516312 249.447119 
L 336.980635 219.638032 
L 337.444957 244.487866 
L 338.837926 256.773535 
L 339.302249 251.139305 
L 339.766572 253.150778 
L 340.230895 235.388245 
L 340.695217 232.834504 
L 342.088186 244.843661 
L 342.552509 236.663666 
L 343.016832 259.107817 
L 343.481155 257.870596 
L 343.945477 247.82522 
L 345.338446 238.491625 
L 345.802769 267.437647 
L 346.267092 263.379477 
L 346.731415 241.054255 
L 347.195737 235.083999 
L 348.588706 238.793963 
L 349.053029 257.354987 
L 349.517352 226.831858 
L 349.981675 255.988134 
L 350.445998 244.291288 
L 351.838966 231.693851 
L 352.767612 261.753056 
L 353.231935 270.489116 
L 353.696258 234.960063 
L 355.089226 250.726563 
L 355.553549 245.837386 
L 356.017872 235.188919 
L 356.482195 243.700272 
L 356.946518 240.412644 
L 358.339486 243.961065 
L 358.803809 255.26323 
L 359.268132 230.892484 
L 359.732455 251.936568 
L 360.196778 254.084265 
L 361.589746 252.020739 
L 362.054069 231.459338 
L 362.518392 255.770161 
L 363.447038 251.229096 
L 364.840006 249.806024 
L 365.304329 244.156866 
L 365.768652 260.436291 
L 366.232975 257.25606 
L 366.697298 239.291333 
L 368.090266 252.049541 
L 368.554589 252.757292 
L 369.018912 258.223442 
L 369.483235 276.341146 
L 369.947558 247.296158 
L 371.340526 229.553446 
L 371.804849 260.604405 
L 372.269172 246.476593 
L 372.733495 274.150248 
L 373.197818 249.512257 
L 374.590786 249.2462 
L 375.055109 233.58212 
L 375.519432 248.117434 
L 375.983755 246.133436 
L 376.448078 237.941827 
L 377.841046 248.912654 
L 378.305369 248.432871 
L 379.234015 233.756392 
L 379.698338 235.9111 
L 381.555629 263.803797 
L 382.019952 241.18543 
L 382.484275 250.164953 
L 382.948598 248.550322 
L 384.341566 229.218774 
L 385.270212 243.141858 
L 385.734535 246.770547 
L 386.198858 242.798617 
L 387.591827 240.779659 
L 388.056149 248.94834 
L 388.520472 241.990408 
L 388.984795 250.345943 
L 389.449118 240.061699 
L 390.842087 241.883656 
L 391.306409 240.217072 
L 391.770732 231.624231 
L 392.235055 244.181009 
L 392.699378 245.595436 
L 394.092347 232.558306 
L 394.556669 243.686877 
L 395.020992 250.4564 
L 395.485315 241.444724 
L 395.949638 251.097246 
L 397.342607 255.059451 
L 397.80693 243.549232 
L 398.271252 247.55401 
L 398.735575 249.875438 
L 399.199898 246.782662 
L 400.592867 248.691326 
L 401.05719 253.661156 
L 401.521512 244.284458 
L 401.985835 249.150119 
L 402.450158 239.758588 
L 403.843127 259.113795 
L 404.30745 243.330895 
L 404.771772 258.700518 
L 405.236095 243.665842 
L 405.700418 239.845422 
L 407.093387 262.177075 
L 407.55771 237.53139 
L 408.022032 248.995077 
L 408.486355 244.601431 
L 408.950678 250.521701 
L 410.343647 241.124676 
L 410.80797 257.485722 
L 411.272293 245.613311 
L 411.736615 251.476357 
L 412.200938 248.755422 
L 413.593907 250.433292 
L 414.522553 257.803766 
L 414.986875 228.525793 
L 415.451198 238.933193 
L 416.844167 239.319852 
L 417.30849 236.490179 
L 417.772813 246.258842 
L 418.701458 244.566234 
L 420.094427 253.260631 
L 420.55875 225.737625 
L 421.023073 237.347559 
L 421.487395 241.556701 
L 421.951718 252.065824 
L 423.344687 245.03032 
L 423.80901 260.829138 
L 424.273333 259.966332 
L 424.737656 238.472662 
L 425.201978 241.48977 
L 426.594947 245.930507 
L 427.05927 250.137741 
L 427.523593 245.540993 
L 427.987916 262.107804 
L 428.452238 228.565379 
L 429.845207 226.516902 
L 430.30953 259.524712 
L 430.773853 242.594895 
L 431.238176 237.836682 
L 431.702498 249.354491 
L 433.55979 242.427692 
L 434.024113 248.991181 
L 434.488436 240.613121 
L 434.952759 256.407449 
L 436.81005 231.731392 
L 437.274373 245.150987 
L 437.738696 243.337715 
L 438.203019 240.831749 
L 439.595987 243.35607 
L 440.06031 252.945399 
L 440.524633 251.432299 
L 440.988956 222.136533 
L 441.453279 243.438298 
L 443.31057 263.182842 
L 443.774893 235.190693 
L 444.239216 258.985834 
L 444.703539 231.474825 
L 446.096507 238.319884 
L 446.56083 242.215875 
L 447.025153 250.912749 
L 447.489476 249.552637 
L 447.953799 241.389847 
L 449.346767 264.845398 
L 449.81109 266.113268 
L 450.275413 252.146813 
L 450.739736 249.945716 
L 451.204059 287.333633 
L 452.597027 308.327831 
L 453.06135 230.805724 
L 453.525673 248.98596 
L 453.989996 299.03468 
L 454.454319 231.58059 
L 455.847287 228.366948 
L 456.31161 244.043111 
L 456.775933 220.394551 
L 457.704579 242.282287 
L 459.56187 263.193782 
L 460.026193 253.109531 
L 460.490516 246.446026 
L 460.954839 225.994213 
L 462.347807 237.463529 
L 462.81213 274.706912 
L 463.276453 272.81318 
L 464.205099 230.352018 
L 465.598067 230.814211 
L 466.06239 234.156222 
L 466.526713 244.158864 
L 466.991036 248.506586 
L 467.455359 222.873177 
L 468.848327 244.211122 
L 469.31265 254.460435 
L 470.241296 260.066731 
L 470.705619 233.253429 
L 472.098588 265.077752 
L 472.56291 249.676084 
L 473.027233 238.204141 
L 473.491556 285.18014 
L 473.955879 279.001703 
L 475.348848 215.017473 
L 475.81317 269.598099 
L 476.741816 225.796734 
L 478.599108 286.503822 
L 479.06343 225.55668 
L 479.527753 229.961817 
L 479.992076 228.627666 
L 480.456399 278.953386 
L 481.849368 251.261478 
L 482.31369 220.946895 
L 482.778013 246.403944 
L 483.242336 242.420465 
L 483.706659 251.86823 
L 485.099628 229.611502 
L 485.563951 231.112178 
L 486.028273 239.624313 
L 486.492596 258.359788 
L 486.956919 259.059341 
L 488.349888 248.940172 
L 488.814211 260.06946 
L 489.278533 245.873338 
L 489.742856 238.913688 
L 490.207179 249.326556 
L 491.600148 262.001219 
L 492.064471 246.030226 
L 492.528793 249.164266 
L 492.993116 256.140145 
L 493.457439 227.31614 
L 494.850408 237.084915 
L 495.314731 243.876192 
L 495.779053 235.600142 
L 496.243376 236.27999 
L 496.707699 246.966268 
L 498.100668 251.52225 
L 498.564991 252.091315 
L 499.029314 235.664381 
L 499.493636 238.265146 
L 499.957959 247.473451 
L 501.350928 233.432883 
L 501.815251 260.479972 
L 502.279574 246.856075 
L 503.208219 252.821105 
L 505.065511 255.585377 
L 505.529834 221.911626 
L 505.994156 263.698249 
L 506.458479 236.53958 
L 507.851448 240.972155 
L 508.315771 240.808791 
L 508.780094 236.545085 
L 509.244417 246.545126 
L 509.708739 242.423844 
L 511.101708 242.853393 
L 511.566031 244.963054 
L 512.030354 259.817193 
L 512.494677 244.330757 
L 512.958999 250.472407 
L 514.351968 241.644166 
L 514.816291 252.664088 
L 515.280614 238.048693 
L 515.744937 264.654862 
L 516.209259 239.199634 
L 517.602228 268.91415 
L 518.066551 238.813937 
L 518.530874 267.796362 
L 518.995197 243.542338 
L 519.459519 246.545906 
L 520.852488 245.03698 
L 521.316811 242.240342 
L 522.245457 231.188251 
L 522.70978 236.273813 
L 524.102748 235.162865 
L 525.031394 263.970946 
L 525.495717 243.184499 
L 527.353008 257.697871 
L 527.817331 241.579754 
L 528.281654 242.690057 
L 528.745977 240.024607 
L 529.2103 255.585897 
L 530.603268 248.951488 
L 531.067591 254.497036 
L 531.531914 241.464806 
L 531.996237 237.60963 
L 532.46056 267.751235 
L 533.853528 251.699203 
L 534.317851 230.946439 
L 534.782174 255.700188 
L 535.246497 240.946486 
L 535.71082 245.900019 
L 537.103788 240.734054 
L 538.032434 250.682456 
L 538.496757 246.283848 
L 538.96108 257.349019 
L 540.354048 260.793513 
L 540.818371 232.848906 
L 541.282694 266.149097 
L 541.747017 232.499337 
L 542.21134 238.001271 
L 543.604308 240.405003 
L 544.068631 235.227584 
L 544.532954 247.890592 
L 544.997277 255.373066 
L 545.4616 239.252757 
L 546.854568 242.570286 
L 547.318891 248.51968 
L 547.783214 242.589616 
L 548.247537 256.509831 
L 548.71186 244.850633 
L 550.569151 257.546277 
L 551.033474 249.422292 
L 551.497797 255.924683 
L 553.355088 244.637651 
L 553.819411 245.763886 
L 554.748057 245.786318 
L 555.21238 243.056843 
L 556.605348 255.66365 
L 557.069671 242.047202 
L 557.533994 251.042262 
L 557.998317 235.375062 
L 558.46264 250.272464 
L 559.855609 261.034566 
L 560.319931 247.733866 
L 560.784254 262.048638 
L 561.248577 248.161351 
L 561.7129 242.119327 
L 563.105869 258.863786 
L 563.570191 256.889507 
L 564.034514 239.145107 
L 564.498837 266.88605 
L 564.96316 259.021011 
L 566.356129 244.954104 
L 566.820451 258.032776 
L 567.284774 294.86483 
L 567.749097 284.396908 
L 568.21342 245.23424 
L 569.606389 240.032162 
L 570.070711 209.483058 
L 570.535034 258.527701 
L 570.999357 277.176757 
L 571.46368 258.729475 
L 572.856649 255.678006 
L 573.320972 264.762408 
L 573.785294 300.62371 
L 574.249617 221.651709 
L 574.71394 268.950212 
L 576.106909 256.142876 
L 576.571232 216.061391 
L 577.035554 240.584227 
L 577.499877 213.070267 
L 577.9642 248.308886 
L 579.357169 240.472697 
L 579.821492 239.010282 
L 580.285814 221.266196 
L 580.750137 255.752344 
L 581.21446 270.374738 
L 582.607429 275.543758 
L 583.071752 250.999528 
L 583.536075 256.378641 
L 584.000397 233.958495 
L 584.46472 245.164511 
L 586.322012 282.790752 
L 586.786335 225.051847 
L 587.71498 254.302619 
L 589.107949 231.175796 
L 589.572272 258.601112 
L 590.036595 210.744027 
L 590.500917 254.075447 
L 590.96524 242.914312 
L 592.358209 229.065253 
L 592.822532 314.480971 
L 593.751177 254.078319 
L 594.2155 277.543875 
L 595.608469 263.161454 
L 596.072792 254.538468 
L 596.537115 235.163163 
L 597.001438 265.883294 
L 597.46576 273.445379 
L 598.858729 289.166131 
L 599.323052 249.748469 
L 599.787375 276.568161 
L 600.71602 284.600479 
L 602.108989 290.158653 
L 603.037635 167.514506 
L 603.501958 241.914905 
L 603.96628 241.058218 
L 605.359249 236.501378 
L 606.287895 231.950176 
L 606.752218 271.413532 
L 607.21654 183.387942 
L 608.609509 219.145366 
L 609.073832 221.290095 
L 610.466801 244.774038 
L 611.859769 259.348457 
L 612.324092 237.666172 
L 612.788415 236.394894 
L 613.252738 232.961977 
L 613.717061 226.840825 
L 615.574352 276.765198 
L 616.038675 252.646174 
L 616.502998 236.433926 
L 616.967321 226.530006 
L 618.360289 255.942667 
L 618.824612 246.781105 
L 619.288935 229.540581 
L 620.217581 243.391656 
L 621.610549 233.730902 
L 622.074872 241.797753 
L 623.003518 264.493468 
L 623.467841 249.605083 
L 624.860809 237.011436 
L 625.325132 225.362199 
L 626.253778 248.21954 
L 626.718101 223.463634 
L 628.575392 238.929567 
L 629.039715 239.896444 
L 629.504038 254.026577 
L 629.968361 234.559501 
L 631.825652 257.003384 
L 632.289975 247.905724 
L 632.754298 255.96414 
L 633.218621 238.506574 
L 634.611589 256.613699 
L 635.075912 256.286103 
L 635.540235 274.248068 
L 636.468881 253.334952 
L 637.861849 222.091077 
L 638.326172 245.09907 
L 638.790495 240.0973 
L 639.254818 255.190861 
L 639.719141 243.724865 
L 641.112109 235.146452 
L 641.576432 255.473733 
L 642.040755 256.979544 
L 642.505078 228.351739 
L 642.969401 298.948541 
L 644.362369 243.608227 
L 644.826692 232.81652 
L 645.291015 249.104526 
L 645.755338 236.516056 
L 646.219661 244.33096 
L 647.61263 224.714511 
L 648.076952 253.277059 
L 649.005598 236.115378 
L 649.469921 230.9485 
L 650.86289 248.236606 
L 651.327212 267.608071 
L 651.791535 229.972225 
L 652.255858 247.222284 
L 652.720181 237.38837 
L 654.11315 252.128451 
L 654.577472 246.915907 
L 655.041795 256.453682 
L 655.506118 245.678202 
L 657.36341 255.824341 
L 657.827733 228.341119 
L 658.756378 265.745637 
L 659.220701 232.740601 
L 660.61367 243.001965 
L 661.077993 251.344443 
L 661.542315 262.684182 
L 662.006638 250.163556 
L 662.470961 219.962648 
L 663.86393 250.772605 
L 664.328253 278.61538 
L 664.792575 253.118566 
L 665.256898 253.04395 
L 665.721221 241.728983 
L 667.11419 294.952709 
L 667.578513 228.049611 
L 668.042835 243.411808 
L 668.507158 239.726015 
L 668.971481 269.183032 
L 670.36445 260.06146 
L 670.828773 227.193498 
L 671.293096 266.062656 
L 671.757418 279.82807 
L 672.221741 240.611029 
L 674.079033 263.685781 
L 674.543356 264.431176 
L 675.007678 254.198073 
L 675.472001 270.82393 
L 676.86497 233.264658 
L 677.329293 204.108593 
L 677.793616 250.773202 
L 678.257938 249.719781 
L 678.722261 236.318518 
L 680.11523 240.66869 
L 680.579553 249.007771 
L 681.043876 254.282123 
L 681.508198 227.890203 
L 681.972521 260.146224 
L 683.36549 244.03333 
L 683.829813 229.871493 
L 684.294136 243.048206 
L 684.758459 233.331822 
L 685.222781 257.918123 
L 686.61575 264.354952 
L 687.544396 248.777171 
L 688.008719 225.610648 
L 688.473041 224.346602 
L 689.86601 243.140343 
L 690.330333 254.550294 
L 690.794656 235.015131 
L 691.723301 242.363629 
L 693.11627 258.991971 
L 694.044916 244.872756 
L 694.509239 252.435854 
L 694.973562 233.209155 
L 696.36653 255.846591 
L 696.830853 246.370221 
L 697.295176 265.921566 
L 697.759499 247.904132 
L 698.223822 254.410287 
L 699.61679 252.406974 
L 700.081113 231.945678 
L 700.545436 227.352187 
L 701.009759 265.880557 
L 701.474082 236.003223 
L 702.86705 257.359041 
L 703.331373 231.090157 
L 704.260019 282.431294 
L 704.724342 263.29591 
L 706.11731 299.414241 
L 706.581633 232.630704 
L 707.045956 246.876719 
L 707.510279 216.646209 
L 707.974602 269.854609 
L 709.36757 272.3384 
L 709.831893 231.741754 
L 710.296216 303.897506 
L 711.224862 211.432557 
L 712.61783 225.695789 
L 713.082153 260.638227 
L 713.546476 233.910661 
L 714.010799 248.941822 
L 714.475122 298.858185 
L 715.86809 233.318958 
L 716.332413 267.310323 
L 716.796736 226.455286 
L 717.261059 219.276903 
L 717.725382 245.269872 
L 719.582673 269.597886 
L 720.046996 224.709032 
L 720.511319 215.765688 
L 720.975642 246.6439 
L 722.36861 219.268336 
L 722.832933 224.732044 
L 723.297256 220.056542 
L 723.761579 249.77312 
L 724.225902 243.515562 
L 725.61887 237.213497 
L 726.083193 256.191279 
L 726.547516 256.591498 
L 727.476162 250.953069 
L 728.86913 245.989338 
L 729.333453 271.558338 
L 729.797776 231.81635 
L 730.262099 260.115561 
L 730.726422 255.113064 
L 732.119391 243.710378 
L 732.583713 280.857102 
L 733.048036 274.363298 
L 733.512359 240.997341 
L 733.976682 230.986318 
L 735.369651 253.105994 
L 735.833973 276.903702 
L 736.298296 239.324199 
L 736.762619 241.028236 
L 737.226942 216.250473 
L 738.619911 254.49452 
L 739.084233 234.676457 
L 739.548556 249.021543 
L 740.012879 235.46228 
L 740.477202 252.072055 
L 741.870171 232.033887 
L 742.334493 243.929932 
L 742.798816 239.516302 
L 743.263139 252.832155 
L 743.727462 239.310884 
L 745.120431 240.471 
L 745.584754 243.829048 
L 746.049076 254.1942 
L 746.513399 261.925075 
L 746.977722 217.505385 
L 748.370691 231.020375 
L 748.835014 247.281647 
L 749.299336 255.060328 
L 749.763659 242.837559 
L 750.227982 245.869914 
L 751.620951 252.917159 
L 752.085274 249.535141 
L 752.549596 256.145316 
L 753.013919 245.781211 
L 753.478242 238.524945 
L 754.871211 256.079796 
L 755.335534 250.273051 
L 755.799856 257.406457 
L 756.264179 254.469436 
L 756.728502 239.683992 
L 758.121471 221.435622 
L 758.585794 248.295592 
L 759.050117 238.244464 
L 759.978762 257.435617 
L 761.371731 264.917215 
L 761.836054 259.183833 
L 762.300377 235.145203 
L 762.764699 244.98887 
L 763.229022 225.203472 
L 764.621991 250.078058 
L 765.086314 248.7105 
L 765.550637 244.917868 
L 766.014959 229.013284 
L 766.479282 257.056707 
L 767.872251 237.929764 
L 768.336574 240.448075 
L 768.800897 240.014603 
L 769.26522 242.445868 
L 769.729542 241.518841 
L 771.586834 245.503221 
L 772.51548 245.327121 
L 772.979802 253.973013 
L 774.372771 249.913073 
L 774.837094 240.040227 
L 776.230062 253.373381 
L 777.623031 244.36668 
L 778.087354 254.643297 
L 778.551677 249.784579 
L 779.016 246.685407 
L 779.480322 256.089752 
L 780.873291 234.480684 
L 781.337614 243.838516 
L 781.801937 243.173295 
L 782.26626 227.669211 
L 782.730583 249.717055 
L 784.587874 261.544756 
L 785.052197 250.409745 
L 785.51652 247.763863 
L 785.980843 269.877215 
L 787.373811 275.395018 
L 787.838134 233.246257 
L 788.302457 254.638298 
L 788.76678 249.331248 
L 789.231103 283.385175 
L 790.624071 234.495021 
L 791.088394 225.9445 
L 791.552717 213.934884 
L 792.01704 257.03341 
L 792.481363 268.883943 
L 794.338654 234.052178 
L 794.802977 233.977863 
L 795.2673 247.968523 
L 795.731623 250.010542 
L 797.588914 255.132283 
L 798.053237 241.011501 
L 798.51756 240.577346 
L 798.981883 264.561064 
L 800.374851 303.534742 
L 800.839174 313.247258 
L 801.303497 277.659045 
L 801.76782 314.19987 
L 802.232143 267.692265 
L 803.625111 201.575575 
L 804.089434 289.010827 
L 804.553757 197.341546 
L 805.01808 318.715409 
L 805.482403 292.556681 
L 806.875371 445.769659 
L 807.339694 175.690803 
L 807.804017 366.147969 
L 808.26834 455.756057 
L 808.732663 96.293671 
L 810.125631 504.006392 
L 810.589954 185.759589 
L 811.054277 470.50407 
L 811.5186 112.781649 
L 811.982923 301.935172 
L 813.375891 309.350661 
L 813.840214 58.915483 
L 814.304537 164.876891 
L 814.76886 124.389231 
L 815.233183 322.736938 
L 816.626151 235.56267 
L 817.090474 259.079558 
L 817.554797 375.326695 
L 818.01912 235.303336 
L 818.483443 300.661514 
L 819.876412 92.296267 
L 820.340734 217.470254 
L 820.805057 139.695696 
L 821.26938 153.60025 
L 823.126672 293.652782 
L 823.590994 217.618027 
L 824.055317 330.459403 
L 824.51964 281.857259 
L 824.983963 152.468143 
L 826.376932 293.448092 
L 826.841254 284.747982 
L 827.305577 222.601131 
L 827.7699 219.727577 
L 828.234223 229.300899 
L 829.627192 171.183075 
L 830.091514 197.649418 
L 830.555837 141.562721 
L 831.02016 300.614638 
L 831.484483 322.378804 
L 832.877452 253.982789 
L 833.341775 250.157199 
L 833.806097 283.169476 
L 834.27042 210.583398 
L 834.734743 171.910408 
L 836.127712 281.484768 
L 836.592035 308.013506 
L 837.056357 321.60592 
L 837.52068 227.880914 
L 837.985003 233.23265 
L 839.377972 116.426113 
L 839.842295 277.657002 
L 840.306617 198.809445 
L 840.77094 241.421881 
L 841.235263 244.618713 
L 843.092555 169.412253 
L 843.556878 183.61905 
L 844.0212 285.175006 
L 844.485523 265.938706 
L 845.878492 216.442382 
L 846.342815 220.724628 
L 846.807138 180.164787 
L 847.27146 218.331078 
L 847.735783 156.903586 
L 849.128752 168.895611 
L 849.593075 302.819811 
L 850.057398 313.202408 
L 850.52172 398.360923 
L 850.986043 191.68513 
L 852.379012 221.115602 
L 852.843335 207.540117 
L 853.307658 285.40356 
L 853.77198 254.653897 
L 854.236303 270.9174 
L 855.629272 244.904195 
L 856.093595 242.43716 
L 856.557918 319.690445 
L 857.022241 225.636132 
L 857.486563 290.082436 
L 858.879532 189.623097 
L 859.808178 263.612352 
L 860.272501 240.123949 
L 862.129792 228.077413 
L 862.594115 291.24142 
L 863.058438 239.74118 
L 863.522761 292.490117 
L 863.987083 204.726048 
L 865.380052 263.395814 
L 866.308698 182.196987 
L 866.773021 254.218007 
L 867.237343 246.603483 
L 868.630312 268.22821 
L 869.094635 208.096736 
L 869.558958 237.553644 
L 870.023281 246.332309 
L 870.487604 267.305438 
L 871.880572 237.985194 
L 872.344895 252.712035 
L 872.809218 202.126254 
L 873.273541 267.776434 
L 873.737864 264.858501 
L 875.130832 229.442107 
L 875.595155 227.812511 
L 876.059478 219.297435 
L 876.523801 252.420539 
L 876.988124 219.16766 
L 878.381092 213.994222 
L 878.845415 247.542379 
L 879.309738 241.185448 
L 879.774061 259.264333 
L 880.238384 240.788097 
L 881.631352 250.191084 
L 882.095675 267.424895 
L 882.559998 254.133353 
L 883.024321 259.461049 
L 883.488644 262.539441 
L 884.881612 211.196545 
L 885.345935 248.214823 
L 885.810258 261.137344 
L 886.274581 234.927955 
L 886.738904 227.986643 
L 888.131872 276.385517 
L 888.596195 231.742763 
L 889.060518 229.354838 
L 889.524841 285.561539 
L 889.989164 248.034254 
L 891.846455 286.109663 
L 892.310778 231.366359 
L 892.775101 273.354987 
L 893.239424 251.879958 
L 894.632392 210.630605 
L 895.096715 246.625721 
L 895.561038 229.04937 
L 896.025361 253.509226 
L 896.489684 262.480318 
L 897.882652 310.591271 
L 898.346975 241.406752 
L 898.811298 300.412472 
L 899.275621 244.599026 
L 899.739944 229.382766 
L 901.132912 202.1023 
L 901.597235 264.693176 
L 902.061558 243.830215 
L 902.525881 231.079786 
L 902.990204 223.901545 
L 904.383172 213.43284 
L 904.847495 258.934175 
L 905.311818 214.940606 
L 905.776141 214.861302 
L 906.240464 246.626982 
L 907.633433 240.488374 
L 908.097755 270.827655 
L 909.026401 233.008194 
L 909.490724 255.746276 
L 910.883693 270.2855 
L 911.348015 235.143649 
L 911.812338 258.334014 
L 912.276661 218.917567 
L 912.740984 235.60264 
L 914.133953 294.123439 
L 914.598275 275.719736 
L 915.062598 305.41186 
L 915.526921 223.627946 
L 915.991244 261.638975 
L 917.384213 203.634595 
L 917.848536 203.239108 
L 918.312858 264.738565 
L 918.777181 201.603236 
L 919.241504 264.840125 
L 920.634473 133.691822 
L 921.098796 210.011619 
L 921.563118 258.136116 
L 922.027441 282.848479 
L 922.491764 199.22542 
L 923.884733 192.334739 
L 924.349056 240.868128 
L 924.813378 262.579632 
L 925.277701 235.044849 
L 925.742024 249.442214 
L 927.134993 202.381787 
L 927.599316 199.670412 
L 928.063638 259.326776 
L 928.992284 249.115257 
L 930.385253 287.230799 
L 930.849576 226.526125 
L 931.313899 237.233644 
L 931.778221 232.031075 
L 932.242544 201.495322 
L 933.635513 258.035663 
L 934.099836 233.831612 
L 934.564159 251.623321 
L 935.028481 235.565766 
L 935.492804 262.053873 
L 936.885773 264.427266 
L 937.350096 209.485229 
L 937.814419 255.256623 
L 938.278741 231.178537 
L 938.743064 262.252634 
L 940.136033 259.60177 
L 940.600356 248.324521 
L 941.064679 225.935388 
L 941.529001 248.214901 
L 943.386293 245.86791 
L 943.850616 267.826741 
L 944.314939 229.802107 
L 944.779262 241.775108 
L 946.636553 273.264691 
L 947.100876 214.375874 
L 947.565199 184.958974 
L 948.029522 231.783264 
L 948.493844 254.267042 
L 949.886813 246.361193 
L 950.351136 216.474767 
L 950.815459 257.147403 
L 951.279782 220.656915 
L 951.744104 267.967232 
L 953.601396 234.362586 
L 954.065719 237.634619 
L 954.530042 262.677183 
L 954.994365 240.504736 
L 956.387333 248.023834 
L 956.851656 254.82801 
L 957.315979 275.278156 
L 957.780302 237.614983 
L 958.244625 283.020017 
L 959.637593 210.845047 
L 960.101916 225.486053 
L 960.566239 232.490254 
L 961.030562 221.920291 
L 961.494885 229.967761 
L 962.887853 213.798157 
L 963.352176 245.439581 
L 963.816499 243.412529 
L 964.280822 247.045485 
L 964.745145 237.453638 
L 966.602436 243.471681 
L 967.531082 270.69744 
L 967.995405 216.685638 
L 969.388373 234.159819 
L 969.852696 248.729853 
L 970.317019 209.93003 
L 970.781342 297.699232 
L 971.245665 264.044884 
L 972.638633 198.190186 
L 973.102956 262.046584 
L 973.567279 246.248649 
L 974.031602 281.190221 
L 974.495925 207.144796 
L 975.888893 222.080039 
L 976.353216 241.232308 
L 976.817539 214.977766 
L 977.281862 226.121673 
L 977.746185 229.952541 
L 979.139153 234.461237 
L 979.603476 276.706304 
L 980.067799 235.028931 
L 980.532122 281.86935 
L 980.996445 246.284173 
L 982.389413 263.307654 
L 982.853736 298.869975 
L 983.318059 261.821716 
L 983.782382 213.649985 
L 984.246705 215.828404 
L 985.639673 280.127892 
L 986.103996 229.353524 
L 986.568319 245.847523 
L 987.032642 218.680752 
L 989.354256 245.072966 
L 989.818579 261.719009 
L 990.282902 243.251003 
L 990.747225 243.189408 
L 992.140194 246.908277 
L 992.604516 255.64523 
L 993.068839 234.210821 
L 993.533162 240.192845 
L 993.997485 241.298924 
L 995.390454 260.547963 
L 995.854776 278.552075 
L 996.319099 215.246986 
L 996.783422 255.887726 
L 997.247745 221.832512 
L 998.640714 235.408901 
L 999.105036 243.072553 
L 999.569359 239.192806 
L 1000.033682 244.797609 
L 1000.498005 268.101947 
L 1001.890974 225.468692 
L 1002.355296 253.389368 
L 1002.819619 243.724234 
L 1003.283942 241.763166 
L 1003.748265 224.083129 
L 1005.141234 267.230827 
L 1005.605557 262.541569 
L 1006.069879 297.798269 
L 1006.534202 221.679196 
L 1006.998525 209.692098 
L 1008.391494 238.908638 
L 1008.855817 260.147598 
L 1009.320139 264.190548 
L 1009.784462 239.810916 
L 1010.248785 237.045956 
L 1011.641754 237.167523 
L 1012.106077 268.477499 
L 1012.570399 223.741743 
L 1013.034722 231.099673 
L 1013.499045 247.193254 
L 1015.356337 219.468887 
L 1015.820659 245.21131 
L 1016.284982 255.24131 
L 1016.749305 243.3199 
L 1018.142274 240.441385 
L 1018.606597 231.536888 
L 1019.07092 257.131896 
L 1019.535242 254.617773 
L 1019.999565 235.016233 
L 1021.392534 260.212957 
L 1021.856857 246.967994 
L 1022.32118 255.699453 
L 1022.785502 280.335701 
L 1023.249825 282.635236 
L 1024.642794 206.082709 
L 1025.107117 245.480765 
L 1025.57144 244.702736 
L 1026.035762 229.939988 
L 1026.500085 241.717047 
L 1027.893054 270.167152 
L 1028.8217 239.888983 
L 1029.286022 233.333602 
L 1029.750345 255.016406 
L 1031.607637 273.447089 
L 1032.07196 253.103718 
L 1032.536283 269.581971 
L 1033.000605 207.552084 
L 1034.393574 242.593896 
L 1034.857897 277.733799 
L 1035.32222 261.83907 
L 1035.786543 255.448186 
L 1036.250865 272.378833 
L 1037.643834 288.344523 
L 1038.108157 198.790575 
L 1038.57248 216.758167 
L 1039.036803 268.022032 
L 1039.501125 237.651114 
L 1040.894094 235.653926 
L 1041.358417 259.830052 
L 1041.82274 237.288032 
L 1042.287063 229.043287 
L 1042.751386 257.928641 
L 1044.144354 255.320799 
L 1044.608677 236.683627 
L 1045.073 276.056227 
L 1045.537323 224.516279 
L 1046.001646 234.329972 
L 1047.394614 257.063074 
L 1047.858937 231.656514 
L 1048.32326 232.666018 
L 1048.787583 255.025405 
L 1049.251906 255.886707 
L 1050.644874 261.204954 
L 1051.109197 270.710331 
L 1051.57352 263.1366 
L 1052.037843 269.894348 
L 1052.502166 226.608421 
L 1053.895134 223.702267 
L 1054.359457 228.102558 
L 1054.82378 238.90411 
L 1055.288103 265.016746 
L 1055.752426 207.36457 
L 1057.145394 258.037456 
L 1057.609717 245.711387 
L 1058.07404 242.054171 
L 1058.538363 235.125192 
L 1059.002686 254.887298 
L 1060.859977 263.801654 
L 1061.3243 262.202788 
L 1061.788623 251.900795 
L 1062.252946 263.703456 
L 1063.645914 231.817035 
L 1064.110237 271.263792 
L 1064.57456 227.67802 
L 1065.038883 253.576725 
L 1065.503206 256.813352 
L 1066.896174 282.106287 
L 1067.82482 223.126305 
L 1068.289143 219.502359 
L 1068.753466 250.390721 
L 1070.146434 222.690087 
L 1070.610757 273.733877 
L 1071.07508 246.668122 
L 1071.539403 272.874693 
L 1072.003726 215.295305 
L 1073.396694 255.838381 
L 1073.861017 239.990165 
L 1074.32534 255.879351 
L 1074.789663 226.108903 
L 1075.253986 252.953301 
L 1076.646954 256.928165 
L 1077.111277 241.280247 
L 1077.5756 243.519882 
L 1078.039923 223.872912 
L 1078.504246 249.361798 
L 1079.897215 244.192025 
L 1080.361537 243.510945 
L 1080.82586 232.273034 
L 1081.290183 248.509824 
L 1081.754506 248.37496 
L 1083.147475 237.435787 
L 1084.07612 278.548618 
L 1084.540443 227.148248 
L 1085.004766 252.085402 
L 1086.397735 213.178339 
L 1086.862057 254.102505 
L 1087.32638 224.015174 
L 1087.790703 255.19856 
L 1088.255026 220.221521 
L 1089.647995 245.080166 
L 1090.112317 249.50825 
L 1090.57664 263.434673 
L 1091.040963 239.159431 
L 1091.505286 245.195569 
L 1092.898255 248.100178 
L 1093.362578 251.0273 
L 1093.8269 264.491488 
L 1094.291223 259.281395 
L 1094.755546 267.422824 
L 1096.148515 243.868601 
L 1096.612838 245.25593 
L 1097.07716 245.208475 
L 1098.005806 303.865661 
L 1099.398775 250.834426 
L 1099.863098 292.429295 
L 1100.32742 280.842603 
L 1100.791743 196.089303 
L 1101.256066 268.299011 
L 1102.649035 208.179572 
L 1103.113358 216.661818 
L 1103.57768 235.684281 
L 1104.042003 272.847116 
L 1104.506326 248.06175 
L 1105.899295 274.275956 
L 1106.363618 262.967811 
L 1106.827941 230.648566 
L 1107.292263 262.68942 
L 1107.756586 251.898276 
L 1109.149555 280.001319 
L 1109.613878 197.170028 
L 1110.078201 232.076499 
L 1110.542523 234.76218 
L 1112.399815 227.709529 
L 1112.864138 250.882525 
L 1113.328461 245.067969 
L 1113.792783 246.871105 
L 1114.257106 245.951734 
L 1115.650075 230.0226 
L 1116.114398 232.266385 
L 1116.578721 284.872058 
L 1117.043044 241.791316 
L 1117.507366 252.950658 
L 1118.900335 258.936804 
L 1119.364658 226.051346 
L 1119.828981 250.93595 
L 1120.293304 251.872152 
L 1120.757626 250.476137 
L 1122.614918 285.269944 
L 1123.079241 271.525519 
L 1123.543564 279.823982 
L 1124.007886 278.343452 
L 1125.400855 224.729978 
L 1125.865178 259.804735 
L 1126.329501 269.342085 
L 1126.793824 274.873993 
L 1127.258146 219.32913 
L 1128.651115 206.354196 
L 1129.579761 253.313828 
L 1130.044084 277.417161 
L 1130.508407 244.904267 
L 1131.901375 241.563076 
L 1132.365698 224.719938 
L 1132.830021 220.143417 
L 1133.294344 270.991891 
L 1133.758667 262.092014 
L 1135.151635 260.364274 
L 1135.615958 208.426899 
L 1136.544604 280.481835 
L 1137.008927 262.122581 
L 1138.866218 273.946192 
L 1139.330541 274.163139 
L 1139.794864 221.259691 
L 1140.259187 204.366836 
L 1141.652155 246.901378 
L 1142.116478 277.671629 
L 1142.580801 203.539247 
L 1143.045124 258.233366 
L 1143.509447 266.293131 
L 1144.902415 294.990123 
L 1145.366738 238.451489 
L 1145.831061 207.557935 
L 1146.295384 247.920873 
L 1146.759707 272.587345 
L 1148.152675 271.998975 
L 1148.616998 226.311162 
L 1149.081321 202.921664 
L 1149.081321 202.921664 
" clip-path="url(#pe78e297537)" style="fill: none; stroke: #000000; stroke-width: 0.7; stroke-linecap: square"/>
   </g>
   <g id="line2d_15">
    <path d="M 436.345727 526.260937 
L 436.345727 36.660937 
" clip-path="url(#pe78e297537)" style="fill: none; stroke: #ff0000; stroke-linecap: square"/>
   </g>
   <g id="line2d_16">
    <path d="M 803.160788 526.260937 
L 803.160788 36.660937 
" clip-path="url(#pe78e297537)" style="fill: none; stroke: #ff0000; stroke-linecap: square"/>
   </g>
   <g id="line2d_17">
    <path d="M 1114.257106 526.260937 
L 1114.257106 36.660937 
" clip-path="url(#pe78e297537)" style="fill: none; stroke: #ff0000; stroke-linecap: square"/>
   </g>
   <g id="patch_3">
    <path d="M 83.808594 526.260937 
L 83.808594 36.660937 
" style="fill: none; stroke: #000000; stroke-width: 0.8; stroke-linejoin: miter; stroke-linecap: square"/>
   </g>
   <g id="patch_4">
    <path d="M 1199.808594 526.260937 
L 1199.808594 36.660937 
" style="fill: none; stroke: #000000; stroke-width: 0.8; stroke-linejoin: miter; stroke-linecap: square"/>
   </g>
   <g id="patch_5">
    <path d="M 83.808594 526.260937 
L 1199.808594 526.260937 
" style="fill: none; stroke: #000000; stroke-width: 0.8; stroke-linejoin: miter; stroke-linecap: square"/>
   </g>
   <g id="patch_6">
    <path d="M 83.808594 36.660937 
L 1199.808594 36.660937 
" style="fill: none; stroke: #000000; stroke-width: 0.8; stroke-linejoin: miter; stroke-linecap: square"/>
   </g>
   <g id="text_16">
    <!-- Mean Daily Returns Over Time -->
    <g transform="translate(405.74375 29.995312)scale(0.3 -0.3)">
     <defs>
      <path id="DejaVuSerif-4f" d="M 2625 244 
Q 3391 244 3781 770 
Q 4172 1297 4172 2328 
Q 4172 3363 3781 3889 
Q 3391 4416 2625 4416 
Q 1856 4416 1465 3889 
Q 1075 3363 1075 2328 
Q 1075 1297 1465 770 
Q 1856 244 2625 244 
z
M 2625 -91 
Q 2150 -91 1751 65 
Q 1353 222 1050 525 
Q 700 875 529 1319 
Q 359 1763 359 2328 
Q 359 2894 529 3339 
Q 700 3784 1050 4134 
Q 1356 4441 1750 4595 
Q 2144 4750 2625 4750 
Q 3641 4750 4266 4084 
Q 4891 3419 4891 2328 
Q 4891 1769 4719 1320 
Q 4547 872 4197 525 
Q 3891 219 3497 64 
Q 3103 -91 2625 -91 
z
" transform="scale(0.015625)"/>
      <path id="DejaVuSerif-76" d="M 1581 0 
L 359 2988 
L -19 2988 
L -19 3322 
L 1509 3322 
L 1509 2988 
L 978 2988 
L 1913 703 
L 2847 2988 
L 2350 2988 
L 2350 3322 
L 3597 3322 
L 3597 2988 
L 3225 2988 
L 2003 0 
L 1581 0 
z
" transform="scale(0.015625)"/>
     </defs>
     <use xlink:href="#DejaVuSerif-4d"/>
     <use xlink:href="#DejaVuSerif-65" x="102.392578"/>
     <use xlink:href="#DejaVuSerif-61" x="161.572266"/>
     <use xlink:href="#DejaVuSerif-6e" x="221.191406"/>
     <use xlink:href="#DejaVuSerif-20" x="285.595703"/>
     <use xlink:href="#DejaVuSerif-44" x="317.382812"/>
     <use xlink:href="#DejaVuSerif-61" x="397.558594"/>
     <use xlink:href="#DejaVuSerif-69" x="457.177734"/>
     <use xlink:href="#DejaVuSerif-6c" x="489.160156"/>
     <use xlink:href="#DejaVuSerif-79" x="521.142578"/>
     <use xlink:href="#DejaVuSerif-20" x="577.636719"/>
     <use xlink:href="#DejaVuSerif-52" x="609.423828"/>
     <use xlink:href="#DejaVuSerif-65" x="684.716797"/>
     <use xlink:href="#DejaVuSerif-74" x="743.896484"/>
     <use xlink:href="#DejaVuSerif-75" x="784.082031"/>
     <use xlink:href="#DejaVuSerif-72" x="848.486328"/>
     <use xlink:href="#DejaVuSerif-6e" x="896.289062"/>
     <use xlink:href="#DejaVuSerif-73" x="960.693359"/>
     <use xlink:href="#DejaVuSerif-20" x="1012.011719"/>
     <use xlink:href="#DejaVuSerif-4f" x="1043.798828"/>
     <use xlink:href="#DejaVuSerif-76" x="1125.78125"/>
     <use xlink:href="#DejaVuSerif-65" x="1182.275391"/>
     <use xlink:href="#DejaVuSerif-72" x="1241.455078"/>
     <use xlink:href="#DejaVuSerif-20" x="1289.257812"/>
     <use xlink:href="#DejaVuSerif-54" x="1321.044922"/>
     <use xlink:href="#DejaVuSerif-69" x="1387.744141"/>
     <use xlink:href="#DejaVuSerif-6d" x="1419.726562"/>
     <use xlink:href="#DejaVuSerif-65" x="1514.550781"/>
    </g>
   </g>
  </g>
 </g>
 <defs>
  <clipPath id="pe78e297537">
   <rect x="83.808594" y="36.660937" width="1116" height="489.6"/>
  </clipPath>
 </defs>
</svg>
