<?xml version="1.0" encoding="utf-8" standalone="no"?>
<!DOCTYPE svg PUBLIC "-//W3C//DTD SVG 1.1//EN"
  "http://www.w3.org/Graphics/SVG/1.1/DTD/svg11.dtd">
<svg xmlns:xlink="http://www.w3.org/1999/xlink" width="1208.475pt" height="365.934375pt" viewBox="0 0 1208.475 365.934375" xmlns="http://www.w3.org/2000/svg" version="1.1">
 <metadata>
  <rdf:RDF xmlns:dc="http://purl.org/dc/elements/1.1/" xmlns:cc="http://creativecommons.org/ns#" xmlns:rdf="http://www.w3.org/1999/02/22-rdf-syntax-ns#">
   <cc:Work>
    <dc:type rdf:resource="http://purl.org/dc/dcmitype/StillImage"/>
    <dc:date>2022-10-31T23:33:49.308049</dc:date>
    <dc:format>image/svg+xml</dc:format>
    <dc:creator>
     <cc:Agent>
      <dc:title>Matplotlib v3.5.2, https://matplotlib.org/</dc:title>
     </cc:Agent>
    </dc:creator>
   </cc:Work>
  </rdf:RDF>
 </metadata>
 <defs>
  <style type="text/css">*{stroke-linejoin: round; stroke-linecap: butt}</style>
 </defs>
 <g id="figure_1">
  <g id="patch_1">
   <path d="M 0 365.934375 
L 1208.475 365.934375 
L 1208.475 0 
L 0 0 
z
" style="fill: #ffffff"/>
  </g>
  <g id="axes_1">
   <g id="patch_2">
    <path d="M 85.275 313.860937 
L 1201.275 313.860937 
L 1201.275 36.660937 
L 85.275 36.660937 
z
" style="fill: #ffffff"/>
   </g>
   <g id="patch_3">
    <path d="M 136.002273 313.860937 
L 139.919437 313.860937 
L 139.919437 313.611756 
L 136.002273 313.611756 
z
" clip-path="url(#p1313ee4f52)" style="fill: #1f77b4"/>
   </g>
   <g id="patch_4">
    <path d="M 139.919437 313.860937 
L 143.836601 313.860937 
L 143.836601 312.518409 
L 139.919437 312.518409 
z
" clip-path="url(#p1313ee4f52)" style="fill: #1f77b4"/>
   </g>
   <g id="patch_5">
    <path d="M 143.836601 313.860937 
L 147.753764 313.860937 
L 147.753764 310.794481 
L 143.836601 310.794481 
z
" clip-path="url(#p1313ee4f52)" style="fill: #1f77b4"/>
   </g>
   <g id="patch_6">
    <path d="M 147.753764 313.860937 
L 151.670928 313.860937 
L 151.670928 308.221303 
L 147.753764 308.221303 
z
" clip-path="url(#p1313ee4f52)" style="fill: #1f77b4"/>
   </g>
   <g id="patch_7">
    <path d="M 151.670928 313.860937 
L 155.588092 313.860937 
L 155.588092 304.183548 
L 151.670928 304.183548 
z
" clip-path="url(#p1313ee4f52)" style="fill: #1f77b4"/>
   </g>
   <g id="patch_8">
    <path d="M 155.588092 313.860937 
L 159.505256 313.860937 
L 159.505256 273.630865 
L 155.588092 273.630865 
z
" clip-path="url(#p1313ee4f52)" style="fill: #1f77b4"/>
   </g>
   <g id="patch_9">
    <path d="M 159.505256 313.860937 
L 163.42242 313.860937 
L 163.42242 283.567606 
L 159.505256 283.567606 
z
" clip-path="url(#p1313ee4f52)" style="fill: #1f77b4"/>
   </g>
   <g id="patch_10">
    <path d="M 163.42242 313.860937 
L 167.339584 313.860937 
L 167.339584 294.694316 
L 163.42242 294.694316 
z
" clip-path="url(#p1313ee4f52)" style="fill: #1f77b4"/>
   </g>
   <g id="patch_11">
    <path d="M 167.339584 313.860937 
L 171.256748 313.860937 
L 171.256748 309.833353 
L 167.339584 309.833353 
z
" clip-path="url(#p1313ee4f52)" style="fill: #1f77b4"/>
   </g>
   <g id="patch_12">
    <path d="M 171.256748 313.860937 
L 175.173912 313.860937 
L 175.173912 313.860937 
L 171.256748 313.860937 
z
" clip-path="url(#p1313ee4f52)" style="fill: #1f77b4"/>
   </g>
   <g id="patch_13">
    <path d="M 175.173912 313.860937 
L 179.091076 313.860937 
L 179.091076 313.860937 
L 175.173912 313.860937 
z
" clip-path="url(#p1313ee4f52)" style="fill: #1f77b4"/>
   </g>
   <g id="patch_14">
    <path d="M 179.091076 313.860937 
L 183.00824 313.860937 
L 183.00824 313.860937 
L 179.091076 313.860937 
z
" clip-path="url(#p1313ee4f52)" style="fill: #1f77b4"/>
   </g>
   <g id="patch_15">
    <path d="M 183.00824 313.860937 
L 186.925404 313.860937 
L 186.925404 312.543836 
L 183.00824 312.543836 
z
" clip-path="url(#p1313ee4f52)" style="fill: #1f77b4"/>
   </g>
   <g id="patch_16">
    <path d="M 186.925404 313.860937 
L 190.842568 313.860937 
L 190.842568 307.921268 
L 186.925404 307.921268 
z
" clip-path="url(#p1313ee4f52)" style="fill: #1f77b4"/>
   </g>
   <g id="patch_17">
    <path d="M 190.842568 313.860937 
L 194.759731 313.860937 
L 194.759731 298.523572 
L 190.842568 298.523572 
z
" clip-path="url(#p1313ee4f52)" style="fill: #1f77b4"/>
   </g>
   <g id="patch_18">
    <path d="M 194.759731 313.860937 
L 198.676895 313.860937 
L 198.676895 293.295849 
L 194.759731 293.295849 
z
" clip-path="url(#p1313ee4f52)" style="fill: #1f77b4"/>
   </g>
   <g id="patch_19">
    <path d="M 198.676895 313.860937 
L 202.594059 313.860937 
L 202.594059 287.391777 
L 198.676895 287.391777 
z
" clip-path="url(#p1313ee4f52)" style="fill: #1f77b4"/>
   </g>
   <g id="patch_20">
    <path d="M 202.594059 313.860937 
L 206.511223 313.860937 
L 206.511223 228.264605 
L 202.594059 228.264605 
z
" clip-path="url(#p1313ee4f52)" style="fill: #1f77b4"/>
   </g>
   <g id="patch_21">
    <path d="M 206.511223 313.860937 
L 210.428387 313.860937 
L 210.428387 185.481695 
L 206.511223 185.481695 
z
" clip-path="url(#p1313ee4f52)" style="fill: #1f77b4"/>
   </g>
   <g id="patch_22">
    <path d="M 210.428387 313.860937 
L 214.345551 313.860937 
L 214.345551 259.234286 
L 210.428387 259.234286 
z
" clip-path="url(#p1313ee4f52)" style="fill: #1f77b4"/>
   </g>
   <g id="patch_23">
    <path d="M 214.345551 313.860937 
L 218.262715 313.860937 
L 218.262715 289.710689 
L 214.345551 289.710689 
z
" clip-path="url(#p1313ee4f52)" style="fill: #1f77b4"/>
   </g>
   <g id="patch_24">
    <path d="M 218.262715 313.860937 
L 222.179879 313.860937 
L 222.179879 313.860937 
L 218.262715 313.860937 
z
" clip-path="url(#p1313ee4f52)" style="fill: #1f77b4"/>
   </g>
   <g id="patch_25">
    <path d="M 222.179879 313.860937 
L 226.097043 313.860937 
L 226.097043 313.860937 
L 222.179879 313.860937 
z
" clip-path="url(#p1313ee4f52)" style="fill: #1f77b4"/>
   </g>
   <g id="patch_26">
    <path d="M 226.097043 313.860937 
L 230.014207 313.860937 
L 230.014207 313.860937 
L 226.097043 313.860937 
z
" clip-path="url(#p1313ee4f52)" style="fill: #1f77b4"/>
   </g>
   <g id="patch_27">
    <path d="M 230.014207 313.860937 
L 233.931371 313.860937 
L 233.931371 313.860937 
L 230.014207 313.860937 
z
" clip-path="url(#p1313ee4f52)" style="fill: #1f77b4"/>
   </g>
   <g id="patch_28">
    <path d="M 233.931371 313.860937 
L 237.848535 313.860937 
L 237.848535 311.145369 
L 233.931371 311.145369 
z
" clip-path="url(#p1313ee4f52)" style="fill: #1f77b4"/>
   </g>
   <g id="patch_29">
    <path d="M 237.848535 313.860937 
L 241.765698 313.860937 
L 241.765698 301.818868 
L 237.848535 301.818868 
z
" clip-path="url(#p1313ee4f52)" style="fill: #1f77b4"/>
   </g>
   <g id="patch_30">
    <path d="M 241.765698 313.860937 
L 245.682862 313.860937 
L 245.682862 293.484006 
L 241.765698 293.484006 
z
" clip-path="url(#p1313ee4f52)" style="fill: #1f77b4"/>
   </g>
   <g id="patch_31">
    <path d="M 245.682862 313.860937 
L 249.600026 313.860937 
L 249.600026 288.139321 
L 245.682862 288.139321 
z
" clip-path="url(#p1313ee4f52)" style="fill: #1f77b4"/>
   </g>
   <g id="patch_32">
    <path d="M 249.600026 313.860937 
L 253.51719 313.860937 
L 253.51719 275.431073 
L 249.600026 275.431073 
z
" clip-path="url(#p1313ee4f52)" style="fill: #1f77b4"/>
   </g>
   <g id="patch_33">
    <path d="M 253.51719 313.860937 
L 257.434354 313.860937 
L 257.434354 49.860937 
L 253.51719 49.860937 
z
" clip-path="url(#p1313ee4f52)" style="fill: #1f77b4"/>
   </g>
   <g id="patch_34">
    <path d="M 257.434354 313.860937 
L 261.351518 313.860937 
L 261.351518 165.557359 
L 257.434354 165.557359 
z
" clip-path="url(#p1313ee4f52)" style="fill: #1f77b4"/>
   </g>
   <g id="patch_35">
    <path d="M 261.351518 313.860937 
L 265.268682 313.860937 
L 265.268682 237.814861 
L 261.351518 237.814861 
z
" clip-path="url(#p1313ee4f52)" style="fill: #1f77b4"/>
   </g>
   <g id="patch_36">
    <path d="M 265.268682 313.860937 
L 269.185846 313.860937 
L 269.185846 295.721553 
L 265.268682 295.721553 
z
" clip-path="url(#p1313ee4f52)" style="fill: #1f77b4"/>
   </g>
   <g id="patch_37">
    <path d="M 269.185846 313.860937 
L 273.10301 313.860937 
L 273.10301 313.860937 
L 269.185846 313.860937 
z
" clip-path="url(#p1313ee4f52)" style="fill: #1f77b4"/>
   </g>
   <g id="patch_38">
    <path d="M 273.10301 313.860937 
L 277.020174 313.860937 
L 277.020174 313.860937 
L 273.10301 313.860937 
z
" clip-path="url(#p1313ee4f52)" style="fill: #1f77b4"/>
   </g>
   <g id="patch_39">
    <path d="M 277.020174 313.860937 
L 280.937338 313.860937 
L 280.937338 313.860937 
L 277.020174 313.860937 
z
" clip-path="url(#p1313ee4f52)" style="fill: #1f77b4"/>
   </g>
   <g id="patch_40">
    <path d="M 280.937338 313.860937 
L 284.854502 313.860937 
L 284.854502 312.945577 
L 280.937338 312.945577 
z
" clip-path="url(#p1313ee4f52)" style="fill: #1f77b4"/>
   </g>
   <g id="patch_41">
    <path d="M 284.854502 313.860937 
L 288.771665 313.860937 
L 288.771665 311.821719 
L 284.854502 311.821719 
z
" clip-path="url(#p1313ee4f52)" style="fill: #1f77b4"/>
   </g>
   <g id="patch_42">
    <path d="M 288.771665 313.860937 
L 292.688829 313.860937 
L 292.688829 307.621233 
L 288.771665 307.621233 
z
" clip-path="url(#p1313ee4f52)" style="fill: #1f77b4"/>
   </g>
   <g id="patch_43">
    <path d="M 292.688829 313.860937 
L 296.605993 313.860937 
L 296.605993 306.060036 
L 292.688829 306.060036 
z
" clip-path="url(#p1313ee4f52)" style="fill: #1f77b4"/>
   </g>
   <g id="patch_44">
    <path d="M 296.605993 313.860937 
L 300.523157 313.860937 
L 300.523157 304.692081 
L 296.605993 304.692081 
z
" clip-path="url(#p1313ee4f52)" style="fill: #1f77b4"/>
   </g>
   <g id="patch_45">
    <path d="M 300.523157 313.860937 
L 304.440321 313.860937 
L 304.440321 285.164401 
L 300.523157 285.164401 
z
" clip-path="url(#p1313ee4f52)" style="fill: #1f77b4"/>
   </g>
   <g id="patch_46">
    <path d="M 304.440321 313.860937 
L 308.357485 313.860937 
L 308.357485 264.929859 
L 304.440321 264.929859 
z
" clip-path="url(#p1313ee4f52)" style="fill: #1f77b4"/>
   </g>
   <g id="patch_47">
    <path d="M 308.357485 313.860937 
L 312.274649 313.860937 
L 312.274649 292.166905 
L 308.357485 292.166905 
z
" clip-path="url(#p1313ee4f52)" style="fill: #1f77b4"/>
   </g>
   <g id="patch_48">
    <path d="M 312.274649 313.860937 
L 316.191813 313.860937 
L 316.191813 302.546071 
L 312.274649 302.546071 
z
" clip-path="url(#p1313ee4f52)" style="fill: #1f77b4"/>
   </g>
   <g id="patch_49">
    <path d="M 316.191813 313.860937 
L 320.108977 313.860937 
L 320.108977 313.860937 
L 316.191813 313.860937 
z
" clip-path="url(#p1313ee4f52)" style="fill: #1f77b4"/>
   </g>
   <g id="patch_50">
    <path d="M 320.108977 313.860937 
L 324.026141 313.860937 
L 324.026141 313.860937 
L 320.108977 313.860937 
z
" clip-path="url(#p1313ee4f52)" style="fill: #1f77b4"/>
   </g>
   <g id="patch_51">
    <path d="M 324.026141 313.860937 
L 327.943305 313.860937 
L 327.943305 313.860937 
L 324.026141 313.860937 
z
" clip-path="url(#p1313ee4f52)" style="fill: #1f77b4"/>
   </g>
   <g id="patch_52">
    <path d="M 327.943305 313.860937 
L 331.860469 313.860937 
L 331.860469 313.860937 
L 327.943305 313.860937 
z
" clip-path="url(#p1313ee4f52)" style="fill: #1f77b4"/>
   </g>
   <g id="patch_53">
    <path d="M 331.860469 313.860937 
L 335.777633 313.860937 
L 335.777633 311.999705 
L 331.860469 311.999705 
z
" clip-path="url(#p1313ee4f52)" style="fill: #1f77b4"/>
   </g>
   <g id="patch_54">
    <path d="M 335.777633 313.860937 
L 339.694796 313.860937 
L 339.694796 306.293961 
L 335.777633 306.293961 
z
" clip-path="url(#p1313ee4f52)" style="fill: #1f77b4"/>
   </g>
   <g id="patch_55">
    <path d="M 339.694796 313.860937 
L 343.61196 313.860937 
L 343.61196 301.656137 
L 339.694796 301.656137 
z
" clip-path="url(#p1313ee4f52)" style="fill: #1f77b4"/>
   </g>
   <g id="patch_56">
    <path d="M 343.61196 313.860937 
L 347.529124 313.860937 
L 347.529124 298.004868 
L 343.61196 298.004868 
z
" clip-path="url(#p1313ee4f52)" style="fill: #1f77b4"/>
   </g>
   <g id="patch_57">
    <path d="M 347.529124 313.860937 
L 351.446288 313.860937 
L 351.446288 291.149838 
L 347.529124 291.149838 
z
" clip-path="url(#p1313ee4f52)" style="fill: #1f77b4"/>
   </g>
   <g id="patch_58">
    <path d="M 351.446288 313.860937 
L 355.363452 313.860937 
L 355.363452 179.455575 
L 351.446288 179.455575 
z
" clip-path="url(#p1313ee4f52)" style="fill: #1f77b4"/>
   </g>
   <g id="patch_59">
    <path d="M 355.363452 313.860937 
L 359.280616 313.860937 
L 359.280616 224.415008 
L 355.363452 224.415008 
z
" clip-path="url(#p1313ee4f52)" style="fill: #1f77b4"/>
   </g>
   <g id="patch_60">
    <path d="M 359.280616 313.860937 
L 363.19778 313.860937 
L 363.19778 267.589489 
L 359.280616 267.589489 
z
" clip-path="url(#p1313ee4f52)" style="fill: #1f77b4"/>
   </g>
   <g id="patch_61">
    <path d="M 363.19778 313.860937 
L 367.114944 313.860937 
L 367.114944 298.813436 
L 363.19778 298.813436 
z
" clip-path="url(#p1313ee4f52)" style="fill: #1f77b4"/>
   </g>
   <g id="patch_62">
    <path d="M 367.114944 313.860937 
L 371.032108 313.860937 
L 371.032108 313.860937 
L 367.114944 313.860937 
z
" clip-path="url(#p1313ee4f52)" style="fill: #1f77b4"/>
   </g>
   <g id="patch_63">
    <path d="M 371.032108 313.860937 
L 374.949272 313.860937 
L 374.949272 313.860937 
L 371.032108 313.860937 
z
" clip-path="url(#p1313ee4f52)" style="fill: #1f77b4"/>
   </g>
   <g id="patch_64">
    <path d="M 374.949272 313.860937 
L 378.866436 313.860937 
L 378.866436 313.855852 
L 374.949272 313.855852 
z
" clip-path="url(#p1313ee4f52)" style="fill: #1f77b4"/>
   </g>
   <g id="patch_65">
    <path d="M 378.866436 313.860937 
L 382.7836 313.860937 
L 382.7836 312.548921 
L 378.866436 312.548921 
z
" clip-path="url(#p1313ee4f52)" style="fill: #1f77b4"/>
   </g>
   <g id="patch_66">
    <path d="M 382.7836 313.860937 
L 386.700763 313.860937 
L 386.700763 312.68114 
L 382.7836 312.68114 
z
" clip-path="url(#p1313ee4f52)" style="fill: #1f77b4"/>
   </g>
   <g id="patch_67">
    <path d="M 386.700763 313.860937 
L 390.617927 313.860937 
L 390.617927 311.140284 
L 386.700763 311.140284 
z
" clip-path="url(#p1313ee4f52)" style="fill: #1f77b4"/>
   </g>
   <g id="patch_68">
    <path d="M 390.617927 313.860937 
L 394.535091 313.860937 
L 394.535091 310.936871 
L 390.617927 310.936871 
z
" clip-path="url(#p1313ee4f52)" style="fill: #1f77b4"/>
   </g>
   <g id="patch_69">
    <path d="M 394.535091 313.860937 
L 398.452255 313.860937 
L 398.452255 309.985913 
L 394.535091 309.985913 
z
" clip-path="url(#p1313ee4f52)" style="fill: #1f77b4"/>
   </g>
   <g id="patch_70">
    <path d="M 398.452255 313.860937 
L 402.369419 313.860937 
L 402.369419 305.719319 
L 398.452255 305.719319 
z
" clip-path="url(#p1313ee4f52)" style="fill: #1f77b4"/>
   </g>
   <g id="patch_71">
    <path d="M 402.369419 313.860937 
L 406.286583 313.860937 
L 406.286583 288.688537 
L 402.369419 288.688537 
z
" clip-path="url(#p1313ee4f52)" style="fill: #1f77b4"/>
   </g>
   <g id="patch_72">
    <path d="M 406.286583 313.860937 
L 410.203747 313.860937 
L 410.203747 301.635796 
L 406.286583 301.635796 
z
" clip-path="url(#p1313ee4f52)" style="fill: #1f77b4"/>
   </g>
   <g id="patch_73">
    <path d="M 410.203747 313.860937 
L 414.120911 313.860937 
L 414.120911 307.595807 
L 410.203747 307.595807 
z
" clip-path="url(#p1313ee4f52)" style="fill: #1f77b4"/>
   </g>
   <g id="patch_74">
    <path d="M 414.120911 313.860937 
L 418.038075 313.860937 
L 418.038075 313.774487 
L 414.120911 313.774487 
z
" clip-path="url(#p1313ee4f52)" style="fill: #1f77b4"/>
   </g>
   <g id="patch_75">
    <path d="M 418.038075 313.860937 
L 421.955239 313.860937 
L 421.955239 313.860937 
L 418.038075 313.860937 
z
" clip-path="url(#p1313ee4f52)" style="fill: #1f77b4"/>
   </g>
   <g id="patch_76">
    <path d="M 421.955239 313.860937 
L 425.872403 313.860937 
L 425.872403 313.860937 
L 421.955239 313.860937 
z
" clip-path="url(#p1313ee4f52)" style="fill: #1f77b4"/>
   </g>
   <g id="patch_77">
    <path d="M 425.872403 313.860937 
L 429.789567 313.860937 
L 429.789567 313.860937 
L 425.872403 313.860937 
z
" clip-path="url(#p1313ee4f52)" style="fill: #1f77b4"/>
   </g>
   <g id="patch_78">
    <path d="M 429.789567 313.860937 
L 433.70673 313.860937 
L 433.70673 313.459196 
L 429.789567 313.459196 
z
" clip-path="url(#p1313ee4f52)" style="fill: #1f77b4"/>
   </g>
   <g id="patch_79">
    <path d="M 433.70673 313.860937 
L 437.623894 313.860937 
L 437.623894 313.357489 
L 433.70673 313.357489 
z
" clip-path="url(#p1313ee4f52)" style="fill: #1f77b4"/>
   </g>
   <g id="patch_80">
    <path d="M 437.623894 313.860937 
L 441.541058 313.860937 
L 441.541058 312.945577 
L 437.623894 312.945577 
z
" clip-path="url(#p1313ee4f52)" style="fill: #1f77b4"/>
   </g>
   <g id="patch_81">
    <path d="M 441.541058 313.860937 
L 445.458222 313.860937 
L 445.458222 312.884553 
L 441.541058 312.884553 
z
" clip-path="url(#p1313ee4f52)" style="fill: #1f77b4"/>
   </g>
   <g id="patch_82">
    <path d="M 445.458222 313.860937 
L 449.375386 313.860937 
L 449.375386 312.701481 
L 445.458222 312.701481 
z
" clip-path="url(#p1313ee4f52)" style="fill: #1f77b4"/>
   </g>
   <g id="patch_83">
    <path d="M 449.375386 313.860937 
L 453.29255 313.860937 
L 453.29255 310.880932 
L 449.375386 310.880932 
z
" clip-path="url(#p1313ee4f52)" style="fill: #1f77b4"/>
   </g>
   <g id="patch_84">
    <path d="M 453.29255 313.860937 
L 457.209714 313.860937 
L 457.209714 311.369124 
L 453.29255 311.369124 
z
" clip-path="url(#p1313ee4f52)" style="fill: #1f77b4"/>
   </g>
   <g id="patch_85">
    <path d="M 457.209714 313.860937 
L 461.126878 313.860937 
L 461.126878 312.406532 
L 457.209714 312.406532 
z
" clip-path="url(#p1313ee4f52)" style="fill: #1f77b4"/>
   </g>
   <g id="patch_86">
    <path d="M 461.126878 313.860937 
L 465.044042 313.860937 
L 465.044042 313.13882 
L 461.126878 313.13882 
z
" clip-path="url(#p1313ee4f52)" style="fill: #1f77b4"/>
   </g>
   <g id="patch_87">
    <path d="M 465.044042 313.860937 
L 468.961206 313.860937 
L 468.961206 313.860937 
L 465.044042 313.860937 
z
" clip-path="url(#p1313ee4f52)" style="fill: #1f77b4"/>
   </g>
   <g id="patch_88">
    <path d="M 468.961206 313.860937 
L 472.87837 313.860937 
L 472.87837 313.860937 
L 468.961206 313.860937 
z
" clip-path="url(#p1313ee4f52)" style="fill: #1f77b4"/>
   </g>
   <g id="patch_89">
    <path d="M 472.87837 313.860937 
L 476.795534 313.860937 
L 476.795534 313.860937 
L 472.87837 313.860937 
z
" clip-path="url(#p1313ee4f52)" style="fill: #1f77b4"/>
   </g>
   <g id="patch_90">
    <path d="M 476.795534 313.860937 
L 480.712697 313.860937 
L 480.712697 313.789743 
L 476.795534 313.789743 
z
" clip-path="url(#p1313ee4f52)" style="fill: #1f77b4"/>
   </g>
   <g id="patch_91">
    <path d="M 480.712697 313.860937 
L 484.629861 313.860937 
L 484.629861 313.759231 
L 480.712697 313.759231 
z
" clip-path="url(#p1313ee4f52)" style="fill: #1f77b4"/>
   </g>
   <g id="patch_92">
    <path d="M 484.629861 313.860937 
L 488.547025 313.860937 
L 488.547025 313.494793 
L 484.629861 313.494793 
z
" clip-path="url(#p1313ee4f52)" style="fill: #1f77b4"/>
   </g>
   <g id="patch_93">
    <path d="M 488.547025 313.860937 
L 492.464189 313.860937 
L 492.464189 313.260868 
L 488.547025 313.260868 
z
" clip-path="url(#p1313ee4f52)" style="fill: #1f77b4"/>
   </g>
   <g id="patch_94">
    <path d="M 492.464189 313.860937 
L 496.381353 313.860937 
L 496.381353 313.230356 
L 492.464189 313.230356 
z
" clip-path="url(#p1313ee4f52)" style="fill: #1f77b4"/>
   </g>
   <g id="patch_95">
    <path d="M 496.381353 313.860937 
L 500.298517 313.860937 
L 500.298517 313.047284 
L 496.381353 313.047284 
z
" clip-path="url(#p1313ee4f52)" style="fill: #1f77b4"/>
   </g>
   <g id="patch_96">
    <path d="M 500.298517 313.860937 
L 504.215681 313.860937 
L 504.215681 311.328441 
L 500.298517 311.328441 
z
" clip-path="url(#p1313ee4f52)" style="fill: #1f77b4"/>
   </g>
   <g id="patch_97">
    <path d="M 504.215681 313.860937 
L 508.132845 313.860937 
L 508.132845 312.75742 
L 504.215681 312.75742 
z
" clip-path="url(#p1313ee4f52)" style="fill: #1f77b4"/>
   </g>
   <g id="patch_98">
    <path d="M 508.132845 313.860937 
L 512.050009 313.860937 
L 512.050009 313.001516 
L 508.132845 313.001516 
z
" clip-path="url(#p1313ee4f52)" style="fill: #1f77b4"/>
   </g>
   <g id="patch_99">
    <path d="M 512.050009 313.860937 
L 515.967173 313.860937 
L 515.967173 313.794828 
L 512.050009 313.794828 
z
" clip-path="url(#p1313ee4f52)" style="fill: #1f77b4"/>
   </g>
   <g id="patch_100">
    <path d="M 515.967173 313.860937 
L 519.884337 313.860937 
L 519.884337 313.860937 
L 515.967173 313.860937 
z
" clip-path="url(#p1313ee4f52)" style="fill: #1f77b4"/>
   </g>
   <g id="patch_101">
    <path d="M 519.884337 313.860937 
L 523.801501 313.860937 
L 523.801501 313.860937 
L 519.884337 313.860937 
z
" clip-path="url(#p1313ee4f52)" style="fill: #1f77b4"/>
   </g>
   <g id="patch_102">
    <path d="M 523.801501 313.860937 
L 527.718664 313.860937 
L 527.718664 313.860937 
L 523.801501 313.860937 
z
" clip-path="url(#p1313ee4f52)" style="fill: #1f77b4"/>
   </g>
   <g id="patch_103">
    <path d="M 527.718664 313.860937 
L 531.635828 313.860937 
L 531.635828 313.82534 
L 527.718664 313.82534 
z
" clip-path="url(#p1313ee4f52)" style="fill: #1f77b4"/>
   </g>
   <g id="patch_104">
    <path d="M 531.635828 313.860937 
L 535.552992 313.860937 
L 535.552992 313.708377 
L 531.635828 313.708377 
z
" clip-path="url(#p1313ee4f52)" style="fill: #1f77b4"/>
   </g>
   <g id="patch_105">
    <path d="M 535.552992 313.860937 
L 539.470156 313.860937 
L 539.470156 313.677865 
L 535.552992 313.677865 
z
" clip-path="url(#p1313ee4f52)" style="fill: #1f77b4"/>
   </g>
   <g id="patch_106">
    <path d="M 539.470156 313.860937 
L 543.38732 313.860937 
L 543.38732 313.510049 
L 539.470156 313.510049 
z
" clip-path="url(#p1313ee4f52)" style="fill: #1f77b4"/>
   </g>
   <g id="patch_107">
    <path d="M 543.38732 313.860937 
L 547.304484 313.860937 
L 547.304484 313.489708 
L 543.38732 313.489708 
z
" clip-path="url(#p1313ee4f52)" style="fill: #1f77b4"/>
   </g>
   <g id="patch_108">
    <path d="M 547.304484 313.860937 
L 551.221648 313.860937 
L 551.221648 312.589604 
L 547.304484 312.589604 
z
" clip-path="url(#p1313ee4f52)" style="fill: #1f77b4"/>
   </g>
   <g id="patch_109">
    <path d="M 551.221648 313.860937 
L 555.138812 313.860937 
L 555.138812 312.8337 
L 551.221648 312.8337 
z
" clip-path="url(#p1313ee4f52)" style="fill: #1f77b4"/>
   </g>
   <g id="patch_110">
    <path d="M 555.138812 313.860937 
L 559.055976 313.860937 
L 559.055976 313.093052 
L 555.138812 313.093052 
z
" clip-path="url(#p1313ee4f52)" style="fill: #1f77b4"/>
   </g>
   <g id="patch_111">
    <path d="M 559.055976 313.860937 
L 562.97314 313.860937 
L 562.97314 313.525305 
L 559.055976 313.525305 
z
" clip-path="url(#p1313ee4f52)" style="fill: #1f77b4"/>
   </g>
   <g id="patch_112">
    <path d="M 562.97314 313.860937 
L 566.890304 313.860937 
L 566.890304 313.860937 
L 562.97314 313.860937 
z
" clip-path="url(#p1313ee4f52)" style="fill: #1f77b4"/>
   </g>
   <g id="patch_113">
    <path d="M 566.890304 313.860937 
L 570.807468 313.860937 
L 570.807468 313.860937 
L 566.890304 313.860937 
z
" clip-path="url(#p1313ee4f52)" style="fill: #1f77b4"/>
   </g>
   <g id="patch_114">
    <path d="M 570.807468 313.860937 
L 574.724631 313.860937 
L 574.724631 313.860937 
L 570.807468 313.860937 
z
" clip-path="url(#p1313ee4f52)" style="fill: #1f77b4"/>
   </g>
   <g id="patch_115">
    <path d="M 574.724631 313.860937 
L 578.641795 313.860937 
L 578.641795 313.860937 
L 574.724631 313.860937 
z
" clip-path="url(#p1313ee4f52)" style="fill: #1f77b4"/>
   </g>
   <g id="patch_116">
    <path d="M 578.641795 313.860937 
L 582.558959 313.860937 
L 582.558959 313.840596 
L 578.641795 313.840596 
z
" clip-path="url(#p1313ee4f52)" style="fill: #1f77b4"/>
   </g>
   <g id="patch_117">
    <path d="M 582.558959 313.860937 
L 586.476123 313.860937 
L 586.476123 313.754145 
L 582.558959 313.754145 
z
" clip-path="url(#p1313ee4f52)" style="fill: #1f77b4"/>
   </g>
   <g id="patch_118">
    <path d="M 586.476123 313.860937 
L 590.393287 313.860937 
L 590.393287 313.728719 
L 586.476123 313.728719 
z
" clip-path="url(#p1313ee4f52)" style="fill: #1f77b4"/>
   </g>
   <g id="patch_119">
    <path d="M 590.393287 313.860937 
L 594.310451 313.860937 
L 594.310451 313.713463 
L 590.393287 313.713463 
z
" clip-path="url(#p1313ee4f52)" style="fill: #1f77b4"/>
   </g>
   <g id="patch_120">
    <path d="M 594.310451 313.860937 
L 598.227615 313.860937 
L 598.227615 313.627012 
L 594.310451 313.627012 
z
" clip-path="url(#p1313ee4f52)" style="fill: #1f77b4"/>
   </g>
   <g id="patch_121">
    <path d="M 598.227615 313.860937 
L 602.144779 313.860937 
L 602.144779 312.98626 
L 598.227615 312.98626 
z
" clip-path="url(#p1313ee4f52)" style="fill: #1f77b4"/>
   </g>
   <g id="patch_122">
    <path d="M 602.144779 313.860937 
L 606.061943 313.860937 
L 606.061943 313.255783 
L 602.144779 313.255783 
z
" clip-path="url(#p1313ee4f52)" style="fill: #1f77b4"/>
   </g>
   <g id="patch_123">
    <path d="M 606.061943 313.860937 
L 609.979107 313.860937 
L 609.979107 313.688036 
L 606.061943 313.688036 
z
" clip-path="url(#p1313ee4f52)" style="fill: #1f77b4"/>
   </g>
   <g id="patch_124">
    <path d="M 609.979107 313.860937 
L 613.896271 313.860937 
L 613.896271 313.804999 
L 609.979107 313.804999 
z
" clip-path="url(#p1313ee4f52)" style="fill: #1f77b4"/>
   </g>
   <g id="patch_125">
    <path d="M 613.896271 313.860937 
L 617.813435 313.860937 
L 617.813435 313.860937 
L 613.896271 313.860937 
z
" clip-path="url(#p1313ee4f52)" style="fill: #1f77b4"/>
   </g>
   <g id="patch_126">
    <path d="M 617.813435 313.860937 
L 621.730598 313.860937 
L 621.730598 313.860937 
L 617.813435 313.860937 
z
" clip-path="url(#p1313ee4f52)" style="fill: #1f77b4"/>
   </g>
   <g id="patch_127">
    <path d="M 621.730598 313.860937 
L 625.647762 313.860937 
L 625.647762 313.860937 
L 621.730598 313.860937 
z
" clip-path="url(#p1313ee4f52)" style="fill: #1f77b4"/>
   </g>
   <g id="patch_128">
    <path d="M 625.647762 313.860937 
L 629.564926 313.860937 
L 629.564926 313.845681 
L 625.647762 313.845681 
z
" clip-path="url(#p1313ee4f52)" style="fill: #1f77b4"/>
   </g>
   <g id="patch_129">
    <path d="M 629.564926 313.860937 
L 633.48209 313.860937 
L 633.48209 313.779572 
L 629.564926 313.779572 
z
" clip-path="url(#p1313ee4f52)" style="fill: #1f77b4"/>
   </g>
   <g id="patch_130">
    <path d="M 633.48209 313.860937 
L 637.399254 313.860937 
L 637.399254 313.733804 
L 633.48209 313.733804 
z
" clip-path="url(#p1313ee4f52)" style="fill: #1f77b4"/>
   </g>
   <g id="patch_131">
    <path d="M 637.399254 313.860937 
L 641.316418 313.860937 
L 641.316418 313.627012 
L 637.399254 313.627012 
z
" clip-path="url(#p1313ee4f52)" style="fill: #1f77b4"/>
   </g>
   <g id="patch_132">
    <path d="M 641.316418 313.860937 
L 645.233582 313.860937 
L 645.233582 313.652439 
L 641.316418 313.652439 
z
" clip-path="url(#p1313ee4f52)" style="fill: #1f77b4"/>
   </g>
   <g id="patch_133">
    <path d="M 645.233582 313.860937 
L 649.150746 313.860937 
L 649.150746 313.108308 
L 645.233582 313.108308 
z
" clip-path="url(#p1313ee4f52)" style="fill: #1f77b4"/>
   </g>
   <g id="patch_134">
    <path d="M 649.150746 313.860937 
L 653.06791 313.860937 
L 653.06791 313.067625 
L 649.150746 313.067625 
z
" clip-path="url(#p1313ee4f52)" style="fill: #1f77b4"/>
   </g>
   <g id="patch_135">
    <path d="M 653.06791 313.860937 
L 656.985074 313.860937 
L 656.985074 313.413428 
L 653.06791 313.413428 
z
" clip-path="url(#p1313ee4f52)" style="fill: #1f77b4"/>
   </g>
   <g id="patch_136">
    <path d="M 656.985074 313.860937 
L 660.902238 313.860937 
L 660.902238 313.642268 
L 656.985074 313.642268 
z
" clip-path="url(#p1313ee4f52)" style="fill: #1f77b4"/>
   </g>
   <g id="patch_137">
    <path d="M 660.902238 313.860937 
L 664.819402 313.860937 
L 664.819402 313.860937 
L 660.902238 313.860937 
z
" clip-path="url(#p1313ee4f52)" style="fill: #1f77b4"/>
   </g>
   <g id="patch_138">
    <path d="M 664.819402 313.860937 
L 668.736565 313.860937 
L 668.736565 313.860937 
L 664.819402 313.860937 
z
" clip-path="url(#p1313ee4f52)" style="fill: #1f77b4"/>
   </g>
   <g id="patch_139">
    <path d="M 668.736565 313.860937 
L 672.653729 313.860937 
L 672.653729 313.860937 
L 668.736565 313.860937 
z
" clip-path="url(#p1313ee4f52)" style="fill: #1f77b4"/>
   </g>
   <g id="patch_140">
    <path d="M 672.653729 313.860937 
L 676.570893 313.860937 
L 676.570893 313.840596 
L 672.653729 313.840596 
z
" clip-path="url(#p1313ee4f52)" style="fill: #1f77b4"/>
   </g>
   <g id="patch_141">
    <path d="M 676.570893 313.860937 
L 680.488057 313.860937 
L 680.488057 313.804999 
L 676.570893 313.804999 
z
" clip-path="url(#p1313ee4f52)" style="fill: #1f77b4"/>
   </g>
   <g id="patch_142">
    <path d="M 680.488057 313.860937 
L 684.405221 313.860937 
L 684.405221 313.784657 
L 680.488057 313.784657 
z
" clip-path="url(#p1313ee4f52)" style="fill: #1f77b4"/>
   </g>
   <g id="patch_143">
    <path d="M 684.405221 313.860937 
L 688.322385 313.860937 
L 688.322385 313.627012 
L 684.405221 313.627012 
z
" clip-path="url(#p1313ee4f52)" style="fill: #1f77b4"/>
   </g>
   <g id="patch_144">
    <path d="M 688.322385 313.860937 
L 692.239549 313.860937 
L 692.239549 313.581244 
L 688.322385 313.581244 
z
" clip-path="url(#p1313ee4f52)" style="fill: #1f77b4"/>
   </g>
   <g id="patch_145">
    <path d="M 692.239549 313.860937 
L 696.156713 313.860937 
L 696.156713 313.565988 
L 692.239549 313.565988 
z
" clip-path="url(#p1313ee4f52)" style="fill: #1f77b4"/>
   </g>
   <g id="patch_146">
    <path d="M 696.156713 313.860937 
L 700.073877 313.860937 
L 700.073877 313.06254 
L 696.156713 313.06254 
z
" clip-path="url(#p1313ee4f52)" style="fill: #1f77b4"/>
   </g>
   <g id="patch_147">
    <path d="M 700.073877 313.860937 
L 703.991041 313.860937 
L 703.991041 313.418513 
L 700.073877 313.418513 
z
" clip-path="url(#p1313ee4f52)" style="fill: #1f77b4"/>
   </g>
   <g id="patch_148">
    <path d="M 703.991041 313.860937 
L 707.908205 313.860937 
L 707.908205 313.586329 
L 703.991041 313.586329 
z
" clip-path="url(#p1313ee4f52)" style="fill: #1f77b4"/>
   </g>
   <g id="patch_149">
    <path d="M 707.908205 313.860937 
L 711.825369 313.860937 
L 711.825369 313.804999 
L 707.908205 313.804999 
z
" clip-path="url(#p1313ee4f52)" style="fill: #1f77b4"/>
   </g>
   <g id="patch_150">
    <path d="M 711.825369 313.860937 
L 715.742532 313.860937 
L 715.742532 313.860937 
L 711.825369 313.860937 
z
" clip-path="url(#p1313ee4f52)" style="fill: #1f77b4"/>
   </g>
   <g id="patch_151">
    <path d="M 715.742532 313.860937 
L 719.659696 313.860937 
L 719.659696 313.860937 
L 715.742532 313.860937 
z
" clip-path="url(#p1313ee4f52)" style="fill: #1f77b4"/>
   </g>
   <g id="patch_152">
    <path d="M 719.659696 313.860937 
L 723.57686 313.860937 
L 723.57686 313.860937 
L 719.659696 313.860937 
z
" clip-path="url(#p1313ee4f52)" style="fill: #1f77b4"/>
   </g>
   <g id="patch_153">
    <path d="M 723.57686 313.860937 
L 727.494024 313.860937 
L 727.494024 313.840596 
L 723.57686 313.840596 
z
" clip-path="url(#p1313ee4f52)" style="fill: #1f77b4"/>
   </g>
   <g id="patch_154">
    <path d="M 727.494024 313.860937 
L 731.411188 313.860937 
L 731.411188 313.840596 
L 727.494024 313.840596 
z
" clip-path="url(#p1313ee4f52)" style="fill: #1f77b4"/>
   </g>
   <g id="patch_155">
    <path d="M 731.411188 313.860937 
L 735.328352 313.860937 
L 735.328352 313.774487 
L 731.411188 313.774487 
z
" clip-path="url(#p1313ee4f52)" style="fill: #1f77b4"/>
   </g>
   <g id="patch_156">
    <path d="M 735.328352 313.860937 
L 739.245516 313.860937 
L 739.245516 313.769401 
L 735.328352 313.769401 
z
" clip-path="url(#p1313ee4f52)" style="fill: #1f77b4"/>
   </g>
   <g id="patch_157">
    <path d="M 739.245516 313.860937 
L 743.16268 313.860937 
L 743.16268 313.74906 
L 739.245516 313.74906 
z
" clip-path="url(#p1313ee4f52)" style="fill: #1f77b4"/>
   </g>
   <g id="patch_158">
    <path d="M 743.16268 313.860937 
L 747.079844 313.860937 
L 747.079844 313.423599 
L 743.16268 313.423599 
z
" clip-path="url(#p1313ee4f52)" style="fill: #1f77b4"/>
   </g>
   <g id="patch_159">
    <path d="M 747.079844 313.860937 
L 750.997008 313.860937 
L 750.997008 313.281209 
L 747.079844 313.281209 
z
" clip-path="url(#p1313ee4f52)" style="fill: #1f77b4"/>
   </g>
   <g id="patch_160">
    <path d="M 750.997008 313.860937 
L 754.914172 313.860937 
L 754.914172 313.627012 
L 750.997008 313.627012 
z
" clip-path="url(#p1313ee4f52)" style="fill: #1f77b4"/>
   </g>
   <g id="patch_161">
    <path d="M 754.914172 313.860937 
L 758.831336 313.860937 
L 758.831336 313.627012 
L 754.914172 313.627012 
z
" clip-path="url(#p1313ee4f52)" style="fill: #1f77b4"/>
   </g>
   <g id="patch_162">
    <path d="M 758.831336 313.860937 
L 762.748499 313.860937 
L 762.748499 313.860937 
L 758.831336 313.860937 
z
" clip-path="url(#p1313ee4f52)" style="fill: #1f77b4"/>
   </g>
   <g id="patch_163">
    <path d="M 762.748499 313.860937 
L 766.665663 313.860937 
L 766.665663 313.860937 
L 762.748499 313.860937 
z
" clip-path="url(#p1313ee4f52)" style="fill: #1f77b4"/>
   </g>
   <g id="patch_164">
    <path d="M 766.665663 313.860937 
L 770.582827 313.860937 
L 770.582827 313.860937 
L 766.665663 313.860937 
z
" clip-path="url(#p1313ee4f52)" style="fill: #1f77b4"/>
   </g>
   <g id="patch_165">
    <path d="M 770.582827 313.860937 
L 774.499991 313.860937 
L 774.499991 313.860937 
L 770.582827 313.860937 
z
" clip-path="url(#p1313ee4f52)" style="fill: #1f77b4"/>
   </g>
   <g id="patch_166">
    <path d="M 774.499991 313.860937 
L 778.417155 313.860937 
L 778.417155 313.855852 
L 774.499991 313.855852 
z
" clip-path="url(#p1313ee4f52)" style="fill: #1f77b4"/>
   </g>
   <g id="patch_167">
    <path d="M 778.417155 313.860937 
L 782.334319 313.860937 
L 782.334319 313.804999 
L 778.417155 313.804999 
z
" clip-path="url(#p1313ee4f52)" style="fill: #1f77b4"/>
   </g>
   <g id="patch_168">
    <path d="M 782.334319 313.860937 
L 786.251483 313.860937 
L 786.251483 313.67278 
L 782.334319 313.67278 
z
" clip-path="url(#p1313ee4f52)" style="fill: #1f77b4"/>
   </g>
   <g id="patch_169">
    <path d="M 786.251483 313.860937 
L 790.168647 313.860937 
L 790.168647 313.764316 
L 786.251483 313.764316 
z
" clip-path="url(#p1313ee4f52)" style="fill: #1f77b4"/>
   </g>
   <g id="patch_170">
    <path d="M 790.168647 313.860937 
L 794.085811 313.860937 
L 794.085811 313.586329 
L 790.168647 313.586329 
z
" clip-path="url(#p1313ee4f52)" style="fill: #1f77b4"/>
   </g>
   <g id="patch_171">
    <path d="M 794.085811 313.860937 
L 798.002975 313.860937 
L 798.002975 312.996431 
L 794.085811 312.996431 
z
" clip-path="url(#p1313ee4f52)" style="fill: #1f77b4"/>
   </g>
   <g id="patch_172">
    <path d="M 798.002975 313.860937 
L 801.920139 313.860937 
L 801.920139 313.479537 
L 798.002975 313.479537 
z
" clip-path="url(#p1313ee4f52)" style="fill: #1f77b4"/>
   </g>
   <g id="patch_173">
    <path d="M 801.920139 313.860937 
L 805.837303 313.860937 
L 805.837303 313.667695 
L 801.920139 313.667695 
z
" clip-path="url(#p1313ee4f52)" style="fill: #1f77b4"/>
   </g>
   <g id="patch_174">
    <path d="M 805.837303 313.860937 
L 809.754466 313.860937 
L 809.754466 313.794828 
L 805.837303 313.794828 
z
" clip-path="url(#p1313ee4f52)" style="fill: #1f77b4"/>
   </g>
   <g id="patch_175">
    <path d="M 809.754466 313.860937 
L 813.67163 313.860937 
L 813.67163 313.860937 
L 809.754466 313.860937 
z
" clip-path="url(#p1313ee4f52)" style="fill: #1f77b4"/>
   </g>
   <g id="patch_176">
    <path d="M 813.67163 313.860937 
L 817.588794 313.860937 
L 817.588794 313.860937 
L 813.67163 313.860937 
z
" clip-path="url(#p1313ee4f52)" style="fill: #1f77b4"/>
   </g>
   <g id="patch_177">
    <path d="M 817.588794 313.860937 
L 821.505958 313.860937 
L 821.505958 313.860937 
L 817.588794 313.860937 
z
" clip-path="url(#p1313ee4f52)" style="fill: #1f77b4"/>
   </g>
   <g id="patch_178">
    <path d="M 821.505958 313.860937 
L 825.423122 313.860937 
L 825.423122 313.855852 
L 821.505958 313.855852 
z
" clip-path="url(#p1313ee4f52)" style="fill: #1f77b4"/>
   </g>
   <g id="patch_179">
    <path d="M 825.423122 313.860937 
L 829.340286 313.860937 
L 829.340286 313.830425 
L 825.423122 313.830425 
z
" clip-path="url(#p1313ee4f52)" style="fill: #1f77b4"/>
   </g>
   <g id="patch_180">
    <path d="M 829.340286 313.860937 
L 833.25745 313.860937 
L 833.25745 313.789743 
L 829.340286 313.789743 
z
" clip-path="url(#p1313ee4f52)" style="fill: #1f77b4"/>
   </g>
   <g id="patch_181">
    <path d="M 833.25745 313.860937 
L 837.174614 313.860937 
L 837.174614 313.743975 
L 833.25745 313.743975 
z
" clip-path="url(#p1313ee4f52)" style="fill: #1f77b4"/>
   </g>
   <g id="patch_182">
    <path d="M 837.174614 313.860937 
L 841.091778 313.860937 
L 841.091778 313.774487 
L 837.174614 313.774487 
z
" clip-path="url(#p1313ee4f52)" style="fill: #1f77b4"/>
   </g>
   <g id="patch_183">
    <path d="M 841.091778 313.860937 
L 845.008942 313.860937 
L 845.008942 313.504964 
L 841.091778 313.504964 
z
" clip-path="url(#p1313ee4f52)" style="fill: #1f77b4"/>
   </g>
   <g id="patch_184">
    <path d="M 845.008942 313.860937 
L 848.926106 313.860937 
L 848.926106 313.087967 
L 845.008942 313.087967 
z
" clip-path="url(#p1313ee4f52)" style="fill: #1f77b4"/>
   </g>
   <g id="patch_185">
    <path d="M 848.926106 313.860937 
L 852.84327 313.860937 
L 852.84327 313.560903 
L 848.926106 313.560903 
z
" clip-path="url(#p1313ee4f52)" style="fill: #1f77b4"/>
   </g>
   <g id="patch_186">
    <path d="M 852.84327 313.860937 
L 856.760433 313.860937 
L 856.760433 313.565988 
L 852.84327 313.565988 
z
" clip-path="url(#p1313ee4f52)" style="fill: #1f77b4"/>
   </g>
   <g id="patch_187">
    <path d="M 856.760433 313.860937 
L 860.677597 313.860937 
L 860.677597 313.860937 
L 856.760433 313.860937 
z
" clip-path="url(#p1313ee4f52)" style="fill: #1f77b4"/>
   </g>
   <g id="patch_188">
    <path d="M 860.677597 313.860937 
L 864.594761 313.860937 
L 864.594761 313.860937 
L 860.677597 313.860937 
z
" clip-path="url(#p1313ee4f52)" style="fill: #1f77b4"/>
   </g>
   <g id="patch_189">
    <path d="M 864.594761 313.860937 
L 868.511925 313.860937 
L 868.511925 313.860937 
L 864.594761 313.860937 
z
" clip-path="url(#p1313ee4f52)" style="fill: #1f77b4"/>
   </g>
   <g id="patch_190">
    <path d="M 868.511925 313.860937 
L 872.429089 313.860937 
L 872.429089 313.860937 
L 868.511925 313.860937 
z
" clip-path="url(#p1313ee4f52)" style="fill: #1f77b4"/>
   </g>
   <g id="patch_191">
    <path d="M 872.429089 313.860937 
L 876.346253 313.860937 
L 876.346253 313.850767 
L 872.429089 313.850767 
z
" clip-path="url(#p1313ee4f52)" style="fill: #1f77b4"/>
   </g>
   <g id="patch_192">
    <path d="M 876.346253 313.860937 
L 880.263417 313.860937 
L 880.263417 313.774487 
L 876.346253 313.774487 
z
" clip-path="url(#p1313ee4f52)" style="fill: #1f77b4"/>
   </g>
   <g id="patch_193">
    <path d="M 880.263417 313.860937 
L 884.180581 313.860937 
L 884.180581 313.733804 
L 880.263417 313.733804 
z
" clip-path="url(#p1313ee4f52)" style="fill: #1f77b4"/>
   </g>
   <g id="patch_194">
    <path d="M 884.180581 313.860937 
L 888.097745 313.860937 
L 888.097745 313.774487 
L 884.180581 313.774487 
z
" clip-path="url(#p1313ee4f52)" style="fill: #1f77b4"/>
   </g>
   <g id="patch_195">
    <path d="M 888.097745 313.860937 
L 892.014909 313.860937 
L 892.014909 313.693121 
L 888.097745 313.693121 
z
" clip-path="url(#p1313ee4f52)" style="fill: #1f77b4"/>
   </g>
   <g id="patch_196">
    <path d="M 892.014909 313.860937 
L 895.932073 313.860937 
L 895.932073 313.296465 
L 892.014909 313.296465 
z
" clip-path="url(#p1313ee4f52)" style="fill: #1f77b4"/>
   </g>
   <g id="patch_197">
    <path d="M 895.932073 313.860937 
L 899.849237 313.860937 
L 899.849237 313.489708 
L 895.932073 313.489708 
z
" clip-path="url(#p1313ee4f52)" style="fill: #1f77b4"/>
   </g>
   <g id="patch_198">
    <path d="M 899.849237 313.860937 
L 903.7664 313.860937 
L 903.7664 313.733804 
L 899.849237 313.733804 
z
" clip-path="url(#p1313ee4f52)" style="fill: #1f77b4"/>
   </g>
   <g id="patch_199">
    <path d="M 903.7664 313.860937 
L 907.683564 313.860937 
L 907.683564 313.789743 
L 903.7664 313.789743 
z
" clip-path="url(#p1313ee4f52)" style="fill: #1f77b4"/>
   </g>
   <g id="patch_200">
    <path d="M 907.683564 313.860937 
L 911.600728 313.860937 
L 911.600728 313.860937 
L 907.683564 313.860937 
z
" clip-path="url(#p1313ee4f52)" style="fill: #1f77b4"/>
   </g>
   <g id="patch_201">
    <path d="M 911.600728 313.860937 
L 915.517892 313.860937 
L 915.517892 313.860937 
L 911.600728 313.860937 
z
" clip-path="url(#p1313ee4f52)" style="fill: #1f77b4"/>
   </g>
   <g id="patch_202">
    <path d="M 915.517892 313.860937 
L 919.435056 313.860937 
L 919.435056 313.860937 
L 915.517892 313.860937 
z
" clip-path="url(#p1313ee4f52)" style="fill: #1f77b4"/>
   </g>
   <g id="patch_203">
    <path d="M 919.435056 313.860937 
L 923.35222 313.860937 
L 923.35222 313.845681 
L 919.435056 313.845681 
z
" clip-path="url(#p1313ee4f52)" style="fill: #1f77b4"/>
   </g>
   <g id="patch_204">
    <path d="M 923.35222 313.860937 
L 927.269384 313.860937 
L 927.269384 313.860937 
L 923.35222 313.860937 
z
" clip-path="url(#p1313ee4f52)" style="fill: #1f77b4"/>
   </g>
   <g id="patch_205">
    <path d="M 927.269384 313.860937 
L 931.186548 313.860937 
L 931.186548 313.820255 
L 927.269384 313.820255 
z
" clip-path="url(#p1313ee4f52)" style="fill: #1f77b4"/>
   </g>
   <g id="patch_206">
    <path d="M 931.186548 313.860937 
L 935.103712 313.860937 
L 935.103712 313.815169 
L 931.186548 313.815169 
z
" clip-path="url(#p1313ee4f52)" style="fill: #1f77b4"/>
   </g>
   <g id="patch_207">
    <path d="M 935.103712 313.860937 
L 939.020876 313.860937 
L 939.020876 313.784657 
L 935.103712 313.784657 
z
" clip-path="url(#p1313ee4f52)" style="fill: #1f77b4"/>
   </g>
   <g id="patch_208">
    <path d="M 939.020876 313.860937 
L 942.93804 313.860937 
L 942.93804 313.621927 
L 939.020876 313.621927 
z
" clip-path="url(#p1313ee4f52)" style="fill: #1f77b4"/>
   </g>
   <g id="patch_209">
    <path d="M 942.93804 313.860937 
L 946.855204 313.860937 
L 946.855204 313.44394 
L 942.93804 313.44394 
z
" clip-path="url(#p1313ee4f52)" style="fill: #1f77b4"/>
   </g>
   <g id="patch_210">
    <path d="M 946.855204 313.860937 
L 950.772367 313.860937 
L 950.772367 313.621927 
L 946.855204 313.621927 
z
" clip-path="url(#p1313ee4f52)" style="fill: #1f77b4"/>
   </g>
   <g id="patch_211">
    <path d="M 950.772367 313.860937 
L 954.689531 313.860937 
L 954.689531 313.733804 
L 950.772367 313.733804 
z
" clip-path="url(#p1313ee4f52)" style="fill: #1f77b4"/>
   </g>
   <g id="patch_212">
    <path d="M 954.689531 313.860937 
L 958.606695 313.860937 
L 958.606695 313.860937 
L 954.689531 313.860937 
z
" clip-path="url(#p1313ee4f52)" style="fill: #1f77b4"/>
   </g>
   <g id="patch_213">
    <path d="M 958.606695 313.860937 
L 962.523859 313.860937 
L 962.523859 313.860937 
L 958.606695 313.860937 
z
" clip-path="url(#p1313ee4f52)" style="fill: #1f77b4"/>
   </g>
   <g id="patch_214">
    <path d="M 962.523859 313.860937 
L 966.441023 313.860937 
L 966.441023 313.860937 
L 962.523859 313.860937 
z
" clip-path="url(#p1313ee4f52)" style="fill: #1f77b4"/>
   </g>
   <g id="patch_215">
    <path d="M 966.441023 313.860937 
L 970.358187 313.860937 
L 970.358187 313.860937 
L 966.441023 313.860937 
z
" clip-path="url(#p1313ee4f52)" style="fill: #1f77b4"/>
   </g>
   <g id="patch_216">
    <path d="M 970.358187 313.860937 
L 974.275351 313.860937 
L 974.275351 313.840596 
L 970.358187 313.840596 
z
" clip-path="url(#p1313ee4f52)" style="fill: #1f77b4"/>
   </g>
   <g id="patch_217">
    <path d="M 974.275351 313.860937 
L 978.192515 313.860937 
L 978.192515 313.820255 
L 974.275351 313.820255 
z
" clip-path="url(#p1313ee4f52)" style="fill: #1f77b4"/>
   </g>
   <g id="patch_218">
    <path d="M 978.192515 313.860937 
L 982.109679 313.860937 
L 982.109679 313.820255 
L 978.192515 313.820255 
z
" clip-path="url(#p1313ee4f52)" style="fill: #1f77b4"/>
   </g>
   <g id="patch_219">
    <path d="M 982.109679 313.860937 
L 986.026843 313.860937 
L 986.026843 313.784657 
L 982.109679 313.784657 
z
" clip-path="url(#p1313ee4f52)" style="fill: #1f77b4"/>
   </g>
   <g id="patch_220">
    <path d="M 986.026843 313.860937 
L 989.944007 313.860937 
L 989.944007 313.784657 
L 986.026843 313.784657 
z
" clip-path="url(#p1313ee4f52)" style="fill: #1f77b4"/>
   </g>
   <g id="patch_221">
    <path d="M 989.944007 313.860937 
L 993.861171 313.860937 
L 993.861171 313.515135 
L 989.944007 313.515135 
z
" clip-path="url(#p1313ee4f52)" style="fill: #1f77b4"/>
   </g>
   <g id="patch_222">
    <path d="M 993.861171 313.860937 
L 997.778335 313.860937 
L 997.778335 313.632097 
L 993.861171 313.632097 
z
" clip-path="url(#p1313ee4f52)" style="fill: #1f77b4"/>
   </g>
   <g id="patch_223">
    <path d="M 997.778335 313.860937 
L 1001.695498 313.860937 
L 1001.695498 313.693121 
L 997.778335 313.693121 
z
" clip-path="url(#p1313ee4f52)" style="fill: #1f77b4"/>
   </g>
   <g id="patch_224">
    <path d="M 1001.695498 313.860937 
L 1005.612662 313.860937 
L 1005.612662 313.830425 
L 1001.695498 313.830425 
z
" clip-path="url(#p1313ee4f52)" style="fill: #1f77b4"/>
   </g>
   <g id="patch_225">
    <path d="M 1005.612662 313.860937 
L 1009.529826 313.860937 
L 1009.529826 313.860937 
L 1005.612662 313.860937 
z
" clip-path="url(#p1313ee4f52)" style="fill: #1f77b4"/>
   </g>
   <g id="patch_226">
    <path d="M 1009.529826 313.860937 
L 1013.44699 313.860937 
L 1013.44699 313.860937 
L 1009.529826 313.860937 
z
" clip-path="url(#p1313ee4f52)" style="fill: #1f77b4"/>
   </g>
   <g id="patch_227">
    <path d="M 1013.44699 313.860937 
L 1017.364154 313.860937 
L 1017.364154 313.850767 
L 1013.44699 313.850767 
z
" clip-path="url(#p1313ee4f52)" style="fill: #1f77b4"/>
   </g>
   <g id="patch_228">
    <path d="M 1017.364154 313.860937 
L 1021.281318 313.860937 
L 1021.281318 313.860937 
L 1017.364154 313.860937 
z
" clip-path="url(#p1313ee4f52)" style="fill: #1f77b4"/>
   </g>
   <g id="patch_229">
    <path d="M 1021.281318 313.860937 
L 1025.198482 313.860937 
L 1025.198482 313.860937 
L 1021.281318 313.860937 
z
" clip-path="url(#p1313ee4f52)" style="fill: #1f77b4"/>
   </g>
   <g id="patch_230">
    <path d="M 1025.198482 313.860937 
L 1029.115646 313.860937 
L 1029.115646 313.845681 
L 1025.198482 313.845681 
z
" clip-path="url(#p1313ee4f52)" style="fill: #1f77b4"/>
   </g>
   <g id="patch_231">
    <path d="M 1029.115646 313.860937 
L 1033.03281 313.860937 
L 1033.03281 313.779572 
L 1029.115646 313.779572 
z
" clip-path="url(#p1313ee4f52)" style="fill: #1f77b4"/>
   </g>
   <g id="patch_232">
    <path d="M 1033.03281 313.860937 
L 1036.949974 313.860937 
L 1036.949974 313.810084 
L 1033.03281 313.810084 
z
" clip-path="url(#p1313ee4f52)" style="fill: #1f77b4"/>
   </g>
   <g id="patch_233">
    <path d="M 1036.949974 313.860937 
L 1040.867138 313.860937 
L 1040.867138 313.698207 
L 1036.949974 313.698207 
z
" clip-path="url(#p1313ee4f52)" style="fill: #1f77b4"/>
   </g>
   <g id="patch_234">
    <path d="M 1040.867138 313.860937 
L 1044.784302 313.860937 
L 1044.784302 313.428684 
L 1040.867138 313.428684 
z
" clip-path="url(#p1313ee4f52)" style="fill: #1f77b4"/>
   </g>
   <g id="patch_235">
    <path d="M 1044.784302 313.860937 
L 1048.701465 313.860937 
L 1048.701465 313.688036 
L 1044.784302 313.688036 
z
" clip-path="url(#p1313ee4f52)" style="fill: #1f77b4"/>
   </g>
   <g id="patch_236">
    <path d="M 1048.701465 313.860937 
L 1052.618629 313.860937 
L 1052.618629 313.713463 
L 1048.701465 313.713463 
z
" clip-path="url(#p1313ee4f52)" style="fill: #1f77b4"/>
   </g>
   <g id="patch_237">
    <path d="M 1052.618629 313.860937 
L 1056.535793 313.860937 
L 1056.535793 313.860937 
L 1052.618629 313.860937 
z
" clip-path="url(#p1313ee4f52)" style="fill: #1f77b4"/>
   </g>
   <g id="patch_238">
    <path d="M 1056.535793 313.860937 
L 1060.452957 313.860937 
L 1060.452957 313.860937 
L 1056.535793 313.860937 
z
" clip-path="url(#p1313ee4f52)" style="fill: #1f77b4"/>
   </g>
   <g id="patch_239">
    <path d="M 1060.452957 313.860937 
L 1064.370121 313.860937 
L 1064.370121 313.860937 
L 1060.452957 313.860937 
z
" clip-path="url(#p1313ee4f52)" style="fill: #1f77b4"/>
   </g>
   <g id="patch_240">
    <path d="M 1064.370121 313.860937 
L 1068.287285 313.860937 
L 1068.287285 313.860937 
L 1064.370121 313.860937 
z
" clip-path="url(#p1313ee4f52)" style="fill: #1f77b4"/>
   </g>
   <g id="patch_241">
    <path d="M 1068.287285 313.860937 
L 1072.204449 313.860937 
L 1072.204449 313.855852 
L 1068.287285 313.855852 
z
" clip-path="url(#p1313ee4f52)" style="fill: #1f77b4"/>
   </g>
   <g id="patch_242">
    <path d="M 1072.204449 313.860937 
L 1076.121613 313.860937 
L 1076.121613 313.815169 
L 1072.204449 313.815169 
z
" clip-path="url(#p1313ee4f52)" style="fill: #1f77b4"/>
   </g>
   <g id="patch_243">
    <path d="M 1076.121613 313.860937 
L 1080.038777 313.860937 
L 1080.038777 313.830425 
L 1076.121613 313.830425 
z
" clip-path="url(#p1313ee4f52)" style="fill: #1f77b4"/>
   </g>
   <g id="patch_244">
    <path d="M 1080.038777 313.860937 
L 1083.955941 313.860937 
L 1083.955941 313.820255 
L 1080.038777 313.820255 
z
" clip-path="url(#p1313ee4f52)" style="fill: #1f77b4"/>
   </g>
   <g id="patch_245">
    <path d="M 1083.955941 313.860937 
L 1087.873105 313.860937 
L 1087.873105 313.738889 
L 1083.955941 313.738889 
z
" clip-path="url(#p1313ee4f52)" style="fill: #1f77b4"/>
   </g>
   <g id="patch_246">
    <path d="M 1087.873105 313.860937 
L 1091.790269 313.860937 
L 1091.790269 313.652439 
L 1087.873105 313.652439 
z
" clip-path="url(#p1313ee4f52)" style="fill: #1f77b4"/>
   </g>
   <g id="patch_247">
    <path d="M 1091.790269 313.860937 
L 1095.707432 313.860937 
L 1095.707432 313.499879 
L 1091.790269 313.499879 
z
" clip-path="url(#p1313ee4f52)" style="fill: #1f77b4"/>
   </g>
   <g id="patch_248">
    <path d="M 1095.707432 313.860937 
L 1099.624596 313.860937 
L 1099.624596 313.743975 
L 1095.707432 313.743975 
z
" clip-path="url(#p1313ee4f52)" style="fill: #1f77b4"/>
   </g>
   <g id="patch_249">
    <path d="M 1099.624596 313.860937 
L 1103.54176 313.860937 
L 1103.54176 313.784657 
L 1099.624596 313.784657 
z
" clip-path="url(#p1313ee4f52)" style="fill: #1f77b4"/>
   </g>
   <g id="patch_250">
    <path d="M 1103.54176 313.860937 
L 1107.458924 313.860937 
L 1107.458924 313.860937 
L 1103.54176 313.860937 
z
" clip-path="url(#p1313ee4f52)" style="fill: #1f77b4"/>
   </g>
   <g id="patch_251">
    <path d="M 1107.458924 313.860937 
L 1111.376088 313.860937 
L 1111.376088 313.860937 
L 1107.458924 313.860937 
z
" clip-path="url(#p1313ee4f52)" style="fill: #1f77b4"/>
   </g>
   <g id="patch_252">
    <path d="M 1111.376088 313.860937 
L 1115.293252 313.860937 
L 1115.293252 313.860937 
L 1111.376088 313.860937 
z
" clip-path="url(#p1313ee4f52)" style="fill: #1f77b4"/>
   </g>
   <g id="patch_253">
    <path d="M 1115.293252 313.860937 
L 1119.210416 313.860937 
L 1119.210416 313.830425 
L 1115.293252 313.830425 
z
" clip-path="url(#p1313ee4f52)" style="fill: #1f77b4"/>
   </g>
   <g id="patch_254">
    <path d="M 1119.210416 313.860937 
L 1123.12758 313.860937 
L 1123.12758 313.850767 
L 1119.210416 313.850767 
z
" clip-path="url(#p1313ee4f52)" style="fill: #1f77b4"/>
   </g>
   <g id="patch_255">
    <path d="M 1123.12758 313.860937 
L 1127.044744 313.860937 
L 1127.044744 313.82534 
L 1123.12758 313.82534 
z
" clip-path="url(#p1313ee4f52)" style="fill: #1f77b4"/>
   </g>
   <g id="patch_256">
    <path d="M 1127.044744 313.860937 
L 1130.961908 313.860937 
L 1130.961908 313.784657 
L 1127.044744 313.784657 
z
" clip-path="url(#p1313ee4f52)" style="fill: #1f77b4"/>
   </g>
   <g id="patch_257">
    <path d="M 1130.961908 313.860937 
L 1134.879072 313.860937 
L 1134.879072 313.759231 
L 1130.961908 313.759231 
z
" clip-path="url(#p1313ee4f52)" style="fill: #1f77b4"/>
   </g>
   <g id="patch_258">
    <path d="M 1134.879072 313.860937 
L 1138.796236 313.860937 
L 1138.796236 313.723633 
L 1134.879072 313.723633 
z
" clip-path="url(#p1313ee4f52)" style="fill: #1f77b4"/>
   </g>
   <g id="patch_259">
    <path d="M 1138.796236 313.860937 
L 1142.713399 313.860937 
L 1142.713399 313.484623 
L 1138.796236 313.484623 
z
" clip-path="url(#p1313ee4f52)" style="fill: #1f77b4"/>
   </g>
   <g id="patch_260">
    <path d="M 1142.713399 313.860937 
L 1146.630563 313.860937 
L 1146.630563 313.662609 
L 1142.713399 313.662609 
z
" clip-path="url(#p1313ee4f52)" style="fill: #1f77b4"/>
   </g>
   <g id="patch_261">
    <path d="M 1146.630563 313.860937 
L 1150.547727 313.860937 
L 1150.547727 313.754145 
L 1146.630563 313.754145 
z
" clip-path="url(#p1313ee4f52)" style="fill: #1f77b4"/>
   </g>
   <g id="matplotlib.axis_1">
    <g id="xtick_1">
     <g id="line2d_1">
      <defs>
       <path id="med4e9ab349" d="M 0 0 
L 0 3.5 
" style="stroke: #000000; stroke-width: 0.8"/>
      </defs>
      <g>
       <use xlink:href="#med4e9ab349" x="123.637129" y="313.860937" style="stroke: #000000; stroke-width: 0.8"/>
      </g>
     </g>
     <g id="text_1">
      <!-- 0 -->
      <g transform="translate(118.865254 332.258594)scale(0.15 -0.15)">
       <defs>
        <path id="DejaVuSerif-30" d="M 2034 219 
Q 2513 219 2750 744 
Q 2988 1269 2988 2328 
Q 2988 3391 2750 3916 
Q 2513 4441 2034 4441 
Q 1556 4441 1318 3916 
Q 1081 3391 1081 2328 
Q 1081 1269 1318 744 
Q 1556 219 2034 219 
z
M 2034 -91 
Q 1275 -91 848 546 
Q 422 1184 422 2328 
Q 422 3475 848 4112 
Q 1275 4750 2034 4750 
Q 2797 4750 3222 4112 
Q 3647 3475 3647 2328 
Q 3647 1184 3222 546 
Q 2797 -91 2034 -91 
z
" transform="scale(0.015625)"/>
       </defs>
       <use xlink:href="#DejaVuSerif-30"/>
      </g>
     </g>
    </g>
    <g id="xtick_2">
     <g id="line2d_2">
      <g>
       <use xlink:href="#med4e9ab349" x="172.747565" y="313.860937" style="stroke: #000000; stroke-width: 0.8"/>
      </g>
     </g>
     <g id="text_2">
      <!-- 24 -->
      <g transform="translate(163.203815 332.258594)scale(0.15 -0.15)">
       <defs>
        <path id="DejaVuSerif-32" d="M 819 3553 
L 469 3553 
L 469 4384 
Q 803 4563 1142 4656 
Q 1481 4750 1806 4750 
Q 2534 4750 2956 4397 
Q 3378 4044 3378 3438 
Q 3378 2753 2422 1800 
Q 2347 1728 2309 1691 
L 1131 513 
L 3078 513 
L 3078 1088 
L 3444 1088 
L 3444 0 
L 434 0 
L 434 341 
L 1850 1753 
Q 2319 2222 2519 2614 
Q 2719 3006 2719 3438 
Q 2719 3909 2473 4175 
Q 2228 4441 1797 4441 
Q 1350 4441 1106 4219 
Q 863 3997 819 3553 
z
" transform="scale(0.015625)"/>
        <path id="DejaVuSerif-34" d="M 2234 1581 
L 2234 4063 
L 641 1581 
L 2234 1581 
z
M 3609 0 
L 1484 0 
L 1484 331 
L 2234 331 
L 2234 1247 
L 197 1247 
L 197 1588 
L 2241 4750 
L 2859 4750 
L 2859 1581 
L 3750 1581 
L 3750 1247 
L 2859 1247 
L 2859 331 
L 3609 331 
L 3609 0 
z
" transform="scale(0.015625)"/>
       </defs>
       <use xlink:href="#DejaVuSerif-32"/>
       <use xlink:href="#DejaVuSerif-34" x="63.623047"/>
      </g>
     </g>
    </g>
    <g id="xtick_3">
     <g id="line2d_3">
      <g>
       <use xlink:href="#med4e9ab349" x="221.858002" y="313.860937" style="stroke: #000000; stroke-width: 0.8"/>
      </g>
     </g>
     <g id="text_3">
      <!-- 48 -->
      <g transform="translate(212.314252 332.258594)scale(0.15 -0.15)">
       <defs>
        <path id="DejaVuSerif-38" d="M 2981 1275 
Q 2981 1775 2732 2051 
Q 2484 2328 2034 2328 
Q 1584 2328 1336 2051 
Q 1088 1775 1088 1275 
Q 1088 772 1336 495 
Q 1584 219 2034 219 
Q 2484 219 2732 495 
Q 2981 772 2981 1275 
z
M 2853 3541 
Q 2853 3966 2637 4203 
Q 2422 4441 2034 4441 
Q 1650 4441 1433 4203 
Q 1216 3966 1216 3541 
Q 1216 3113 1433 2875 
Q 1650 2638 2034 2638 
Q 2422 2638 2637 2875 
Q 2853 3113 2853 3541 
z
M 2516 2484 
Q 3047 2413 3344 2092 
Q 3641 1772 3641 1275 
Q 3641 619 3225 264 
Q 2809 -91 2034 -91 
Q 1263 -91 845 264 
Q 428 619 428 1275 
Q 428 1772 725 2092 
Q 1022 2413 1556 2484 
Q 1084 2569 832 2842 
Q 581 3116 581 3541 
Q 581 4103 968 4426 
Q 1356 4750 2034 4750 
Q 2713 4750 3100 4426 
Q 3488 4103 3488 3541 
Q 3488 3116 3236 2842 
Q 2984 2569 2516 2484 
z
" transform="scale(0.015625)"/>
       </defs>
       <use xlink:href="#DejaVuSerif-34"/>
       <use xlink:href="#DejaVuSerif-38" x="63.623047"/>
      </g>
     </g>
    </g>
    <g id="xtick_4">
     <g id="line2d_4">
      <g>
       <use xlink:href="#med4e9ab349" x="270.968439" y="313.860937" style="stroke: #000000; stroke-width: 0.8"/>
      </g>
     </g>
     <g id="text_4">
      <!-- 72 -->
      <g transform="translate(261.424689 332.258594)scale(0.15 -0.15)">
       <defs>
        <path id="DejaVuSerif-37" d="M 3609 4347 
L 1784 0 
L 1319 0 
L 3059 4153 
L 903 4153 
L 903 3578 
L 538 3578 
L 538 4666 
L 3609 4666 
L 3609 4347 
z
" transform="scale(0.015625)"/>
       </defs>
       <use xlink:href="#DejaVuSerif-37"/>
       <use xlink:href="#DejaVuSerif-32" x="63.623047"/>
      </g>
     </g>
    </g>
    <g id="xtick_5">
     <g id="line2d_5">
      <g>
       <use xlink:href="#med4e9ab349" x="320.078875" y="313.860937" style="stroke: #000000; stroke-width: 0.8"/>
      </g>
     </g>
     <g id="text_5">
      <!-- 96 -->
      <g transform="translate(310.535125 332.258594)scale(0.15 -0.15)">
       <defs>
        <path id="DejaVuSerif-39" d="M 2994 2091 
Q 2784 1856 2512 1740 
Q 2241 1625 1900 1625 
Q 1206 1625 804 2044 
Q 403 2463 403 3188 
Q 403 3897 839 4323 
Q 1275 4750 2003 4750 
Q 2794 4750 3217 4161 
Q 3641 3572 3641 2478 
Q 3641 1253 3137 581 
Q 2634 -91 1722 -91 
Q 1475 -91 1203 -44 
Q 931 3 647 97 
L 647 872 
L 997 872 
Q 1038 556 1241 387 
Q 1444 219 1784 219 
Q 2391 219 2687 676 
Q 2984 1134 2994 2091 
z
M 1978 4441 
Q 1534 4441 1298 4117 
Q 1063 3794 1063 3188 
Q 1063 2581 1298 2256 
Q 1534 1931 1978 1931 
Q 2422 1931 2658 2245 
Q 2894 2559 2894 3150 
Q 2894 3772 2656 4106 
Q 2419 4441 1978 4441 
z
" transform="scale(0.015625)"/>
        <path id="DejaVuSerif-36" d="M 2094 219 
Q 2534 219 2771 542 
Q 3009 866 3009 1472 
Q 3009 2078 2771 2401 
Q 2534 2725 2094 2725 
Q 1647 2725 1412 2412 
Q 1178 2100 1178 1509 
Q 1178 888 1415 553 
Q 1653 219 2094 219 
z
M 1075 2569 
Q 1288 2803 1556 2918 
Q 1825 3034 2163 3034 
Q 2859 3034 3264 2615 
Q 3669 2197 3669 1472 
Q 3669 763 3233 336 
Q 2797 -91 2069 -91 
Q 1278 -91 853 498 
Q 428 1088 428 2181 
Q 428 3406 931 4078 
Q 1434 4750 2350 4750 
Q 2597 4750 2869 4703 
Q 3141 4656 3425 4563 
L 3425 3794 
L 3072 3794 
Q 3034 4109 2831 4275 
Q 2628 4441 2284 4441 
Q 1678 4441 1381 3981 
Q 1084 3522 1075 2569 
z
" transform="scale(0.015625)"/>
       </defs>
       <use xlink:href="#DejaVuSerif-39"/>
       <use xlink:href="#DejaVuSerif-36" x="63.623047"/>
      </g>
     </g>
    </g>
    <g id="xtick_6">
     <g id="line2d_6">
      <g>
       <use xlink:href="#med4e9ab349" x="369.189312" y="313.860937" style="stroke: #000000; stroke-width: 0.8"/>
      </g>
     </g>
     <g id="text_6">
      <!-- 120 -->
      <g transform="translate(354.873687 332.258594)scale(0.15 -0.15)">
       <defs>
        <path id="DejaVuSerif-31" d="M 909 0 
L 909 331 
L 1722 331 
L 1722 4213 
L 781 3603 
L 781 4013 
L 1919 4750 
L 2350 4750 
L 2350 331 
L 3163 331 
L 3163 0 
L 909 0 
z
" transform="scale(0.015625)"/>
       </defs>
       <use xlink:href="#DejaVuSerif-31"/>
       <use xlink:href="#DejaVuSerif-32" x="63.623047"/>
       <use xlink:href="#DejaVuSerif-30" x="127.246094"/>
      </g>
     </g>
    </g>
    <g id="xtick_7">
     <g id="line2d_7">
      <g>
       <use xlink:href="#med4e9ab349" x="418.299749" y="313.860937" style="stroke: #000000; stroke-width: 0.8"/>
      </g>
     </g>
     <g id="text_7">
      <!-- 144 -->
      <g transform="translate(403.984124 332.258594)scale(0.15 -0.15)">
       <use xlink:href="#DejaVuSerif-31"/>
       <use xlink:href="#DejaVuSerif-34" x="63.623047"/>
       <use xlink:href="#DejaVuSerif-34" x="127.246094"/>
      </g>
     </g>
    </g>
    <g id="xtick_8">
     <g id="line2d_8">
      <g>
       <use xlink:href="#med4e9ab349" x="467.410185" y="313.860937" style="stroke: #000000; stroke-width: 0.8"/>
      </g>
     </g>
     <g id="text_8">
      <!-- 168 -->
      <g transform="translate(453.09456 332.258594)scale(0.15 -0.15)">
       <use xlink:href="#DejaVuSerif-31"/>
       <use xlink:href="#DejaVuSerif-36" x="63.623047"/>
       <use xlink:href="#DejaVuSerif-38" x="127.246094"/>
      </g>
     </g>
    </g>
    <g id="xtick_9">
     <g id="line2d_9">
      <g>
       <use xlink:href="#med4e9ab349" x="516.520622" y="313.860937" style="stroke: #000000; stroke-width: 0.8"/>
      </g>
     </g>
     <g id="text_9">
      <!-- 192 -->
      <g transform="translate(502.204997 332.258594)scale(0.15 -0.15)">
       <use xlink:href="#DejaVuSerif-31"/>
       <use xlink:href="#DejaVuSerif-39" x="63.623047"/>
       <use xlink:href="#DejaVuSerif-32" x="127.246094"/>
      </g>
     </g>
    </g>
    <g id="xtick_10">
     <g id="line2d_10">
      <g>
       <use xlink:href="#med4e9ab349" x="565.631059" y="313.860937" style="stroke: #000000; stroke-width: 0.8"/>
      </g>
     </g>
     <g id="text_10">
      <!-- 216 -->
      <g transform="translate(551.315434 332.258594)scale(0.15 -0.15)">
       <use xlink:href="#DejaVuSerif-32"/>
       <use xlink:href="#DejaVuSerif-31" x="63.623047"/>
       <use xlink:href="#DejaVuSerif-36" x="127.246094"/>
      </g>
     </g>
    </g>
    <g id="xtick_11">
     <g id="line2d_11">
      <g>
       <use xlink:href="#med4e9ab349" x="614.741495" y="313.860937" style="stroke: #000000; stroke-width: 0.8"/>
      </g>
     </g>
     <g id="text_11">
      <!-- 240 -->
      <g transform="translate(600.42587 332.258594)scale(0.15 -0.15)">
       <use xlink:href="#DejaVuSerif-32"/>
       <use xlink:href="#DejaVuSerif-34" x="63.623047"/>
       <use xlink:href="#DejaVuSerif-30" x="127.246094"/>
      </g>
     </g>
    </g>
    <g id="xtick_12">
     <g id="line2d_12">
      <g>
       <use xlink:href="#med4e9ab349" x="663.851932" y="313.860937" style="stroke: #000000; stroke-width: 0.8"/>
      </g>
     </g>
     <g id="text_12">
      <!-- 264 -->
      <g transform="translate(649.536307 332.258594)scale(0.15 -0.15)">
       <use xlink:href="#DejaVuSerif-32"/>
       <use xlink:href="#DejaVuSerif-36" x="63.623047"/>
       <use xlink:href="#DejaVuSerif-34" x="127.246094"/>
      </g>
     </g>
    </g>
    <g id="xtick_13">
     <g id="line2d_13">
      <g>
       <use xlink:href="#med4e9ab349" x="712.962369" y="313.860937" style="stroke: #000000; stroke-width: 0.8"/>
      </g>
     </g>
     <g id="text_13">
      <!-- 288 -->
      <g transform="translate(698.646744 332.258594)scale(0.15 -0.15)">
       <use xlink:href="#DejaVuSerif-32"/>
       <use xlink:href="#DejaVuSerif-38" x="63.623047"/>
       <use xlink:href="#DejaVuSerif-38" x="127.246094"/>
      </g>
     </g>
    </g>
    <g id="xtick_14">
     <g id="line2d_14">
      <g>
       <use xlink:href="#med4e9ab349" x="762.072805" y="313.860937" style="stroke: #000000; stroke-width: 0.8"/>
      </g>
     </g>
     <g id="text_14">
      <!-- 312 -->
      <g transform="translate(747.75718 332.258594)scale(0.15 -0.15)">
       <defs>
        <path id="DejaVuSerif-33" d="M 622 4469 
Q 988 4606 1323 4678 
Q 1659 4750 1953 4750 
Q 2638 4750 3022 4454 
Q 3406 4159 3406 3634 
Q 3406 3213 3140 2930 
Q 2875 2647 2388 2547 
Q 2963 2466 3280 2130 
Q 3597 1794 3597 1259 
Q 3597 606 3158 257 
Q 2719 -91 1894 -91 
Q 1528 -91 1179 -12 
Q 831 66 488 225 
L 488 1131 
L 838 1131 
Q 869 681 1141 450 
Q 1413 219 1906 219 
Q 2384 219 2661 495 
Q 2938 772 2938 1253 
Q 2938 1803 2653 2086 
Q 2369 2369 1819 2369 
L 1522 2369 
L 1522 2688 
L 1678 2688 
Q 2225 2688 2498 2914 
Q 2772 3141 2772 3597 
Q 2772 4006 2547 4223 
Q 2322 4441 1900 4441 
Q 1478 4441 1245 4241 
Q 1013 4041 972 3647 
L 622 3647 
L 622 4469 
z
" transform="scale(0.015625)"/>
       </defs>
       <use xlink:href="#DejaVuSerif-33"/>
       <use xlink:href="#DejaVuSerif-31" x="63.623047"/>
       <use xlink:href="#DejaVuSerif-32" x="127.246094"/>
      </g>
     </g>
    </g>
    <g id="xtick_15">
     <g id="line2d_15">
      <g>
       <use xlink:href="#med4e9ab349" x="811.183242" y="313.860937" style="stroke: #000000; stroke-width: 0.8"/>
      </g>
     </g>
     <g id="text_15">
      <!-- 336 -->
      <g transform="translate(796.867617 332.258594)scale(0.15 -0.15)">
       <use xlink:href="#DejaVuSerif-33"/>
       <use xlink:href="#DejaVuSerif-33" x="63.623047"/>
       <use xlink:href="#DejaVuSerif-36" x="127.246094"/>
      </g>
     </g>
    </g>
    <g id="xtick_16">
     <g id="line2d_16">
      <g>
       <use xlink:href="#med4e9ab349" x="860.293679" y="313.860937" style="stroke: #000000; stroke-width: 0.8"/>
      </g>
     </g>
     <g id="text_16">
      <!-- 360 -->
      <g transform="translate(845.978054 332.258594)scale(0.15 -0.15)">
       <use xlink:href="#DejaVuSerif-33"/>
       <use xlink:href="#DejaVuSerif-36" x="63.623047"/>
       <use xlink:href="#DejaVuSerif-30" x="127.246094"/>
      </g>
     </g>
    </g>
    <g id="xtick_17">
     <g id="line2d_17">
      <g>
       <use xlink:href="#med4e9ab349" x="909.404115" y="313.860937" style="stroke: #000000; stroke-width: 0.8"/>
      </g>
     </g>
     <g id="text_17">
      <!-- 384 -->
      <g transform="translate(895.08849 332.258594)scale(0.15 -0.15)">
       <use xlink:href="#DejaVuSerif-33"/>
       <use xlink:href="#DejaVuSerif-38" x="63.623047"/>
       <use xlink:href="#DejaVuSerif-34" x="127.246094"/>
      </g>
     </g>
    </g>
    <g id="xtick_18">
     <g id="line2d_18">
      <g>
       <use xlink:href="#med4e9ab349" x="958.514552" y="313.860937" style="stroke: #000000; stroke-width: 0.8"/>
      </g>
     </g>
     <g id="text_18">
      <!-- 408 -->
      <g transform="translate(944.198927 332.258594)scale(0.15 -0.15)">
       <use xlink:href="#DejaVuSerif-34"/>
       <use xlink:href="#DejaVuSerif-30" x="63.623047"/>
       <use xlink:href="#DejaVuSerif-38" x="127.246094"/>
      </g>
     </g>
    </g>
    <g id="xtick_19">
     <g id="line2d_19">
      <g>
       <use xlink:href="#med4e9ab349" x="1007.624988" y="313.860937" style="stroke: #000000; stroke-width: 0.8"/>
      </g>
     </g>
     <g id="text_19">
      <!-- 432 -->
      <g transform="translate(993.309363 332.258594)scale(0.15 -0.15)">
       <use xlink:href="#DejaVuSerif-34"/>
       <use xlink:href="#DejaVuSerif-33" x="63.623047"/>
       <use xlink:href="#DejaVuSerif-32" x="127.246094"/>
      </g>
     </g>
    </g>
    <g id="xtick_20">
     <g id="line2d_20">
      <g>
       <use xlink:href="#med4e9ab349" x="1056.735425" y="313.860937" style="stroke: #000000; stroke-width: 0.8"/>
      </g>
     </g>
     <g id="text_20">
      <!-- 456 -->
      <g transform="translate(1042.4198 332.258594)scale(0.15 -0.15)">
       <defs>
        <path id="DejaVuSerif-35" d="M 3219 4666 
L 3219 4153 
L 1081 4153 
L 1081 2816 
Q 1244 2928 1461 2984 
Q 1678 3041 1947 3041 
Q 2703 3041 3140 2622 
Q 3578 2203 3578 1478 
Q 3578 738 3136 323 
Q 2694 -91 1894 -91 
Q 1572 -91 1234 -12 
Q 897 66 544 225 
L 544 1131 
L 897 1131 
Q 925 688 1179 453 
Q 1434 219 1894 219 
Q 2388 219 2653 544 
Q 2919 869 2919 1478 
Q 2919 2084 2655 2407 
Q 2391 2731 1894 2731 
Q 1613 2731 1398 2631 
Q 1184 2531 1019 2322 
L 750 2322 
L 750 4666 
L 3219 4666 
z
" transform="scale(0.015625)"/>
       </defs>
       <use xlink:href="#DejaVuSerif-34"/>
       <use xlink:href="#DejaVuSerif-35" x="63.623047"/>
       <use xlink:href="#DejaVuSerif-36" x="127.246094"/>
      </g>
     </g>
    </g>
    <g id="xtick_21">
     <g id="line2d_21">
      <g>
       <use xlink:href="#med4e9ab349" x="1105.845862" y="313.860937" style="stroke: #000000; stroke-width: 0.8"/>
      </g>
     </g>
     <g id="text_21">
      <!-- 480 -->
      <g transform="translate(1091.530237 332.258594)scale(0.15 -0.15)">
       <use xlink:href="#DejaVuSerif-34"/>
       <use xlink:href="#DejaVuSerif-38" x="63.623047"/>
       <use xlink:href="#DejaVuSerif-30" x="127.246094"/>
      </g>
     </g>
    </g>
    <g id="text_22">
     <!-- Time (Hours) -->
     <g transform="translate(575.93125 354.575)scale(0.2 -0.2)">
      <defs>
       <path id="DejaVuSerif-54" d="M 1222 0 
L 1222 331 
L 1819 331 
L 1819 4294 
L 447 4294 
L 447 3566 
L 63 3566 
L 63 4666 
L 4206 4666 
L 4206 3566 
L 3822 3566 
L 3822 4294 
L 2450 4294 
L 2450 331 
L 3047 331 
L 3047 0 
L 1222 0 
z
" transform="scale(0.015625)"/>
       <path id="DejaVuSerif-69" d="M 622 4353 
Q 622 4497 726 4603 
Q 831 4709 978 4709 
Q 1122 4709 1226 4603 
Q 1331 4497 1331 4353 
Q 1331 4206 1228 4103 
Q 1125 4000 978 4000 
Q 831 4000 726 4103 
Q 622 4206 622 4353 
z
M 1356 331 
L 1900 331 
L 1900 0 
L 231 0 
L 231 331 
L 781 331 
L 781 2988 
L 231 2988 
L 231 3322 
L 1356 3322 
L 1356 331 
z
" transform="scale(0.015625)"/>
       <path id="DejaVuSerif-6d" d="M 3316 2675 
Q 3481 3041 3739 3227 
Q 3997 3413 4341 3413 
Q 4863 3413 5119 3089 
Q 5375 2766 5375 2113 
L 5375 331 
L 5894 331 
L 5894 0 
L 4300 0 
L 4300 331 
L 4800 331 
L 4800 2047 
Q 4800 2556 4650 2772 
Q 4500 2988 4153 2988 
Q 3769 2988 3567 2697 
Q 3366 2406 3366 1850 
L 3366 331 
L 3866 331 
L 3866 0 
L 2291 0 
L 2291 331 
L 2791 331 
L 2791 2069 
Q 2791 2566 2641 2777 
Q 2491 2988 2144 2988 
Q 1759 2988 1557 2697 
Q 1356 2406 1356 1850 
L 1356 331 
L 1856 331 
L 1856 0 
L 263 0 
L 263 331 
L 781 331 
L 781 2994 
L 231 2994 
L 231 3322 
L 1356 3322 
L 1356 2731 
Q 1516 3063 1762 3238 
Q 2009 3413 2322 3413 
Q 2709 3413 2968 3220 
Q 3228 3028 3316 2675 
z
" transform="scale(0.015625)"/>
       <path id="DejaVuSerif-65" d="M 3469 1600 
L 991 1600 
L 991 1575 
Q 991 903 1244 561 
Q 1497 219 1991 219 
Q 2369 219 2611 417 
Q 2853 616 2950 1006 
L 3413 1006 
Q 3275 459 2904 184 
Q 2534 -91 1931 -91 
Q 1203 -91 761 389 
Q 319 869 319 1663 
Q 319 2450 753 2931 
Q 1188 3413 1894 3413 
Q 2647 3413 3050 2948 
Q 3453 2484 3469 1600 
z
M 2791 1931 
Q 2772 2513 2545 2808 
Q 2319 3103 1894 3103 
Q 1497 3103 1269 2806 
Q 1041 2509 991 1931 
L 2791 1931 
z
" transform="scale(0.015625)"/>
       <path id="DejaVuSerif-20" transform="scale(0.015625)"/>
       <path id="DejaVuSerif-28" d="M 2041 -997 
Q 1281 -656 893 83 
Q 506 822 506 1931 
Q 506 3044 893 3783 
Q 1281 4522 2041 4863 
L 2041 4556 
Q 1559 4225 1350 3623 
Q 1141 3022 1141 1931 
Q 1141 844 1350 242 
Q 1559 -359 2041 -691 
L 2041 -997 
z
" transform="scale(0.015625)"/>
       <path id="DejaVuSerif-48" d="M 353 0 
L 353 331 
L 947 331 
L 947 4331 
L 353 4331 
L 353 4666 
L 2175 4666 
L 2175 4331 
L 1581 4331 
L 1581 2719 
L 4000 2719 
L 4000 4331 
L 3406 4331 
L 3406 4666 
L 5228 4666 
L 5228 4331 
L 4634 4331 
L 4634 331 
L 5228 331 
L 5228 0 
L 3406 0 
L 3406 331 
L 4000 331 
L 4000 2338 
L 1581 2338 
L 1581 331 
L 2175 331 
L 2175 0 
L 353 0 
z
" transform="scale(0.015625)"/>
       <path id="DejaVuSerif-6f" d="M 1925 219 
Q 2388 219 2623 584 
Q 2859 950 2859 1663 
Q 2859 2375 2623 2739 
Q 2388 3103 1925 3103 
Q 1463 3103 1227 2739 
Q 991 2375 991 1663 
Q 991 950 1228 584 
Q 1466 219 1925 219 
z
M 1925 -91 
Q 1200 -91 759 389 
Q 319 869 319 1663 
Q 319 2456 758 2934 
Q 1197 3413 1925 3413 
Q 2653 3413 3092 2934 
Q 3531 2456 3531 1663 
Q 3531 869 3092 389 
Q 2653 -91 1925 -91 
z
" transform="scale(0.015625)"/>
       <path id="DejaVuSerif-75" d="M 2266 3322 
L 3341 3322 
L 3341 331 
L 3884 331 
L 3884 0 
L 2766 0 
L 2766 588 
Q 2606 256 2353 82 
Q 2100 -91 1766 -91 
Q 1213 -91 952 223 
Q 691 538 691 1209 
L 691 2988 
L 172 2988 
L 172 3322 
L 1269 3322 
L 1269 1388 
Q 1269 781 1417 556 
Q 1566 331 1947 331 
Q 2347 331 2556 625 
Q 2766 919 2766 1478 
L 2766 2988 
L 2266 2988 
L 2266 3322 
z
" transform="scale(0.015625)"/>
       <path id="DejaVuSerif-72" d="M 3059 3328 
L 3059 2497 
L 2728 2497 
Q 2713 2744 2591 2866 
Q 2469 2988 2234 2988 
Q 1809 2988 1582 2694 
Q 1356 2400 1356 1850 
L 1356 331 
L 2022 331 
L 2022 0 
L 263 0 
L 263 331 
L 781 331 
L 781 2994 
L 231 2994 
L 231 3322 
L 1356 3322 
L 1356 2731 
Q 1525 3078 1790 3245 
Q 2056 3413 2438 3413 
Q 2578 3413 2733 3391 
Q 2888 3369 3059 3328 
z
" transform="scale(0.015625)"/>
       <path id="DejaVuSerif-73" d="M 359 184 
L 359 959 
L 691 959 
Q 703 588 923 403 
Q 1144 219 1575 219 
Q 1963 219 2166 364 
Q 2369 509 2369 788 
Q 2369 1006 2220 1140 
Q 2072 1275 1594 1428 
L 1178 1569 
Q 750 1706 558 1912 
Q 366 2119 366 2438 
Q 366 2894 700 3153 
Q 1034 3413 1625 3413 
Q 1888 3413 2178 3344 
Q 2469 3275 2778 3144 
L 2778 2419 
L 2447 2419 
Q 2434 2741 2221 2922 
Q 2009 3103 1644 3103 
Q 1281 3103 1095 2975 
Q 909 2847 909 2591 
Q 909 2381 1050 2254 
Q 1191 2128 1613 1997 
L 2069 1856 
Q 2541 1709 2748 1489 
Q 2956 1269 2956 922 
Q 2956 450 2595 179 
Q 2234 -91 1600 -91 
Q 1278 -91 972 -22 
Q 666 47 359 184 
z
" transform="scale(0.015625)"/>
       <path id="DejaVuSerif-29" d="M 453 -997 
L 453 -691 
Q 934 -359 1145 242 
Q 1356 844 1356 1931 
Q 1356 3022 1145 3623 
Q 934 4225 453 4556 
L 453 4863 
Q 1216 4522 1603 3783 
Q 1991 3044 1991 1931 
Q 1991 822 1603 83 
Q 1216 -656 453 -997 
z
" transform="scale(0.015625)"/>
      </defs>
      <use xlink:href="#DejaVuSerif-54"/>
      <use xlink:href="#DejaVuSerif-69" x="66.699219"/>
      <use xlink:href="#DejaVuSerif-6d" x="98.681641"/>
      <use xlink:href="#DejaVuSerif-65" x="193.505859"/>
      <use xlink:href="#DejaVuSerif-20" x="252.685547"/>
      <use xlink:href="#DejaVuSerif-28" x="284.472656"/>
      <use xlink:href="#DejaVuSerif-48" x="323.486328"/>
      <use xlink:href="#DejaVuSerif-6f" x="410.693359"/>
      <use xlink:href="#DejaVuSerif-75" x="470.898438"/>
      <use xlink:href="#DejaVuSerif-72" x="535.302734"/>
      <use xlink:href="#DejaVuSerif-73" x="583.105469"/>
      <use xlink:href="#DejaVuSerif-29" x="634.423828"/>
     </g>
    </g>
   </g>
   <g id="matplotlib.axis_2">
    <g id="ytick_1">
     <g id="line2d_22">
      <defs>
       <path id="m29ad4d4677" d="M 0 0 
L -3.5 0 
" style="stroke: #000000; stroke-width: 0.8"/>
      </defs>
      <g>
       <use xlink:href="#m29ad4d4677" x="85.275" y="313.860937" style="stroke: #000000; stroke-width: 0.8"/>
      </g>
     </g>
     <g id="text_23">
      <!-- 0 -->
      <g transform="translate(68.73125 319.559766)scale(0.15 -0.15)">
       <use xlink:href="#DejaVuSerif-30"/>
      </g>
     </g>
    </g>
    <g id="ytick_2">
     <g id="line2d_23">
      <g>
       <use xlink:href="#m29ad4d4677" x="85.275" y="263.007603" style="stroke: #000000; stroke-width: 0.8"/>
      </g>
     </g>
     <g id="text_24">
      <!-- 10000 -->
      <g transform="translate(30.55625 268.706431)scale(0.15 -0.15)">
       <use xlink:href="#DejaVuSerif-31"/>
       <use xlink:href="#DejaVuSerif-30" x="63.623047"/>
       <use xlink:href="#DejaVuSerif-30" x="127.246094"/>
       <use xlink:href="#DejaVuSerif-30" x="190.869141"/>
       <use xlink:href="#DejaVuSerif-30" x="254.492188"/>
      </g>
     </g>
    </g>
    <g id="ytick_3">
     <g id="line2d_24">
      <g>
       <use xlink:href="#m29ad4d4677" x="85.275" y="212.154269" style="stroke: #000000; stroke-width: 0.8"/>
      </g>
     </g>
     <g id="text_25">
      <!-- 20000 -->
      <g transform="translate(30.55625 217.853097)scale(0.15 -0.15)">
       <use xlink:href="#DejaVuSerif-32"/>
       <use xlink:href="#DejaVuSerif-30" x="63.623047"/>
       <use xlink:href="#DejaVuSerif-30" x="127.246094"/>
       <use xlink:href="#DejaVuSerif-30" x="190.869141"/>
       <use xlink:href="#DejaVuSerif-30" x="254.492188"/>
      </g>
     </g>
    </g>
    <g id="ytick_4">
     <g id="line2d_25">
      <g>
       <use xlink:href="#m29ad4d4677" x="85.275" y="161.300934" style="stroke: #000000; stroke-width: 0.8"/>
      </g>
     </g>
     <g id="text_26">
      <!-- 30000 -->
      <g transform="translate(30.55625 166.999763)scale(0.15 -0.15)">
       <use xlink:href="#DejaVuSerif-33"/>
       <use xlink:href="#DejaVuSerif-30" x="63.623047"/>
       <use xlink:href="#DejaVuSerif-30" x="127.246094"/>
       <use xlink:href="#DejaVuSerif-30" x="190.869141"/>
       <use xlink:href="#DejaVuSerif-30" x="254.492188"/>
      </g>
     </g>
    </g>
    <g id="ytick_5">
     <g id="line2d_26">
      <g>
       <use xlink:href="#m29ad4d4677" x="85.275" y="110.4476" style="stroke: #000000; stroke-width: 0.8"/>
      </g>
     </g>
     <g id="text_27">
      <!-- 40000 -->
      <g transform="translate(30.55625 116.146428)scale(0.15 -0.15)">
       <use xlink:href="#DejaVuSerif-34"/>
       <use xlink:href="#DejaVuSerif-30" x="63.623047"/>
       <use xlink:href="#DejaVuSerif-30" x="127.246094"/>
       <use xlink:href="#DejaVuSerif-30" x="190.869141"/>
       <use xlink:href="#DejaVuSerif-30" x="254.492188"/>
      </g>
     </g>
    </g>
    <g id="ytick_6">
     <g id="line2d_27">
      <g>
       <use xlink:href="#m29ad4d4677" x="85.275" y="59.594266" style="stroke: #000000; stroke-width: 0.8"/>
      </g>
     </g>
     <g id="text_28">
      <!-- 50000 -->
      <g transform="translate(30.55625 65.293094)scale(0.15 -0.15)">
       <use xlink:href="#DejaVuSerif-35"/>
       <use xlink:href="#DejaVuSerif-30" x="63.623047"/>
       <use xlink:href="#DejaVuSerif-30" x="127.246094"/>
       <use xlink:href="#DejaVuSerif-30" x="190.869141"/>
       <use xlink:href="#DejaVuSerif-30" x="254.492188"/>
      </g>
     </g>
    </g>
    <g id="text_29">
     <!-- Trades -->
     <g transform="translate(22.396875 210.125)rotate(-90)scale(0.2 -0.2)">
      <defs>
       <path id="DejaVuSerif-61" d="M 2547 1044 
L 2547 1747 
L 1806 1747 
Q 1378 1747 1168 1562 
Q 959 1378 959 997 
Q 959 650 1171 447 
Q 1384 244 1747 244 
Q 2106 244 2326 466 
Q 2547 688 2547 1044 
z
M 3122 2075 
L 3122 331 
L 3634 331 
L 3634 0 
L 2547 0 
L 2547 359 
Q 2356 128 2106 18 
Q 1856 -91 1522 -91 
Q 969 -91 644 203 
Q 319 497 319 997 
Q 319 1513 691 1797 
Q 1063 2081 1741 2081 
L 2547 2081 
L 2547 2309 
Q 2547 2688 2317 2895 
Q 2088 3103 1672 3103 
Q 1328 3103 1125 2947 
Q 922 2791 872 2484 
L 575 2484 
L 575 3156 
Q 875 3284 1158 3348 
Q 1441 3413 1709 3413 
Q 2400 3413 2761 3070 
Q 3122 2728 3122 2075 
z
" transform="scale(0.015625)"/>
       <path id="DejaVuSerif-64" d="M 3359 331 
L 3909 331 
L 3909 0 
L 2784 0 
L 2784 519 
Q 2616 206 2355 57 
Q 2094 -91 1709 -91 
Q 1097 -91 708 395 
Q 319 881 319 1663 
Q 319 2444 706 2928 
Q 1094 3413 1709 3413 
Q 2094 3413 2355 3264 
Q 2616 3116 2784 2803 
L 2784 4531 
L 2241 4531 
L 2241 4863 
L 3359 4863 
L 3359 331 
z
M 2784 1497 
L 2784 1825 
Q 2784 2422 2554 2737 
Q 2325 3053 1888 3053 
Q 1444 3053 1217 2703 
Q 991 2353 991 1663 
Q 991 975 1217 622 
Q 1444 269 1888 269 
Q 2325 269 2554 583 
Q 2784 897 2784 1497 
z
" transform="scale(0.015625)"/>
      </defs>
      <use xlink:href="#DejaVuSerif-54"/>
      <use xlink:href="#DejaVuSerif-72" x="66.699219"/>
      <use xlink:href="#DejaVuSerif-61" x="114.501953"/>
      <use xlink:href="#DejaVuSerif-64" x="174.121094"/>
      <use xlink:href="#DejaVuSerif-65" x="238.134766"/>
      <use xlink:href="#DejaVuSerif-73" x="297.314453"/>
     </g>
    </g>
   </g>
   <g id="patch_262">
    <path d="M 85.275 313.860937 
L 85.275 36.660937 
" style="fill: none; stroke: #000000; stroke-width: 0.8; stroke-linejoin: miter; stroke-linecap: square"/>
   </g>
   <g id="patch_263">
    <path d="M 1201.275 313.860937 
L 1201.275 36.660937 
" style="fill: none; stroke: #000000; stroke-width: 0.8; stroke-linejoin: miter; stroke-linecap: square"/>
   </g>
   <g id="patch_264">
    <path d="M 85.275 313.860937 
L 1201.275 313.860937 
" style="fill: none; stroke: #000000; stroke-width: 0.8; stroke-linejoin: miter; stroke-linecap: square"/>
   </g>
   <g id="patch_265">
    <path d="M 85.275 36.660937 
L 1201.275 36.660937 
" style="fill: none; stroke: #000000; stroke-width: 0.8; stroke-linejoin: miter; stroke-linecap: square"/>
   </g>
   <g id="text_30">
    <!-- Distribution of Lag Times between Filing and Trade -->
    <g transform="translate(248.280469 29.995312)scale(0.3 -0.3)">
     <defs>
      <path id="DejaVuSerif-44" d="M 1581 331 
L 2163 331 
Q 3072 331 3558 850 
Q 4044 1369 4044 2338 
Q 4044 3306 3559 3818 
Q 3075 4331 2163 4331 
L 1581 4331 
L 1581 331 
z
M 353 0 
L 353 331 
L 947 331 
L 947 4331 
L 353 4331 
L 353 4666 
L 2209 4666 
Q 3416 4666 4089 4050 
Q 4763 3434 4763 2338 
Q 4763 1238 4088 619 
Q 3413 0 2209 0 
L 353 0 
z
" transform="scale(0.015625)"/>
      <path id="DejaVuSerif-74" d="M 691 2988 
L 184 2988 
L 184 3322 
L 691 3322 
L 691 4353 
L 1269 4353 
L 1269 3322 
L 2350 3322 
L 2350 2988 
L 1269 2988 
L 1269 878 
Q 1269 456 1350 337 
Q 1431 219 1650 219 
Q 1875 219 1978 351 
Q 2081 484 2088 781 
L 2522 781 
Q 2497 328 2275 118 
Q 2053 -91 1600 -91 
Q 1103 -91 897 129 
Q 691 350 691 878 
L 691 2988 
z
" transform="scale(0.015625)"/>
      <path id="DejaVuSerif-62" d="M 738 331 
L 738 4531 
L 184 4531 
L 184 4863 
L 1313 4863 
L 1313 2803 
Q 1481 3116 1742 3264 
Q 2003 3413 2388 3413 
Q 3000 3413 3387 2928 
Q 3775 2444 3775 1663 
Q 3775 881 3387 395 
Q 3000 -91 2388 -91 
Q 2003 -91 1742 57 
Q 1481 206 1313 519 
L 1313 0 
L 184 0 
L 184 331 
L 738 331 
z
M 1313 1497 
Q 1313 897 1542 583 
Q 1772 269 2209 269 
Q 2650 269 2876 622 
Q 3103 975 3103 1663 
Q 3103 2353 2876 2703 
Q 2650 3053 2209 3053 
Q 1772 3053 1542 2737 
Q 1313 2422 1313 1825 
L 1313 1497 
z
" transform="scale(0.015625)"/>
      <path id="DejaVuSerif-6e" d="M 263 0 
L 263 331 
L 781 331 
L 781 2988 
L 231 2988 
L 231 3322 
L 1356 3322 
L 1356 2731 
Q 1516 3069 1770 3241 
Q 2025 3413 2363 3413 
Q 2913 3413 3172 3097 
Q 3431 2781 3431 2113 
L 3431 331 
L 3944 331 
L 3944 0 
L 2356 0 
L 2356 331 
L 2853 331 
L 2853 1931 
Q 2853 2541 2703 2767 
Q 2553 2994 2175 2994 
Q 1775 2994 1565 2701 
Q 1356 2409 1356 1850 
L 1356 331 
L 1856 331 
L 1856 0 
L 263 0 
z
" transform="scale(0.015625)"/>
      <path id="DejaVuSerif-66" d="M 2753 4078 
L 2450 4078 
Q 2447 4313 2317 4434 
Q 2188 4556 1941 4556 
Q 1619 4556 1487 4379 
Q 1356 4203 1356 3750 
L 1356 3322 
L 2284 3322 
L 2284 2988 
L 1356 2988 
L 1356 331 
L 2094 331 
L 2094 0 
L 231 0 
L 231 331 
L 781 331 
L 781 2988 
L 231 2988 
L 231 3322 
L 781 3322 
L 781 3738 
Q 781 4294 1070 4578 
Q 1359 4863 1919 4863 
Q 2128 4863 2337 4825 
Q 2547 4788 2753 4709 
L 2753 4078 
z
" transform="scale(0.015625)"/>
      <path id="DejaVuSerif-4c" d="M 353 0 
L 353 331 
L 947 331 
L 947 4331 
L 353 4331 
L 353 4666 
L 2175 4666 
L 2175 4331 
L 1581 4331 
L 1581 384 
L 3713 384 
L 3713 1166 
L 4097 1166 
L 4097 0 
L 353 0 
z
" transform="scale(0.015625)"/>
      <path id="DejaVuSerif-67" d="M 3359 2988 
L 3359 72 
Q 3359 -644 2965 -1033 
Q 2572 -1422 1844 -1422 
Q 1516 -1422 1216 -1362 
Q 916 -1303 641 -1184 
L 641 -488 
L 941 -488 
Q 997 -813 1206 -963 
Q 1416 -1113 1806 -1113 
Q 2313 -1113 2548 -827 
Q 2784 -541 2784 72 
L 2784 519 
Q 2616 206 2355 57 
Q 2094 -91 1709 -91 
Q 1097 -91 708 395 
Q 319 881 319 1663 
Q 319 2444 706 2928 
Q 1094 3413 1709 3413 
Q 2094 3413 2355 3264 
Q 2616 3116 2784 2803 
L 2784 3322 
L 3909 3322 
L 3909 2988 
L 3359 2988 
z
M 2784 1825 
Q 2784 2422 2554 2737 
Q 2325 3053 1888 3053 
Q 1444 3053 1217 2703 
Q 991 2353 991 1663 
Q 991 975 1217 622 
Q 1444 269 1888 269 
Q 2325 269 2554 583 
Q 2784 897 2784 1497 
L 2784 1825 
z
" transform="scale(0.015625)"/>
      <path id="DejaVuSerif-77" d="M 3072 3322 
L 3922 728 
L 4672 2988 
L 4191 2988 
L 4191 3322 
L 5394 3322 
L 5394 2988 
L 5025 2988 
L 4038 0 
L 3559 0 
L 2741 2484 
L 1919 0 
L 1459 0 
L 475 2988 
L 103 2988 
L 103 3322 
L 1606 3322 
L 1606 2988 
L 1069 2988 
L 1813 728 
L 2669 3322 
L 3072 3322 
z
" transform="scale(0.015625)"/>
      <path id="DejaVuSerif-46" d="M 353 0 
L 353 331 
L 947 331 
L 947 4331 
L 353 4331 
L 353 4666 
L 4172 4666 
L 4172 3628 
L 3788 3628 
L 3788 4281 
L 1581 4281 
L 1581 2719 
L 3175 2719 
L 3175 3303 
L 3559 3303 
L 3559 1753 
L 3175 1753 
L 3175 2338 
L 1581 2338 
L 1581 331 
L 2328 331 
L 2328 0 
L 353 0 
z
" transform="scale(0.015625)"/>
      <path id="DejaVuSerif-6c" d="M 1313 331 
L 1856 331 
L 1856 0 
L 184 0 
L 184 331 
L 738 331 
L 738 4531 
L 184 4531 
L 184 4863 
L 1313 4863 
L 1313 331 
z
" transform="scale(0.015625)"/>
     </defs>
     <use xlink:href="#DejaVuSerif-44"/>
     <use xlink:href="#DejaVuSerif-69" x="80.175781"/>
     <use xlink:href="#DejaVuSerif-73" x="112.158203"/>
     <use xlink:href="#DejaVuSerif-74" x="163.476562"/>
     <use xlink:href="#DejaVuSerif-72" x="203.662109"/>
     <use xlink:href="#DejaVuSerif-69" x="251.464844"/>
     <use xlink:href="#DejaVuSerif-62" x="283.447266"/>
     <use xlink:href="#DejaVuSerif-75" x="347.460938"/>
     <use xlink:href="#DejaVuSerif-74" x="411.865234"/>
     <use xlink:href="#DejaVuSerif-69" x="452.050781"/>
     <use xlink:href="#DejaVuSerif-6f" x="484.033203"/>
     <use xlink:href="#DejaVuSerif-6e" x="544.238281"/>
     <use xlink:href="#DejaVuSerif-20" x="608.642578"/>
     <use xlink:href="#DejaVuSerif-6f" x="640.429688"/>
     <use xlink:href="#DejaVuSerif-66" x="700.634766"/>
     <use xlink:href="#DejaVuSerif-20" x="737.646484"/>
     <use xlink:href="#DejaVuSerif-4c" x="769.433594"/>
     <use xlink:href="#DejaVuSerif-61" x="835.839844"/>
     <use xlink:href="#DejaVuSerif-67" x="895.458984"/>
     <use xlink:href="#DejaVuSerif-20" x="959.472656"/>
     <use xlink:href="#DejaVuSerif-54" x="991.259766"/>
     <use xlink:href="#DejaVuSerif-69" x="1057.958984"/>
     <use xlink:href="#DejaVuSerif-6d" x="1089.941406"/>
     <use xlink:href="#DejaVuSerif-65" x="1184.765625"/>
     <use xlink:href="#DejaVuSerif-73" x="1243.945312"/>
     <use xlink:href="#DejaVuSerif-20" x="1295.263672"/>
     <use xlink:href="#DejaVuSerif-62" x="1327.050781"/>
     <use xlink:href="#DejaVuSerif-65" x="1391.064453"/>
     <use xlink:href="#DejaVuSerif-74" x="1450.244141"/>
     <use xlink:href="#DejaVuSerif-77" x="1490.429688"/>
     <use xlink:href="#DejaVuSerif-65" x="1576.025391"/>
     <use xlink:href="#DejaVuSerif-65" x="1635.205078"/>
     <use xlink:href="#DejaVuSerif-6e" x="1694.384766"/>
     <use xlink:href="#DejaVuSerif-20" x="1758.789062"/>
     <use xlink:href="#DejaVuSerif-46" x="1790.576172"/>
     <use xlink:href="#DejaVuSerif-69" x="1859.960938"/>
     <use xlink:href="#DejaVuSerif-6c" x="1891.943359"/>
     <use xlink:href="#DejaVuSerif-69" x="1923.925781"/>
     <use xlink:href="#DejaVuSerif-6e" x="1955.908203"/>
     <use xlink:href="#DejaVuSerif-67" x="2020.3125"/>
     <use xlink:href="#DejaVuSerif-20" x="2084.326172"/>
     <use xlink:href="#DejaVuSerif-61" x="2116.113281"/>
     <use xlink:href="#DejaVuSerif-6e" x="2175.732422"/>
     <use xlink:href="#DejaVuSerif-64" x="2240.136719"/>
     <use xlink:href="#DejaVuSerif-20" x="2304.150391"/>
     <use xlink:href="#DejaVuSerif-54" x="2335.9375"/>
     <use xlink:href="#DejaVuSerif-72" x="2402.636719"/>
     <use xlink:href="#DejaVuSerif-61" x="2450.439453"/>
     <use xlink:href="#DejaVuSerif-64" x="2510.058594"/>
     <use xlink:href="#DejaVuSerif-65" x="2574.072266"/>
    </g>
   </g>
  </g>
 </g>
 <defs>
  <clipPath id="p1313ee4f52">
   <rect x="85.275" y="36.660937" width="1116" height="277.2"/>
  </clipPath>
 </defs>
</svg>
