<?xml version="1.0" encoding="utf-8" standalone="no"?>
<!DOCTYPE svg PUBLIC "-//W3C//DTD SVG 1.1//EN"
  "http://www.w3.org/Graphics/SVG/1.1/DTD/svg11.dtd">
<svg xmlns:xlink="http://www.w3.org/1999/xlink" width="1216.552344pt" height="595.476941pt" viewBox="0 0 1216.552344 595.476941" xmlns="http://www.w3.org/2000/svg" version="1.1">
 <metadata>
  <rdf:RDF xmlns:dc="http://purl.org/dc/elements/1.1/" xmlns:cc="http://creativecommons.org/ns#" xmlns:rdf="http://www.w3.org/1999/02/22-rdf-syntax-ns#">
   <cc:Work>
    <dc:type rdf:resource="http://purl.org/dc/dcmitype/StillImage"/>
    <dc:date>2022-10-31T23:32:44.541195</dc:date>
    <dc:format>image/svg+xml</dc:format>
    <dc:creator>
     <cc:Agent>
      <dc:title>Matplotlib v3.5.2, https://matplotlib.org/</dc:title>
     </cc:Agent>
    </dc:creator>
   </cc:Work>
  </rdf:RDF>
 </metadata>
 <defs>
  <style type="text/css">*{stroke-linejoin: round; stroke-linecap: butt}</style>
 </defs>
 <g id="figure_1">
  <g id="patch_1">
   <path d="M 0 595.476941 
L 1216.552344 595.476941 
L 1216.552344 0 
L 0 0 
z
" style="fill: #ffffff"/>
  </g>
  <g id="axes_1">
   <g id="patch_2">
    <path d="M 93.352344 526.260937 
L 1209.352344 526.260937 
L 1209.352344 36.660937 
L 93.352344 36.660937 
z
" style="fill: #ffffff"/>
   </g>
   <g id="matplotlib.axis_1">
    <g id="xtick_1">
     <g id="line2d_1">
      <defs>
       <path id="m75a2e7a7cb" d="M 0 0 
L 0 3.5 
" style="stroke: #000000; stroke-width: 0.8"/>
      </defs>
      <g>
       <use xlink:href="#m75a2e7a7cb" x="106.469465" y="526.260937" style="stroke: #000000; stroke-width: 0.8"/>
      </g>
     </g>
     <g id="text_1">
      <!-- 2016 -->
      <g transform="translate(71.849179 562.219097)rotate(-30)scale(0.15 -0.15)">
       <defs>
        <path id="DejaVuSerif-32" d="M 819 3553 
L 469 3553 
L 469 4384 
Q 803 4563 1142 4656 
Q 1481 4750 1806 4750 
Q 2534 4750 2956 4397 
Q 3378 4044 3378 3438 
Q 3378 2753 2422 1800 
Q 2347 1728 2309 1691 
L 1131 513 
L 3078 513 
L 3078 1088 
L 3444 1088 
L 3444 0 
L 434 0 
L 434 341 
L 1850 1753 
Q 2319 2222 2519 2614 
Q 2719 3006 2719 3438 
Q 2719 3909 2473 4175 
Q 2228 4441 1797 4441 
Q 1350 4441 1106 4219 
Q 863 3997 819 3553 
z
" transform="scale(0.015625)"/>
        <path id="DejaVuSerif-30" d="M 2034 219 
Q 2513 219 2750 744 
Q 2988 1269 2988 2328 
Q 2988 3391 2750 3916 
Q 2513 4441 2034 4441 
Q 1556 4441 1318 3916 
Q 1081 3391 1081 2328 
Q 1081 1269 1318 744 
Q 1556 219 2034 219 
z
M 2034 -91 
Q 1275 -91 848 546 
Q 422 1184 422 2328 
Q 422 3475 848 4112 
Q 1275 4750 2034 4750 
Q 2797 4750 3222 4112 
Q 3647 3475 3647 2328 
Q 3647 1184 3222 546 
Q 2797 -91 2034 -91 
z
" transform="scale(0.015625)"/>
        <path id="DejaVuSerif-31" d="M 909 0 
L 909 331 
L 1722 331 
L 1722 4213 
L 781 3603 
L 781 4013 
L 1919 4750 
L 2350 4750 
L 2350 331 
L 3163 331 
L 3163 0 
L 909 0 
z
" transform="scale(0.015625)"/>
        <path id="DejaVuSerif-36" d="M 2094 219 
Q 2534 219 2771 542 
Q 3009 866 3009 1472 
Q 3009 2078 2771 2401 
Q 2534 2725 2094 2725 
Q 1647 2725 1412 2412 
Q 1178 2100 1178 1509 
Q 1178 888 1415 553 
Q 1653 219 2094 219 
z
M 1075 2569 
Q 1288 2803 1556 2918 
Q 1825 3034 2163 3034 
Q 2859 3034 3264 2615 
Q 3669 2197 3669 1472 
Q 3669 763 3233 336 
Q 2797 -91 2069 -91 
Q 1278 -91 853 498 
Q 428 1088 428 2181 
Q 428 3406 931 4078 
Q 1434 4750 2350 4750 
Q 2597 4750 2869 4703 
Q 3141 4656 3425 4563 
L 3425 3794 
L 3072 3794 
Q 3034 4109 2831 4275 
Q 2628 4441 2284 4441 
Q 1678 4441 1381 3981 
Q 1084 3522 1075 2569 
z
" transform="scale(0.015625)"/>
       </defs>
       <use xlink:href="#DejaVuSerif-32"/>
       <use xlink:href="#DejaVuSerif-30" x="63.623047"/>
       <use xlink:href="#DejaVuSerif-31" x="127.246094"/>
       <use xlink:href="#DejaVuSerif-36" x="190.869141"/>
      </g>
     </g>
    </g>
    <g id="xtick_2">
     <g id="line2d_2">
      <g>
       <use xlink:href="#m75a2e7a7cb" x="276.411632" y="526.260937" style="stroke: #000000; stroke-width: 0.8"/>
      </g>
     </g>
     <g id="text_2">
      <!-- 2017 -->
      <g transform="translate(241.791347 562.219097)rotate(-30)scale(0.15 -0.15)">
       <defs>
        <path id="DejaVuSerif-37" d="M 3609 4347 
L 1784 0 
L 1319 0 
L 3059 4153 
L 903 4153 
L 903 3578 
L 538 3578 
L 538 4666 
L 3609 4666 
L 3609 4347 
z
" transform="scale(0.015625)"/>
       </defs>
       <use xlink:href="#DejaVuSerif-32"/>
       <use xlink:href="#DejaVuSerif-30" x="63.623047"/>
       <use xlink:href="#DejaVuSerif-31" x="127.246094"/>
       <use xlink:href="#DejaVuSerif-37" x="190.869141"/>
      </g>
     </g>
    </g>
    <g id="xtick_3">
     <g id="line2d_3">
      <g>
       <use xlink:href="#m75a2e7a7cb" x="445.889477" y="526.260937" style="stroke: #000000; stroke-width: 0.8"/>
      </g>
     </g>
     <g id="text_3">
      <!-- 2018 -->
      <g transform="translate(411.269192 562.219097)rotate(-30)scale(0.15 -0.15)">
       <defs>
        <path id="DejaVuSerif-38" d="M 2981 1275 
Q 2981 1775 2732 2051 
Q 2484 2328 2034 2328 
Q 1584 2328 1336 2051 
Q 1088 1775 1088 1275 
Q 1088 772 1336 495 
Q 1584 219 2034 219 
Q 2484 219 2732 495 
Q 2981 772 2981 1275 
z
M 2853 3541 
Q 2853 3966 2637 4203 
Q 2422 4441 2034 4441 
Q 1650 4441 1433 4203 
Q 1216 3966 1216 3541 
Q 1216 3113 1433 2875 
Q 1650 2638 2034 2638 
Q 2422 2638 2637 2875 
Q 2853 3113 2853 3541 
z
M 2516 2484 
Q 3047 2413 3344 2092 
Q 3641 1772 3641 1275 
Q 3641 619 3225 264 
Q 2809 -91 2034 -91 
Q 1263 -91 845 264 
Q 428 619 428 1275 
Q 428 1772 725 2092 
Q 1022 2413 1556 2484 
Q 1084 2569 832 2842 
Q 581 3116 581 3541 
Q 581 4103 968 4426 
Q 1356 4750 2034 4750 
Q 2713 4750 3100 4426 
Q 3488 4103 3488 3541 
Q 3488 3116 3236 2842 
Q 2984 2569 2516 2484 
z
" transform="scale(0.015625)"/>
       </defs>
       <use xlink:href="#DejaVuSerif-32"/>
       <use xlink:href="#DejaVuSerif-30" x="63.623047"/>
       <use xlink:href="#DejaVuSerif-31" x="127.246094"/>
       <use xlink:href="#DejaVuSerif-38" x="190.869141"/>
      </g>
     </g>
    </g>
    <g id="xtick_4">
     <g id="line2d_4">
      <g>
       <use xlink:href="#m75a2e7a7cb" x="615.367322" y="526.260937" style="stroke: #000000; stroke-width: 0.8"/>
      </g>
     </g>
     <g id="text_4">
      <!-- 2019 -->
      <g transform="translate(580.747036 562.219097)rotate(-30)scale(0.15 -0.15)">
       <defs>
        <path id="DejaVuSerif-39" d="M 2994 2091 
Q 2784 1856 2512 1740 
Q 2241 1625 1900 1625 
Q 1206 1625 804 2044 
Q 403 2463 403 3188 
Q 403 3897 839 4323 
Q 1275 4750 2003 4750 
Q 2794 4750 3217 4161 
Q 3641 3572 3641 2478 
Q 3641 1253 3137 581 
Q 2634 -91 1722 -91 
Q 1475 -91 1203 -44 
Q 931 3 647 97 
L 647 872 
L 997 872 
Q 1038 556 1241 387 
Q 1444 219 1784 219 
Q 2391 219 2687 676 
Q 2984 1134 2994 2091 
z
M 1978 4441 
Q 1534 4441 1298 4117 
Q 1063 3794 1063 3188 
Q 1063 2581 1298 2256 
Q 1534 1931 1978 1931 
Q 2422 1931 2658 2245 
Q 2894 2559 2894 3150 
Q 2894 3772 2656 4106 
Q 2419 4441 1978 4441 
z
" transform="scale(0.015625)"/>
       </defs>
       <use xlink:href="#DejaVuSerif-32"/>
       <use xlink:href="#DejaVuSerif-30" x="63.623047"/>
       <use xlink:href="#DejaVuSerif-31" x="127.246094"/>
       <use xlink:href="#DejaVuSerif-39" x="190.869141"/>
      </g>
     </g>
    </g>
    <g id="xtick_5">
     <g id="line2d_5">
      <g>
       <use xlink:href="#m75a2e7a7cb" x="784.845167" y="526.260937" style="stroke: #000000; stroke-width: 0.8"/>
      </g>
     </g>
     <g id="text_5">
      <!-- 2020 -->
      <g transform="translate(750.224881 562.219097)rotate(-30)scale(0.15 -0.15)">
       <use xlink:href="#DejaVuSerif-32"/>
       <use xlink:href="#DejaVuSerif-30" x="63.623047"/>
       <use xlink:href="#DejaVuSerif-32" x="127.246094"/>
       <use xlink:href="#DejaVuSerif-30" x="190.869141"/>
      </g>
     </g>
    </g>
    <g id="xtick_6">
     <g id="line2d_6">
      <g>
       <use xlink:href="#m75a2e7a7cb" x="954.787334" y="526.260937" style="stroke: #000000; stroke-width: 0.8"/>
      </g>
     </g>
     <g id="text_6">
      <!-- 2021 -->
      <g transform="translate(920.167049 562.219097)rotate(-30)scale(0.15 -0.15)">
       <use xlink:href="#DejaVuSerif-32"/>
       <use xlink:href="#DejaVuSerif-30" x="63.623047"/>
       <use xlink:href="#DejaVuSerif-32" x="127.246094"/>
       <use xlink:href="#DejaVuSerif-31" x="190.869141"/>
      </g>
     </g>
    </g>
    <g id="xtick_7">
     <g id="line2d_7">
      <g>
       <use xlink:href="#m75a2e7a7cb" x="1124.265179" y="526.260937" style="stroke: #000000; stroke-width: 0.8"/>
      </g>
     </g>
     <g id="text_7">
      <!-- 2022 -->
      <g transform="translate(1089.644894 562.219097)rotate(-30)scale(0.15 -0.15)">
       <use xlink:href="#DejaVuSerif-32"/>
       <use xlink:href="#DejaVuSerif-30" x="63.623047"/>
       <use xlink:href="#DejaVuSerif-32" x="127.246094"/>
       <use xlink:href="#DejaVuSerif-32" x="190.869141"/>
      </g>
     </g>
    </g>
    <g id="text_8">
     <!-- Time (Years) -->
     <g transform="translate(587.582031 584.117566)scale(0.2 -0.2)">
      <defs>
       <path id="DejaVuSerif-54" d="M 1222 0 
L 1222 331 
L 1819 331 
L 1819 4294 
L 447 4294 
L 447 3566 
L 63 3566 
L 63 4666 
L 4206 4666 
L 4206 3566 
L 3822 3566 
L 3822 4294 
L 2450 4294 
L 2450 331 
L 3047 331 
L 3047 0 
L 1222 0 
z
" transform="scale(0.015625)"/>
       <path id="DejaVuSerif-69" d="M 622 4353 
Q 622 4497 726 4603 
Q 831 4709 978 4709 
Q 1122 4709 1226 4603 
Q 1331 4497 1331 4353 
Q 1331 4206 1228 4103 
Q 1125 4000 978 4000 
Q 831 4000 726 4103 
Q 622 4206 622 4353 
z
M 1356 331 
L 1900 331 
L 1900 0 
L 231 0 
L 231 331 
L 781 331 
L 781 2988 
L 231 2988 
L 231 3322 
L 1356 3322 
L 1356 331 
z
" transform="scale(0.015625)"/>
       <path id="DejaVuSerif-6d" d="M 3316 2675 
Q 3481 3041 3739 3227 
Q 3997 3413 4341 3413 
Q 4863 3413 5119 3089 
Q 5375 2766 5375 2113 
L 5375 331 
L 5894 331 
L 5894 0 
L 4300 0 
L 4300 331 
L 4800 331 
L 4800 2047 
Q 4800 2556 4650 2772 
Q 4500 2988 4153 2988 
Q 3769 2988 3567 2697 
Q 3366 2406 3366 1850 
L 3366 331 
L 3866 331 
L 3866 0 
L 2291 0 
L 2291 331 
L 2791 331 
L 2791 2069 
Q 2791 2566 2641 2777 
Q 2491 2988 2144 2988 
Q 1759 2988 1557 2697 
Q 1356 2406 1356 1850 
L 1356 331 
L 1856 331 
L 1856 0 
L 263 0 
L 263 331 
L 781 331 
L 781 2994 
L 231 2994 
L 231 3322 
L 1356 3322 
L 1356 2731 
Q 1516 3063 1762 3238 
Q 2009 3413 2322 3413 
Q 2709 3413 2968 3220 
Q 3228 3028 3316 2675 
z
" transform="scale(0.015625)"/>
       <path id="DejaVuSerif-65" d="M 3469 1600 
L 991 1600 
L 991 1575 
Q 991 903 1244 561 
Q 1497 219 1991 219 
Q 2369 219 2611 417 
Q 2853 616 2950 1006 
L 3413 1006 
Q 3275 459 2904 184 
Q 2534 -91 1931 -91 
Q 1203 -91 761 389 
Q 319 869 319 1663 
Q 319 2450 753 2931 
Q 1188 3413 1894 3413 
Q 2647 3413 3050 2948 
Q 3453 2484 3469 1600 
z
M 2791 1931 
Q 2772 2513 2545 2808 
Q 2319 3103 1894 3103 
Q 1497 3103 1269 2806 
Q 1041 2509 991 1931 
L 2791 1931 
z
" transform="scale(0.015625)"/>
       <path id="DejaVuSerif-20" transform="scale(0.015625)"/>
       <path id="DejaVuSerif-28" d="M 2041 -997 
Q 1281 -656 893 83 
Q 506 822 506 1931 
Q 506 3044 893 3783 
Q 1281 4522 2041 4863 
L 2041 4556 
Q 1559 4225 1350 3623 
Q 1141 3022 1141 1931 
Q 1141 844 1350 242 
Q 1559 -359 2041 -691 
L 2041 -997 
z
" transform="scale(0.015625)"/>
       <path id="DejaVuSerif-59" d="M 1209 0 
L 1209 331 
L 1806 331 
L 1806 2009 
L 366 4331 
L -72 4331 
L -72 4666 
L 1663 4666 
L 1663 4331 
L 1119 4331 
L 2284 2444 
L 3450 4331 
L 2925 4331 
L 2925 4666 
L 4281 4666 
L 4281 4331 
L 3841 4331 
L 2438 2069 
L 2438 331 
L 3034 331 
L 3034 0 
L 1209 0 
z
" transform="scale(0.015625)"/>
       <path id="DejaVuSerif-61" d="M 2547 1044 
L 2547 1747 
L 1806 1747 
Q 1378 1747 1168 1562 
Q 959 1378 959 997 
Q 959 650 1171 447 
Q 1384 244 1747 244 
Q 2106 244 2326 466 
Q 2547 688 2547 1044 
z
M 3122 2075 
L 3122 331 
L 3634 331 
L 3634 0 
L 2547 0 
L 2547 359 
Q 2356 128 2106 18 
Q 1856 -91 1522 -91 
Q 969 -91 644 203 
Q 319 497 319 997 
Q 319 1513 691 1797 
Q 1063 2081 1741 2081 
L 2547 2081 
L 2547 2309 
Q 2547 2688 2317 2895 
Q 2088 3103 1672 3103 
Q 1328 3103 1125 2947 
Q 922 2791 872 2484 
L 575 2484 
L 575 3156 
Q 875 3284 1158 3348 
Q 1441 3413 1709 3413 
Q 2400 3413 2761 3070 
Q 3122 2728 3122 2075 
z
" transform="scale(0.015625)"/>
       <path id="DejaVuSerif-72" d="M 3059 3328 
L 3059 2497 
L 2728 2497 
Q 2713 2744 2591 2866 
Q 2469 2988 2234 2988 
Q 1809 2988 1582 2694 
Q 1356 2400 1356 1850 
L 1356 331 
L 2022 331 
L 2022 0 
L 263 0 
L 263 331 
L 781 331 
L 781 2994 
L 231 2994 
L 231 3322 
L 1356 3322 
L 1356 2731 
Q 1525 3078 1790 3245 
Q 2056 3413 2438 3413 
Q 2578 3413 2733 3391 
Q 2888 3369 3059 3328 
z
" transform="scale(0.015625)"/>
       <path id="DejaVuSerif-73" d="M 359 184 
L 359 959 
L 691 959 
Q 703 588 923 403 
Q 1144 219 1575 219 
Q 1963 219 2166 364 
Q 2369 509 2369 788 
Q 2369 1006 2220 1140 
Q 2072 1275 1594 1428 
L 1178 1569 
Q 750 1706 558 1912 
Q 366 2119 366 2438 
Q 366 2894 700 3153 
Q 1034 3413 1625 3413 
Q 1888 3413 2178 3344 
Q 2469 3275 2778 3144 
L 2778 2419 
L 2447 2419 
Q 2434 2741 2221 2922 
Q 2009 3103 1644 3103 
Q 1281 3103 1095 2975 
Q 909 2847 909 2591 
Q 909 2381 1050 2254 
Q 1191 2128 1613 1997 
L 2069 1856 
Q 2541 1709 2748 1489 
Q 2956 1269 2956 922 
Q 2956 450 2595 179 
Q 2234 -91 1600 -91 
Q 1278 -91 972 -22 
Q 666 47 359 184 
z
" transform="scale(0.015625)"/>
       <path id="DejaVuSerif-29" d="M 453 -997 
L 453 -691 
Q 934 -359 1145 242 
Q 1356 844 1356 1931 
Q 1356 3022 1145 3623 
Q 934 4225 453 4556 
L 453 4863 
Q 1216 4522 1603 3783 
Q 1991 3044 1991 1931 
Q 1991 822 1603 83 
Q 1216 -656 453 -997 
z
" transform="scale(0.015625)"/>
      </defs>
      <use xlink:href="#DejaVuSerif-54"/>
      <use xlink:href="#DejaVuSerif-69" x="66.699219"/>
      <use xlink:href="#DejaVuSerif-6d" x="98.681641"/>
      <use xlink:href="#DejaVuSerif-65" x="193.505859"/>
      <use xlink:href="#DejaVuSerif-20" x="252.685547"/>
      <use xlink:href="#DejaVuSerif-28" x="284.472656"/>
      <use xlink:href="#DejaVuSerif-59" x="323.486328"/>
      <use xlink:href="#DejaVuSerif-65" x="380.751953"/>
      <use xlink:href="#DejaVuSerif-61" x="439.931641"/>
      <use xlink:href="#DejaVuSerif-72" x="499.550781"/>
      <use xlink:href="#DejaVuSerif-73" x="547.353516"/>
      <use xlink:href="#DejaVuSerif-29" x="598.671875"/>
     </g>
    </g>
   </g>
   <g id="matplotlib.axis_2">
    <g id="ytick_1">
     <g id="line2d_8">
      <defs>
       <path id="mb2e082245e" d="M 0 0 
L -3.5 0 
" style="stroke: #000000; stroke-width: 0.8"/>
      </defs>
      <g>
       <use xlink:href="#mb2e082245e" x="93.352344" y="520.924545" style="stroke: #000000; stroke-width: 0.8"/>
      </g>
     </g>
     <g id="text_9">
      <!-- −0.125 -->
      <g transform="translate(30.840625 526.623373)scale(0.15 -0.15)">
       <defs>
        <path id="DejaVuSerif-2212" d="M 678 2259 
L 4684 2259 
L 4684 1753 
L 678 1753 
L 678 2259 
z
" transform="scale(0.015625)"/>
        <path id="DejaVuSerif-2e" d="M 603 325 
Q 603 500 722 622 
Q 841 744 1019 744 
Q 1191 744 1312 622 
Q 1434 500 1434 325 
Q 1434 153 1312 31 
Q 1191 -91 1019 -91 
Q 841 -91 722 29 
Q 603 150 603 325 
z
" transform="scale(0.015625)"/>
        <path id="DejaVuSerif-35" d="M 3219 4666 
L 3219 4153 
L 1081 4153 
L 1081 2816 
Q 1244 2928 1461 2984 
Q 1678 3041 1947 3041 
Q 2703 3041 3140 2622 
Q 3578 2203 3578 1478 
Q 3578 738 3136 323 
Q 2694 -91 1894 -91 
Q 1572 -91 1234 -12 
Q 897 66 544 225 
L 544 1131 
L 897 1131 
Q 925 688 1179 453 
Q 1434 219 1894 219 
Q 2388 219 2653 544 
Q 2919 869 2919 1478 
Q 2919 2084 2655 2407 
Q 2391 2731 1894 2731 
Q 1613 2731 1398 2631 
Q 1184 2531 1019 2322 
L 750 2322 
L 750 4666 
L 3219 4666 
z
" transform="scale(0.015625)"/>
       </defs>
       <use xlink:href="#DejaVuSerif-2212"/>
       <use xlink:href="#DejaVuSerif-30" x="83.789062"/>
       <use xlink:href="#DejaVuSerif-2e" x="147.412109"/>
       <use xlink:href="#DejaVuSerif-31" x="179.199219"/>
       <use xlink:href="#DejaVuSerif-32" x="242.822266"/>
       <use xlink:href="#DejaVuSerif-35" x="306.445312"/>
      </g>
     </g>
    </g>
    <g id="ytick_2">
     <g id="line2d_9">
      <g>
       <use xlink:href="#mb2e082245e" x="93.352344" y="466.459499" style="stroke: #000000; stroke-width: 0.8"/>
      </g>
     </g>
     <g id="text_10">
      <!-- −0.100 -->
      <g transform="translate(30.840625 472.158327)scale(0.15 -0.15)">
       <use xlink:href="#DejaVuSerif-2212"/>
       <use xlink:href="#DejaVuSerif-30" x="83.789062"/>
       <use xlink:href="#DejaVuSerif-2e" x="147.412109"/>
       <use xlink:href="#DejaVuSerif-31" x="179.199219"/>
       <use xlink:href="#DejaVuSerif-30" x="242.822266"/>
       <use xlink:href="#DejaVuSerif-30" x="306.445312"/>
      </g>
     </g>
    </g>
    <g id="ytick_3">
     <g id="line2d_10">
      <g>
       <use xlink:href="#mb2e082245e" x="93.352344" y="411.994452" style="stroke: #000000; stroke-width: 0.8"/>
      </g>
     </g>
     <g id="text_11">
      <!-- −0.075 -->
      <g transform="translate(30.840625 417.69328)scale(0.15 -0.15)">
       <use xlink:href="#DejaVuSerif-2212"/>
       <use xlink:href="#DejaVuSerif-30" x="83.789062"/>
       <use xlink:href="#DejaVuSerif-2e" x="147.412109"/>
       <use xlink:href="#DejaVuSerif-30" x="179.199219"/>
       <use xlink:href="#DejaVuSerif-37" x="242.822266"/>
       <use xlink:href="#DejaVuSerif-35" x="306.445312"/>
      </g>
     </g>
    </g>
    <g id="ytick_4">
     <g id="line2d_11">
      <g>
       <use xlink:href="#mb2e082245e" x="93.352344" y="357.529406" style="stroke: #000000; stroke-width: 0.8"/>
      </g>
     </g>
     <g id="text_12">
      <!-- −0.050 -->
      <g transform="translate(30.840625 363.228234)scale(0.15 -0.15)">
       <use xlink:href="#DejaVuSerif-2212"/>
       <use xlink:href="#DejaVuSerif-30" x="83.789062"/>
       <use xlink:href="#DejaVuSerif-2e" x="147.412109"/>
       <use xlink:href="#DejaVuSerif-30" x="179.199219"/>
       <use xlink:href="#DejaVuSerif-35" x="242.822266"/>
       <use xlink:href="#DejaVuSerif-30" x="306.445312"/>
      </g>
     </g>
    </g>
    <g id="ytick_5">
     <g id="line2d_12">
      <g>
       <use xlink:href="#mb2e082245e" x="93.352344" y="303.064359" style="stroke: #000000; stroke-width: 0.8"/>
      </g>
     </g>
     <g id="text_13">
      <!-- −0.025 -->
      <g transform="translate(30.840625 308.763188)scale(0.15 -0.15)">
       <use xlink:href="#DejaVuSerif-2212"/>
       <use xlink:href="#DejaVuSerif-30" x="83.789062"/>
       <use xlink:href="#DejaVuSerif-2e" x="147.412109"/>
       <use xlink:href="#DejaVuSerif-30" x="179.199219"/>
       <use xlink:href="#DejaVuSerif-32" x="242.822266"/>
       <use xlink:href="#DejaVuSerif-35" x="306.445312"/>
      </g>
     </g>
    </g>
    <g id="ytick_6">
     <g id="line2d_13">
      <g>
       <use xlink:href="#mb2e082245e" x="93.352344" y="248.599313" style="stroke: #000000; stroke-width: 0.8"/>
      </g>
     </g>
     <g id="text_14">
      <!-- 0.000 -->
      <g transform="translate(43.410156 254.298141)scale(0.15 -0.15)">
       <use xlink:href="#DejaVuSerif-30"/>
       <use xlink:href="#DejaVuSerif-2e" x="63.623047"/>
       <use xlink:href="#DejaVuSerif-30" x="95.410156"/>
       <use xlink:href="#DejaVuSerif-30" x="159.033203"/>
       <use xlink:href="#DejaVuSerif-30" x="222.65625"/>
      </g>
     </g>
    </g>
    <g id="ytick_7">
     <g id="line2d_14">
      <g>
       <use xlink:href="#mb2e082245e" x="93.352344" y="194.134267" style="stroke: #000000; stroke-width: 0.8"/>
      </g>
     </g>
     <g id="text_15">
      <!-- 0.025 -->
      <g transform="translate(43.410156 199.833095)scale(0.15 -0.15)">
       <use xlink:href="#DejaVuSerif-30"/>
       <use xlink:href="#DejaVuSerif-2e" x="63.623047"/>
       <use xlink:href="#DejaVuSerif-30" x="95.410156"/>
       <use xlink:href="#DejaVuSerif-32" x="159.033203"/>
       <use xlink:href="#DejaVuSerif-35" x="222.65625"/>
      </g>
     </g>
    </g>
    <g id="ytick_8">
     <g id="line2d_15">
      <g>
       <use xlink:href="#mb2e082245e" x="93.352344" y="139.66922" style="stroke: #000000; stroke-width: 0.8"/>
      </g>
     </g>
     <g id="text_16">
      <!-- 0.050 -->
      <g transform="translate(43.410156 145.368048)scale(0.15 -0.15)">
       <use xlink:href="#DejaVuSerif-30"/>
       <use xlink:href="#DejaVuSerif-2e" x="63.623047"/>
       <use xlink:href="#DejaVuSerif-30" x="95.410156"/>
       <use xlink:href="#DejaVuSerif-35" x="159.033203"/>
       <use xlink:href="#DejaVuSerif-30" x="222.65625"/>
      </g>
     </g>
    </g>
    <g id="ytick_9">
     <g id="line2d_16">
      <g>
       <use xlink:href="#mb2e082245e" x="93.352344" y="85.204174" style="stroke: #000000; stroke-width: 0.8"/>
      </g>
     </g>
     <g id="text_17">
      <!-- 0.075 -->
      <g transform="translate(43.410156 90.903002)scale(0.15 -0.15)">
       <use xlink:href="#DejaVuSerif-30"/>
       <use xlink:href="#DejaVuSerif-2e" x="63.623047"/>
       <use xlink:href="#DejaVuSerif-30" x="95.410156"/>
       <use xlink:href="#DejaVuSerif-37" x="159.033203"/>
       <use xlink:href="#DejaVuSerif-35" x="222.65625"/>
      </g>
     </g>
    </g>
    <g id="text_18">
     <!-- Mean Daily Return -->
     <g transform="translate(22.396875 377.532812)rotate(-90)scale(0.2 -0.2)">
      <defs>
       <path id="DejaVuSerif-4d" d="M 353 0 
L 353 331 
L 947 331 
L 947 4331 
L 319 4331 
L 319 4666 
L 1678 4666 
L 3316 1344 
L 4953 4666 
L 6228 4666 
L 6228 4331 
L 5606 4331 
L 5606 331 
L 6203 331 
L 6203 0 
L 4378 0 
L 4378 331 
L 4972 331 
L 4972 3938 
L 3372 684 
L 2931 684 
L 1331 3938 
L 1331 331 
L 1925 331 
L 1925 0 
L 353 0 
z
" transform="scale(0.015625)"/>
       <path id="DejaVuSerif-6e" d="M 263 0 
L 263 331 
L 781 331 
L 781 2988 
L 231 2988 
L 231 3322 
L 1356 3322 
L 1356 2731 
Q 1516 3069 1770 3241 
Q 2025 3413 2363 3413 
Q 2913 3413 3172 3097 
Q 3431 2781 3431 2113 
L 3431 331 
L 3944 331 
L 3944 0 
L 2356 0 
L 2356 331 
L 2853 331 
L 2853 1931 
Q 2853 2541 2703 2767 
Q 2553 2994 2175 2994 
Q 1775 2994 1565 2701 
Q 1356 2409 1356 1850 
L 1356 331 
L 1856 331 
L 1856 0 
L 263 0 
z
" transform="scale(0.015625)"/>
       <path id="DejaVuSerif-44" d="M 1581 331 
L 2163 331 
Q 3072 331 3558 850 
Q 4044 1369 4044 2338 
Q 4044 3306 3559 3818 
Q 3075 4331 2163 4331 
L 1581 4331 
L 1581 331 
z
M 353 0 
L 353 331 
L 947 331 
L 947 4331 
L 353 4331 
L 353 4666 
L 2209 4666 
Q 3416 4666 4089 4050 
Q 4763 3434 4763 2338 
Q 4763 1238 4088 619 
Q 3413 0 2209 0 
L 353 0 
z
" transform="scale(0.015625)"/>
       <path id="DejaVuSerif-6c" d="M 1313 331 
L 1856 331 
L 1856 0 
L 184 0 
L 184 331 
L 738 331 
L 738 4531 
L 184 4531 
L 184 4863 
L 1313 4863 
L 1313 331 
z
" transform="scale(0.015625)"/>
       <path id="DejaVuSerif-79" d="M 1381 -609 
L 1600 -56 
L 359 2988 
L -19 2988 
L -19 3322 
L 1509 3322 
L 1509 2988 
L 978 2988 
L 1913 703 
L 2847 2988 
L 2350 2988 
L 2350 3322 
L 3597 3322 
L 3597 2988 
L 3225 2988 
L 1703 -750 
Q 1547 -1138 1356 -1280 
Q 1166 -1422 819 -1422 
Q 672 -1422 517 -1397 
Q 363 -1372 206 -1325 
L 206 -691 
L 500 -691 
Q 519 -903 608 -995 
Q 697 -1088 884 -1088 
Q 1056 -1088 1161 -992 
Q 1266 -897 1381 -609 
z
" transform="scale(0.015625)"/>
       <path id="DejaVuSerif-52" d="M 3066 2316 
Q 3284 2256 3442 2114 
Q 3600 1972 3725 1716 
L 4403 331 
L 4972 331 
L 4972 0 
L 3872 0 
L 3144 1484 
Q 2934 1916 2759 2042 
Q 2584 2169 2278 2169 
L 1581 2169 
L 1581 331 
L 2241 331 
L 2241 0 
L 353 0 
L 353 331 
L 947 331 
L 947 4331 
L 353 4331 
L 353 4666 
L 2719 4666 
Q 3400 4666 3770 4341 
Q 4141 4016 4141 3419 
Q 4141 2938 3870 2661 
Q 3600 2384 3066 2316 
z
M 1581 2503 
L 2503 2503 
Q 2975 2503 3200 2726 
Q 3425 2950 3425 3419 
Q 3425 3888 3200 4109 
Q 2975 4331 2503 4331 
L 1581 4331 
L 1581 2503 
z
" transform="scale(0.015625)"/>
       <path id="DejaVuSerif-74" d="M 691 2988 
L 184 2988 
L 184 3322 
L 691 3322 
L 691 4353 
L 1269 4353 
L 1269 3322 
L 2350 3322 
L 2350 2988 
L 1269 2988 
L 1269 878 
Q 1269 456 1350 337 
Q 1431 219 1650 219 
Q 1875 219 1978 351 
Q 2081 484 2088 781 
L 2522 781 
Q 2497 328 2275 118 
Q 2053 -91 1600 -91 
Q 1103 -91 897 129 
Q 691 350 691 878 
L 691 2988 
z
" transform="scale(0.015625)"/>
       <path id="DejaVuSerif-75" d="M 2266 3322 
L 3341 3322 
L 3341 331 
L 3884 331 
L 3884 0 
L 2766 0 
L 2766 588 
Q 2606 256 2353 82 
Q 2100 -91 1766 -91 
Q 1213 -91 952 223 
Q 691 538 691 1209 
L 691 2988 
L 172 2988 
L 172 3322 
L 1269 3322 
L 1269 1388 
Q 1269 781 1417 556 
Q 1566 331 1947 331 
Q 2347 331 2556 625 
Q 2766 919 2766 1478 
L 2766 2988 
L 2266 2988 
L 2266 3322 
z
" transform="scale(0.015625)"/>
      </defs>
      <use xlink:href="#DejaVuSerif-4d"/>
      <use xlink:href="#DejaVuSerif-65" x="102.392578"/>
      <use xlink:href="#DejaVuSerif-61" x="161.572266"/>
      <use xlink:href="#DejaVuSerif-6e" x="221.191406"/>
      <use xlink:href="#DejaVuSerif-20" x="285.595703"/>
      <use xlink:href="#DejaVuSerif-44" x="317.382812"/>
      <use xlink:href="#DejaVuSerif-61" x="397.558594"/>
      <use xlink:href="#DejaVuSerif-69" x="457.177734"/>
      <use xlink:href="#DejaVuSerif-6c" x="489.160156"/>
      <use xlink:href="#DejaVuSerif-79" x="521.142578"/>
      <use xlink:href="#DejaVuSerif-20" x="577.636719"/>
      <use xlink:href="#DejaVuSerif-52" x="609.423828"/>
      <use xlink:href="#DejaVuSerif-65" x="684.716797"/>
      <use xlink:href="#DejaVuSerif-74" x="743.896484"/>
      <use xlink:href="#DejaVuSerif-75" x="784.082031"/>
      <use xlink:href="#DejaVuSerif-72" x="848.486328"/>
      <use xlink:href="#DejaVuSerif-6e" x="896.289062"/>
     </g>
    </g>
   </g>
   <g id="line2d_17">
    <path d="M 144.079616 244.225387 
L 144.543939 291.873159 
L 145.008262 243.165601 
L 146.865554 254.426285 
L 147.329877 209.835366 
L 147.794199 240.673559 
L 148.258522 242.860156 
L 148.722845 233.670967 
L 150.115814 251.77343 
L 150.580137 264.704085 
L 151.044459 219.125633 
L 151.508782 268.984591 
L 151.973105 246.454128 
L 153.366074 251.240426 
L 153.830397 234.305922 
L 154.294719 208.724288 
L 154.759042 242.73186 
L 155.223365 247.541042 
L 156.616334 235.561574 
L 157.080657 250.046439 
L 157.544979 242.585052 
L 158.009302 244.42556 
L 158.473625 231.689315 
L 159.866594 258.404325 
L 160.330917 240.14873 
L 160.79524 249.781017 
L 161.259562 262.741338 
L 161.723885 264.702967 
L 163.116854 241.420431 
L 163.581177 274.369697 
L 164.509822 261.602863 
L 164.974145 252.131859 
L 166.831437 237.119704 
L 167.29576 270.934597 
L 167.760082 276.075785 
L 168.224405 251.907437 
L 169.617374 227.169876 
L 170.081697 275.270518 
L 170.54602 234.992909 
L 171.010343 262.520022 
L 171.474665 219.043072 
L 172.867634 238.987836 
L 173.331957 211.357362 
L 173.79628 232.779182 
L 174.260603 249.05706 
L 174.724925 233.259209 
L 176.582217 235.630031 
L 177.04654 231.910375 
L 177.510863 235.51864 
L 177.975185 261.214871 
L 179.368154 226.778525 
L 179.832477 247.374419 
L 180.2968 236.833985 
L 180.761123 267.289856 
L 181.225445 276.49887 
L 182.618414 272.668752 
L 183.082737 259.334053 
L 183.54706 242.065227 
L 184.475706 258.405298 
L 185.868674 227.529506 
L 186.332997 257.730188 
L 186.79732 255.520528 
L 187.261643 211.62503 
L 187.725966 315.348221 
L 189.118934 312.504559 
L 189.583257 204.275686 
L 190.04758 211.931545 
L 190.511903 228.245515 
L 190.976226 229.920727 
L 192.833517 274.581507 
L 193.29784 232.448674 
L 193.762163 240.595025 
L 194.226486 209.297732 
L 195.619454 232.912815 
L 196.083777 224.460383 
L 196.5481 259.020703 
L 197.012423 245.191647 
L 197.476746 236.563015 
L 198.869714 245.749753 
L 199.334037 262.257359 
L 199.79836 226.03804 
L 200.262683 253.836 
L 200.727006 233.520336 
L 202.119974 253.807569 
L 202.584297 240.218744 
L 203.04862 237.496936 
L 203.512943 249.693134 
L 203.977266 248.83948 
L 205.370234 246.613489 
L 205.834557 270.96561 
L 206.29888 227.487654 
L 206.763203 248.532654 
L 207.227526 221.198959 
L 208.620494 248.075096 
L 209.084817 245.622595 
L 209.54914 267.831908 
L 210.013463 236.238806 
L 210.477786 243.636922 
L 211.870754 230.308948 
L 212.335077 261.829395 
L 213.263723 237.955667 
L 213.728046 247.442632 
L 215.585337 236.203509 
L 216.04966 265.207373 
L 216.513983 247.219783 
L 216.978306 248.914712 
L 218.371274 236.949119 
L 218.835597 243.161537 
L 219.29992 258.394467 
L 219.764243 244.851796 
L 220.228566 235.253263 
L 222.085857 238.613779 
L 222.55018 238.259666 
L 223.014503 240.777097 
L 223.478826 297.789658 
L 224.871795 223.664867 
L 225.336117 279.849371 
L 225.80044 246.398699 
L 226.264763 226.599206 
L 226.729086 244.521046 
L 228.122055 240.737896 
L 228.586377 245.823082 
L 229.0507 229.379913 
L 229.515023 226.846482 
L 229.979346 252.903261 
L 231.372315 270.497741 
L 231.836637 234.361716 
L 232.30096 240.586673 
L 232.765283 273.649533 
L 233.229606 224.018425 
L 235.086898 258.155106 
L 235.55122 230.410828 
L 236.015543 259.799924 
L 236.479866 257.563121 
L 237.872835 231.116196 
L 238.337158 283.309644 
L 238.80148 256.442592 
L 239.265803 267.652212 
L 239.730126 255.987291 
L 241.123095 255.79974 
L 241.587418 239.009813 
L 242.980386 250.184236 
L 244.373355 243.056451 
L 244.837678 267.592112 
L 245.302001 262.972165 
L 245.766323 268.471813 
L 246.230646 258.740124 
L 247.623615 253.992774 
L 248.552261 275.764501 
L 249.016583 274.829693 
L 249.480906 239.833317 
L 250.873875 206.571561 
L 251.338198 244.029229 
L 251.802521 184.236532 
L 252.266843 216.36215 
L 252.731166 198.23522 
L 254.588458 239.404041 
L 255.052781 240.063135 
L 255.517103 236.26108 
L 255.981426 238.793793 
L 257.374395 241.576521 
L 258.303041 236.876062 
L 259.231686 235.77942 
L 260.624655 269.960443 
L 261.088978 253.235153 
L 261.553301 267.066853 
L 262.017624 268.924863 
L 262.481946 244.074647 
L 263.874915 217.709913 
L 264.803561 238.032304 
L 265.267884 222.806491 
L 265.732206 238.627604 
L 267.125175 271.823638 
L 267.589498 250.071686 
L 268.053821 268.695592 
L 268.518144 235.089578 
L 268.982466 247.153005 
L 270.375435 241.924177 
L 270.839758 232.832557 
L 271.304081 259.549585 
L 271.768404 262.166315 
L 272.232727 226.584356 
L 274.090018 244.030291 
L 274.554341 270.161 
L 275.018664 250.699822 
L 275.482987 252.26157 
L 277.340278 230.054992 
L 277.804601 214.134225 
L 278.268924 257.986602 
L 278.733247 249.230691 
L 280.126215 241.088889 
L 280.590538 201.468219 
L 281.054861 70.727309 
L 281.519184 263.893639 
L 281.983507 229.686315 
L 283.840798 274.522334 
L 284.305121 243.255681 
L 284.769444 264.979152 
L 285.233767 241.742595 
L 286.626735 258.869362 
L 287.091058 225.181723 
L 287.555381 227.937806 
L 288.019704 253.840172 
L 288.484027 248.82512 
L 289.876995 275.54236 
L 290.341318 234.423582 
L 290.805641 247.388768 
L 291.269964 246.462562 
L 291.734287 223.984888 
L 293.127255 253.92871 
L 293.591578 252.214712 
L 294.055901 254.633652 
L 294.520224 223.240479 
L 294.984547 234.716096 
L 296.377515 239.760774 
L 296.841838 238.396854 
L 297.306161 234.398601 
L 297.770484 254.931965 
L 298.234807 237.766098 
L 300.092098 242.558126 
L 300.556421 260.920226 
L 301.020744 260.315004 
L 301.485067 248.169247 
L 302.878035 221.934453 
L 303.342358 278.678662 
L 303.806681 216.667106 
L 304.271004 263.81662 
L 304.735327 250.744003 
L 306.128295 264.122356 
L 306.592618 258.73161 
L 307.056941 250.437548 
L 307.521264 248.991261 
L 307.985587 241.162306 
L 309.378556 231.750596 
L 309.842878 264.186444 
L 310.307201 225.577173 
L 310.771524 238.186894 
L 311.235847 238.922942 
L 312.628816 255.627121 
L 313.093138 302.25985 
L 313.557461 254.134041 
L 314.021784 235.712409 
L 314.486107 240.349761 
L 315.879076 234.809684 
L 316.343398 236.909547 
L 316.807721 233.130563 
L 317.272044 235.629987 
L 317.736367 244.012779 
L 319.129336 271.385151 
L 319.593658 262.322625 
L 320.057981 273.111788 
L 320.522304 228.306673 
L 320.986627 245.076441 
L 322.379596 250.273379 
L 322.843919 242.211402 
L 323.308241 266.00632 
L 323.772564 261.920798 
L 325.629856 232.012715 
L 326.094179 254.986818 
L 326.558501 238.146176 
L 327.022824 227.884279 
L 327.487147 254.028295 
L 328.880116 227.30491 
L 329.808761 235.16834 
L 330.273084 250.544257 
L 330.737407 260.361439 
L 332.130376 243.058392 
L 332.594699 257.849948 
L 333.059022 261.248929 
L 333.523344 253.561935 
L 333.987667 241.300539 
L 335.380636 254.791796 
L 335.844959 241.569989 
L 336.309282 239.991841 
L 336.773604 257.673042 
L 337.237927 254.254926 
L 338.630896 233.795433 
L 339.095219 250.549842 
L 339.559542 300.638243 
L 340.023864 236.999622 
L 340.488187 237.23063 
L 341.881156 238.118107 
L 342.345479 246.632893 
L 342.809802 248.019371 
L 343.274124 246.358096 
L 343.738447 249.916696 
L 345.595739 262.968808 
L 346.060062 249.589352 
L 346.524385 217.767722 
L 348.381676 263.640765 
L 348.845999 256.398269 
L 349.310322 246.682883 
L 349.774645 225.23782 
L 350.238967 246.521509 
L 351.631936 254.463579 
L 352.096259 236.607795 
L 352.560582 256.139459 
L 353.024905 258.428031 
L 353.489227 253.948948 
L 354.882196 227.988467 
L 355.346519 260.090434 
L 355.810842 241.160134 
L 356.739487 228.843655 
L 358.132456 238.945855 
L 358.596779 268.3423 
L 359.061102 218.672511 
L 359.525425 257.578609 
L 361.382716 234.598443 
L 362.311362 253.005709 
L 362.775685 268.897073 
L 363.240008 229.963442 
L 364.632976 259.367803 
L 365.097299 247.652587 
L 365.561622 231.299344 
L 366.025945 246.748135 
L 366.490268 245.228588 
L 367.883236 246.24025 
L 368.347559 252.997159 
L 368.811882 236.035182 
L 369.276205 246.178188 
L 369.740528 253.565533 
L 371.133496 243.218457 
L 371.597819 243.336567 
L 372.062142 250.346863 
L 372.526465 268.231138 
L 372.990788 252.709197 
L 374.383756 254.390506 
L 374.848079 251.528858 
L 375.312402 270.714936 
L 375.776725 258.409669 
L 376.241048 239.816677 
L 377.634016 247.226302 
L 378.098339 256.530408 
L 379.026985 284.699926 
L 379.491308 243.46757 
L 380.884276 213.051914 
L 381.348599 264.188242 
L 381.812922 246.608415 
L 382.277245 277.727275 
L 382.741568 245.611346 
L 384.134536 253.374662 
L 384.598859 230.442091 
L 385.063182 250.028143 
L 385.527505 233.035996 
L 385.991828 241.620029 
L 387.384796 243.030095 
L 387.849119 240.153037 
L 388.313442 235.076247 
L 388.777765 232.870135 
L 389.242088 233.616136 
L 391.099379 259.301954 
L 391.563702 242.357297 
L 392.028025 242.685746 
L 392.492348 245.102742 
L 393.885316 226.823148 
L 394.349639 235.548907 
L 394.813962 237.891754 
L 395.278285 249.399339 
L 395.742608 240.887534 
L 397.135577 235.325965 
L 397.599899 250.006167 
L 398.064222 239.244423 
L 398.528545 250.237337 
L 398.992868 235.345336 
L 400.385837 253.140599 
L 400.850159 240.904 
L 401.314482 213.818477 
L 401.778805 241.274376 
L 402.243128 239.915893 
L 403.636097 216.792049 
L 404.100419 239.181872 
L 404.564742 245.819215 
L 405.029065 237.229672 
L 405.493388 247.283564 
L 406.886357 256.208954 
L 407.35068 239.840268 
L 407.815002 245.910356 
L 408.279325 256.477644 
L 408.743648 255.994429 
L 410.136617 256.906164 
L 410.60094 256.118337 
L 411.065262 244.792301 
L 411.529585 253.984072 
L 411.993908 239.617878 
L 413.386877 264.521943 
L 413.8512 250.238992 
L 414.315522 261.859899 
L 414.779845 250.598608 
L 415.244168 235.944051 
L 416.637137 265.581657 
L 417.10146 233.687066 
L 417.565782 264.374636 
L 418.030105 242.052733 
L 418.494428 243.94523 
L 419.887397 245.34758 
L 420.35172 280.315953 
L 420.816043 247.30297 
L 421.280365 250.5846 
L 421.744688 238.971729 
L 423.137657 250.511625 
L 423.60198 255.79284 
L 424.066303 252.069018 
L 424.530625 210.559628 
L 424.994948 235.099517 
L 426.387917 235.144462 
L 426.85224 232.492425 
L 427.316563 240.021976 
L 428.245208 237.720923 
L 429.638177 257.05108 
L 430.1025 230.92819 
L 430.566823 249.324958 
L 431.031145 243.542574 
L 431.495468 253.57152 
L 432.888437 263.211897 
L 433.35276 260.78602 
L 433.817083 262.100721 
L 434.281406 230.994578 
L 434.745728 243.104203 
L 436.60302 252.263114 
L 437.067343 233.864303 
L 437.531666 264.436404 
L 437.995988 225.43861 
L 439.388957 226.326699 
L 439.85328 257.354644 
L 440.317603 236.983519 
L 440.781926 237.083911 
L 441.246248 249.980016 
L 443.10354 245.828922 
L 443.567863 242.987239 
L 444.032186 241.094584 
L 444.496509 260.912824 
L 446.3538 218.537686 
L 446.818123 235.752276 
L 447.282446 230.315708 
L 447.746769 240.605694 
L 449.139737 252.151603 
L 449.60406 252.290683 
L 450.068383 240.114553 
L 450.532706 217.228573 
L 450.997029 241.815481 
L 452.85432 273.790082 
L 453.318643 234.664048 
L 453.782966 255.91971 
L 454.247289 225.437937 
L 456.10458 240.964304 
L 456.568903 263.6676 
L 457.033226 244.507744 
L 457.497549 239.179942 
L 458.890517 260.181616 
L 459.35484 270.753362 
L 460.283486 248.05441 
L 460.747809 287.873912 
L 462.140777 313.984413 
L 462.6051 227.881146 
L 463.069423 242.269329 
L 463.533746 301.92184 
L 463.998069 239.732401 
L 465.391037 230.450596 
L 465.85536 234.863807 
L 466.319683 216.338716 
L 467.248329 244.684649 
L 469.10562 266.296469 
L 469.569943 241.00805 
L 470.034266 257.581909 
L 470.498589 224.555216 
L 471.891557 232.735754 
L 472.35588 272.270648 
L 472.820203 270.613043 
L 473.284526 253.279718 
L 473.748849 213.015745 
L 475.141817 225.373391 
L 475.60614 235.180426 
L 476.070463 231.997396 
L 476.534786 241.169079 
L 476.999109 220.706652 
L 478.392077 235.926316 
L 478.8564 259.042511 
L 479.320723 253.457933 
L 479.785046 258.470123 
L 480.249369 230.688727 
L 481.642338 268.411447 
L 482.570983 236.784631 
L 483.035306 281.724978 
L 483.499629 285.190288 
L 484.892598 222.903484 
L 485.35692 289.451817 
L 486.285566 230.758977 
L 488.142858 290.115976 
L 488.60718 235.707881 
L 489.071503 217.51392 
L 489.535826 239.910512 
L 490.000149 281.167105 
L 491.393118 248.6372 
L 491.85744 210.666613 
L 492.321763 241.618019 
L 492.786086 230.239389 
L 493.250409 256.799815 
L 494.643378 240.450939 
L 495.107701 226.652677 
L 496.036346 261.300887 
L 496.500669 257.598848 
L 497.893638 258.053111 
L 498.357961 260.016204 
L 498.822283 251.83796 
L 499.286606 235.897809 
L 499.750929 245.980816 
L 501.143898 261.311284 
L 501.608221 237.119492 
L 502.072543 226.890571 
L 502.536866 262.922195 
L 503.001189 225.550291 
L 504.394158 232.712571 
L 504.858481 241.438099 
L 505.322803 236.255405 
L 505.787126 244.019493 
L 506.251449 241.672693 
L 507.644418 246.963716 
L 508.108741 245.171908 
L 508.573064 236.434218 
L 509.037386 234.217758 
L 509.501709 247.106714 
L 510.894678 242.482904 
L 511.359001 255.950696 
L 511.823324 242.947466 
L 512.287646 247.389997 
L 512.751969 244.364261 
L 514.609261 253.599813 
L 515.073584 229.282792 
L 515.537906 250.440224 
L 516.002229 229.29198 
L 517.395198 248.556968 
L 517.859521 229.352626 
L 518.323844 237.450758 
L 518.788167 256.225776 
L 519.252489 246.695811 
L 520.645458 241.325764 
L 521.109781 242.126684 
L 521.574104 250.690281 
L 522.038427 241.179303 
L 522.502749 243.549212 
L 523.895718 244.231386 
L 524.360041 248.042988 
L 524.824364 231.92524 
L 525.288687 270.701497 
L 525.753009 243.1101 
L 527.145978 277.881195 
L 527.610301 237.276086 
L 528.074624 292.839586 
L 528.538947 245.880835 
L 529.003269 243.985188 
L 530.396238 231.024911 
L 530.860561 242.304192 
L 531.789207 229.647416 
L 532.25353 233.213391 
L 533.646498 232.89974 
L 534.110821 260.780044 
L 534.575144 258.768481 
L 535.039467 235.942373 
L 535.50379 252.967358 
L 536.896758 262.330463 
L 537.361081 240.072775 
L 537.825404 245.397796 
L 538.289727 244.059108 
L 538.75405 249.057437 
L 540.147018 247.355912 
L 540.611341 272.752725 
L 541.075664 244.908392 
L 541.539987 244.437969 
L 542.00431 288.090856 
L 543.397278 267.070381 
L 543.861601 232.720357 
L 544.325924 245.274477 
L 544.790247 236.654151 
L 545.25457 261.158084 
L 546.647538 237.457451 
L 547.111861 244.049067 
L 547.576184 247.133788 
L 548.040507 240.151451 
L 548.50483 252.770361 
L 549.897798 261.139863 
L 550.362121 238.171557 
L 550.826444 277.169059 
L 551.290767 229.837794 
L 551.75509 244.443132 
L 553.148058 241.967131 
L 553.612381 229.648491 
L 554.076704 233.824472 
L 554.541027 251.947547 
L 555.00535 237.288874 
L 556.398318 244.823442 
L 556.862641 242.418152 
L 557.326964 236.014848 
L 557.791287 246.174065 
L 558.25561 233.413461 
L 560.112901 245.590723 
L 560.577224 261.158578 
L 561.041547 265.731259 
L 561.50587 250.231974 
L 562.898838 247.428215 
L 563.363161 249.982257 
L 563.827484 255.379393 
L 564.291807 249.959287 
L 564.75613 250.013387 
L 566.149098 266.219697 
L 566.613421 234.909818 
L 567.077744 249.38705 
L 567.542067 219.679112 
L 568.00639 253.331753 
L 569.399359 249.785918 
L 569.863681 246.328837 
L 570.328004 261.430181 
L 570.792327 248.068472 
L 571.25665 246.256953 
L 572.649619 268.195439 
L 573.113941 265.401428 
L 573.578264 225.449965 
L 574.042587 277.885053 
L 574.50691 267.010255 
L 575.899879 262.576528 
L 576.364201 258.805945 
L 576.828524 306.405059 
L 577.292847 274.783152 
L 577.75717 234.426855 
L 579.150139 246.601109 
L 579.614461 199.853355 
L 580.078784 248.550108 
L 580.543107 274.468099 
L 581.00743 277.205586 
L 582.400399 262.853806 
L 582.864722 261.612853 
L 583.329044 320.358481 
L 583.793367 213.406197 
L 584.25769 267.25945 
L 585.650659 263.295484 
L 586.114982 221.832316 
L 586.579304 230.557595 
L 587.043627 196.04273 
L 587.50795 241.02145 
L 588.900919 255.295048 
L 589.829564 223.21492 
L 590.293887 247.674215 
L 590.75821 286.569754 
L 592.151179 295.309487 
L 592.615502 253.957891 
L 593.079825 274.540899 
L 593.544147 221.020716 
L 594.00847 247.209323 
L 595.401439 287.381723 
L 595.865762 279.915496 
L 596.330085 219.159678 
L 597.25873 241.306982 
L 598.651699 238.899778 
L 599.116022 266.269184 
L 599.580345 205.820699 
L 600.044667 248.010381 
L 600.50899 241.849831 
L 601.901959 229.23835 
L 602.366282 319.157271 
L 603.294927 261.165799 
L 603.75925 282.346062 
L 605.152219 256.095897 
L 605.616542 257.851618 
L 606.080865 231.227096 
L 606.545188 282.564115 
L 607.00951 282.724783 
L 608.402479 301.491637 
L 608.866802 266.912656 
L 609.331125 286.993151 
L 609.795448 297.852261 
L 610.25977 304.181082 
L 611.652739 275.323167 
L 612.581385 174.854269 
L 613.045708 250.075122 
L 613.51003 213.346325 
L 614.902999 229.858408 
L 615.831645 190.686144 
L 616.295968 273.540174 
L 616.76029 167.153157 
L 618.153259 201.18805 
L 618.617582 227.580249 
L 619.081905 222.339867 
L 619.546228 245.517333 
L 620.010551 241.473408 
L 621.403519 267.558205 
L 621.867842 228.313273 
L 622.796488 238.985297 
L 623.260811 230.969084 
L 625.118102 284.341104 
L 625.582425 252.888217 
L 626.511071 220.939714 
L 627.904039 261.901115 
L 628.368362 252.833016 
L 628.832685 225.592128 
L 629.297008 229.624241 
L 629.761331 235.897147 
L 631.154299 226.564197 
L 631.618622 245.740275 
L 632.082945 243.927626 
L 632.547268 269.761227 
L 633.011591 247.625156 
L 634.404559 236.79241 
L 634.868882 222.709368 
L 635.333205 238.321256 
L 635.797528 246.610171 
L 636.261851 222.24131 
L 638.119142 236.45744 
L 638.583465 250.578874 
L 639.047788 246.07741 
L 639.512111 230.281733 
L 640.905079 239.36156 
L 641.369402 259.416928 
L 641.833725 242.003706 
L 642.298048 256.865768 
L 642.762371 226.249347 
L 644.155339 257.030102 
L 644.619662 256.102745 
L 645.083985 286.477273 
L 645.548308 255.93651 
L 646.012631 250.98055 
L 647.405599 214.045834 
L 647.869922 242.89277 
L 648.334245 237.149471 
L 648.798568 245.557937 
L 649.262891 240.347403 
L 650.655859 231.792804 
L 651.120182 251.7122 
L 651.584505 259.899888 
L 652.048828 237.445049 
L 652.513151 310.300324 
L 654.370442 233.817809 
L 654.834765 257.248017 
L 655.299088 237.800415 
L 655.763411 241.074534 
L 657.15638 226.327256 
L 657.620702 243.352268 
L 658.085025 240.016976 
L 658.549348 245.834383 
L 659.013671 230.112497 
L 660.40664 248.483337 
L 660.870962 269.538237 
L 661.335285 232.530264 
L 661.799608 251.75561 
L 662.263931 249.483308 
L 663.6569 261.733391 
L 664.121222 245.213611 
L 664.585545 270.30033 
L 665.049868 246.200757 
L 666.90716 250.591001 
L 667.371483 218.899036 
L 667.835805 251.303198 
L 668.300128 256.589916 
L 668.764451 230.805006 
L 670.15742 238.961611 
L 670.621743 260.025429 
L 671.086065 266.739156 
L 671.550388 246.565801 
L 672.014711 210.906133 
L 673.40768 246.440408 
L 673.872003 278.2513 
L 674.336325 247.891634 
L 674.800648 259.48036 
L 675.264971 246.007339 
L 676.65794 305.923459 
L 677.122263 224.501758 
L 677.586585 240.637308 
L 678.050908 245.975197 
L 678.515231 270.958295 
L 679.9082 259.516645 
L 680.372523 230.247 
L 680.836846 265.235244 
L 681.301168 288.772556 
L 681.765491 229.977818 
L 683.622783 262.633182 
L 684.087106 267.36861 
L 684.551428 250.206511 
L 685.015751 276.486967 
L 686.40872 251.938723 
L 686.873043 207.155933 
L 687.337366 262.329581 
L 687.801688 264.833929 
L 688.266011 231.655162 
L 689.65898 234.185266 
L 690.123303 252.122171 
L 690.587626 246.55453 
L 691.051948 226.102217 
L 691.516271 262.544202 
L 692.90924 238.451754 
L 693.373563 224.459516 
L 693.837886 239.075435 
L 694.302209 239.438196 
L 694.766531 258.193681 
L 696.1595 271.63338 
L 696.623823 261.609229 
L 697.088146 247.447816 
L 697.552469 214.931732 
L 698.016791 216.616466 
L 699.40976 242.644992 
L 699.874083 259.397434 
L 700.338406 237.443644 
L 701.267051 239.455923 
L 702.66002 267.046401 
L 703.124343 244.273644 
L 703.588666 242.988988 
L 704.052989 253.799522 
L 704.517312 241.121706 
L 705.91028 253.548792 
L 706.374603 250.42291 
L 706.838926 259.400884 
L 707.303249 251.331756 
L 707.767572 258.068936 
L 709.16054 254.170568 
L 709.624863 245.26677 
L 710.089186 224.981403 
L 710.553509 272.372433 
L 711.017832 226.561449 
L 712.4108 231.980857 
L 712.875123 228.180634 
L 713.339446 268.623533 
L 713.803769 270.872233 
L 714.268092 269.861652 
L 715.66106 310.859275 
L 716.125383 232.981275 
L 716.589706 249.311953 
L 717.054029 217.115826 
L 717.518352 264.836827 
L 718.91132 264.676506 
L 719.375643 230.299193 
L 719.839966 302.425566 
L 720.304289 262.250874 
L 720.768612 207.244937 
L 722.16158 224.299179 
L 722.625903 255.902885 
L 723.090226 229.666365 
L 723.554549 257.478753 
L 724.018872 302.85348 
L 725.41184 226.143586 
L 725.876163 278.815342 
L 726.340486 227.282477 
L 726.804809 221.888924 
L 727.269132 248.359074 
L 729.126423 274.935121 
L 729.590746 235.814325 
L 730.055069 213.934033 
L 730.519392 247.337045 
L 731.91236 230.445505 
L 732.376683 216.658125 
L 732.841006 206.311057 
L 733.305329 249.022543 
L 733.769652 241.072072 
L 735.16262 237.883806 
L 735.626943 257.057341 
L 736.091266 259.082324 
L 736.555589 255.502534 
L 737.019912 244.289883 
L 738.41288 255.22373 
L 738.877203 286.468349 
L 739.341526 241.130533 
L 739.805849 275.74325 
L 740.270172 269.63843 
L 741.663141 247.584033 
L 742.127463 287.67431 
L 742.591786 274.893758 
L 743.056109 235.428493 
L 743.520432 233.995014 
L 744.913401 253.605875 
L 745.377723 281.175119 
L 745.842046 246.857741 
L 746.306369 245.524727 
L 746.770692 220.550491 
L 748.163661 252.458488 
L 748.627983 222.946371 
L 749.092306 238.762029 
L 749.556629 232.813891 
L 750.020952 259.17522 
L 751.413921 228.501579 
L 751.878243 250.999892 
L 752.342566 246.830573 
L 752.806889 253.776867 
L 753.271212 234.315951 
L 754.664181 233.857007 
L 755.128504 250.294059 
L 755.592826 249.912791 
L 756.057149 256.318102 
L 756.521472 210.792927 
L 757.914441 231.379207 
L 758.378764 241.866254 
L 758.843086 265.239424 
L 759.307409 249.81697 
L 759.771732 240.758344 
L 761.164701 255.583394 
L 761.629024 248.198509 
L 762.093346 258.339799 
L 762.557669 255.241731 
L 763.021992 242.254922 
L 764.414961 253.983461 
L 764.879284 235.169335 
L 765.343606 252.911365 
L 765.807929 252.109621 
L 766.272252 237.765036 
L 767.665221 211.097876 
L 768.129544 245.563312 
L 768.593867 233.147082 
L 769.522512 240.465814 
L 770.915481 263.303277 
L 771.379804 248.506389 
L 771.844127 239.995347 
L 772.308449 252.995817 
L 772.772772 228.824168 
L 774.165741 247.81879 
L 774.630064 238.679134 
L 775.094387 246.643187 
L 775.558709 229.911196 
L 776.023032 249.506418 
L 777.416001 237.733381 
L 777.880324 244.455961 
L 778.344647 245.621254 
L 778.80897 233.706779 
L 779.273292 240.091462 
L 780.666261 233.042622 
L 781.130584 234.789519 
L 782.05923 243.25378 
L 782.523552 256.394762 
L 783.916521 253.741581 
L 784.380844 234.39817 
L 785.30949 232.801788 
L 785.773812 255.881181 
L 787.166781 229.700027 
L 787.631104 241.524868 
L 788.095427 240.980544 
L 788.55975 236.437826 
L 789.024072 249.01686 
L 790.417041 237.540863 
L 790.881364 238.176746 
L 791.345687 235.747003 
L 791.81001 215.524574 
L 792.274333 252.564308 
L 794.131624 250.259233 
L 794.595947 252.127089 
L 795.06027 248.973661 
L 795.524593 276.468266 
L 796.917561 272.753702 
L 797.381884 230.508441 
L 797.846207 260.685485 
L 798.31053 257.981547 
L 798.774853 281.794355 
L 800.632144 223.000639 
L 801.096467 219.344242 
L 801.56079 253.444437 
L 802.025113 270.194201 
L 803.418081 237.49083 
L 803.882404 236.392429 
L 804.346727 235.607558 
L 804.81105 249.735317 
L 805.275373 249.583725 
L 807.132664 245.180584 
L 807.596987 232.428635 
L 808.06131 234.761169 
L 808.525633 263.730863 
L 809.918601 305.089332 
L 810.382924 314.923613 
L 810.847247 268.894091 
L 811.31157 311.19425 
L 811.775893 256.828568 
L 813.168861 203.600944 
L 813.633184 283.715267 
L 814.097507 194.583566 
L 814.56183 309.815085 
L 815.026153 296.226425 
L 816.419121 438.861192 
L 816.883444 215.175064 
L 817.81209 476.377324 
L 818.276413 135.736591 
L 819.669381 504.006392 
L 820.133704 131.939371 
L 820.598027 452.342757 
L 821.06235 77.482689 
L 821.526673 283.806793 
L 822.919641 265.189814 
L 823.383964 58.915483 
L 823.848287 191.932951 
L 824.31261 132.383627 
L 824.776933 321.607268 
L 826.169901 217.000204 
L 826.634224 240.504996 
L 827.098547 373.675197 
L 827.56287 236.440699 
L 828.027193 296.548539 
L 829.420162 107.921374 
L 829.884484 238.723993 
L 830.348807 157.861315 
L 830.81313 165.746192 
L 832.670422 252.002477 
L 833.134744 197.919052 
L 833.599067 310.157755 
L 834.06339 256.755085 
L 834.527713 168.818353 
L 835.920682 262.601169 
L 836.385004 283.760535 
L 836.849327 214.146789 
L 837.31365 224.756351 
L 837.777973 216.05886 
L 839.170942 165.954277 
L 839.635264 225.562134 
L 840.099587 148.722993 
L 840.56391 302.54155 
L 841.028233 316.682702 
L 842.421202 226.349778 
L 842.885525 236.885941 
L 843.349847 256.011454 
L 843.81417 210.568791 
L 844.278493 178.358161 
L 845.671462 244.007727 
L 846.135785 293.822599 
L 846.600107 311.619242 
L 847.06443 248.151562 
L 847.528753 219.754226 
L 848.921722 145.89056 
L 849.386045 269.145216 
L 849.850367 179.788828 
L 850.31469 252.143735 
L 850.779013 228.344148 
L 852.636305 196.527354 
L 853.100628 196.481292 
L 853.56495 280.349517 
L 854.029273 247.254822 
L 855.422242 228.236669 
L 855.886565 227.968366 
L 856.350888 200.466154 
L 856.81521 227.828921 
L 857.279533 180.96563 
L 858.672502 176.384223 
L 859.136825 261.717672 
L 859.601148 288.458318 
L 860.06547 405.76962 
L 860.529793 195.124875 
L 861.922762 195.641495 
L 862.387085 196.033029 
L 862.851408 265.833033 
L 863.31573 240.097645 
L 863.780053 241.931008 
L 865.173022 233.098215 
L 865.637345 242.235308 
L 866.101668 303.970508 
L 866.565991 213.839495 
L 867.030313 302.883374 
L 868.423282 210.719754 
L 868.887605 217.895859 
L 869.351928 259.839361 
L 869.816251 242.523837 
L 871.673542 224.216131 
L 872.137865 283.779843 
L 872.602188 233.196805 
L 873.066511 282.095343 
L 873.530833 222.104711 
L 874.923802 278.101084 
L 875.852448 179.458355 
L 876.316771 244.041537 
L 876.781093 227.174894 
L 878.174062 241.06517 
L 878.638385 225.192486 
L 879.102708 253.715302 
L 879.567031 257.380084 
L 880.031354 272.583056 
L 881.424322 225.667651 
L 881.888645 264.852229 
L 882.352968 223.586913 
L 882.817291 240.7712 
L 883.281614 266.551897 
L 884.674582 206.04386 
L 885.138905 228.985578 
L 885.603228 215.9462 
L 886.067551 247.271981 
L 886.531874 225.488104 
L 887.924842 219.980082 
L 888.389165 271.145145 
L 888.853488 242.798852 
L 889.782134 251.477971 
L 891.175102 237.311616 
L 891.639425 262.126944 
L 892.103748 246.210655 
L 893.032394 271.210707 
L 894.425362 247.311504 
L 894.889685 233.961998 
L 895.354008 260.182045 
L 895.818331 257.857534 
L 896.282654 223.219255 
L 897.675622 259.566778 
L 898.604268 235.051844 
L 899.068591 306.628522 
L 899.532914 264.263467 
L 901.390205 268.896896 
L 901.854528 218.70139 
L 902.318851 264.122439 
L 902.783174 260.623778 
L 904.176142 190.72319 
L 904.640465 242.525101 
L 905.104788 230.960002 
L 905.569111 249.96934 
L 906.033434 238.307579 
L 907.426402 312.123642 
L 907.890725 248.520063 
L 908.355048 311.632317 
L 909.283694 208.768658 
L 910.676662 204.969874 
L 911.140985 241.135365 
L 911.605308 249.347842 
L 912.069631 228.313352 
L 912.533954 248.874926 
L 913.926922 195.091789 
L 914.391245 250.046412 
L 914.855568 196.623716 
L 915.319891 227.679402 
L 915.784214 236.026813 
L 917.177183 240.322148 
L 917.641505 255.033335 
L 918.105828 261.266082 
L 918.570151 223.92257 
L 919.034474 247.241272 
L 920.427443 264.929966 
L 920.891765 249.229861 
L 921.356088 262.978923 
L 921.820411 221.395206 
L 922.284734 234.770635 
L 923.677703 294.331065 
L 924.142025 261.040843 
L 924.606348 308.516672 
L 925.070671 225.239815 
L 925.534994 283.909095 
L 926.927963 223.801747 
L 927.392286 191.484491 
L 927.856608 241.432237 
L 928.320931 196.665552 
L 928.785254 264.420826 
L 930.178223 185.157714 
L 930.642546 218.045102 
L 931.106868 234.478644 
L 931.571191 270.336657 
L 932.035514 212.380891 
L 933.428483 209.668641 
L 933.892806 241.234788 
L 934.357128 258.158763 
L 934.821451 224.604248 
L 935.285774 237.964001 
L 936.678743 212.231175 
L 937.143066 213.35609 
L 937.607388 238.738565 
L 938.536034 223.502171 
L 939.929003 261.768642 
L 940.393326 242.600611 
L 940.857649 243.089902 
L 941.321971 231.481752 
L 941.786294 206.419613 
L 943.179263 245.175812 
L 943.643586 221.772384 
L 944.107909 260.632227 
L 944.572231 220.977636 
L 945.036554 257.465735 
L 946.429523 243.538764 
L 946.893846 216.879656 
L 947.358169 249.650272 
L 947.822491 216.554571 
L 948.286814 251.762604 
L 949.679783 239.532075 
L 950.144106 222.253973 
L 950.608429 221.015376 
L 951.072751 252.121674 
L 952.930043 250.47485 
L 953.394366 280.014391 
L 953.858689 218.279853 
L 954.323012 257.109213 
L 956.180303 252.32414 
L 956.644626 208.706713 
L 957.108949 201.016382 
L 957.573272 189.085663 
L 958.037594 240.412745 
L 959.430563 241.95896 
L 959.894886 210.360308 
L 960.359209 249.166997 
L 960.823532 204.267629 
L 961.287854 268.806708 
L 963.145146 200.633985 
L 963.609469 235.213871 
L 964.073792 250.918788 
L 964.538115 216.07931 
L 965.931083 231.676364 
L 966.395406 252.288989 
L 966.859729 305.382145 
L 967.324052 245.655546 
L 967.788375 264.90499 
L 969.181343 194.825143 
L 970.109989 215.683562 
L 970.574312 204.747229 
L 971.038635 210.01943 
L 972.431603 171.337411 
L 972.895926 217.300079 
L 973.360249 250.263209 
L 973.824572 249.398328 
L 974.288895 238.435172 
L 976.146186 228.126843 
L 976.610509 261.109273 
L 977.074832 286.150072 
L 977.539155 212.896816 
L 978.932123 274.920712 
L 979.396446 305.667974 
L 979.860769 194.691928 
L 980.325092 324.192313 
L 980.789415 266.034174 
L 982.182383 176.059519 
L 982.646706 278.968163 
L 983.111029 281.562725 
L 983.575352 337.718289 
L 984.039675 217.424145 
L 985.432643 243.288724 
L 985.896966 174.581354 
L 986.361289 221.803562 
L 986.825612 183.982441 
L 987.289935 235.651888 
L 988.682903 228.735457 
L 989.147226 279.600023 
L 989.611549 231.305237 
L 990.075872 299.504401 
L 990.540195 221.218701 
L 991.933163 259.219572 
L 992.397486 321.597937 
L 992.861809 307.250839 
L 993.326132 216.370088 
L 993.790455 235.241553 
L 995.183423 302.14751 
L 995.647746 227.881785 
L 996.112069 208.731013 
L 996.576392 212.951853 
L 998.433683 237.64487 
L 998.898006 255.932051 
L 999.362329 280.277632 
L 999.826652 228.284437 
L 1000.290975 259.687162 
L 1001.683944 279.676984 
L 1002.148266 251.191007 
L 1002.612589 239.09191 
L 1003.076912 255.319347 
L 1003.541235 260.774025 
L 1005.398526 286.666248 
L 1005.862849 191.626041 
L 1006.327172 242.367636 
L 1006.791495 214.843723 
L 1008.184464 210.398634 
L 1008.648786 252.890071 
L 1009.113109 239.141617 
L 1009.577432 259.892959 
L 1010.041755 270.134745 
L 1011.434724 244.631341 
L 1011.899046 288.632799 
L 1012.363369 259.103923 
L 1012.827692 272.642964 
L 1013.292015 222.959631 
L 1014.684984 302.784891 
L 1015.149307 248.069724 
L 1015.613629 297.275244 
L 1016.077952 253.434506 
L 1016.542275 189.148623 
L 1017.935244 234.275529 
L 1018.399567 235.209745 
L 1018.863889 257.82938 
L 1019.328212 217.034472 
L 1019.792535 239.331007 
L 1021.185504 249.959273 
L 1021.649827 271.263337 
L 1022.114149 208.888436 
L 1022.578472 221.152505 
L 1023.042795 246.186322 
L 1024.900087 231.727484 
L 1025.828732 255.419102 
L 1026.293055 236.730954 
L 1027.686024 213.156007 
L 1028.150347 226.287096 
L 1028.61467 249.074798 
L 1029.078992 249.301185 
L 1029.543315 237.268181 
L 1030.936284 246.205583 
L 1031.400607 268.65362 
L 1031.86493 250.34846 
L 1032.329252 256.853264 
L 1032.793575 283.244867 
L 1034.186544 230.509204 
L 1034.650867 249.146025 
L 1035.11519 231.346811 
L 1035.579512 220.395308 
L 1036.043835 239.737884 
L 1037.436804 254.07757 
L 1037.901127 260.068259 
L 1038.36545 253.151281 
L 1038.829772 239.852351 
L 1039.294095 268.015532 
L 1041.61571 277.760662 
L 1042.080033 261.585588 
L 1042.544355 205.998432 
L 1043.937324 243.027399 
L 1044.401647 280.178727 
L 1044.86597 287.872147 
L 1045.330293 263.69735 
L 1045.794615 272.075059 
L 1047.187584 267.422328 
L 1047.651907 201.255133 
L 1048.11623 210.755423 
L 1048.580553 272.807442 
L 1049.044875 254.050213 
L 1050.437844 254.612452 
L 1050.902167 276.647987 
L 1051.36649 210.526745 
L 1051.830813 245.620996 
L 1052.295136 260.320671 
L 1053.688104 240.249761 
L 1054.61675 266.919123 
L 1055.081073 211.462768 
L 1055.545396 240.866472 
L 1056.938364 242.690967 
L 1057.402687 253.780004 
L 1057.86701 247.523803 
L 1058.331333 255.084229 
L 1058.795656 275.556696 
L 1060.188624 281.22106 
L 1060.652947 270.445658 
L 1061.11727 253.694681 
L 1061.581593 282.139579 
L 1062.045916 213.853178 
L 1063.438884 195.219164 
L 1063.903207 224.536743 
L 1064.36753 237.628781 
L 1064.831853 259.102769 
L 1065.296176 200.385115 
L 1066.689144 251.35202 
L 1067.153467 229.055236 
L 1067.61779 236.338118 
L 1068.082113 229.603242 
L 1068.546436 259.321716 
L 1070.403727 258.935741 
L 1070.86805 275.493522 
L 1071.332373 241.030881 
L 1071.796696 262.999437 
L 1073.189664 252.528864 
L 1073.653987 281.26514 
L 1074.11831 232.949446 
L 1074.582633 242.210023 
L 1075.046956 239.505342 
L 1076.439924 308.216247 
L 1076.904247 236.64084 
L 1077.36857 222.880216 
L 1077.832893 213.788147 
L 1078.297216 260.019046 
L 1079.690184 222.736229 
L 1080.154507 297.53146 
L 1080.61883 267.596954 
L 1081.547476 232.536459 
L 1082.940444 286.68474 
L 1083.404767 242.753835 
L 1083.86909 263.735227 
L 1084.333413 221.493922 
L 1084.797736 261.634612 
L 1086.190704 254.623072 
L 1086.655027 232.272414 
L 1087.11935 235.294868 
L 1087.583673 230.851973 
L 1088.047996 258.006569 
L 1089.440965 255.812695 
L 1089.905287 234.707113 
L 1090.36961 240.972852 
L 1090.833933 242.125007 
L 1091.298256 260.912161 
L 1092.691225 232.969079 
L 1093.155547 249.757477 
L 1093.61987 279.830065 
L 1094.084193 210.943315 
L 1094.548516 248.138065 
L 1095.941485 195.135147 
L 1096.405807 245.498859 
L 1096.87013 216.865461 
L 1097.334453 253.69977 
L 1097.798776 240.788596 
L 1099.191745 235.075555 
L 1100.12039 283.530335 
L 1100.584713 235.237727 
L 1101.049036 240.66311 
L 1102.442005 262.119258 
L 1102.906328 255.815462 
L 1103.37065 274.562541 
L 1103.834973 284.660438 
L 1104.299296 263.154202 
L 1105.692265 283.039674 
L 1106.156588 258.238475 
L 1106.62091 225.149619 
L 1107.549556 298.749703 
L 1108.942525 264.975811 
L 1109.406848 270.260386 
L 1109.87117 306.397033 
L 1110.335493 215.569443 
L 1110.799816 309.971231 
L 1112.192785 223.322892 
L 1112.657108 179.120219 
L 1113.12143 218.801292 
L 1113.585753 296.590492 
L 1114.050076 265.830669 
L 1115.443045 280.710375 
L 1115.907368 281.716981 
L 1116.371691 216.743258 
L 1116.836013 283.238296 
L 1117.300336 219.962599 
L 1118.693305 278.761494 
L 1119.157628 197.725395 
L 1119.621951 234.108009 
L 1120.086273 221.285796 
L 1121.943565 256.781942 
L 1122.407888 275.792721 
L 1122.872211 264.001011 
L 1123.336533 223.786705 
L 1123.800856 254.716787 
L 1125.193825 197.915007 
L 1125.658148 272.720427 
L 1126.122471 325.514466 
L 1126.586794 251.531228 
L 1127.051116 266.902787 
L 1128.444085 261.838913 
L 1128.908408 218.049848 
L 1129.372731 270.864447 
L 1129.837054 287.552362 
L 1130.301376 246.36424 
L 1132.158668 315.210856 
L 1132.622991 274.694697 
L 1133.087314 281.392616 
L 1133.551636 304.091298 
L 1134.944605 228.187707 
L 1135.408928 261.696866 
L 1135.873251 275.523403 
L 1136.337574 310.259081 
L 1136.801896 205.521097 
L 1138.194865 150.971905 
L 1138.659188 211.598498 
L 1139.123511 292.65984 
L 1139.587834 298.931876 
L 1140.052157 218.188246 
L 1141.445125 232.78152 
L 1141.909448 225.462664 
L 1142.373771 198.620323 
L 1142.838094 280.97542 
L 1143.302417 286.444944 
L 1144.695385 270.0204 
L 1145.159708 175.88547 
L 1146.088354 308.707185 
L 1146.552677 275.400446 
L 1148.409968 286.117908 
L 1148.874291 293.500845 
L 1149.338614 188.10724 
L 1149.802937 209.561675 
L 1151.195905 240.465307 
L 1151.660228 279.463421 
L 1152.124551 217.299066 
L 1152.588874 286.364335 
L 1153.053197 290.384132 
L 1154.446165 289.93826 
L 1155.374811 172.090468 
L 1155.839134 260.914747 
L 1156.303457 296.224807 
L 1157.696425 314.303783 
L 1158.160748 75.495696 
L 1158.625071 166.728541 
L 1158.625071 166.728541 
" clip-path="url(#p387161398d)" style="fill: none; stroke: #000000; stroke-width: 0.7; stroke-linecap: square"/>
   </g>
   <g id="line2d_18">
    <path d="M 445.889477 526.260937 
L 445.889477 36.660937 
" clip-path="url(#p387161398d)" style="fill: none; stroke: #ff0000; stroke-linecap: square"/>
   </g>
   <g id="line2d_19">
    <path d="M 812.704538 526.260937 
L 812.704538 36.660937 
" clip-path="url(#p387161398d)" style="fill: none; stroke: #ff0000; stroke-linecap: square"/>
   </g>
   <g id="line2d_20">
    <path d="M 1123.800856 526.260937 
L 1123.800856 36.660937 
" clip-path="url(#p387161398d)" style="fill: none; stroke: #ff0000; stroke-linecap: square"/>
   </g>
   <g id="patch_3">
    <path d="M 93.352344 526.260937 
L 93.352344 36.660937 
" style="fill: none; stroke: #000000; stroke-width: 0.8; stroke-linejoin: miter; stroke-linecap: square"/>
   </g>
   <g id="patch_4">
    <path d="M 1209.352344 526.260937 
L 1209.352344 36.660937 
" style="fill: none; stroke: #000000; stroke-width: 0.8; stroke-linejoin: miter; stroke-linecap: square"/>
   </g>
   <g id="patch_5">
    <path d="M 93.352344 526.260937 
L 1209.352344 526.260937 
" style="fill: none; stroke: #000000; stroke-width: 0.8; stroke-linejoin: miter; stroke-linecap: square"/>
   </g>
   <g id="patch_6">
    <path d="M 93.352344 36.660937 
L 1209.352344 36.660937 
" style="fill: none; stroke: #000000; stroke-width: 0.8; stroke-linejoin: miter; stroke-linecap: square"/>
   </g>
   <g id="text_19">
    <!-- Mean Daily Returns Over Time -->
    <g transform="translate(415.2875 29.995312)scale(0.3 -0.3)">
     <defs>
      <path id="DejaVuSerif-4f" d="M 2625 244 
Q 3391 244 3781 770 
Q 4172 1297 4172 2328 
Q 4172 3363 3781 3889 
Q 3391 4416 2625 4416 
Q 1856 4416 1465 3889 
Q 1075 3363 1075 2328 
Q 1075 1297 1465 770 
Q 1856 244 2625 244 
z
M 2625 -91 
Q 2150 -91 1751 65 
Q 1353 222 1050 525 
Q 700 875 529 1319 
Q 359 1763 359 2328 
Q 359 2894 529 3339 
Q 700 3784 1050 4134 
Q 1356 4441 1750 4595 
Q 2144 4750 2625 4750 
Q 3641 4750 4266 4084 
Q 4891 3419 4891 2328 
Q 4891 1769 4719 1320 
Q 4547 872 4197 525 
Q 3891 219 3497 64 
Q 3103 -91 2625 -91 
z
" transform="scale(0.015625)"/>
      <path id="DejaVuSerif-76" d="M 1581 0 
L 359 2988 
L -19 2988 
L -19 3322 
L 1509 3322 
L 1509 2988 
L 978 2988 
L 1913 703 
L 2847 2988 
L 2350 2988 
L 2350 3322 
L 3597 3322 
L 3597 2988 
L 3225 2988 
L 2003 0 
L 1581 0 
z
" transform="scale(0.015625)"/>
     </defs>
     <use xlink:href="#DejaVuSerif-4d"/>
     <use xlink:href="#DejaVuSerif-65" x="102.392578"/>
     <use xlink:href="#DejaVuSerif-61" x="161.572266"/>
     <use xlink:href="#DejaVuSerif-6e" x="221.191406"/>
     <use xlink:href="#DejaVuSerif-20" x="285.595703"/>
     <use xlink:href="#DejaVuSerif-44" x="317.382812"/>
     <use xlink:href="#DejaVuSerif-61" x="397.558594"/>
     <use xlink:href="#DejaVuSerif-69" x="457.177734"/>
     <use xlink:href="#DejaVuSerif-6c" x="489.160156"/>
     <use xlink:href="#DejaVuSerif-79" x="521.142578"/>
     <use xlink:href="#DejaVuSerif-20" x="577.636719"/>
     <use xlink:href="#DejaVuSerif-52" x="609.423828"/>
     <use xlink:href="#DejaVuSerif-65" x="684.716797"/>
     <use xlink:href="#DejaVuSerif-74" x="743.896484"/>
     <use xlink:href="#DejaVuSerif-75" x="784.082031"/>
     <use xlink:href="#DejaVuSerif-72" x="848.486328"/>
     <use xlink:href="#DejaVuSerif-6e" x="896.289062"/>
     <use xlink:href="#DejaVuSerif-73" x="960.693359"/>
     <use xlink:href="#DejaVuSerif-20" x="1012.011719"/>
     <use xlink:href="#DejaVuSerif-4f" x="1043.798828"/>
     <use xlink:href="#DejaVuSerif-76" x="1125.78125"/>
     <use xlink:href="#DejaVuSerif-65" x="1182.275391"/>
     <use xlink:href="#DejaVuSerif-72" x="1241.455078"/>
     <use xlink:href="#DejaVuSerif-20" x="1289.257812"/>
     <use xlink:href="#DejaVuSerif-54" x="1321.044922"/>
     <use xlink:href="#DejaVuSerif-69" x="1387.744141"/>
     <use xlink:href="#DejaVuSerif-6d" x="1419.726562"/>
     <use xlink:href="#DejaVuSerif-65" x="1514.550781"/>
    </g>
   </g>
  </g>
 </g>
 <defs>
  <clipPath id="p387161398d">
   <rect x="93.352344" y="36.660937" width="1116" height="489.6"/>
  </clipPath>
 </defs>
</svg>
